M48
; DRILL file {KiCad (5.1.10)-1} date 06/24/21 16:13:37
; FORMAT={-:-/ absolute / metric / decimal}
; #@! TF.CreationDate,2021-06-24T16:13:37-07:00
; #@! TF.GenerationSoftware,Kicad,Pcbnew,(5.1.10)-1
FMAT,2
METRIC
T1C0.400
T2C0.500
T3C0.650
T4C0.700
T5C1.200
T6C3.200
T7C0.900
%
G90
G05
T1
X109.0Y-122.4
X110.72Y-124.8
X111.7Y-117.8
X112.05Y-120.2
X112.6Y-126.7
X112.7Y-118.7
X113.1Y-116.3
X113.2Y-123.8
X113.325Y-127.45
X113.6Y-118.2
X114.4Y-123.8
X114.425Y-119.9
X115.575Y-117.2
X117.8Y-130.6
X118.025Y-114.675
X118.6Y-113.7
X119.2Y-111.5
X119.5Y-131.35
X119.7Y-115.4
X122.8Y-111.5
X123.4Y-113.7
X125.0Y-131.3
X126.7Y-130.5
X126.943Y-117.193
X126.95Y-113.4
X127.4Y-109.4
X128.7Y-130.9
X129.8Y-130.9
X130.3Y-118.6
X130.4Y-120.0
X131.1Y-122.6
X131.1Y-123.5
X131.2Y-132.3
X131.4Y-129.0
X131.4Y-129.9
X131.9Y-109.2
X133.75Y-117.95
X134.9Y-129.0
X134.9Y-129.9
X135.2Y-132.3
X135.4Y-111.66
X135.4Y-114.2
X135.4Y-115.47
X137.1Y-130.9
X137.8Y-110.4
X137.8Y-111.3
X138.0Y-113.5
X138.2Y-132.3
X138.6Y-120.1
X138.7Y-110.4
X138.7Y-111.3
X138.9Y-128.6
X139.1Y-130.8
X139.9Y-126.4
X140.0Y-121.6
X140.0Y-131.6
X143.3Y-128.3
X144.2Y-119.1
X144.2Y-120.9
X144.3Y-126.1
X144.3Y-127.9
X144.3Y-129.1
X145.8Y-117.5
X145.8Y-128.0
X146.7Y-114.6
T2
X106.6Y-108.0
X106.6Y-137.0
X107.303Y-106.303
X107.303Y-109.697
X107.303Y-135.303
X107.303Y-138.697
X109.0Y-105.6
X109.0Y-110.4
X109.0Y-134.6
X109.0Y-139.4
X110.697Y-106.303
X110.697Y-109.697
X110.697Y-135.303
X110.697Y-138.697
X111.4Y-108.0
X111.4Y-137.0
X116.2Y-136.0
X117.45Y-136.0
X118.7Y-136.0
X119.125Y-109.0
X119.95Y-136.0
X120.375Y-109.0
X121.2Y-136.0
X121.625Y-109.0
X122.45Y-136.0
X122.875Y-109.0
X126.75Y-136.0
X128.0Y-136.0
X129.25Y-136.0
X130.5Y-136.0
X147.6Y-108.0
X147.6Y-137.0
X148.303Y-106.303
X148.303Y-109.697
X148.303Y-135.303
X148.303Y-138.697
X150.0Y-105.6
X150.0Y-110.4
X150.0Y-134.6
X150.0Y-139.4
X151.697Y-106.303
X151.697Y-109.697
X151.697Y-135.303
X151.697Y-138.697
X152.4Y-108.0
X152.4Y-137.0
T5
X149.25Y-120.9
X149.25Y-124.4
T6
X109.0Y-108.0
X109.0Y-137.0
X150.0Y-108.0
X150.0Y-137.0
T7
X129.0Y-107.07
X132.0Y-107.07
T3
G00X137.605Y-108.685
M15
G01X137.605Y-109.085
M16
G05
G00X142.445Y-108.685
M15
G01X142.445Y-109.085
M16
G05
T4
G00X137.295Y-105.635
M15
G01X137.295Y-106.135
M16
G05
G00X142.755Y-105.635
M15
G01X142.755Y-106.135
M16
G05
T0
M30
