%TF.GenerationSoftware,KiCad,Pcbnew,(5.1.10)-1*%
%TF.CreationDate,2021-06-24T14:57:30-07:00*%
%TF.ProjectId,stm32l476rg,73746d33-326c-4343-9736-72672e6b6963,rev?*%
%TF.SameCoordinates,Original*%
%TF.FileFunction,Soldermask,Bot*%
%TF.FilePolarity,Negative*%
%FSLAX46Y46*%
G04 Gerber Fmt 4.6, Leading zero omitted, Abs format (unit mm)*
G04 Created by KiCad (PCBNEW (5.1.10)-1) date 2021-06-24 14:57:30*
%MOMM*%
%LPD*%
G01*
G04 APERTURE LIST*
%ADD10O,1.100000X1.500000*%
%ADD11O,1.350000X1.700000*%
%ADD12C,0.800000*%
%ADD13C,6.400000*%
%ADD14O,0.800000X1.300000*%
%ADD15R,2.400000X2.400000*%
%ADD16C,2.400000*%
%ADD17C,0.900000*%
G04 APERTURE END LIST*
D10*
%TO.C,J5*%
X142445000Y-108885000D03*
X137605000Y-108885000D03*
D11*
X142755000Y-105885000D03*
X137295000Y-105885000D03*
%TD*%
D12*
%TO.C,H1*%
X110697056Y-106302944D03*
X109000000Y-105600000D03*
X107302944Y-106302944D03*
X106600000Y-108000000D03*
X107302944Y-109697056D03*
X109000000Y-110400000D03*
X110697056Y-109697056D03*
X111400000Y-108000000D03*
D13*
X109000000Y-108000000D03*
%TD*%
D12*
%TO.C,H2*%
X151697056Y-106302944D03*
X150000000Y-105600000D03*
X148302944Y-106302944D03*
X147600000Y-108000000D03*
X148302944Y-109697056D03*
X150000000Y-110400000D03*
X151697056Y-109697056D03*
X152400000Y-108000000D03*
D13*
X150000000Y-108000000D03*
%TD*%
%TO.C,H3*%
X109000000Y-137000000D03*
D12*
X111400000Y-137000000D03*
X110697056Y-138697056D03*
X109000000Y-139400000D03*
X107302944Y-138697056D03*
X106600000Y-137000000D03*
X107302944Y-135302944D03*
X109000000Y-134600000D03*
X110697056Y-135302944D03*
%TD*%
%TO.C,H4*%
X151697056Y-135302944D03*
X150000000Y-134600000D03*
X148302944Y-135302944D03*
X147600000Y-137000000D03*
X148302944Y-138697056D03*
X150000000Y-139400000D03*
X151697056Y-138697056D03*
X152400000Y-137000000D03*
D13*
X150000000Y-137000000D03*
%TD*%
D14*
%TO.C,J1*%
X130500000Y-136000000D03*
X129250000Y-136000000D03*
X128000000Y-136000000D03*
G36*
G01*
X126350000Y-136450000D02*
X126350000Y-135550000D01*
G75*
G02*
X126550000Y-135350000I200000J0D01*
G01*
X126950000Y-135350000D01*
G75*
G02*
X127150000Y-135550000I0J-200000D01*
G01*
X127150000Y-136450000D01*
G75*
G02*
X126950000Y-136650000I-200000J0D01*
G01*
X126550000Y-136650000D01*
G75*
G02*
X126350000Y-136450000I0J200000D01*
G01*
G37*
%TD*%
%TO.C,J2*%
G36*
G01*
X123275000Y-108550000D02*
X123275000Y-109450000D01*
G75*
G02*
X123075000Y-109650000I-200000J0D01*
G01*
X122675000Y-109650000D01*
G75*
G02*
X122475000Y-109450000I0J200000D01*
G01*
X122475000Y-108550000D01*
G75*
G02*
X122675000Y-108350000I200000J0D01*
G01*
X123075000Y-108350000D01*
G75*
G02*
X123275000Y-108550000I0J-200000D01*
G01*
G37*
X121625000Y-109000000D03*
X120375000Y-109000000D03*
X119125000Y-109000000D03*
%TD*%
%TO.C,J3*%
G36*
G01*
X115800000Y-136450000D02*
X115800000Y-135550000D01*
G75*
G02*
X116000000Y-135350000I200000J0D01*
G01*
X116400000Y-135350000D01*
G75*
G02*
X116600000Y-135550000I0J-200000D01*
G01*
X116600000Y-136450000D01*
G75*
G02*
X116400000Y-136650000I-200000J0D01*
G01*
X116000000Y-136650000D01*
G75*
G02*
X115800000Y-136450000I0J200000D01*
G01*
G37*
X117450000Y-136000000D03*
X118700000Y-136000000D03*
X119950000Y-136000000D03*
X121200000Y-136000000D03*
X122450000Y-136000000D03*
%TD*%
D15*
%TO.C,J6*%
X149250000Y-124400000D03*
D16*
X149250000Y-120900000D03*
%TD*%
D17*
%TO.C,SW1*%
X129000000Y-107070000D03*
X132000000Y-107070000D03*
%TD*%
M02*
