%TF.GenerationSoftware,KiCad,Pcbnew,(5.1.10)-1*%
%TF.CreationDate,2021-06-24T16:14:03-07:00*%
%TF.ProjectId,stm32l476rg,73746d33-326c-4343-9736-72672e6b6963,rev?*%
%TF.SameCoordinates,Original*%
%TF.FileFunction,Copper,L2,Inr*%
%TF.FilePolarity,Positive*%
%FSLAX46Y46*%
G04 Gerber Fmt 4.6, Leading zero omitted, Abs format (unit mm)*
G04 Created by KiCad (PCBNEW (5.1.10)-1) date 2021-06-24 16:14:03*
%MOMM*%
%LPD*%
G01*
G04 APERTURE LIST*
%TA.AperFunction,ComponentPad*%
%ADD10O,1.100000X1.500000*%
%TD*%
%TA.AperFunction,ComponentPad*%
%ADD11O,1.350000X1.700000*%
%TD*%
%TA.AperFunction,ComponentPad*%
%ADD12C,0.800000*%
%TD*%
%TA.AperFunction,ComponentPad*%
%ADD13C,6.400000*%
%TD*%
%TA.AperFunction,ComponentPad*%
%ADD14O,0.800000X1.300000*%
%TD*%
%TA.AperFunction,ComponentPad*%
%ADD15R,2.400000X2.400000*%
%TD*%
%TA.AperFunction,ComponentPad*%
%ADD16C,2.400000*%
%TD*%
%TA.AperFunction,ViaPad*%
%ADD17C,0.800000*%
%TD*%
%TA.AperFunction,Conductor*%
%ADD18C,0.254000*%
%TD*%
%TA.AperFunction,Conductor*%
%ADD19C,0.100000*%
%TD*%
G04 APERTURE END LIST*
D10*
%TO.N,Net-(J5-Pad6)*%
%TO.C,J5*%
X142445000Y-108885000D03*
X137605000Y-108885000D03*
D11*
X142755000Y-105885000D03*
X137295000Y-105885000D03*
%TD*%
D12*
%TO.N,GND*%
%TO.C,H1*%
X110697056Y-106302944D03*
X109000000Y-105600000D03*
X107302944Y-106302944D03*
X106600000Y-108000000D03*
X107302944Y-109697056D03*
X109000000Y-110400000D03*
X110697056Y-109697056D03*
X111400000Y-108000000D03*
D13*
X109000000Y-108000000D03*
%TD*%
D12*
%TO.N,GND*%
%TO.C,H2*%
X151697056Y-106302944D03*
X150000000Y-105600000D03*
X148302944Y-106302944D03*
X147600000Y-108000000D03*
X148302944Y-109697056D03*
X150000000Y-110400000D03*
X151697056Y-109697056D03*
X152400000Y-108000000D03*
D13*
X150000000Y-108000000D03*
%TD*%
%TO.N,GND*%
%TO.C,H3*%
X109000000Y-137000000D03*
D12*
X111400000Y-137000000D03*
X110697056Y-138697056D03*
X109000000Y-139400000D03*
X107302944Y-138697056D03*
X106600000Y-137000000D03*
X107302944Y-135302944D03*
X109000000Y-134600000D03*
X110697056Y-135302944D03*
%TD*%
%TO.N,GND*%
%TO.C,H4*%
X151697056Y-135302944D03*
X150000000Y-134600000D03*
X148302944Y-135302944D03*
X147600000Y-137000000D03*
X148302944Y-138697056D03*
X150000000Y-139400000D03*
X151697056Y-138697056D03*
X152400000Y-137000000D03*
D13*
X150000000Y-137000000D03*
%TD*%
D14*
%TO.N,GND*%
%TO.C,J1*%
X130500000Y-136000000D03*
%TO.N,UART3_RX*%
X129250000Y-136000000D03*
%TO.N,UART3_TX*%
X128000000Y-136000000D03*
%TO.N,+3V3*%
%TA.AperFunction,ComponentPad*%
G36*
G01*
X126350000Y-136450000D02*
X126350000Y-135550000D01*
G75*
G02*
X126550000Y-135350000I200000J0D01*
G01*
X126950000Y-135350000D01*
G75*
G02*
X127150000Y-135550000I0J-200000D01*
G01*
X127150000Y-136450000D01*
G75*
G02*
X126950000Y-136650000I-200000J0D01*
G01*
X126550000Y-136650000D01*
G75*
G02*
X126350000Y-136450000I0J200000D01*
G01*
G37*
%TD.AperFunction*%
%TD*%
%TO.N,+3V3*%
%TO.C,J2*%
%TA.AperFunction,ComponentPad*%
G36*
G01*
X123275000Y-108550000D02*
X123275000Y-109450000D01*
G75*
G02*
X123075000Y-109650000I-200000J0D01*
G01*
X122675000Y-109650000D01*
G75*
G02*
X122475000Y-109450000I0J200000D01*
G01*
X122475000Y-108550000D01*
G75*
G02*
X122675000Y-108350000I200000J0D01*
G01*
X123075000Y-108350000D01*
G75*
G02*
X123275000Y-108550000I0J-200000D01*
G01*
G37*
%TD.AperFunction*%
%TO.N,I2C1_SCL*%
X121625000Y-109000000D03*
%TO.N,I2C1_SDA*%
X120375000Y-109000000D03*
%TO.N,GND*%
X119125000Y-109000000D03*
%TD*%
%TO.N,+3V3*%
%TO.C,J3*%
%TA.AperFunction,ComponentPad*%
G36*
G01*
X115800000Y-136450000D02*
X115800000Y-135550000D01*
G75*
G02*
X116000000Y-135350000I200000J0D01*
G01*
X116400000Y-135350000D01*
G75*
G02*
X116600000Y-135550000I0J-200000D01*
G01*
X116600000Y-136450000D01*
G75*
G02*
X116400000Y-136650000I-200000J0D01*
G01*
X116000000Y-136650000D01*
G75*
G02*
X115800000Y-136450000I0J200000D01*
G01*
G37*
%TD.AperFunction*%
%TO.N,SPI1_CS1*%
X117450000Y-136000000D03*
%TO.N,SPI1_SCK*%
X118700000Y-136000000D03*
%TO.N,SPI1_MISO*%
X119950000Y-136000000D03*
%TO.N,SPI1_MOSI*%
X121200000Y-136000000D03*
%TO.N,GND*%
X122450000Y-136000000D03*
%TD*%
D15*
%TO.N,+9V*%
%TO.C,J6*%
X149250000Y-124400000D03*
D16*
%TO.N,GND*%
X149250000Y-120900000D03*
%TD*%
D17*
%TO.N,GND*%
X135400000Y-111660000D03*
X135400000Y-114200000D03*
X135400000Y-115470000D03*
X145800000Y-128000000D03*
X145800000Y-117500000D03*
X113600000Y-118200000D03*
X113100000Y-116300000D03*
X127400000Y-109400000D03*
X113200000Y-123800000D03*
X114400000Y-123800000D03*
X117800000Y-130600000D03*
X125000000Y-131300000D03*
X138700000Y-110400000D03*
X138700000Y-111300000D03*
X137800000Y-111300000D03*
X137800000Y-110400000D03*
X131100000Y-122600000D03*
X131100000Y-123500000D03*
X138600000Y-120100000D03*
X140000000Y-121600000D03*
X144200000Y-119100000D03*
X144300000Y-127900000D03*
X143300000Y-128300000D03*
X144200000Y-120900000D03*
X144300000Y-126100000D03*
X144300000Y-129100000D03*
X128700000Y-130900000D03*
X129800000Y-130900000D03*
X137100000Y-130900000D03*
X138200000Y-132300000D03*
X139900000Y-126400000D03*
X138900000Y-128600000D03*
X119700000Y-115400000D03*
X138000000Y-113500000D03*
X130400000Y-120000000D03*
X109000000Y-122400000D03*
X112050000Y-120200000D03*
X111700000Y-117800000D03*
X112700000Y-118700000D03*
X110720000Y-124800000D03*
%TO.N,+3V3*%
X118600000Y-113700000D03*
X123400000Y-113700000D03*
X133750000Y-117950000D03*
X131900000Y-109200000D03*
X146700000Y-114600000D03*
X139100000Y-130800000D03*
X140000000Y-131600000D03*
X135200000Y-132300000D03*
X131200000Y-132300000D03*
X134900000Y-129000000D03*
X134900000Y-129900000D03*
X131400000Y-129000000D03*
X131400000Y-129900000D03*
X113325000Y-127450000D03*
X112600000Y-126700000D03*
X115575000Y-117200000D03*
X119500000Y-131350000D03*
X126700000Y-130500000D03*
X114425000Y-119900000D03*
X118025000Y-114675000D03*
X130300000Y-118600000D03*
%TO.N,NRST*%
X126942831Y-117192831D03*
X126950000Y-113400000D03*
%TO.N,BOOT0*%
X119200000Y-111500000D03*
X122800000Y-111500000D03*
%TD*%
D18*
%TO.N,GND*%
X149272062Y-104215822D02*
X148547792Y-104430548D01*
X147879330Y-104782445D01*
X147838912Y-104809452D01*
X147478724Y-105299119D01*
X150000000Y-107820395D01*
X150014143Y-107806253D01*
X150193748Y-107985858D01*
X150179605Y-108000000D01*
X152700881Y-110521276D01*
X153190548Y-110161088D01*
X153550849Y-109497118D01*
X153774694Y-108775615D01*
X153840000Y-108152851D01*
X153840001Y-136877996D01*
X153784178Y-136272062D01*
X153569452Y-135547792D01*
X153217555Y-134879330D01*
X153190548Y-134838912D01*
X152700881Y-134478724D01*
X150179605Y-137000000D01*
X150193748Y-137014143D01*
X150014143Y-137193748D01*
X150000000Y-137179605D01*
X147478724Y-139700881D01*
X147838912Y-140190548D01*
X148502882Y-140550849D01*
X149224385Y-140774694D01*
X149847149Y-140840000D01*
X109122015Y-140840000D01*
X109727938Y-140784178D01*
X110452208Y-140569452D01*
X111120670Y-140217555D01*
X111161088Y-140190548D01*
X111521276Y-139700881D01*
X109000000Y-137179605D01*
X108985858Y-137193748D01*
X108806253Y-137014143D01*
X108820395Y-137000000D01*
X109179605Y-137000000D01*
X111700881Y-139521276D01*
X112190548Y-139161088D01*
X112550849Y-138497118D01*
X112774694Y-137775615D01*
X112853480Y-137024305D01*
X112784178Y-136272062D01*
X112570107Y-135550000D01*
X115161928Y-135550000D01*
X115161928Y-136450000D01*
X115178031Y-136613500D01*
X115225722Y-136770716D01*
X115303169Y-136915608D01*
X115407394Y-137042606D01*
X115534392Y-137146831D01*
X115679284Y-137224278D01*
X115836500Y-137271969D01*
X116000000Y-137288072D01*
X116400000Y-137288072D01*
X116563500Y-137271969D01*
X116720716Y-137224278D01*
X116865608Y-137146831D01*
X116891894Y-137125259D01*
X117052008Y-137210841D01*
X117247106Y-137270024D01*
X117450000Y-137290007D01*
X117652895Y-137270024D01*
X117847993Y-137210841D01*
X118027797Y-137114734D01*
X118075001Y-137075995D01*
X118122204Y-137114734D01*
X118302008Y-137210841D01*
X118497106Y-137270024D01*
X118700000Y-137290007D01*
X118902895Y-137270024D01*
X119097993Y-137210841D01*
X119277797Y-137114734D01*
X119325001Y-137075995D01*
X119372204Y-137114734D01*
X119552008Y-137210841D01*
X119747106Y-137270024D01*
X119950000Y-137290007D01*
X120152895Y-137270024D01*
X120347993Y-137210841D01*
X120527797Y-137114734D01*
X120575001Y-137075995D01*
X120622204Y-137114734D01*
X120802008Y-137210841D01*
X120997106Y-137270024D01*
X121200000Y-137290007D01*
X121402895Y-137270024D01*
X121597993Y-137210841D01*
X121777797Y-137114734D01*
X121817938Y-137081791D01*
X121901840Y-137145255D01*
X122087028Y-137234994D01*
X122163877Y-137244666D01*
X122323000Y-137116998D01*
X122323000Y-136127000D01*
X122577000Y-136127000D01*
X122577000Y-137116998D01*
X122736123Y-137244666D01*
X122812972Y-137234994D01*
X122998160Y-137145255D01*
X123162283Y-137021112D01*
X123299033Y-136867336D01*
X123403155Y-136689836D01*
X123470648Y-136495433D01*
X123498918Y-136291599D01*
X123333762Y-136127000D01*
X122577000Y-136127000D01*
X122323000Y-136127000D01*
X122303000Y-136127000D01*
X122303000Y-135873000D01*
X122323000Y-135873000D01*
X122323000Y-134883002D01*
X122577000Y-134883002D01*
X122577000Y-135873000D01*
X123333762Y-135873000D01*
X123498918Y-135708401D01*
X123476950Y-135550000D01*
X125711928Y-135550000D01*
X125711928Y-136450000D01*
X125728031Y-136613500D01*
X125775722Y-136770716D01*
X125853169Y-136915608D01*
X125957394Y-137042606D01*
X126084392Y-137146831D01*
X126229284Y-137224278D01*
X126386500Y-137271969D01*
X126550000Y-137288072D01*
X126950000Y-137288072D01*
X127113500Y-137271969D01*
X127270716Y-137224278D01*
X127415608Y-137146831D01*
X127441894Y-137125259D01*
X127602008Y-137210841D01*
X127797106Y-137270024D01*
X128000000Y-137290007D01*
X128202895Y-137270024D01*
X128397993Y-137210841D01*
X128577797Y-137114734D01*
X128625001Y-137075995D01*
X128672204Y-137114734D01*
X128852008Y-137210841D01*
X129047106Y-137270024D01*
X129250000Y-137290007D01*
X129452895Y-137270024D01*
X129647993Y-137210841D01*
X129827797Y-137114734D01*
X129867938Y-137081791D01*
X129951840Y-137145255D01*
X130137028Y-137234994D01*
X130213877Y-137244666D01*
X130373000Y-137116998D01*
X130373000Y-136127000D01*
X130627000Y-136127000D01*
X130627000Y-137116998D01*
X130786123Y-137244666D01*
X130862972Y-137234994D01*
X131048160Y-137145255D01*
X131212283Y-137021112D01*
X131252671Y-136975695D01*
X146146520Y-136975695D01*
X146215822Y-137727938D01*
X146430548Y-138452208D01*
X146782445Y-139120670D01*
X146809452Y-139161088D01*
X147299119Y-139521276D01*
X149820395Y-137000000D01*
X147299119Y-134478724D01*
X146809452Y-134838912D01*
X146449151Y-135502882D01*
X146225306Y-136224385D01*
X146146520Y-136975695D01*
X131252671Y-136975695D01*
X131349033Y-136867336D01*
X131453155Y-136689836D01*
X131520648Y-136495433D01*
X131548918Y-136291599D01*
X131383762Y-136127000D01*
X130627000Y-136127000D01*
X130373000Y-136127000D01*
X130353000Y-136127000D01*
X130353000Y-135873000D01*
X130373000Y-135873000D01*
X130373000Y-134883002D01*
X130627000Y-134883002D01*
X130627000Y-135873000D01*
X131383762Y-135873000D01*
X131548918Y-135708401D01*
X131520648Y-135504567D01*
X131453155Y-135310164D01*
X131349033Y-135132664D01*
X131212283Y-134978888D01*
X131048160Y-134854745D01*
X130862972Y-134765006D01*
X130786123Y-134755334D01*
X130627000Y-134883002D01*
X130373000Y-134883002D01*
X130213877Y-134755334D01*
X130137028Y-134765006D01*
X129951840Y-134854745D01*
X129867938Y-134918209D01*
X129827797Y-134885266D01*
X129647992Y-134789159D01*
X129452894Y-134729976D01*
X129250000Y-134709993D01*
X129047105Y-134729976D01*
X128852007Y-134789159D01*
X128672203Y-134885266D01*
X128625000Y-134924004D01*
X128577797Y-134885266D01*
X128397992Y-134789159D01*
X128202894Y-134729976D01*
X128000000Y-134709993D01*
X127797105Y-134729976D01*
X127602007Y-134789159D01*
X127441894Y-134874741D01*
X127415608Y-134853169D01*
X127270716Y-134775722D01*
X127113500Y-134728031D01*
X126950000Y-134711928D01*
X126550000Y-134711928D01*
X126386500Y-134728031D01*
X126229284Y-134775722D01*
X126084392Y-134853169D01*
X125957394Y-134957394D01*
X125853169Y-135084392D01*
X125775722Y-135229284D01*
X125728031Y-135386500D01*
X125711928Y-135550000D01*
X123476950Y-135550000D01*
X123470648Y-135504567D01*
X123403155Y-135310164D01*
X123299033Y-135132664D01*
X123162283Y-134978888D01*
X122998160Y-134854745D01*
X122812972Y-134765006D01*
X122736123Y-134755334D01*
X122577000Y-134883002D01*
X122323000Y-134883002D01*
X122163877Y-134755334D01*
X122087028Y-134765006D01*
X121901840Y-134854745D01*
X121817938Y-134918209D01*
X121777797Y-134885266D01*
X121597992Y-134789159D01*
X121402894Y-134729976D01*
X121200000Y-134709993D01*
X120997105Y-134729976D01*
X120802007Y-134789159D01*
X120622203Y-134885266D01*
X120575000Y-134924004D01*
X120527797Y-134885266D01*
X120347992Y-134789159D01*
X120152894Y-134729976D01*
X119950000Y-134709993D01*
X119747105Y-134729976D01*
X119552007Y-134789159D01*
X119372203Y-134885266D01*
X119325000Y-134924004D01*
X119277797Y-134885266D01*
X119097992Y-134789159D01*
X118902894Y-134729976D01*
X118700000Y-134709993D01*
X118497105Y-134729976D01*
X118302007Y-134789159D01*
X118122203Y-134885266D01*
X118075000Y-134924004D01*
X118027797Y-134885266D01*
X117847992Y-134789159D01*
X117652894Y-134729976D01*
X117450000Y-134709993D01*
X117247105Y-134729976D01*
X117052007Y-134789159D01*
X116891894Y-134874741D01*
X116865608Y-134853169D01*
X116720716Y-134775722D01*
X116563500Y-134728031D01*
X116400000Y-134711928D01*
X116000000Y-134711928D01*
X115836500Y-134728031D01*
X115679284Y-134775722D01*
X115534392Y-134853169D01*
X115407394Y-134957394D01*
X115303169Y-135084392D01*
X115225722Y-135229284D01*
X115178031Y-135386500D01*
X115161928Y-135550000D01*
X112570107Y-135550000D01*
X112569452Y-135547792D01*
X112217555Y-134879330D01*
X112190548Y-134838912D01*
X111700881Y-134478724D01*
X109179605Y-137000000D01*
X108820395Y-137000000D01*
X106299119Y-134478724D01*
X105809452Y-134838912D01*
X105449151Y-135502882D01*
X105225306Y-136224385D01*
X105160000Y-136847149D01*
X105160000Y-134299119D01*
X106478724Y-134299119D01*
X109000000Y-136820395D01*
X111521276Y-134299119D01*
X147478724Y-134299119D01*
X150000000Y-136820395D01*
X152521276Y-134299119D01*
X152161088Y-133809452D01*
X151497118Y-133449151D01*
X150775615Y-133225306D01*
X150024305Y-133146520D01*
X149272062Y-133215822D01*
X148547792Y-133430548D01*
X147879330Y-133782445D01*
X147838912Y-133809452D01*
X147478724Y-134299119D01*
X111521276Y-134299119D01*
X111161088Y-133809452D01*
X110497118Y-133449151D01*
X109775615Y-133225306D01*
X109024305Y-133146520D01*
X108272062Y-133215822D01*
X107547792Y-133430548D01*
X106879330Y-133782445D01*
X106838912Y-133809452D01*
X106478724Y-134299119D01*
X105160000Y-134299119D01*
X105160000Y-131248061D01*
X118465000Y-131248061D01*
X118465000Y-131451939D01*
X118504774Y-131651898D01*
X118582795Y-131840256D01*
X118696063Y-132009774D01*
X118840226Y-132153937D01*
X119009744Y-132267205D01*
X119198102Y-132345226D01*
X119398061Y-132385000D01*
X119601939Y-132385000D01*
X119801898Y-132345226D01*
X119990256Y-132267205D01*
X120093737Y-132198061D01*
X130165000Y-132198061D01*
X130165000Y-132401939D01*
X130204774Y-132601898D01*
X130282795Y-132790256D01*
X130396063Y-132959774D01*
X130540226Y-133103937D01*
X130709744Y-133217205D01*
X130898102Y-133295226D01*
X131098061Y-133335000D01*
X131301939Y-133335000D01*
X131501898Y-133295226D01*
X131690256Y-133217205D01*
X131859774Y-133103937D01*
X132003937Y-132959774D01*
X132117205Y-132790256D01*
X132195226Y-132601898D01*
X132235000Y-132401939D01*
X132235000Y-132198061D01*
X134165000Y-132198061D01*
X134165000Y-132401939D01*
X134204774Y-132601898D01*
X134282795Y-132790256D01*
X134396063Y-132959774D01*
X134540226Y-133103937D01*
X134709744Y-133217205D01*
X134898102Y-133295226D01*
X135098061Y-133335000D01*
X135301939Y-133335000D01*
X135501898Y-133295226D01*
X135690256Y-133217205D01*
X135859774Y-133103937D01*
X136003937Y-132959774D01*
X136117205Y-132790256D01*
X136195226Y-132601898D01*
X136235000Y-132401939D01*
X136235000Y-132198061D01*
X136195226Y-131998102D01*
X136117205Y-131809744D01*
X136003937Y-131640226D01*
X135859774Y-131496063D01*
X135690256Y-131382795D01*
X135501898Y-131304774D01*
X135301939Y-131265000D01*
X135098061Y-131265000D01*
X134898102Y-131304774D01*
X134709744Y-131382795D01*
X134540226Y-131496063D01*
X134396063Y-131640226D01*
X134282795Y-131809744D01*
X134204774Y-131998102D01*
X134165000Y-132198061D01*
X132235000Y-132198061D01*
X132195226Y-131998102D01*
X132117205Y-131809744D01*
X132003937Y-131640226D01*
X131859774Y-131496063D01*
X131690256Y-131382795D01*
X131501898Y-131304774D01*
X131301939Y-131265000D01*
X131098061Y-131265000D01*
X130898102Y-131304774D01*
X130709744Y-131382795D01*
X130540226Y-131496063D01*
X130396063Y-131640226D01*
X130282795Y-131809744D01*
X130204774Y-131998102D01*
X130165000Y-132198061D01*
X120093737Y-132198061D01*
X120159774Y-132153937D01*
X120303937Y-132009774D01*
X120417205Y-131840256D01*
X120495226Y-131651898D01*
X120535000Y-131451939D01*
X120535000Y-131248061D01*
X120495226Y-131048102D01*
X120417205Y-130859744D01*
X120303937Y-130690226D01*
X120159774Y-130546063D01*
X119990256Y-130432795D01*
X119906402Y-130398061D01*
X125665000Y-130398061D01*
X125665000Y-130601939D01*
X125704774Y-130801898D01*
X125782795Y-130990256D01*
X125896063Y-131159774D01*
X126040226Y-131303937D01*
X126209744Y-131417205D01*
X126398102Y-131495226D01*
X126598061Y-131535000D01*
X126801939Y-131535000D01*
X127001898Y-131495226D01*
X127190256Y-131417205D01*
X127359774Y-131303937D01*
X127503937Y-131159774D01*
X127617205Y-130990256D01*
X127695226Y-130801898D01*
X127735000Y-130601939D01*
X127735000Y-130398061D01*
X127695226Y-130198102D01*
X127617205Y-130009744D01*
X127503937Y-129840226D01*
X127359774Y-129696063D01*
X127190256Y-129582795D01*
X127001898Y-129504774D01*
X126801939Y-129465000D01*
X126598061Y-129465000D01*
X126398102Y-129504774D01*
X126209744Y-129582795D01*
X126040226Y-129696063D01*
X125896063Y-129840226D01*
X125782795Y-130009744D01*
X125704774Y-130198102D01*
X125665000Y-130398061D01*
X119906402Y-130398061D01*
X119801898Y-130354774D01*
X119601939Y-130315000D01*
X119398061Y-130315000D01*
X119198102Y-130354774D01*
X119009744Y-130432795D01*
X118840226Y-130546063D01*
X118696063Y-130690226D01*
X118582795Y-130859744D01*
X118504774Y-131048102D01*
X118465000Y-131248061D01*
X105160000Y-131248061D01*
X105160000Y-128898061D01*
X130365000Y-128898061D01*
X130365000Y-129101939D01*
X130404774Y-129301898D01*
X130466120Y-129450000D01*
X130404774Y-129598102D01*
X130365000Y-129798061D01*
X130365000Y-130001939D01*
X130404774Y-130201898D01*
X130482795Y-130390256D01*
X130596063Y-130559774D01*
X130740226Y-130703937D01*
X130909744Y-130817205D01*
X131098102Y-130895226D01*
X131298061Y-130935000D01*
X131501939Y-130935000D01*
X131701898Y-130895226D01*
X131890256Y-130817205D01*
X132059774Y-130703937D01*
X132203937Y-130559774D01*
X132317205Y-130390256D01*
X132395226Y-130201898D01*
X132435000Y-130001939D01*
X132435000Y-129798061D01*
X132395226Y-129598102D01*
X132333880Y-129450000D01*
X132395226Y-129301898D01*
X132435000Y-129101939D01*
X132435000Y-128898061D01*
X133865000Y-128898061D01*
X133865000Y-129101939D01*
X133904774Y-129301898D01*
X133966120Y-129450000D01*
X133904774Y-129598102D01*
X133865000Y-129798061D01*
X133865000Y-130001939D01*
X133904774Y-130201898D01*
X133982795Y-130390256D01*
X134096063Y-130559774D01*
X134240226Y-130703937D01*
X134409744Y-130817205D01*
X134598102Y-130895226D01*
X134798061Y-130935000D01*
X135001939Y-130935000D01*
X135201898Y-130895226D01*
X135390256Y-130817205D01*
X135559774Y-130703937D01*
X135565650Y-130698061D01*
X138065000Y-130698061D01*
X138065000Y-130901939D01*
X138104774Y-131101898D01*
X138182795Y-131290256D01*
X138296063Y-131459774D01*
X138440226Y-131603937D01*
X138609744Y-131717205D01*
X138798102Y-131795226D01*
X138991196Y-131833634D01*
X139004774Y-131901898D01*
X139082795Y-132090256D01*
X139196063Y-132259774D01*
X139340226Y-132403937D01*
X139509744Y-132517205D01*
X139698102Y-132595226D01*
X139898061Y-132635000D01*
X140101939Y-132635000D01*
X140301898Y-132595226D01*
X140490256Y-132517205D01*
X140659774Y-132403937D01*
X140803937Y-132259774D01*
X140917205Y-132090256D01*
X140995226Y-131901898D01*
X141035000Y-131701939D01*
X141035000Y-131498061D01*
X140995226Y-131298102D01*
X140917205Y-131109744D01*
X140803937Y-130940226D01*
X140659774Y-130796063D01*
X140490256Y-130682795D01*
X140301898Y-130604774D01*
X140108804Y-130566366D01*
X140095226Y-130498102D01*
X140017205Y-130309744D01*
X139903937Y-130140226D01*
X139759774Y-129996063D01*
X139590256Y-129882795D01*
X139401898Y-129804774D01*
X139201939Y-129765000D01*
X138998061Y-129765000D01*
X138798102Y-129804774D01*
X138609744Y-129882795D01*
X138440226Y-129996063D01*
X138296063Y-130140226D01*
X138182795Y-130309744D01*
X138104774Y-130498102D01*
X138065000Y-130698061D01*
X135565650Y-130698061D01*
X135703937Y-130559774D01*
X135817205Y-130390256D01*
X135895226Y-130201898D01*
X135935000Y-130001939D01*
X135935000Y-129798061D01*
X135895226Y-129598102D01*
X135833880Y-129450000D01*
X135895226Y-129301898D01*
X135935000Y-129101939D01*
X135935000Y-128898061D01*
X135895226Y-128698102D01*
X135817205Y-128509744D01*
X135703937Y-128340226D01*
X135559774Y-128196063D01*
X135390256Y-128082795D01*
X135201898Y-128004774D01*
X135001939Y-127965000D01*
X134798061Y-127965000D01*
X134598102Y-128004774D01*
X134409744Y-128082795D01*
X134240226Y-128196063D01*
X134096063Y-128340226D01*
X133982795Y-128509744D01*
X133904774Y-128698102D01*
X133865000Y-128898061D01*
X132435000Y-128898061D01*
X132395226Y-128698102D01*
X132317205Y-128509744D01*
X132203937Y-128340226D01*
X132059774Y-128196063D01*
X131890256Y-128082795D01*
X131701898Y-128004774D01*
X131501939Y-127965000D01*
X131298061Y-127965000D01*
X131098102Y-128004774D01*
X130909744Y-128082795D01*
X130740226Y-128196063D01*
X130596063Y-128340226D01*
X130482795Y-128509744D01*
X130404774Y-128698102D01*
X130365000Y-128898061D01*
X105160000Y-128898061D01*
X105160000Y-126598061D01*
X111565000Y-126598061D01*
X111565000Y-126801939D01*
X111604774Y-127001898D01*
X111682795Y-127190256D01*
X111796063Y-127359774D01*
X111940226Y-127503937D01*
X112109744Y-127617205D01*
X112298102Y-127695226D01*
X112319342Y-127699451D01*
X112329774Y-127751898D01*
X112407795Y-127940256D01*
X112521063Y-128109774D01*
X112665226Y-128253937D01*
X112834744Y-128367205D01*
X113023102Y-128445226D01*
X113223061Y-128485000D01*
X113426939Y-128485000D01*
X113626898Y-128445226D01*
X113815256Y-128367205D01*
X113984774Y-128253937D01*
X114128937Y-128109774D01*
X114242205Y-127940256D01*
X114320226Y-127751898D01*
X114360000Y-127551939D01*
X114360000Y-127348061D01*
X114320226Y-127148102D01*
X114242205Y-126959744D01*
X114128937Y-126790226D01*
X113984774Y-126646063D01*
X113815256Y-126532795D01*
X113626898Y-126454774D01*
X113605658Y-126450549D01*
X113595226Y-126398102D01*
X113517205Y-126209744D01*
X113403937Y-126040226D01*
X113259774Y-125896063D01*
X113090256Y-125782795D01*
X112901898Y-125704774D01*
X112701939Y-125665000D01*
X112498061Y-125665000D01*
X112298102Y-125704774D01*
X112109744Y-125782795D01*
X111940226Y-125896063D01*
X111796063Y-126040226D01*
X111682795Y-126209744D01*
X111604774Y-126398102D01*
X111565000Y-126598061D01*
X105160000Y-126598061D01*
X105160000Y-123200000D01*
X147411928Y-123200000D01*
X147411928Y-125600000D01*
X147424188Y-125724482D01*
X147460498Y-125844180D01*
X147519463Y-125954494D01*
X147598815Y-126051185D01*
X147695506Y-126130537D01*
X147805820Y-126189502D01*
X147925518Y-126225812D01*
X148050000Y-126238072D01*
X150450000Y-126238072D01*
X150574482Y-126225812D01*
X150694180Y-126189502D01*
X150804494Y-126130537D01*
X150901185Y-126051185D01*
X150980537Y-125954494D01*
X151039502Y-125844180D01*
X151075812Y-125724482D01*
X151088072Y-125600000D01*
X151088072Y-123200000D01*
X151075812Y-123075518D01*
X151039502Y-122955820D01*
X150980537Y-122845506D01*
X150901185Y-122748815D01*
X150804494Y-122669463D01*
X150694180Y-122610498D01*
X150574482Y-122574188D01*
X150450000Y-122561928D01*
X150043097Y-122561928D01*
X150228486Y-122462836D01*
X150348374Y-122177980D01*
X149250000Y-121079605D01*
X148151626Y-122177980D01*
X148271514Y-122462836D01*
X148470912Y-122561928D01*
X148050000Y-122561928D01*
X147925518Y-122574188D01*
X147805820Y-122610498D01*
X147695506Y-122669463D01*
X147598815Y-122748815D01*
X147519463Y-122845506D01*
X147460498Y-122955820D01*
X147424188Y-123075518D01*
X147411928Y-123200000D01*
X105160000Y-123200000D01*
X105160000Y-120954684D01*
X147406933Y-120954684D01*
X147453015Y-121313198D01*
X147568154Y-121655833D01*
X147687164Y-121878486D01*
X147972020Y-121998374D01*
X149070395Y-120900000D01*
X149429605Y-120900000D01*
X150527980Y-121998374D01*
X150812836Y-121878486D01*
X150973699Y-121554790D01*
X151068322Y-121205931D01*
X151093067Y-120845316D01*
X151046985Y-120486802D01*
X150931846Y-120144167D01*
X150812836Y-119921514D01*
X150527980Y-119801626D01*
X149429605Y-120900000D01*
X149070395Y-120900000D01*
X147972020Y-119801626D01*
X147687164Y-119921514D01*
X147526301Y-120245210D01*
X147431678Y-120594069D01*
X147406933Y-120954684D01*
X105160000Y-120954684D01*
X105160000Y-119798061D01*
X113390000Y-119798061D01*
X113390000Y-120001939D01*
X113429774Y-120201898D01*
X113507795Y-120390256D01*
X113621063Y-120559774D01*
X113765226Y-120703937D01*
X113934744Y-120817205D01*
X114123102Y-120895226D01*
X114323061Y-120935000D01*
X114526939Y-120935000D01*
X114726898Y-120895226D01*
X114915256Y-120817205D01*
X115084774Y-120703937D01*
X115228937Y-120559774D01*
X115342205Y-120390256D01*
X115420226Y-120201898D01*
X115460000Y-120001939D01*
X115460000Y-119798061D01*
X115420226Y-119598102D01*
X115342205Y-119409744D01*
X115228937Y-119240226D01*
X115084774Y-119096063D01*
X114915256Y-118982795D01*
X114726898Y-118904774D01*
X114526939Y-118865000D01*
X114323061Y-118865000D01*
X114123102Y-118904774D01*
X113934744Y-118982795D01*
X113765226Y-119096063D01*
X113621063Y-119240226D01*
X113507795Y-119409744D01*
X113429774Y-119598102D01*
X113390000Y-119798061D01*
X105160000Y-119798061D01*
X105160000Y-118498061D01*
X129265000Y-118498061D01*
X129265000Y-118701939D01*
X129304774Y-118901898D01*
X129382795Y-119090256D01*
X129496063Y-119259774D01*
X129640226Y-119403937D01*
X129809744Y-119517205D01*
X129998102Y-119595226D01*
X130198061Y-119635000D01*
X130401939Y-119635000D01*
X130467194Y-119622020D01*
X148151626Y-119622020D01*
X149250000Y-120720395D01*
X150348374Y-119622020D01*
X150228486Y-119337164D01*
X149904790Y-119176301D01*
X149555931Y-119081678D01*
X149195316Y-119056933D01*
X148836802Y-119103015D01*
X148494167Y-119218154D01*
X148271514Y-119337164D01*
X148151626Y-119622020D01*
X130467194Y-119622020D01*
X130601898Y-119595226D01*
X130790256Y-119517205D01*
X130959774Y-119403937D01*
X131103937Y-119259774D01*
X131217205Y-119090256D01*
X131295226Y-118901898D01*
X131335000Y-118701939D01*
X131335000Y-118498061D01*
X131295226Y-118298102D01*
X131217205Y-118109744D01*
X131103937Y-117940226D01*
X131011772Y-117848061D01*
X132715000Y-117848061D01*
X132715000Y-118051939D01*
X132754774Y-118251898D01*
X132832795Y-118440256D01*
X132946063Y-118609774D01*
X133090226Y-118753937D01*
X133259744Y-118867205D01*
X133448102Y-118945226D01*
X133648061Y-118985000D01*
X133851939Y-118985000D01*
X134051898Y-118945226D01*
X134240256Y-118867205D01*
X134409774Y-118753937D01*
X134553937Y-118609774D01*
X134667205Y-118440256D01*
X134745226Y-118251898D01*
X134785000Y-118051939D01*
X134785000Y-117848061D01*
X134745226Y-117648102D01*
X134667205Y-117459744D01*
X134553937Y-117290226D01*
X134409774Y-117146063D01*
X134240256Y-117032795D01*
X134051898Y-116954774D01*
X133851939Y-116915000D01*
X133648061Y-116915000D01*
X133448102Y-116954774D01*
X133259744Y-117032795D01*
X133090226Y-117146063D01*
X132946063Y-117290226D01*
X132832795Y-117459744D01*
X132754774Y-117648102D01*
X132715000Y-117848061D01*
X131011772Y-117848061D01*
X130959774Y-117796063D01*
X130790256Y-117682795D01*
X130601898Y-117604774D01*
X130401939Y-117565000D01*
X130198061Y-117565000D01*
X129998102Y-117604774D01*
X129809744Y-117682795D01*
X129640226Y-117796063D01*
X129496063Y-117940226D01*
X129382795Y-118109744D01*
X129304774Y-118298102D01*
X129265000Y-118498061D01*
X105160000Y-118498061D01*
X105160000Y-117098061D01*
X114540000Y-117098061D01*
X114540000Y-117301939D01*
X114579774Y-117501898D01*
X114657795Y-117690256D01*
X114771063Y-117859774D01*
X114915226Y-118003937D01*
X115084744Y-118117205D01*
X115273102Y-118195226D01*
X115473061Y-118235000D01*
X115676939Y-118235000D01*
X115876898Y-118195226D01*
X116065256Y-118117205D01*
X116234774Y-118003937D01*
X116378937Y-117859774D01*
X116492205Y-117690256D01*
X116570226Y-117501898D01*
X116610000Y-117301939D01*
X116610000Y-117098061D01*
X116608575Y-117090892D01*
X125907831Y-117090892D01*
X125907831Y-117294770D01*
X125947605Y-117494729D01*
X126025626Y-117683087D01*
X126138894Y-117852605D01*
X126283057Y-117996768D01*
X126452575Y-118110036D01*
X126640933Y-118188057D01*
X126840892Y-118227831D01*
X127044770Y-118227831D01*
X127244729Y-118188057D01*
X127433087Y-118110036D01*
X127602605Y-117996768D01*
X127746768Y-117852605D01*
X127860036Y-117683087D01*
X127938057Y-117494729D01*
X127977831Y-117294770D01*
X127977831Y-117090892D01*
X127938057Y-116890933D01*
X127860036Y-116702575D01*
X127746768Y-116533057D01*
X127602605Y-116388894D01*
X127433087Y-116275626D01*
X127244729Y-116197605D01*
X127044770Y-116157831D01*
X126840892Y-116157831D01*
X126640933Y-116197605D01*
X126452575Y-116275626D01*
X126283057Y-116388894D01*
X126138894Y-116533057D01*
X126025626Y-116702575D01*
X125947605Y-116890933D01*
X125907831Y-117090892D01*
X116608575Y-117090892D01*
X116570226Y-116898102D01*
X116492205Y-116709744D01*
X116378937Y-116540226D01*
X116234774Y-116396063D01*
X116065256Y-116282795D01*
X115876898Y-116204774D01*
X115676939Y-116165000D01*
X115473061Y-116165000D01*
X115273102Y-116204774D01*
X115084744Y-116282795D01*
X114915226Y-116396063D01*
X114771063Y-116540226D01*
X114657795Y-116709744D01*
X114579774Y-116898102D01*
X114540000Y-117098061D01*
X105160000Y-117098061D01*
X105160000Y-114573061D01*
X116990000Y-114573061D01*
X116990000Y-114776939D01*
X117029774Y-114976898D01*
X117107795Y-115165256D01*
X117221063Y-115334774D01*
X117365226Y-115478937D01*
X117534744Y-115592205D01*
X117723102Y-115670226D01*
X117923061Y-115710000D01*
X118126939Y-115710000D01*
X118326898Y-115670226D01*
X118515256Y-115592205D01*
X118684774Y-115478937D01*
X118828937Y-115334774D01*
X118942205Y-115165256D01*
X119020226Y-114976898D01*
X119060000Y-114776939D01*
X119060000Y-114629738D01*
X119090256Y-114617205D01*
X119259774Y-114503937D01*
X119403937Y-114359774D01*
X119517205Y-114190256D01*
X119595226Y-114001898D01*
X119635000Y-113801939D01*
X119635000Y-113598061D01*
X122365000Y-113598061D01*
X122365000Y-113801939D01*
X122404774Y-114001898D01*
X122482795Y-114190256D01*
X122596063Y-114359774D01*
X122740226Y-114503937D01*
X122909744Y-114617205D01*
X123098102Y-114695226D01*
X123298061Y-114735000D01*
X123501939Y-114735000D01*
X123701898Y-114695226D01*
X123890256Y-114617205D01*
X124059774Y-114503937D01*
X124065650Y-114498061D01*
X145665000Y-114498061D01*
X145665000Y-114701939D01*
X145704774Y-114901898D01*
X145782795Y-115090256D01*
X145896063Y-115259774D01*
X146040226Y-115403937D01*
X146209744Y-115517205D01*
X146398102Y-115595226D01*
X146598061Y-115635000D01*
X146801939Y-115635000D01*
X147001898Y-115595226D01*
X147190256Y-115517205D01*
X147359774Y-115403937D01*
X147503937Y-115259774D01*
X147617205Y-115090256D01*
X147695226Y-114901898D01*
X147735000Y-114701939D01*
X147735000Y-114498061D01*
X147695226Y-114298102D01*
X147617205Y-114109744D01*
X147503937Y-113940226D01*
X147359774Y-113796063D01*
X147190256Y-113682795D01*
X147001898Y-113604774D01*
X146801939Y-113565000D01*
X146598061Y-113565000D01*
X146398102Y-113604774D01*
X146209744Y-113682795D01*
X146040226Y-113796063D01*
X145896063Y-113940226D01*
X145782795Y-114109744D01*
X145704774Y-114298102D01*
X145665000Y-114498061D01*
X124065650Y-114498061D01*
X124203937Y-114359774D01*
X124317205Y-114190256D01*
X124395226Y-114001898D01*
X124435000Y-113801939D01*
X124435000Y-113598061D01*
X124395226Y-113398102D01*
X124353788Y-113298061D01*
X125915000Y-113298061D01*
X125915000Y-113501939D01*
X125954774Y-113701898D01*
X126032795Y-113890256D01*
X126146063Y-114059774D01*
X126290226Y-114203937D01*
X126459744Y-114317205D01*
X126648102Y-114395226D01*
X126848061Y-114435000D01*
X127051939Y-114435000D01*
X127251898Y-114395226D01*
X127440256Y-114317205D01*
X127609774Y-114203937D01*
X127753937Y-114059774D01*
X127867205Y-113890256D01*
X127945226Y-113701898D01*
X127985000Y-113501939D01*
X127985000Y-113298061D01*
X127945226Y-113098102D01*
X127867205Y-112909744D01*
X127753937Y-112740226D01*
X127609774Y-112596063D01*
X127440256Y-112482795D01*
X127251898Y-112404774D01*
X127051939Y-112365000D01*
X126848061Y-112365000D01*
X126648102Y-112404774D01*
X126459744Y-112482795D01*
X126290226Y-112596063D01*
X126146063Y-112740226D01*
X126032795Y-112909744D01*
X125954774Y-113098102D01*
X125915000Y-113298061D01*
X124353788Y-113298061D01*
X124317205Y-113209744D01*
X124203937Y-113040226D01*
X124059774Y-112896063D01*
X123890256Y-112782795D01*
X123701898Y-112704774D01*
X123501939Y-112665000D01*
X123298061Y-112665000D01*
X123098102Y-112704774D01*
X122909744Y-112782795D01*
X122740226Y-112896063D01*
X122596063Y-113040226D01*
X122482795Y-113209744D01*
X122404774Y-113398102D01*
X122365000Y-113598061D01*
X119635000Y-113598061D01*
X119595226Y-113398102D01*
X119517205Y-113209744D01*
X119403937Y-113040226D01*
X119259774Y-112896063D01*
X119090256Y-112782795D01*
X118901898Y-112704774D01*
X118701939Y-112665000D01*
X118498061Y-112665000D01*
X118298102Y-112704774D01*
X118109744Y-112782795D01*
X117940226Y-112896063D01*
X117796063Y-113040226D01*
X117682795Y-113209744D01*
X117604774Y-113398102D01*
X117565000Y-113598061D01*
X117565000Y-113745262D01*
X117534744Y-113757795D01*
X117365226Y-113871063D01*
X117221063Y-114015226D01*
X117107795Y-114184744D01*
X117029774Y-114373102D01*
X116990000Y-114573061D01*
X105160000Y-114573061D01*
X105160000Y-110700881D01*
X106478724Y-110700881D01*
X106838912Y-111190548D01*
X107502882Y-111550849D01*
X108224385Y-111774694D01*
X108975695Y-111853480D01*
X109727938Y-111784178D01*
X110452208Y-111569452D01*
X110777781Y-111398061D01*
X118165000Y-111398061D01*
X118165000Y-111601939D01*
X118204774Y-111801898D01*
X118282795Y-111990256D01*
X118396063Y-112159774D01*
X118540226Y-112303937D01*
X118709744Y-112417205D01*
X118898102Y-112495226D01*
X119098061Y-112535000D01*
X119301939Y-112535000D01*
X119501898Y-112495226D01*
X119690256Y-112417205D01*
X119859774Y-112303937D01*
X120003937Y-112159774D01*
X120117205Y-111990256D01*
X120195226Y-111801898D01*
X120235000Y-111601939D01*
X120235000Y-111398061D01*
X121765000Y-111398061D01*
X121765000Y-111601939D01*
X121804774Y-111801898D01*
X121882795Y-111990256D01*
X121996063Y-112159774D01*
X122140226Y-112303937D01*
X122309744Y-112417205D01*
X122498102Y-112495226D01*
X122698061Y-112535000D01*
X122901939Y-112535000D01*
X123101898Y-112495226D01*
X123290256Y-112417205D01*
X123459774Y-112303937D01*
X123603937Y-112159774D01*
X123717205Y-111990256D01*
X123795226Y-111801898D01*
X123835000Y-111601939D01*
X123835000Y-111398061D01*
X123795226Y-111198102D01*
X123717205Y-111009744D01*
X123603937Y-110840226D01*
X123464592Y-110700881D01*
X147478724Y-110700881D01*
X147838912Y-111190548D01*
X148502882Y-111550849D01*
X149224385Y-111774694D01*
X149975695Y-111853480D01*
X150727938Y-111784178D01*
X151452208Y-111569452D01*
X152120670Y-111217555D01*
X152161088Y-111190548D01*
X152521276Y-110700881D01*
X150000000Y-108179605D01*
X147478724Y-110700881D01*
X123464592Y-110700881D01*
X123459774Y-110696063D01*
X123290256Y-110582795D01*
X123101898Y-110504774D01*
X122901939Y-110465000D01*
X122698061Y-110465000D01*
X122498102Y-110504774D01*
X122309744Y-110582795D01*
X122140226Y-110696063D01*
X121996063Y-110840226D01*
X121882795Y-111009744D01*
X121804774Y-111198102D01*
X121765000Y-111398061D01*
X120235000Y-111398061D01*
X120195226Y-111198102D01*
X120117205Y-111009744D01*
X120003937Y-110840226D01*
X119859774Y-110696063D01*
X119690256Y-110582795D01*
X119501898Y-110504774D01*
X119301939Y-110465000D01*
X119098061Y-110465000D01*
X118898102Y-110504774D01*
X118709744Y-110582795D01*
X118540226Y-110696063D01*
X118396063Y-110840226D01*
X118282795Y-111009744D01*
X118204774Y-111198102D01*
X118165000Y-111398061D01*
X110777781Y-111398061D01*
X111120670Y-111217555D01*
X111161088Y-111190548D01*
X111521276Y-110700881D01*
X109000000Y-108179605D01*
X106478724Y-110700881D01*
X105160000Y-110700881D01*
X105160000Y-108122015D01*
X105215822Y-108727938D01*
X105430548Y-109452208D01*
X105782445Y-110120670D01*
X105809452Y-110161088D01*
X106299119Y-110521276D01*
X108820395Y-108000000D01*
X109179605Y-108000000D01*
X111700881Y-110521276D01*
X112190548Y-110161088D01*
X112550849Y-109497118D01*
X112614610Y-109291599D01*
X118076082Y-109291599D01*
X118104352Y-109495433D01*
X118171845Y-109689836D01*
X118275967Y-109867336D01*
X118412717Y-110021112D01*
X118576840Y-110145255D01*
X118762028Y-110234994D01*
X118838877Y-110244666D01*
X118998000Y-110116998D01*
X118998000Y-109127000D01*
X118241238Y-109127000D01*
X118076082Y-109291599D01*
X112614610Y-109291599D01*
X112774694Y-108775615D01*
X112781742Y-108708401D01*
X118076082Y-108708401D01*
X118241238Y-108873000D01*
X118998000Y-108873000D01*
X118998000Y-107883002D01*
X119252000Y-107883002D01*
X119252000Y-108873000D01*
X119272000Y-108873000D01*
X119272000Y-109127000D01*
X119252000Y-109127000D01*
X119252000Y-110116998D01*
X119411123Y-110244666D01*
X119487972Y-110234994D01*
X119673160Y-110145255D01*
X119757062Y-110081791D01*
X119797203Y-110114734D01*
X119977007Y-110210841D01*
X120172105Y-110270024D01*
X120375000Y-110290007D01*
X120577894Y-110270024D01*
X120772992Y-110210841D01*
X120952797Y-110114734D01*
X121000000Y-110075996D01*
X121047203Y-110114734D01*
X121227007Y-110210841D01*
X121422105Y-110270024D01*
X121625000Y-110290007D01*
X121827894Y-110270024D01*
X122022992Y-110210841D01*
X122183106Y-110125259D01*
X122209392Y-110146831D01*
X122354284Y-110224278D01*
X122511500Y-110271969D01*
X122675000Y-110288072D01*
X123075000Y-110288072D01*
X123238500Y-110271969D01*
X123395716Y-110224278D01*
X123540608Y-110146831D01*
X123667606Y-110042606D01*
X123771831Y-109915608D01*
X123849278Y-109770716D01*
X123896969Y-109613500D01*
X123913072Y-109450000D01*
X123913072Y-109098061D01*
X130865000Y-109098061D01*
X130865000Y-109301939D01*
X130904774Y-109501898D01*
X130982795Y-109690256D01*
X131096063Y-109859774D01*
X131240226Y-110003937D01*
X131409744Y-110117205D01*
X131598102Y-110195226D01*
X131798061Y-110235000D01*
X132001939Y-110235000D01*
X132201898Y-110195226D01*
X132390256Y-110117205D01*
X132559774Y-110003937D01*
X132703937Y-109859774D01*
X132817205Y-109690256D01*
X132895226Y-109501898D01*
X132935000Y-109301939D01*
X132935000Y-109098061D01*
X132895226Y-108898102D01*
X132817205Y-108709744D01*
X132761780Y-108626793D01*
X136420000Y-108626793D01*
X136420000Y-109143206D01*
X136437147Y-109317299D01*
X136504906Y-109540673D01*
X136614942Y-109746535D01*
X136763025Y-109926975D01*
X136943464Y-110075058D01*
X137149326Y-110185094D01*
X137372700Y-110252853D01*
X137605000Y-110275733D01*
X137837299Y-110252853D01*
X138060673Y-110185094D01*
X138266535Y-110075058D01*
X138446975Y-109926975D01*
X138595058Y-109746536D01*
X138705094Y-109540674D01*
X138772853Y-109317300D01*
X138790000Y-109143207D01*
X138790000Y-108626794D01*
X138790000Y-108626793D01*
X141260000Y-108626793D01*
X141260000Y-109143206D01*
X141277147Y-109317299D01*
X141344906Y-109540673D01*
X141454942Y-109746535D01*
X141603025Y-109926975D01*
X141783464Y-110075058D01*
X141989326Y-110185094D01*
X142212700Y-110252853D01*
X142445000Y-110275733D01*
X142677299Y-110252853D01*
X142900673Y-110185094D01*
X143106535Y-110075058D01*
X143286975Y-109926975D01*
X143435058Y-109746536D01*
X143545094Y-109540674D01*
X143612853Y-109317300D01*
X143630000Y-109143207D01*
X143630000Y-108626794D01*
X143612853Y-108452701D01*
X143545094Y-108229327D01*
X143435058Y-108023464D01*
X143395855Y-107975695D01*
X146146520Y-107975695D01*
X146215822Y-108727938D01*
X146430548Y-109452208D01*
X146782445Y-110120670D01*
X146809452Y-110161088D01*
X147299119Y-110521276D01*
X149820395Y-108000000D01*
X147299119Y-105478724D01*
X146809452Y-105838912D01*
X146449151Y-106502882D01*
X146225306Y-107224385D01*
X146146520Y-107975695D01*
X143395855Y-107975695D01*
X143286975Y-107843025D01*
X143106536Y-107694942D01*
X142900674Y-107584906D01*
X142677300Y-107517147D01*
X142445000Y-107494267D01*
X142212701Y-107517147D01*
X141989327Y-107584906D01*
X141783465Y-107694942D01*
X141603026Y-107843025D01*
X141454943Y-108023464D01*
X141344906Y-108229326D01*
X141277147Y-108452700D01*
X141260000Y-108626793D01*
X138790000Y-108626793D01*
X138772853Y-108452701D01*
X138705094Y-108229327D01*
X138595058Y-108023464D01*
X138446975Y-107843025D01*
X138266536Y-107694942D01*
X138060674Y-107584906D01*
X137837300Y-107517147D01*
X137605000Y-107494267D01*
X137372701Y-107517147D01*
X137149327Y-107584906D01*
X136943465Y-107694942D01*
X136763026Y-107843025D01*
X136614943Y-108023464D01*
X136504906Y-108229326D01*
X136437147Y-108452700D01*
X136420000Y-108626793D01*
X132761780Y-108626793D01*
X132703937Y-108540226D01*
X132559774Y-108396063D01*
X132390256Y-108282795D01*
X132201898Y-108204774D01*
X132001939Y-108165000D01*
X131798061Y-108165000D01*
X131598102Y-108204774D01*
X131409744Y-108282795D01*
X131240226Y-108396063D01*
X131096063Y-108540226D01*
X130982795Y-108709744D01*
X130904774Y-108898102D01*
X130865000Y-109098061D01*
X123913072Y-109098061D01*
X123913072Y-108550000D01*
X123896969Y-108386500D01*
X123849278Y-108229284D01*
X123771831Y-108084392D01*
X123667606Y-107957394D01*
X123540608Y-107853169D01*
X123395716Y-107775722D01*
X123238500Y-107728031D01*
X123075000Y-107711928D01*
X122675000Y-107711928D01*
X122511500Y-107728031D01*
X122354284Y-107775722D01*
X122209392Y-107853169D01*
X122183106Y-107874741D01*
X122022993Y-107789159D01*
X121827895Y-107729976D01*
X121625000Y-107709993D01*
X121422106Y-107729976D01*
X121227008Y-107789159D01*
X121047204Y-107885266D01*
X121000001Y-107924005D01*
X120952797Y-107885266D01*
X120772993Y-107789159D01*
X120577895Y-107729976D01*
X120375000Y-107709993D01*
X120172106Y-107729976D01*
X119977008Y-107789159D01*
X119797204Y-107885266D01*
X119757063Y-107918209D01*
X119673160Y-107854745D01*
X119487972Y-107765006D01*
X119411123Y-107755334D01*
X119252000Y-107883002D01*
X118998000Y-107883002D01*
X118838877Y-107755334D01*
X118762028Y-107765006D01*
X118576840Y-107854745D01*
X118412717Y-107978888D01*
X118275967Y-108132664D01*
X118171845Y-108310164D01*
X118104352Y-108504567D01*
X118076082Y-108708401D01*
X112781742Y-108708401D01*
X112853480Y-108024305D01*
X112784178Y-107272062D01*
X112692591Y-106963137D01*
X127915000Y-106963137D01*
X127915000Y-107176863D01*
X127956696Y-107386483D01*
X128038485Y-107583940D01*
X128157225Y-107761647D01*
X128308353Y-107912775D01*
X128486060Y-108031515D01*
X128683517Y-108113304D01*
X128893137Y-108155000D01*
X129106863Y-108155000D01*
X129316483Y-108113304D01*
X129513940Y-108031515D01*
X129691647Y-107912775D01*
X129842775Y-107761647D01*
X129961515Y-107583940D01*
X130043304Y-107386483D01*
X130085000Y-107176863D01*
X130085000Y-106963137D01*
X130915000Y-106963137D01*
X130915000Y-107176863D01*
X130956696Y-107386483D01*
X131038485Y-107583940D01*
X131157225Y-107761647D01*
X131308353Y-107912775D01*
X131486060Y-108031515D01*
X131683517Y-108113304D01*
X131893137Y-108155000D01*
X132106863Y-108155000D01*
X132316483Y-108113304D01*
X132513940Y-108031515D01*
X132691647Y-107912775D01*
X132842775Y-107761647D01*
X132961515Y-107583940D01*
X133043304Y-107386483D01*
X133085000Y-107176863D01*
X133085000Y-106963137D01*
X133043304Y-106753517D01*
X132961515Y-106556060D01*
X132842775Y-106378353D01*
X132691647Y-106227225D01*
X132513940Y-106108485D01*
X132316483Y-106026696D01*
X132106863Y-105985000D01*
X131893137Y-105985000D01*
X131683517Y-106026696D01*
X131486060Y-106108485D01*
X131308353Y-106227225D01*
X131157225Y-106378353D01*
X131038485Y-106556060D01*
X130956696Y-106753517D01*
X130915000Y-106963137D01*
X130085000Y-106963137D01*
X130043304Y-106753517D01*
X129961515Y-106556060D01*
X129842775Y-106378353D01*
X129691647Y-106227225D01*
X129513940Y-106108485D01*
X129316483Y-106026696D01*
X129106863Y-105985000D01*
X128893137Y-105985000D01*
X128683517Y-106026696D01*
X128486060Y-106108485D01*
X128308353Y-106227225D01*
X128157225Y-106378353D01*
X128038485Y-106556060D01*
X127956696Y-106753517D01*
X127915000Y-106963137D01*
X112692591Y-106963137D01*
X112569452Y-106547792D01*
X112217555Y-105879330D01*
X112190548Y-105838912D01*
X111927812Y-105645649D01*
X135985000Y-105645649D01*
X135985000Y-106124350D01*
X136003955Y-106316804D01*
X136078862Y-106563740D01*
X136200505Y-106791317D01*
X136364208Y-106990792D01*
X136563682Y-107154495D01*
X136791259Y-107276138D01*
X137038195Y-107351045D01*
X137295000Y-107376338D01*
X137551804Y-107351045D01*
X137798740Y-107276138D01*
X138026317Y-107154495D01*
X138225792Y-106990792D01*
X138389495Y-106791318D01*
X138511138Y-106563741D01*
X138586045Y-106316805D01*
X138605000Y-106124351D01*
X138605000Y-105645650D01*
X138605000Y-105645649D01*
X141445000Y-105645649D01*
X141445000Y-106124350D01*
X141463955Y-106316804D01*
X141538862Y-106563740D01*
X141660505Y-106791317D01*
X141824208Y-106990792D01*
X142023682Y-107154495D01*
X142251259Y-107276138D01*
X142498195Y-107351045D01*
X142755000Y-107376338D01*
X143011804Y-107351045D01*
X143258740Y-107276138D01*
X143486317Y-107154495D01*
X143685792Y-106990792D01*
X143849495Y-106791318D01*
X143971138Y-106563741D01*
X144046045Y-106316805D01*
X144065000Y-106124351D01*
X144065000Y-105645650D01*
X144046045Y-105453196D01*
X143971138Y-105206260D01*
X143849495Y-104978682D01*
X143685792Y-104779208D01*
X143486318Y-104615505D01*
X143258741Y-104493862D01*
X143011805Y-104418955D01*
X142755000Y-104393662D01*
X142498196Y-104418955D01*
X142251260Y-104493862D01*
X142023683Y-104615505D01*
X141824209Y-104779208D01*
X141660505Y-104978682D01*
X141538862Y-105206259D01*
X141463955Y-105453195D01*
X141445000Y-105645649D01*
X138605000Y-105645649D01*
X138586045Y-105453196D01*
X138511138Y-105206260D01*
X138389495Y-104978682D01*
X138225792Y-104779208D01*
X138026318Y-104615505D01*
X137798741Y-104493862D01*
X137551805Y-104418955D01*
X137295000Y-104393662D01*
X137038196Y-104418955D01*
X136791260Y-104493862D01*
X136563683Y-104615505D01*
X136364209Y-104779208D01*
X136200505Y-104978682D01*
X136078862Y-105206259D01*
X136003955Y-105453195D01*
X135985000Y-105645649D01*
X111927812Y-105645649D01*
X111700881Y-105478724D01*
X109179605Y-108000000D01*
X108820395Y-108000000D01*
X108806253Y-107985858D01*
X108985858Y-107806253D01*
X109000000Y-107820395D01*
X111521276Y-105299119D01*
X111161088Y-104809452D01*
X110497118Y-104449151D01*
X109775615Y-104225306D01*
X109152851Y-104160000D01*
X149877985Y-104160000D01*
X149272062Y-104215822D01*
%TA.AperFunction,Conductor*%
D19*
G36*
X149272062Y-104215822D02*
G01*
X148547792Y-104430548D01*
X147879330Y-104782445D01*
X147838912Y-104809452D01*
X147478724Y-105299119D01*
X150000000Y-107820395D01*
X150014143Y-107806253D01*
X150193748Y-107985858D01*
X150179605Y-108000000D01*
X152700881Y-110521276D01*
X153190548Y-110161088D01*
X153550849Y-109497118D01*
X153774694Y-108775615D01*
X153840000Y-108152851D01*
X153840001Y-136877996D01*
X153784178Y-136272062D01*
X153569452Y-135547792D01*
X153217555Y-134879330D01*
X153190548Y-134838912D01*
X152700881Y-134478724D01*
X150179605Y-137000000D01*
X150193748Y-137014143D01*
X150014143Y-137193748D01*
X150000000Y-137179605D01*
X147478724Y-139700881D01*
X147838912Y-140190548D01*
X148502882Y-140550849D01*
X149224385Y-140774694D01*
X149847149Y-140840000D01*
X109122015Y-140840000D01*
X109727938Y-140784178D01*
X110452208Y-140569452D01*
X111120670Y-140217555D01*
X111161088Y-140190548D01*
X111521276Y-139700881D01*
X109000000Y-137179605D01*
X108985858Y-137193748D01*
X108806253Y-137014143D01*
X108820395Y-137000000D01*
X109179605Y-137000000D01*
X111700881Y-139521276D01*
X112190548Y-139161088D01*
X112550849Y-138497118D01*
X112774694Y-137775615D01*
X112853480Y-137024305D01*
X112784178Y-136272062D01*
X112570107Y-135550000D01*
X115161928Y-135550000D01*
X115161928Y-136450000D01*
X115178031Y-136613500D01*
X115225722Y-136770716D01*
X115303169Y-136915608D01*
X115407394Y-137042606D01*
X115534392Y-137146831D01*
X115679284Y-137224278D01*
X115836500Y-137271969D01*
X116000000Y-137288072D01*
X116400000Y-137288072D01*
X116563500Y-137271969D01*
X116720716Y-137224278D01*
X116865608Y-137146831D01*
X116891894Y-137125259D01*
X117052008Y-137210841D01*
X117247106Y-137270024D01*
X117450000Y-137290007D01*
X117652895Y-137270024D01*
X117847993Y-137210841D01*
X118027797Y-137114734D01*
X118075001Y-137075995D01*
X118122204Y-137114734D01*
X118302008Y-137210841D01*
X118497106Y-137270024D01*
X118700000Y-137290007D01*
X118902895Y-137270024D01*
X119097993Y-137210841D01*
X119277797Y-137114734D01*
X119325001Y-137075995D01*
X119372204Y-137114734D01*
X119552008Y-137210841D01*
X119747106Y-137270024D01*
X119950000Y-137290007D01*
X120152895Y-137270024D01*
X120347993Y-137210841D01*
X120527797Y-137114734D01*
X120575001Y-137075995D01*
X120622204Y-137114734D01*
X120802008Y-137210841D01*
X120997106Y-137270024D01*
X121200000Y-137290007D01*
X121402895Y-137270024D01*
X121597993Y-137210841D01*
X121777797Y-137114734D01*
X121817938Y-137081791D01*
X121901840Y-137145255D01*
X122087028Y-137234994D01*
X122163877Y-137244666D01*
X122323000Y-137116998D01*
X122323000Y-136127000D01*
X122577000Y-136127000D01*
X122577000Y-137116998D01*
X122736123Y-137244666D01*
X122812972Y-137234994D01*
X122998160Y-137145255D01*
X123162283Y-137021112D01*
X123299033Y-136867336D01*
X123403155Y-136689836D01*
X123470648Y-136495433D01*
X123498918Y-136291599D01*
X123333762Y-136127000D01*
X122577000Y-136127000D01*
X122323000Y-136127000D01*
X122303000Y-136127000D01*
X122303000Y-135873000D01*
X122323000Y-135873000D01*
X122323000Y-134883002D01*
X122577000Y-134883002D01*
X122577000Y-135873000D01*
X123333762Y-135873000D01*
X123498918Y-135708401D01*
X123476950Y-135550000D01*
X125711928Y-135550000D01*
X125711928Y-136450000D01*
X125728031Y-136613500D01*
X125775722Y-136770716D01*
X125853169Y-136915608D01*
X125957394Y-137042606D01*
X126084392Y-137146831D01*
X126229284Y-137224278D01*
X126386500Y-137271969D01*
X126550000Y-137288072D01*
X126950000Y-137288072D01*
X127113500Y-137271969D01*
X127270716Y-137224278D01*
X127415608Y-137146831D01*
X127441894Y-137125259D01*
X127602008Y-137210841D01*
X127797106Y-137270024D01*
X128000000Y-137290007D01*
X128202895Y-137270024D01*
X128397993Y-137210841D01*
X128577797Y-137114734D01*
X128625001Y-137075995D01*
X128672204Y-137114734D01*
X128852008Y-137210841D01*
X129047106Y-137270024D01*
X129250000Y-137290007D01*
X129452895Y-137270024D01*
X129647993Y-137210841D01*
X129827797Y-137114734D01*
X129867938Y-137081791D01*
X129951840Y-137145255D01*
X130137028Y-137234994D01*
X130213877Y-137244666D01*
X130373000Y-137116998D01*
X130373000Y-136127000D01*
X130627000Y-136127000D01*
X130627000Y-137116998D01*
X130786123Y-137244666D01*
X130862972Y-137234994D01*
X131048160Y-137145255D01*
X131212283Y-137021112D01*
X131252671Y-136975695D01*
X146146520Y-136975695D01*
X146215822Y-137727938D01*
X146430548Y-138452208D01*
X146782445Y-139120670D01*
X146809452Y-139161088D01*
X147299119Y-139521276D01*
X149820395Y-137000000D01*
X147299119Y-134478724D01*
X146809452Y-134838912D01*
X146449151Y-135502882D01*
X146225306Y-136224385D01*
X146146520Y-136975695D01*
X131252671Y-136975695D01*
X131349033Y-136867336D01*
X131453155Y-136689836D01*
X131520648Y-136495433D01*
X131548918Y-136291599D01*
X131383762Y-136127000D01*
X130627000Y-136127000D01*
X130373000Y-136127000D01*
X130353000Y-136127000D01*
X130353000Y-135873000D01*
X130373000Y-135873000D01*
X130373000Y-134883002D01*
X130627000Y-134883002D01*
X130627000Y-135873000D01*
X131383762Y-135873000D01*
X131548918Y-135708401D01*
X131520648Y-135504567D01*
X131453155Y-135310164D01*
X131349033Y-135132664D01*
X131212283Y-134978888D01*
X131048160Y-134854745D01*
X130862972Y-134765006D01*
X130786123Y-134755334D01*
X130627000Y-134883002D01*
X130373000Y-134883002D01*
X130213877Y-134755334D01*
X130137028Y-134765006D01*
X129951840Y-134854745D01*
X129867938Y-134918209D01*
X129827797Y-134885266D01*
X129647992Y-134789159D01*
X129452894Y-134729976D01*
X129250000Y-134709993D01*
X129047105Y-134729976D01*
X128852007Y-134789159D01*
X128672203Y-134885266D01*
X128625000Y-134924004D01*
X128577797Y-134885266D01*
X128397992Y-134789159D01*
X128202894Y-134729976D01*
X128000000Y-134709993D01*
X127797105Y-134729976D01*
X127602007Y-134789159D01*
X127441894Y-134874741D01*
X127415608Y-134853169D01*
X127270716Y-134775722D01*
X127113500Y-134728031D01*
X126950000Y-134711928D01*
X126550000Y-134711928D01*
X126386500Y-134728031D01*
X126229284Y-134775722D01*
X126084392Y-134853169D01*
X125957394Y-134957394D01*
X125853169Y-135084392D01*
X125775722Y-135229284D01*
X125728031Y-135386500D01*
X125711928Y-135550000D01*
X123476950Y-135550000D01*
X123470648Y-135504567D01*
X123403155Y-135310164D01*
X123299033Y-135132664D01*
X123162283Y-134978888D01*
X122998160Y-134854745D01*
X122812972Y-134765006D01*
X122736123Y-134755334D01*
X122577000Y-134883002D01*
X122323000Y-134883002D01*
X122163877Y-134755334D01*
X122087028Y-134765006D01*
X121901840Y-134854745D01*
X121817938Y-134918209D01*
X121777797Y-134885266D01*
X121597992Y-134789159D01*
X121402894Y-134729976D01*
X121200000Y-134709993D01*
X120997105Y-134729976D01*
X120802007Y-134789159D01*
X120622203Y-134885266D01*
X120575000Y-134924004D01*
X120527797Y-134885266D01*
X120347992Y-134789159D01*
X120152894Y-134729976D01*
X119950000Y-134709993D01*
X119747105Y-134729976D01*
X119552007Y-134789159D01*
X119372203Y-134885266D01*
X119325000Y-134924004D01*
X119277797Y-134885266D01*
X119097992Y-134789159D01*
X118902894Y-134729976D01*
X118700000Y-134709993D01*
X118497105Y-134729976D01*
X118302007Y-134789159D01*
X118122203Y-134885266D01*
X118075000Y-134924004D01*
X118027797Y-134885266D01*
X117847992Y-134789159D01*
X117652894Y-134729976D01*
X117450000Y-134709993D01*
X117247105Y-134729976D01*
X117052007Y-134789159D01*
X116891894Y-134874741D01*
X116865608Y-134853169D01*
X116720716Y-134775722D01*
X116563500Y-134728031D01*
X116400000Y-134711928D01*
X116000000Y-134711928D01*
X115836500Y-134728031D01*
X115679284Y-134775722D01*
X115534392Y-134853169D01*
X115407394Y-134957394D01*
X115303169Y-135084392D01*
X115225722Y-135229284D01*
X115178031Y-135386500D01*
X115161928Y-135550000D01*
X112570107Y-135550000D01*
X112569452Y-135547792D01*
X112217555Y-134879330D01*
X112190548Y-134838912D01*
X111700881Y-134478724D01*
X109179605Y-137000000D01*
X108820395Y-137000000D01*
X106299119Y-134478724D01*
X105809452Y-134838912D01*
X105449151Y-135502882D01*
X105225306Y-136224385D01*
X105160000Y-136847149D01*
X105160000Y-134299119D01*
X106478724Y-134299119D01*
X109000000Y-136820395D01*
X111521276Y-134299119D01*
X147478724Y-134299119D01*
X150000000Y-136820395D01*
X152521276Y-134299119D01*
X152161088Y-133809452D01*
X151497118Y-133449151D01*
X150775615Y-133225306D01*
X150024305Y-133146520D01*
X149272062Y-133215822D01*
X148547792Y-133430548D01*
X147879330Y-133782445D01*
X147838912Y-133809452D01*
X147478724Y-134299119D01*
X111521276Y-134299119D01*
X111161088Y-133809452D01*
X110497118Y-133449151D01*
X109775615Y-133225306D01*
X109024305Y-133146520D01*
X108272062Y-133215822D01*
X107547792Y-133430548D01*
X106879330Y-133782445D01*
X106838912Y-133809452D01*
X106478724Y-134299119D01*
X105160000Y-134299119D01*
X105160000Y-131248061D01*
X118465000Y-131248061D01*
X118465000Y-131451939D01*
X118504774Y-131651898D01*
X118582795Y-131840256D01*
X118696063Y-132009774D01*
X118840226Y-132153937D01*
X119009744Y-132267205D01*
X119198102Y-132345226D01*
X119398061Y-132385000D01*
X119601939Y-132385000D01*
X119801898Y-132345226D01*
X119990256Y-132267205D01*
X120093737Y-132198061D01*
X130165000Y-132198061D01*
X130165000Y-132401939D01*
X130204774Y-132601898D01*
X130282795Y-132790256D01*
X130396063Y-132959774D01*
X130540226Y-133103937D01*
X130709744Y-133217205D01*
X130898102Y-133295226D01*
X131098061Y-133335000D01*
X131301939Y-133335000D01*
X131501898Y-133295226D01*
X131690256Y-133217205D01*
X131859774Y-133103937D01*
X132003937Y-132959774D01*
X132117205Y-132790256D01*
X132195226Y-132601898D01*
X132235000Y-132401939D01*
X132235000Y-132198061D01*
X134165000Y-132198061D01*
X134165000Y-132401939D01*
X134204774Y-132601898D01*
X134282795Y-132790256D01*
X134396063Y-132959774D01*
X134540226Y-133103937D01*
X134709744Y-133217205D01*
X134898102Y-133295226D01*
X135098061Y-133335000D01*
X135301939Y-133335000D01*
X135501898Y-133295226D01*
X135690256Y-133217205D01*
X135859774Y-133103937D01*
X136003937Y-132959774D01*
X136117205Y-132790256D01*
X136195226Y-132601898D01*
X136235000Y-132401939D01*
X136235000Y-132198061D01*
X136195226Y-131998102D01*
X136117205Y-131809744D01*
X136003937Y-131640226D01*
X135859774Y-131496063D01*
X135690256Y-131382795D01*
X135501898Y-131304774D01*
X135301939Y-131265000D01*
X135098061Y-131265000D01*
X134898102Y-131304774D01*
X134709744Y-131382795D01*
X134540226Y-131496063D01*
X134396063Y-131640226D01*
X134282795Y-131809744D01*
X134204774Y-131998102D01*
X134165000Y-132198061D01*
X132235000Y-132198061D01*
X132195226Y-131998102D01*
X132117205Y-131809744D01*
X132003937Y-131640226D01*
X131859774Y-131496063D01*
X131690256Y-131382795D01*
X131501898Y-131304774D01*
X131301939Y-131265000D01*
X131098061Y-131265000D01*
X130898102Y-131304774D01*
X130709744Y-131382795D01*
X130540226Y-131496063D01*
X130396063Y-131640226D01*
X130282795Y-131809744D01*
X130204774Y-131998102D01*
X130165000Y-132198061D01*
X120093737Y-132198061D01*
X120159774Y-132153937D01*
X120303937Y-132009774D01*
X120417205Y-131840256D01*
X120495226Y-131651898D01*
X120535000Y-131451939D01*
X120535000Y-131248061D01*
X120495226Y-131048102D01*
X120417205Y-130859744D01*
X120303937Y-130690226D01*
X120159774Y-130546063D01*
X119990256Y-130432795D01*
X119906402Y-130398061D01*
X125665000Y-130398061D01*
X125665000Y-130601939D01*
X125704774Y-130801898D01*
X125782795Y-130990256D01*
X125896063Y-131159774D01*
X126040226Y-131303937D01*
X126209744Y-131417205D01*
X126398102Y-131495226D01*
X126598061Y-131535000D01*
X126801939Y-131535000D01*
X127001898Y-131495226D01*
X127190256Y-131417205D01*
X127359774Y-131303937D01*
X127503937Y-131159774D01*
X127617205Y-130990256D01*
X127695226Y-130801898D01*
X127735000Y-130601939D01*
X127735000Y-130398061D01*
X127695226Y-130198102D01*
X127617205Y-130009744D01*
X127503937Y-129840226D01*
X127359774Y-129696063D01*
X127190256Y-129582795D01*
X127001898Y-129504774D01*
X126801939Y-129465000D01*
X126598061Y-129465000D01*
X126398102Y-129504774D01*
X126209744Y-129582795D01*
X126040226Y-129696063D01*
X125896063Y-129840226D01*
X125782795Y-130009744D01*
X125704774Y-130198102D01*
X125665000Y-130398061D01*
X119906402Y-130398061D01*
X119801898Y-130354774D01*
X119601939Y-130315000D01*
X119398061Y-130315000D01*
X119198102Y-130354774D01*
X119009744Y-130432795D01*
X118840226Y-130546063D01*
X118696063Y-130690226D01*
X118582795Y-130859744D01*
X118504774Y-131048102D01*
X118465000Y-131248061D01*
X105160000Y-131248061D01*
X105160000Y-128898061D01*
X130365000Y-128898061D01*
X130365000Y-129101939D01*
X130404774Y-129301898D01*
X130466120Y-129450000D01*
X130404774Y-129598102D01*
X130365000Y-129798061D01*
X130365000Y-130001939D01*
X130404774Y-130201898D01*
X130482795Y-130390256D01*
X130596063Y-130559774D01*
X130740226Y-130703937D01*
X130909744Y-130817205D01*
X131098102Y-130895226D01*
X131298061Y-130935000D01*
X131501939Y-130935000D01*
X131701898Y-130895226D01*
X131890256Y-130817205D01*
X132059774Y-130703937D01*
X132203937Y-130559774D01*
X132317205Y-130390256D01*
X132395226Y-130201898D01*
X132435000Y-130001939D01*
X132435000Y-129798061D01*
X132395226Y-129598102D01*
X132333880Y-129450000D01*
X132395226Y-129301898D01*
X132435000Y-129101939D01*
X132435000Y-128898061D01*
X133865000Y-128898061D01*
X133865000Y-129101939D01*
X133904774Y-129301898D01*
X133966120Y-129450000D01*
X133904774Y-129598102D01*
X133865000Y-129798061D01*
X133865000Y-130001939D01*
X133904774Y-130201898D01*
X133982795Y-130390256D01*
X134096063Y-130559774D01*
X134240226Y-130703937D01*
X134409744Y-130817205D01*
X134598102Y-130895226D01*
X134798061Y-130935000D01*
X135001939Y-130935000D01*
X135201898Y-130895226D01*
X135390256Y-130817205D01*
X135559774Y-130703937D01*
X135565650Y-130698061D01*
X138065000Y-130698061D01*
X138065000Y-130901939D01*
X138104774Y-131101898D01*
X138182795Y-131290256D01*
X138296063Y-131459774D01*
X138440226Y-131603937D01*
X138609744Y-131717205D01*
X138798102Y-131795226D01*
X138991196Y-131833634D01*
X139004774Y-131901898D01*
X139082795Y-132090256D01*
X139196063Y-132259774D01*
X139340226Y-132403937D01*
X139509744Y-132517205D01*
X139698102Y-132595226D01*
X139898061Y-132635000D01*
X140101939Y-132635000D01*
X140301898Y-132595226D01*
X140490256Y-132517205D01*
X140659774Y-132403937D01*
X140803937Y-132259774D01*
X140917205Y-132090256D01*
X140995226Y-131901898D01*
X141035000Y-131701939D01*
X141035000Y-131498061D01*
X140995226Y-131298102D01*
X140917205Y-131109744D01*
X140803937Y-130940226D01*
X140659774Y-130796063D01*
X140490256Y-130682795D01*
X140301898Y-130604774D01*
X140108804Y-130566366D01*
X140095226Y-130498102D01*
X140017205Y-130309744D01*
X139903937Y-130140226D01*
X139759774Y-129996063D01*
X139590256Y-129882795D01*
X139401898Y-129804774D01*
X139201939Y-129765000D01*
X138998061Y-129765000D01*
X138798102Y-129804774D01*
X138609744Y-129882795D01*
X138440226Y-129996063D01*
X138296063Y-130140226D01*
X138182795Y-130309744D01*
X138104774Y-130498102D01*
X138065000Y-130698061D01*
X135565650Y-130698061D01*
X135703937Y-130559774D01*
X135817205Y-130390256D01*
X135895226Y-130201898D01*
X135935000Y-130001939D01*
X135935000Y-129798061D01*
X135895226Y-129598102D01*
X135833880Y-129450000D01*
X135895226Y-129301898D01*
X135935000Y-129101939D01*
X135935000Y-128898061D01*
X135895226Y-128698102D01*
X135817205Y-128509744D01*
X135703937Y-128340226D01*
X135559774Y-128196063D01*
X135390256Y-128082795D01*
X135201898Y-128004774D01*
X135001939Y-127965000D01*
X134798061Y-127965000D01*
X134598102Y-128004774D01*
X134409744Y-128082795D01*
X134240226Y-128196063D01*
X134096063Y-128340226D01*
X133982795Y-128509744D01*
X133904774Y-128698102D01*
X133865000Y-128898061D01*
X132435000Y-128898061D01*
X132395226Y-128698102D01*
X132317205Y-128509744D01*
X132203937Y-128340226D01*
X132059774Y-128196063D01*
X131890256Y-128082795D01*
X131701898Y-128004774D01*
X131501939Y-127965000D01*
X131298061Y-127965000D01*
X131098102Y-128004774D01*
X130909744Y-128082795D01*
X130740226Y-128196063D01*
X130596063Y-128340226D01*
X130482795Y-128509744D01*
X130404774Y-128698102D01*
X130365000Y-128898061D01*
X105160000Y-128898061D01*
X105160000Y-126598061D01*
X111565000Y-126598061D01*
X111565000Y-126801939D01*
X111604774Y-127001898D01*
X111682795Y-127190256D01*
X111796063Y-127359774D01*
X111940226Y-127503937D01*
X112109744Y-127617205D01*
X112298102Y-127695226D01*
X112319342Y-127699451D01*
X112329774Y-127751898D01*
X112407795Y-127940256D01*
X112521063Y-128109774D01*
X112665226Y-128253937D01*
X112834744Y-128367205D01*
X113023102Y-128445226D01*
X113223061Y-128485000D01*
X113426939Y-128485000D01*
X113626898Y-128445226D01*
X113815256Y-128367205D01*
X113984774Y-128253937D01*
X114128937Y-128109774D01*
X114242205Y-127940256D01*
X114320226Y-127751898D01*
X114360000Y-127551939D01*
X114360000Y-127348061D01*
X114320226Y-127148102D01*
X114242205Y-126959744D01*
X114128937Y-126790226D01*
X113984774Y-126646063D01*
X113815256Y-126532795D01*
X113626898Y-126454774D01*
X113605658Y-126450549D01*
X113595226Y-126398102D01*
X113517205Y-126209744D01*
X113403937Y-126040226D01*
X113259774Y-125896063D01*
X113090256Y-125782795D01*
X112901898Y-125704774D01*
X112701939Y-125665000D01*
X112498061Y-125665000D01*
X112298102Y-125704774D01*
X112109744Y-125782795D01*
X111940226Y-125896063D01*
X111796063Y-126040226D01*
X111682795Y-126209744D01*
X111604774Y-126398102D01*
X111565000Y-126598061D01*
X105160000Y-126598061D01*
X105160000Y-123200000D01*
X147411928Y-123200000D01*
X147411928Y-125600000D01*
X147424188Y-125724482D01*
X147460498Y-125844180D01*
X147519463Y-125954494D01*
X147598815Y-126051185D01*
X147695506Y-126130537D01*
X147805820Y-126189502D01*
X147925518Y-126225812D01*
X148050000Y-126238072D01*
X150450000Y-126238072D01*
X150574482Y-126225812D01*
X150694180Y-126189502D01*
X150804494Y-126130537D01*
X150901185Y-126051185D01*
X150980537Y-125954494D01*
X151039502Y-125844180D01*
X151075812Y-125724482D01*
X151088072Y-125600000D01*
X151088072Y-123200000D01*
X151075812Y-123075518D01*
X151039502Y-122955820D01*
X150980537Y-122845506D01*
X150901185Y-122748815D01*
X150804494Y-122669463D01*
X150694180Y-122610498D01*
X150574482Y-122574188D01*
X150450000Y-122561928D01*
X150043097Y-122561928D01*
X150228486Y-122462836D01*
X150348374Y-122177980D01*
X149250000Y-121079605D01*
X148151626Y-122177980D01*
X148271514Y-122462836D01*
X148470912Y-122561928D01*
X148050000Y-122561928D01*
X147925518Y-122574188D01*
X147805820Y-122610498D01*
X147695506Y-122669463D01*
X147598815Y-122748815D01*
X147519463Y-122845506D01*
X147460498Y-122955820D01*
X147424188Y-123075518D01*
X147411928Y-123200000D01*
X105160000Y-123200000D01*
X105160000Y-120954684D01*
X147406933Y-120954684D01*
X147453015Y-121313198D01*
X147568154Y-121655833D01*
X147687164Y-121878486D01*
X147972020Y-121998374D01*
X149070395Y-120900000D01*
X149429605Y-120900000D01*
X150527980Y-121998374D01*
X150812836Y-121878486D01*
X150973699Y-121554790D01*
X151068322Y-121205931D01*
X151093067Y-120845316D01*
X151046985Y-120486802D01*
X150931846Y-120144167D01*
X150812836Y-119921514D01*
X150527980Y-119801626D01*
X149429605Y-120900000D01*
X149070395Y-120900000D01*
X147972020Y-119801626D01*
X147687164Y-119921514D01*
X147526301Y-120245210D01*
X147431678Y-120594069D01*
X147406933Y-120954684D01*
X105160000Y-120954684D01*
X105160000Y-119798061D01*
X113390000Y-119798061D01*
X113390000Y-120001939D01*
X113429774Y-120201898D01*
X113507795Y-120390256D01*
X113621063Y-120559774D01*
X113765226Y-120703937D01*
X113934744Y-120817205D01*
X114123102Y-120895226D01*
X114323061Y-120935000D01*
X114526939Y-120935000D01*
X114726898Y-120895226D01*
X114915256Y-120817205D01*
X115084774Y-120703937D01*
X115228937Y-120559774D01*
X115342205Y-120390256D01*
X115420226Y-120201898D01*
X115460000Y-120001939D01*
X115460000Y-119798061D01*
X115420226Y-119598102D01*
X115342205Y-119409744D01*
X115228937Y-119240226D01*
X115084774Y-119096063D01*
X114915256Y-118982795D01*
X114726898Y-118904774D01*
X114526939Y-118865000D01*
X114323061Y-118865000D01*
X114123102Y-118904774D01*
X113934744Y-118982795D01*
X113765226Y-119096063D01*
X113621063Y-119240226D01*
X113507795Y-119409744D01*
X113429774Y-119598102D01*
X113390000Y-119798061D01*
X105160000Y-119798061D01*
X105160000Y-118498061D01*
X129265000Y-118498061D01*
X129265000Y-118701939D01*
X129304774Y-118901898D01*
X129382795Y-119090256D01*
X129496063Y-119259774D01*
X129640226Y-119403937D01*
X129809744Y-119517205D01*
X129998102Y-119595226D01*
X130198061Y-119635000D01*
X130401939Y-119635000D01*
X130467194Y-119622020D01*
X148151626Y-119622020D01*
X149250000Y-120720395D01*
X150348374Y-119622020D01*
X150228486Y-119337164D01*
X149904790Y-119176301D01*
X149555931Y-119081678D01*
X149195316Y-119056933D01*
X148836802Y-119103015D01*
X148494167Y-119218154D01*
X148271514Y-119337164D01*
X148151626Y-119622020D01*
X130467194Y-119622020D01*
X130601898Y-119595226D01*
X130790256Y-119517205D01*
X130959774Y-119403937D01*
X131103937Y-119259774D01*
X131217205Y-119090256D01*
X131295226Y-118901898D01*
X131335000Y-118701939D01*
X131335000Y-118498061D01*
X131295226Y-118298102D01*
X131217205Y-118109744D01*
X131103937Y-117940226D01*
X131011772Y-117848061D01*
X132715000Y-117848061D01*
X132715000Y-118051939D01*
X132754774Y-118251898D01*
X132832795Y-118440256D01*
X132946063Y-118609774D01*
X133090226Y-118753937D01*
X133259744Y-118867205D01*
X133448102Y-118945226D01*
X133648061Y-118985000D01*
X133851939Y-118985000D01*
X134051898Y-118945226D01*
X134240256Y-118867205D01*
X134409774Y-118753937D01*
X134553937Y-118609774D01*
X134667205Y-118440256D01*
X134745226Y-118251898D01*
X134785000Y-118051939D01*
X134785000Y-117848061D01*
X134745226Y-117648102D01*
X134667205Y-117459744D01*
X134553937Y-117290226D01*
X134409774Y-117146063D01*
X134240256Y-117032795D01*
X134051898Y-116954774D01*
X133851939Y-116915000D01*
X133648061Y-116915000D01*
X133448102Y-116954774D01*
X133259744Y-117032795D01*
X133090226Y-117146063D01*
X132946063Y-117290226D01*
X132832795Y-117459744D01*
X132754774Y-117648102D01*
X132715000Y-117848061D01*
X131011772Y-117848061D01*
X130959774Y-117796063D01*
X130790256Y-117682795D01*
X130601898Y-117604774D01*
X130401939Y-117565000D01*
X130198061Y-117565000D01*
X129998102Y-117604774D01*
X129809744Y-117682795D01*
X129640226Y-117796063D01*
X129496063Y-117940226D01*
X129382795Y-118109744D01*
X129304774Y-118298102D01*
X129265000Y-118498061D01*
X105160000Y-118498061D01*
X105160000Y-117098061D01*
X114540000Y-117098061D01*
X114540000Y-117301939D01*
X114579774Y-117501898D01*
X114657795Y-117690256D01*
X114771063Y-117859774D01*
X114915226Y-118003937D01*
X115084744Y-118117205D01*
X115273102Y-118195226D01*
X115473061Y-118235000D01*
X115676939Y-118235000D01*
X115876898Y-118195226D01*
X116065256Y-118117205D01*
X116234774Y-118003937D01*
X116378937Y-117859774D01*
X116492205Y-117690256D01*
X116570226Y-117501898D01*
X116610000Y-117301939D01*
X116610000Y-117098061D01*
X116608575Y-117090892D01*
X125907831Y-117090892D01*
X125907831Y-117294770D01*
X125947605Y-117494729D01*
X126025626Y-117683087D01*
X126138894Y-117852605D01*
X126283057Y-117996768D01*
X126452575Y-118110036D01*
X126640933Y-118188057D01*
X126840892Y-118227831D01*
X127044770Y-118227831D01*
X127244729Y-118188057D01*
X127433087Y-118110036D01*
X127602605Y-117996768D01*
X127746768Y-117852605D01*
X127860036Y-117683087D01*
X127938057Y-117494729D01*
X127977831Y-117294770D01*
X127977831Y-117090892D01*
X127938057Y-116890933D01*
X127860036Y-116702575D01*
X127746768Y-116533057D01*
X127602605Y-116388894D01*
X127433087Y-116275626D01*
X127244729Y-116197605D01*
X127044770Y-116157831D01*
X126840892Y-116157831D01*
X126640933Y-116197605D01*
X126452575Y-116275626D01*
X126283057Y-116388894D01*
X126138894Y-116533057D01*
X126025626Y-116702575D01*
X125947605Y-116890933D01*
X125907831Y-117090892D01*
X116608575Y-117090892D01*
X116570226Y-116898102D01*
X116492205Y-116709744D01*
X116378937Y-116540226D01*
X116234774Y-116396063D01*
X116065256Y-116282795D01*
X115876898Y-116204774D01*
X115676939Y-116165000D01*
X115473061Y-116165000D01*
X115273102Y-116204774D01*
X115084744Y-116282795D01*
X114915226Y-116396063D01*
X114771063Y-116540226D01*
X114657795Y-116709744D01*
X114579774Y-116898102D01*
X114540000Y-117098061D01*
X105160000Y-117098061D01*
X105160000Y-114573061D01*
X116990000Y-114573061D01*
X116990000Y-114776939D01*
X117029774Y-114976898D01*
X117107795Y-115165256D01*
X117221063Y-115334774D01*
X117365226Y-115478937D01*
X117534744Y-115592205D01*
X117723102Y-115670226D01*
X117923061Y-115710000D01*
X118126939Y-115710000D01*
X118326898Y-115670226D01*
X118515256Y-115592205D01*
X118684774Y-115478937D01*
X118828937Y-115334774D01*
X118942205Y-115165256D01*
X119020226Y-114976898D01*
X119060000Y-114776939D01*
X119060000Y-114629738D01*
X119090256Y-114617205D01*
X119259774Y-114503937D01*
X119403937Y-114359774D01*
X119517205Y-114190256D01*
X119595226Y-114001898D01*
X119635000Y-113801939D01*
X119635000Y-113598061D01*
X122365000Y-113598061D01*
X122365000Y-113801939D01*
X122404774Y-114001898D01*
X122482795Y-114190256D01*
X122596063Y-114359774D01*
X122740226Y-114503937D01*
X122909744Y-114617205D01*
X123098102Y-114695226D01*
X123298061Y-114735000D01*
X123501939Y-114735000D01*
X123701898Y-114695226D01*
X123890256Y-114617205D01*
X124059774Y-114503937D01*
X124065650Y-114498061D01*
X145665000Y-114498061D01*
X145665000Y-114701939D01*
X145704774Y-114901898D01*
X145782795Y-115090256D01*
X145896063Y-115259774D01*
X146040226Y-115403937D01*
X146209744Y-115517205D01*
X146398102Y-115595226D01*
X146598061Y-115635000D01*
X146801939Y-115635000D01*
X147001898Y-115595226D01*
X147190256Y-115517205D01*
X147359774Y-115403937D01*
X147503937Y-115259774D01*
X147617205Y-115090256D01*
X147695226Y-114901898D01*
X147735000Y-114701939D01*
X147735000Y-114498061D01*
X147695226Y-114298102D01*
X147617205Y-114109744D01*
X147503937Y-113940226D01*
X147359774Y-113796063D01*
X147190256Y-113682795D01*
X147001898Y-113604774D01*
X146801939Y-113565000D01*
X146598061Y-113565000D01*
X146398102Y-113604774D01*
X146209744Y-113682795D01*
X146040226Y-113796063D01*
X145896063Y-113940226D01*
X145782795Y-114109744D01*
X145704774Y-114298102D01*
X145665000Y-114498061D01*
X124065650Y-114498061D01*
X124203937Y-114359774D01*
X124317205Y-114190256D01*
X124395226Y-114001898D01*
X124435000Y-113801939D01*
X124435000Y-113598061D01*
X124395226Y-113398102D01*
X124353788Y-113298061D01*
X125915000Y-113298061D01*
X125915000Y-113501939D01*
X125954774Y-113701898D01*
X126032795Y-113890256D01*
X126146063Y-114059774D01*
X126290226Y-114203937D01*
X126459744Y-114317205D01*
X126648102Y-114395226D01*
X126848061Y-114435000D01*
X127051939Y-114435000D01*
X127251898Y-114395226D01*
X127440256Y-114317205D01*
X127609774Y-114203937D01*
X127753937Y-114059774D01*
X127867205Y-113890256D01*
X127945226Y-113701898D01*
X127985000Y-113501939D01*
X127985000Y-113298061D01*
X127945226Y-113098102D01*
X127867205Y-112909744D01*
X127753937Y-112740226D01*
X127609774Y-112596063D01*
X127440256Y-112482795D01*
X127251898Y-112404774D01*
X127051939Y-112365000D01*
X126848061Y-112365000D01*
X126648102Y-112404774D01*
X126459744Y-112482795D01*
X126290226Y-112596063D01*
X126146063Y-112740226D01*
X126032795Y-112909744D01*
X125954774Y-113098102D01*
X125915000Y-113298061D01*
X124353788Y-113298061D01*
X124317205Y-113209744D01*
X124203937Y-113040226D01*
X124059774Y-112896063D01*
X123890256Y-112782795D01*
X123701898Y-112704774D01*
X123501939Y-112665000D01*
X123298061Y-112665000D01*
X123098102Y-112704774D01*
X122909744Y-112782795D01*
X122740226Y-112896063D01*
X122596063Y-113040226D01*
X122482795Y-113209744D01*
X122404774Y-113398102D01*
X122365000Y-113598061D01*
X119635000Y-113598061D01*
X119595226Y-113398102D01*
X119517205Y-113209744D01*
X119403937Y-113040226D01*
X119259774Y-112896063D01*
X119090256Y-112782795D01*
X118901898Y-112704774D01*
X118701939Y-112665000D01*
X118498061Y-112665000D01*
X118298102Y-112704774D01*
X118109744Y-112782795D01*
X117940226Y-112896063D01*
X117796063Y-113040226D01*
X117682795Y-113209744D01*
X117604774Y-113398102D01*
X117565000Y-113598061D01*
X117565000Y-113745262D01*
X117534744Y-113757795D01*
X117365226Y-113871063D01*
X117221063Y-114015226D01*
X117107795Y-114184744D01*
X117029774Y-114373102D01*
X116990000Y-114573061D01*
X105160000Y-114573061D01*
X105160000Y-110700881D01*
X106478724Y-110700881D01*
X106838912Y-111190548D01*
X107502882Y-111550849D01*
X108224385Y-111774694D01*
X108975695Y-111853480D01*
X109727938Y-111784178D01*
X110452208Y-111569452D01*
X110777781Y-111398061D01*
X118165000Y-111398061D01*
X118165000Y-111601939D01*
X118204774Y-111801898D01*
X118282795Y-111990256D01*
X118396063Y-112159774D01*
X118540226Y-112303937D01*
X118709744Y-112417205D01*
X118898102Y-112495226D01*
X119098061Y-112535000D01*
X119301939Y-112535000D01*
X119501898Y-112495226D01*
X119690256Y-112417205D01*
X119859774Y-112303937D01*
X120003937Y-112159774D01*
X120117205Y-111990256D01*
X120195226Y-111801898D01*
X120235000Y-111601939D01*
X120235000Y-111398061D01*
X121765000Y-111398061D01*
X121765000Y-111601939D01*
X121804774Y-111801898D01*
X121882795Y-111990256D01*
X121996063Y-112159774D01*
X122140226Y-112303937D01*
X122309744Y-112417205D01*
X122498102Y-112495226D01*
X122698061Y-112535000D01*
X122901939Y-112535000D01*
X123101898Y-112495226D01*
X123290256Y-112417205D01*
X123459774Y-112303937D01*
X123603937Y-112159774D01*
X123717205Y-111990256D01*
X123795226Y-111801898D01*
X123835000Y-111601939D01*
X123835000Y-111398061D01*
X123795226Y-111198102D01*
X123717205Y-111009744D01*
X123603937Y-110840226D01*
X123464592Y-110700881D01*
X147478724Y-110700881D01*
X147838912Y-111190548D01*
X148502882Y-111550849D01*
X149224385Y-111774694D01*
X149975695Y-111853480D01*
X150727938Y-111784178D01*
X151452208Y-111569452D01*
X152120670Y-111217555D01*
X152161088Y-111190548D01*
X152521276Y-110700881D01*
X150000000Y-108179605D01*
X147478724Y-110700881D01*
X123464592Y-110700881D01*
X123459774Y-110696063D01*
X123290256Y-110582795D01*
X123101898Y-110504774D01*
X122901939Y-110465000D01*
X122698061Y-110465000D01*
X122498102Y-110504774D01*
X122309744Y-110582795D01*
X122140226Y-110696063D01*
X121996063Y-110840226D01*
X121882795Y-111009744D01*
X121804774Y-111198102D01*
X121765000Y-111398061D01*
X120235000Y-111398061D01*
X120195226Y-111198102D01*
X120117205Y-111009744D01*
X120003937Y-110840226D01*
X119859774Y-110696063D01*
X119690256Y-110582795D01*
X119501898Y-110504774D01*
X119301939Y-110465000D01*
X119098061Y-110465000D01*
X118898102Y-110504774D01*
X118709744Y-110582795D01*
X118540226Y-110696063D01*
X118396063Y-110840226D01*
X118282795Y-111009744D01*
X118204774Y-111198102D01*
X118165000Y-111398061D01*
X110777781Y-111398061D01*
X111120670Y-111217555D01*
X111161088Y-111190548D01*
X111521276Y-110700881D01*
X109000000Y-108179605D01*
X106478724Y-110700881D01*
X105160000Y-110700881D01*
X105160000Y-108122015D01*
X105215822Y-108727938D01*
X105430548Y-109452208D01*
X105782445Y-110120670D01*
X105809452Y-110161088D01*
X106299119Y-110521276D01*
X108820395Y-108000000D01*
X109179605Y-108000000D01*
X111700881Y-110521276D01*
X112190548Y-110161088D01*
X112550849Y-109497118D01*
X112614610Y-109291599D01*
X118076082Y-109291599D01*
X118104352Y-109495433D01*
X118171845Y-109689836D01*
X118275967Y-109867336D01*
X118412717Y-110021112D01*
X118576840Y-110145255D01*
X118762028Y-110234994D01*
X118838877Y-110244666D01*
X118998000Y-110116998D01*
X118998000Y-109127000D01*
X118241238Y-109127000D01*
X118076082Y-109291599D01*
X112614610Y-109291599D01*
X112774694Y-108775615D01*
X112781742Y-108708401D01*
X118076082Y-108708401D01*
X118241238Y-108873000D01*
X118998000Y-108873000D01*
X118998000Y-107883002D01*
X119252000Y-107883002D01*
X119252000Y-108873000D01*
X119272000Y-108873000D01*
X119272000Y-109127000D01*
X119252000Y-109127000D01*
X119252000Y-110116998D01*
X119411123Y-110244666D01*
X119487972Y-110234994D01*
X119673160Y-110145255D01*
X119757062Y-110081791D01*
X119797203Y-110114734D01*
X119977007Y-110210841D01*
X120172105Y-110270024D01*
X120375000Y-110290007D01*
X120577894Y-110270024D01*
X120772992Y-110210841D01*
X120952797Y-110114734D01*
X121000000Y-110075996D01*
X121047203Y-110114734D01*
X121227007Y-110210841D01*
X121422105Y-110270024D01*
X121625000Y-110290007D01*
X121827894Y-110270024D01*
X122022992Y-110210841D01*
X122183106Y-110125259D01*
X122209392Y-110146831D01*
X122354284Y-110224278D01*
X122511500Y-110271969D01*
X122675000Y-110288072D01*
X123075000Y-110288072D01*
X123238500Y-110271969D01*
X123395716Y-110224278D01*
X123540608Y-110146831D01*
X123667606Y-110042606D01*
X123771831Y-109915608D01*
X123849278Y-109770716D01*
X123896969Y-109613500D01*
X123913072Y-109450000D01*
X123913072Y-109098061D01*
X130865000Y-109098061D01*
X130865000Y-109301939D01*
X130904774Y-109501898D01*
X130982795Y-109690256D01*
X131096063Y-109859774D01*
X131240226Y-110003937D01*
X131409744Y-110117205D01*
X131598102Y-110195226D01*
X131798061Y-110235000D01*
X132001939Y-110235000D01*
X132201898Y-110195226D01*
X132390256Y-110117205D01*
X132559774Y-110003937D01*
X132703937Y-109859774D01*
X132817205Y-109690256D01*
X132895226Y-109501898D01*
X132935000Y-109301939D01*
X132935000Y-109098061D01*
X132895226Y-108898102D01*
X132817205Y-108709744D01*
X132761780Y-108626793D01*
X136420000Y-108626793D01*
X136420000Y-109143206D01*
X136437147Y-109317299D01*
X136504906Y-109540673D01*
X136614942Y-109746535D01*
X136763025Y-109926975D01*
X136943464Y-110075058D01*
X137149326Y-110185094D01*
X137372700Y-110252853D01*
X137605000Y-110275733D01*
X137837299Y-110252853D01*
X138060673Y-110185094D01*
X138266535Y-110075058D01*
X138446975Y-109926975D01*
X138595058Y-109746536D01*
X138705094Y-109540674D01*
X138772853Y-109317300D01*
X138790000Y-109143207D01*
X138790000Y-108626794D01*
X138790000Y-108626793D01*
X141260000Y-108626793D01*
X141260000Y-109143206D01*
X141277147Y-109317299D01*
X141344906Y-109540673D01*
X141454942Y-109746535D01*
X141603025Y-109926975D01*
X141783464Y-110075058D01*
X141989326Y-110185094D01*
X142212700Y-110252853D01*
X142445000Y-110275733D01*
X142677299Y-110252853D01*
X142900673Y-110185094D01*
X143106535Y-110075058D01*
X143286975Y-109926975D01*
X143435058Y-109746536D01*
X143545094Y-109540674D01*
X143612853Y-109317300D01*
X143630000Y-109143207D01*
X143630000Y-108626794D01*
X143612853Y-108452701D01*
X143545094Y-108229327D01*
X143435058Y-108023464D01*
X143395855Y-107975695D01*
X146146520Y-107975695D01*
X146215822Y-108727938D01*
X146430548Y-109452208D01*
X146782445Y-110120670D01*
X146809452Y-110161088D01*
X147299119Y-110521276D01*
X149820395Y-108000000D01*
X147299119Y-105478724D01*
X146809452Y-105838912D01*
X146449151Y-106502882D01*
X146225306Y-107224385D01*
X146146520Y-107975695D01*
X143395855Y-107975695D01*
X143286975Y-107843025D01*
X143106536Y-107694942D01*
X142900674Y-107584906D01*
X142677300Y-107517147D01*
X142445000Y-107494267D01*
X142212701Y-107517147D01*
X141989327Y-107584906D01*
X141783465Y-107694942D01*
X141603026Y-107843025D01*
X141454943Y-108023464D01*
X141344906Y-108229326D01*
X141277147Y-108452700D01*
X141260000Y-108626793D01*
X138790000Y-108626793D01*
X138772853Y-108452701D01*
X138705094Y-108229327D01*
X138595058Y-108023464D01*
X138446975Y-107843025D01*
X138266536Y-107694942D01*
X138060674Y-107584906D01*
X137837300Y-107517147D01*
X137605000Y-107494267D01*
X137372701Y-107517147D01*
X137149327Y-107584906D01*
X136943465Y-107694942D01*
X136763026Y-107843025D01*
X136614943Y-108023464D01*
X136504906Y-108229326D01*
X136437147Y-108452700D01*
X136420000Y-108626793D01*
X132761780Y-108626793D01*
X132703937Y-108540226D01*
X132559774Y-108396063D01*
X132390256Y-108282795D01*
X132201898Y-108204774D01*
X132001939Y-108165000D01*
X131798061Y-108165000D01*
X131598102Y-108204774D01*
X131409744Y-108282795D01*
X131240226Y-108396063D01*
X131096063Y-108540226D01*
X130982795Y-108709744D01*
X130904774Y-108898102D01*
X130865000Y-109098061D01*
X123913072Y-109098061D01*
X123913072Y-108550000D01*
X123896969Y-108386500D01*
X123849278Y-108229284D01*
X123771831Y-108084392D01*
X123667606Y-107957394D01*
X123540608Y-107853169D01*
X123395716Y-107775722D01*
X123238500Y-107728031D01*
X123075000Y-107711928D01*
X122675000Y-107711928D01*
X122511500Y-107728031D01*
X122354284Y-107775722D01*
X122209392Y-107853169D01*
X122183106Y-107874741D01*
X122022993Y-107789159D01*
X121827895Y-107729976D01*
X121625000Y-107709993D01*
X121422106Y-107729976D01*
X121227008Y-107789159D01*
X121047204Y-107885266D01*
X121000001Y-107924005D01*
X120952797Y-107885266D01*
X120772993Y-107789159D01*
X120577895Y-107729976D01*
X120375000Y-107709993D01*
X120172106Y-107729976D01*
X119977008Y-107789159D01*
X119797204Y-107885266D01*
X119757063Y-107918209D01*
X119673160Y-107854745D01*
X119487972Y-107765006D01*
X119411123Y-107755334D01*
X119252000Y-107883002D01*
X118998000Y-107883002D01*
X118838877Y-107755334D01*
X118762028Y-107765006D01*
X118576840Y-107854745D01*
X118412717Y-107978888D01*
X118275967Y-108132664D01*
X118171845Y-108310164D01*
X118104352Y-108504567D01*
X118076082Y-108708401D01*
X112781742Y-108708401D01*
X112853480Y-108024305D01*
X112784178Y-107272062D01*
X112692591Y-106963137D01*
X127915000Y-106963137D01*
X127915000Y-107176863D01*
X127956696Y-107386483D01*
X128038485Y-107583940D01*
X128157225Y-107761647D01*
X128308353Y-107912775D01*
X128486060Y-108031515D01*
X128683517Y-108113304D01*
X128893137Y-108155000D01*
X129106863Y-108155000D01*
X129316483Y-108113304D01*
X129513940Y-108031515D01*
X129691647Y-107912775D01*
X129842775Y-107761647D01*
X129961515Y-107583940D01*
X130043304Y-107386483D01*
X130085000Y-107176863D01*
X130085000Y-106963137D01*
X130915000Y-106963137D01*
X130915000Y-107176863D01*
X130956696Y-107386483D01*
X131038485Y-107583940D01*
X131157225Y-107761647D01*
X131308353Y-107912775D01*
X131486060Y-108031515D01*
X131683517Y-108113304D01*
X131893137Y-108155000D01*
X132106863Y-108155000D01*
X132316483Y-108113304D01*
X132513940Y-108031515D01*
X132691647Y-107912775D01*
X132842775Y-107761647D01*
X132961515Y-107583940D01*
X133043304Y-107386483D01*
X133085000Y-107176863D01*
X133085000Y-106963137D01*
X133043304Y-106753517D01*
X132961515Y-106556060D01*
X132842775Y-106378353D01*
X132691647Y-106227225D01*
X132513940Y-106108485D01*
X132316483Y-106026696D01*
X132106863Y-105985000D01*
X131893137Y-105985000D01*
X131683517Y-106026696D01*
X131486060Y-106108485D01*
X131308353Y-106227225D01*
X131157225Y-106378353D01*
X131038485Y-106556060D01*
X130956696Y-106753517D01*
X130915000Y-106963137D01*
X130085000Y-106963137D01*
X130043304Y-106753517D01*
X129961515Y-106556060D01*
X129842775Y-106378353D01*
X129691647Y-106227225D01*
X129513940Y-106108485D01*
X129316483Y-106026696D01*
X129106863Y-105985000D01*
X128893137Y-105985000D01*
X128683517Y-106026696D01*
X128486060Y-106108485D01*
X128308353Y-106227225D01*
X128157225Y-106378353D01*
X128038485Y-106556060D01*
X127956696Y-106753517D01*
X127915000Y-106963137D01*
X112692591Y-106963137D01*
X112569452Y-106547792D01*
X112217555Y-105879330D01*
X112190548Y-105838912D01*
X111927812Y-105645649D01*
X135985000Y-105645649D01*
X135985000Y-106124350D01*
X136003955Y-106316804D01*
X136078862Y-106563740D01*
X136200505Y-106791317D01*
X136364208Y-106990792D01*
X136563682Y-107154495D01*
X136791259Y-107276138D01*
X137038195Y-107351045D01*
X137295000Y-107376338D01*
X137551804Y-107351045D01*
X137798740Y-107276138D01*
X138026317Y-107154495D01*
X138225792Y-106990792D01*
X138389495Y-106791318D01*
X138511138Y-106563741D01*
X138586045Y-106316805D01*
X138605000Y-106124351D01*
X138605000Y-105645650D01*
X138605000Y-105645649D01*
X141445000Y-105645649D01*
X141445000Y-106124350D01*
X141463955Y-106316804D01*
X141538862Y-106563740D01*
X141660505Y-106791317D01*
X141824208Y-106990792D01*
X142023682Y-107154495D01*
X142251259Y-107276138D01*
X142498195Y-107351045D01*
X142755000Y-107376338D01*
X143011804Y-107351045D01*
X143258740Y-107276138D01*
X143486317Y-107154495D01*
X143685792Y-106990792D01*
X143849495Y-106791318D01*
X143971138Y-106563741D01*
X144046045Y-106316805D01*
X144065000Y-106124351D01*
X144065000Y-105645650D01*
X144046045Y-105453196D01*
X143971138Y-105206260D01*
X143849495Y-104978682D01*
X143685792Y-104779208D01*
X143486318Y-104615505D01*
X143258741Y-104493862D01*
X143011805Y-104418955D01*
X142755000Y-104393662D01*
X142498196Y-104418955D01*
X142251260Y-104493862D01*
X142023683Y-104615505D01*
X141824209Y-104779208D01*
X141660505Y-104978682D01*
X141538862Y-105206259D01*
X141463955Y-105453195D01*
X141445000Y-105645649D01*
X138605000Y-105645649D01*
X138586045Y-105453196D01*
X138511138Y-105206260D01*
X138389495Y-104978682D01*
X138225792Y-104779208D01*
X138026318Y-104615505D01*
X137798741Y-104493862D01*
X137551805Y-104418955D01*
X137295000Y-104393662D01*
X137038196Y-104418955D01*
X136791260Y-104493862D01*
X136563683Y-104615505D01*
X136364209Y-104779208D01*
X136200505Y-104978682D01*
X136078862Y-105206259D01*
X136003955Y-105453195D01*
X135985000Y-105645649D01*
X111927812Y-105645649D01*
X111700881Y-105478724D01*
X109179605Y-108000000D01*
X108820395Y-108000000D01*
X108806253Y-107985858D01*
X108985858Y-107806253D01*
X109000000Y-107820395D01*
X111521276Y-105299119D01*
X111161088Y-104809452D01*
X110497118Y-104449151D01*
X109775615Y-104225306D01*
X109152851Y-104160000D01*
X149877985Y-104160000D01*
X149272062Y-104215822D01*
G37*
%TD.AperFunction*%
%TD*%
M02*
