M48
; DRILL file {KiCad (5.1.10)-1} date 07/10/21 11:27:22
; FORMAT={-:-/ absolute / metric / decimal}
; #@! TF.CreationDate,2021-07-10T11:27:22-07:00
; #@! TF.GenerationSoftware,Kicad,Pcbnew,(5.1.10)-1
FMAT,2
METRIC
T1C0.400
T2C0.500
T3C1.000
T4C1.200
T5C3.200
T6C0.900
%
G90
G05
T1
X93.2Y-122.5
X94.0Y-139.1
X94.0Y-142.5
X94.0Y-149.6
X94.0Y-150.8
X94.0Y-151.9
X94.5Y-131.5
X96.2Y-139.1
X96.2Y-146.6
X97.8Y-122.6
X98.4Y-149.6
X98.4Y-150.8
X98.4Y-151.9
X98.5Y-142.5
X98.5Y-146.6
X99.7Y-140.4
X100.1Y-123.1
X102.0Y-131.5
X102.3Y-134.1
X102.7Y-143.0
X103.5Y-140.0
X103.5Y-143.9
X104.0Y-146.6
X104.3Y-129.9
X104.3Y-131.5
X104.5Y-136.0
X104.5Y-140.0
X105.1Y-132.4
X105.3Y-133.95
X105.5Y-144.2
X106.3Y-129.9
X106.5Y-133.3
X106.5Y-149.6
X106.5Y-150.8
X106.5Y-151.9
X107.0Y-124.25
X107.3Y-131.6
X107.5Y-146.4
X109.0Y-130.7
X109.28Y-147.3
X109.9Y-127.8
X115.1Y-147.3
X116.8Y-146.5
X117.6Y-121.8
X117.6Y-122.7
X118.6Y-121.8
X118.6Y-122.7
X119.2Y-134.4
X119.75Y-141.75
X119.8Y-150.4
X120.3Y-123.6
X120.6Y-135.5
X120.75Y-148.25
X121.4Y-138.0
X121.75Y-146.15
X122.5Y-139.2
X123.2Y-143.7
X123.2Y-145.6
X123.3Y-146.8
X123.3Y-149.7
X125.1Y-148.25
X126.0Y-126.5
X126.0Y-144.4
X126.0Y-145.6
X126.225Y-149.7
X127.0Y-125.6
X128.7Y-132.5
X128.8Y-137.75
X129.275Y-149.7
X129.5Y-144.4
X129.5Y-145.6
X129.6Y-132.2
X130.4Y-148.25
X130.9Y-137.75
X131.1Y-134.2
X132.0Y-137.75
X132.2Y-146.8
X132.2Y-149.7
X132.4Y-134.2
X135.7Y-137.5
X136.5Y-128.2
X136.5Y-130.0
X136.6Y-126.5
X136.8Y-136.6
X137.75Y-141.75
T2
X83.6Y-120.25
X83.6Y-153.75
X84.303Y-118.553
X84.303Y-121.947
X84.303Y-152.053
X84.303Y-155.447
X86.0Y-117.85
X86.0Y-122.65
X86.0Y-151.35
X86.0Y-156.15
X87.697Y-118.553
X87.697Y-121.947
X87.697Y-152.053
X87.697Y-155.447
X88.4Y-120.25
X88.4Y-153.75
X135.85Y-120.25
X135.85Y-153.75
X136.553Y-118.553
X136.553Y-121.947
X136.553Y-152.053
X136.553Y-155.447
X138.25Y-117.85
X138.25Y-122.65
X138.25Y-151.35
X138.25Y-156.15
X139.947Y-118.553
X139.947Y-121.947
X139.947Y-152.053
X139.947Y-155.447
X140.65Y-120.25
X140.65Y-153.75
T3
X85.75Y-130.0
X85.75Y-134.5
X85.75Y-139.0
X85.75Y-143.5
X90.7Y-128.0
X90.7Y-130.54
X90.7Y-133.08
X90.7Y-135.62
X90.75Y-142.5
X90.75Y-145.04
X90.75Y-147.58
X92.38Y-154.5
X94.92Y-154.5
X97.46Y-154.5
X100.0Y-154.5
X102.59Y-119.21
X102.59Y-121.75
X104.84Y-154.5
X105.13Y-119.21
X105.13Y-121.75
X107.38Y-154.5
X107.67Y-119.21
X107.67Y-121.75
X109.92Y-154.5
X110.21Y-119.21
X110.21Y-121.75
X112.46Y-154.5
X112.75Y-119.21
X112.75Y-121.75
X115.0Y-154.5
X117.54Y-154.5
X122.13Y-154.5
X124.67Y-154.5
X127.21Y-154.5
X129.75Y-154.5
T4
X128.0Y-121.5
X131.5Y-121.5
T5
X86.0Y-120.25
X86.0Y-153.75
X138.25Y-120.25
X138.25Y-153.75
T6
X94.0Y-119.5
X97.0Y-119.5
T0
M30
