%TF.GenerationSoftware,KiCad,Pcbnew,(5.1.10)-1*%
%TF.CreationDate,2021-07-10T11:27:40-07:00*%
%TF.ProjectId,willios_v2,77696c6c-696f-4735-9f76-322e6b696361,rev?*%
%TF.SameCoordinates,Original*%
%TF.FileFunction,Legend,Top*%
%TF.FilePolarity,Positive*%
%FSLAX46Y46*%
G04 Gerber Fmt 4.6, Leading zero omitted, Abs format (unit mm)*
G04 Created by KiCad (PCBNEW (5.1.10)-1) date 2021-07-10 11:27:40*
%MOMM*%
%LPD*%
G01*
G04 APERTURE LIST*
%ADD10C,0.150000*%
%ADD11C,0.100000*%
%ADD12C,0.120000*%
G04 APERTURE END LIST*
D10*
X107842857Y-138507142D02*
X107842857Y-139150000D01*
X107800000Y-139278571D01*
X107714285Y-139364285D01*
X107585714Y-139407142D01*
X107500000Y-139407142D01*
X108700000Y-139407142D02*
X108271428Y-139407142D01*
X108271428Y-138507142D01*
X109514285Y-139321428D02*
X109471428Y-139364285D01*
X109342857Y-139407142D01*
X109257142Y-139407142D01*
X109128571Y-139364285D01*
X109042857Y-139278571D01*
X109000000Y-139192857D01*
X108957142Y-139021428D01*
X108957142Y-138892857D01*
X109000000Y-138721428D01*
X109042857Y-138635714D01*
X109128571Y-138550000D01*
X109257142Y-138507142D01*
X109342857Y-138507142D01*
X109471428Y-138550000D01*
X109514285Y-138592857D01*
X110157142Y-138507142D02*
X110157142Y-139150000D01*
X110114285Y-139278571D01*
X110028571Y-139364285D01*
X109900000Y-139407142D01*
X109814285Y-139407142D01*
X111014285Y-139407142D02*
X110585714Y-139407142D01*
X110585714Y-138507142D01*
X111828571Y-139321428D02*
X111785714Y-139364285D01*
X111657142Y-139407142D01*
X111571428Y-139407142D01*
X111442857Y-139364285D01*
X111357142Y-139278571D01*
X111314285Y-139192857D01*
X111271428Y-139021428D01*
X111271428Y-138892857D01*
X111314285Y-138721428D01*
X111357142Y-138635714D01*
X111442857Y-138550000D01*
X111571428Y-138507142D01*
X111657142Y-138507142D01*
X111785714Y-138550000D01*
X111828571Y-138592857D01*
X112471428Y-138507142D02*
X112471428Y-139150000D01*
X112428571Y-139278571D01*
X112342857Y-139364285D01*
X112214285Y-139407142D01*
X112128571Y-139407142D01*
X113328571Y-139407142D02*
X112900000Y-139407142D01*
X112900000Y-138507142D01*
X114142857Y-139321428D02*
X114100000Y-139364285D01*
X113971428Y-139407142D01*
X113885714Y-139407142D01*
X113757142Y-139364285D01*
X113671428Y-139278571D01*
X113628571Y-139192857D01*
X113585714Y-139021428D01*
X113585714Y-138892857D01*
X113628571Y-138721428D01*
X113671428Y-138635714D01*
X113757142Y-138550000D01*
X113885714Y-138507142D01*
X113971428Y-138507142D01*
X114100000Y-138550000D01*
X114142857Y-138592857D01*
X114785714Y-138507142D02*
X114785714Y-139150000D01*
X114742857Y-139278571D01*
X114657142Y-139364285D01*
X114528571Y-139407142D01*
X114442857Y-139407142D01*
X115642857Y-139407142D02*
X115214285Y-139407142D01*
X115214285Y-138507142D01*
X116457142Y-139321428D02*
X116414285Y-139364285D01*
X116285714Y-139407142D01*
X116200000Y-139407142D01*
X116071428Y-139364285D01*
X115985714Y-139278571D01*
X115942857Y-139192857D01*
X115900000Y-139021428D01*
X115900000Y-138892857D01*
X115942857Y-138721428D01*
X115985714Y-138635714D01*
X116071428Y-138550000D01*
X116200000Y-138507142D01*
X116285714Y-138507142D01*
X116414285Y-138550000D01*
X116457142Y-138592857D01*
D11*
X135445238Y-132957142D02*
X136054761Y-132957142D01*
X135750000Y-133261904D02*
X135750000Y-132652380D01*
X135445238Y-125307142D02*
X136054761Y-125307142D01*
X135750000Y-125611904D02*
X135750000Y-125002380D01*
D10*
X133719047Y-122521428D02*
X134480952Y-122521428D01*
X134100000Y-122902380D02*
X134100000Y-122140476D01*
D11*
X121845238Y-145107142D02*
X122454761Y-145107142D01*
X122150000Y-145411904D02*
X122150000Y-144802380D01*
X124595238Y-122107142D02*
X125204761Y-122107142D01*
X124900000Y-122411904D02*
X124900000Y-121802380D01*
D12*
X121600000Y-121550000D02*
G75*
G03*
X121600000Y-121550000I-50000J0D01*
G01*
X126350000Y-125900000D02*
G75*
G03*
X126350000Y-125900000I-50000J0D01*
G01*
X130650000Y-139500000D02*
G75*
G03*
X130650000Y-139500000I-50000J0D01*
G01*
X121800000Y-123900000D02*
G75*
G03*
X121800000Y-123900000I-50000J0D01*
G01*
X105300000Y-135250000D02*
G75*
G03*
X105300000Y-135250000I-50000J0D01*
G01*
D10*
X84052380Y-140880952D02*
X83052380Y-140880952D01*
X83052380Y-140500000D01*
X83100000Y-140404761D01*
X83147619Y-140357142D01*
X83242857Y-140309523D01*
X83385714Y-140309523D01*
X83480952Y-140357142D01*
X83528571Y-140404761D01*
X83576190Y-140500000D01*
X83576190Y-140880952D01*
X83052380Y-139976190D02*
X84052380Y-139738095D01*
X83338095Y-139547619D01*
X84052380Y-139357142D01*
X83052380Y-139119047D01*
X84052380Y-138738095D02*
X83052380Y-138738095D01*
X83766666Y-138404761D01*
X83052380Y-138071428D01*
X84052380Y-138071428D01*
X83052380Y-137404761D02*
X83052380Y-137309523D01*
X83100000Y-137214285D01*
X83147619Y-137166666D01*
X83242857Y-137119047D01*
X83433333Y-137071428D01*
X83671428Y-137071428D01*
X83861904Y-137119047D01*
X83957142Y-137166666D01*
X84004761Y-137214285D01*
X84052380Y-137309523D01*
X84052380Y-137404761D01*
X84004761Y-137500000D01*
X83957142Y-137547619D01*
X83861904Y-137595238D01*
X83671428Y-137642857D01*
X83433333Y-137642857D01*
X83242857Y-137595238D01*
X83147619Y-137547619D01*
X83100000Y-137500000D01*
X83052380Y-137404761D01*
X84052380Y-136380952D02*
X83052380Y-136380952D01*
X83052380Y-136000000D01*
X83100000Y-135904761D01*
X83147619Y-135857142D01*
X83242857Y-135809523D01*
X83385714Y-135809523D01*
X83480952Y-135857142D01*
X83528571Y-135904761D01*
X83576190Y-136000000D01*
X83576190Y-136380952D01*
X83052380Y-135476190D02*
X84052380Y-135238095D01*
X83338095Y-135047619D01*
X84052380Y-134857142D01*
X83052380Y-134619047D01*
X84052380Y-134238095D02*
X83052380Y-134238095D01*
X83766666Y-133904761D01*
X83052380Y-133571428D01*
X84052380Y-133571428D01*
X84052380Y-132571428D02*
X84052380Y-133142857D01*
X84052380Y-132857142D02*
X83052380Y-132857142D01*
X83195238Y-132952380D01*
X83290476Y-133047619D01*
X83338095Y-133142857D01*
X83766666Y-131238095D02*
X83766666Y-130761904D01*
X84052380Y-131333333D02*
X83052380Y-131000000D01*
X84052380Y-130666666D01*
X84052380Y-130333333D02*
X83052380Y-130333333D01*
X83052380Y-130095238D01*
X83100000Y-129952380D01*
X83195238Y-129857142D01*
X83290476Y-129809523D01*
X83480952Y-129761904D01*
X83623809Y-129761904D01*
X83814285Y-129809523D01*
X83909523Y-129857142D01*
X84004761Y-129952380D01*
X84052380Y-130095238D01*
X84052380Y-130333333D01*
X83957142Y-128761904D02*
X84004761Y-128809523D01*
X84052380Y-128952380D01*
X84052380Y-129047619D01*
X84004761Y-129190476D01*
X83909523Y-129285714D01*
X83814285Y-129333333D01*
X83623809Y-129380952D01*
X83480952Y-129380952D01*
X83290476Y-129333333D01*
X83195238Y-129285714D01*
X83100000Y-129190476D01*
X83052380Y-129047619D01*
X83052380Y-128952380D01*
X83100000Y-128809523D01*
X83147619Y-128761904D01*
X89052380Y-136061904D02*
X88052380Y-136061904D01*
X88052380Y-135680952D01*
X88100000Y-135585714D01*
X88147619Y-135538095D01*
X88242857Y-135490476D01*
X88385714Y-135490476D01*
X88480952Y-135538095D01*
X88528571Y-135585714D01*
X88576190Y-135680952D01*
X88576190Y-136061904D01*
X88052380Y-134871428D02*
X88052380Y-134680952D01*
X88100000Y-134585714D01*
X88195238Y-134490476D01*
X88385714Y-134442857D01*
X88719047Y-134442857D01*
X88909523Y-134490476D01*
X89004761Y-134585714D01*
X89052380Y-134680952D01*
X89052380Y-134871428D01*
X89004761Y-134966666D01*
X88909523Y-135061904D01*
X88719047Y-135109523D01*
X88385714Y-135109523D01*
X88195238Y-135061904D01*
X88100000Y-134966666D01*
X88052380Y-134871428D01*
X88052380Y-134109523D02*
X89052380Y-133871428D01*
X88338095Y-133680952D01*
X89052380Y-133490476D01*
X88052380Y-133252380D01*
X88528571Y-132871428D02*
X88528571Y-132538095D01*
X89052380Y-132395238D02*
X89052380Y-132871428D01*
X88052380Y-132871428D01*
X88052380Y-132395238D01*
X89052380Y-131395238D02*
X88576190Y-131728571D01*
X89052380Y-131966666D02*
X88052380Y-131966666D01*
X88052380Y-131585714D01*
X88100000Y-131490476D01*
X88147619Y-131442857D01*
X88242857Y-131395238D01*
X88385714Y-131395238D01*
X88480952Y-131442857D01*
X88528571Y-131490476D01*
X88576190Y-131585714D01*
X88576190Y-131966666D01*
X89052380Y-129633333D02*
X88576190Y-129966666D01*
X89052380Y-130204761D02*
X88052380Y-130204761D01*
X88052380Y-129823809D01*
X88100000Y-129728571D01*
X88147619Y-129680952D01*
X88242857Y-129633333D01*
X88385714Y-129633333D01*
X88480952Y-129680952D01*
X88528571Y-129728571D01*
X88576190Y-129823809D01*
X88576190Y-130204761D01*
X88766666Y-129252380D02*
X88766666Y-128776190D01*
X89052380Y-129347619D02*
X88052380Y-129014285D01*
X89052380Y-128680952D01*
X89052380Y-128347619D02*
X88052380Y-128347619D01*
X89052380Y-127395238D02*
X89052380Y-127871428D01*
X88052380Y-127871428D01*
X83100000Y-144600000D02*
X83052380Y-144695238D01*
X83052380Y-144838095D01*
X83100000Y-144980952D01*
X83195238Y-145076190D01*
X83290476Y-145123809D01*
X83480952Y-145171428D01*
X83623809Y-145171428D01*
X83814285Y-145123809D01*
X83909523Y-145076190D01*
X84004761Y-144980952D01*
X84052380Y-144838095D01*
X84052380Y-144742857D01*
X84004761Y-144600000D01*
X83957142Y-144552380D01*
X83623809Y-144552380D01*
X83623809Y-144742857D01*
X84052380Y-144123809D02*
X83052380Y-144123809D01*
X83052380Y-143742857D01*
X83100000Y-143647619D01*
X83147619Y-143600000D01*
X83242857Y-143552380D01*
X83385714Y-143552380D01*
X83480952Y-143600000D01*
X83528571Y-143647619D01*
X83576190Y-143742857D01*
X83576190Y-144123809D01*
X84052380Y-143123809D02*
X83052380Y-143123809D01*
X83052380Y-142457142D02*
X83052380Y-142266666D01*
X83100000Y-142171428D01*
X83195238Y-142076190D01*
X83385714Y-142028571D01*
X83719047Y-142028571D01*
X83909523Y-142076190D01*
X84004761Y-142171428D01*
X84052380Y-142266666D01*
X84052380Y-142457142D01*
X84004761Y-142552380D01*
X83909523Y-142647619D01*
X83719047Y-142695238D01*
X83385714Y-142695238D01*
X83195238Y-142647619D01*
X83100000Y-142552380D01*
X83052380Y-142457142D01*
X88052380Y-147476190D02*
X88052380Y-146857142D01*
X88433333Y-147190476D01*
X88433333Y-147047619D01*
X88480952Y-146952380D01*
X88528571Y-146904761D01*
X88623809Y-146857142D01*
X88861904Y-146857142D01*
X88957142Y-146904761D01*
X89004761Y-146952380D01*
X89052380Y-147047619D01*
X89052380Y-147333333D01*
X89004761Y-147428571D01*
X88957142Y-147476190D01*
X88100000Y-145142857D02*
X88052380Y-145238095D01*
X88052380Y-145380952D01*
X88100000Y-145523809D01*
X88195238Y-145619047D01*
X88290476Y-145666666D01*
X88480952Y-145714285D01*
X88623809Y-145714285D01*
X88814285Y-145666666D01*
X88909523Y-145619047D01*
X89004761Y-145523809D01*
X89052380Y-145380952D01*
X89052380Y-145285714D01*
X89004761Y-145142857D01*
X88957142Y-145095238D01*
X88623809Y-145095238D01*
X88623809Y-145285714D01*
X89052380Y-144666666D02*
X88052380Y-144666666D01*
X88052380Y-144285714D01*
X88100000Y-144190476D01*
X88147619Y-144142857D01*
X88242857Y-144095238D01*
X88385714Y-144095238D01*
X88480952Y-144142857D01*
X88528571Y-144190476D01*
X88576190Y-144285714D01*
X88576190Y-144666666D01*
X89052380Y-143666666D02*
X88052380Y-143666666D01*
X88052380Y-143000000D02*
X88052380Y-142809523D01*
X88100000Y-142714285D01*
X88195238Y-142619047D01*
X88385714Y-142571428D01*
X88719047Y-142571428D01*
X88909523Y-142619047D01*
X89004761Y-142714285D01*
X89052380Y-142809523D01*
X89052380Y-143000000D01*
X89004761Y-143095238D01*
X88909523Y-143190476D01*
X88719047Y-143238095D01*
X88385714Y-143238095D01*
X88195238Y-143190476D01*
X88100000Y-143095238D01*
X88052380Y-143000000D01*
X106342857Y-117504761D02*
X106485714Y-117552380D01*
X106723809Y-117552380D01*
X106819047Y-117504761D01*
X106866666Y-117457142D01*
X106914285Y-117361904D01*
X106914285Y-117266666D01*
X106866666Y-117171428D01*
X106819047Y-117123809D01*
X106723809Y-117076190D01*
X106533333Y-117028571D01*
X106438095Y-116980952D01*
X106390476Y-116933333D01*
X106342857Y-116838095D01*
X106342857Y-116742857D01*
X106390476Y-116647619D01*
X106438095Y-116600000D01*
X106533333Y-116552380D01*
X106771428Y-116552380D01*
X106914285Y-116600000D01*
X107247619Y-116552380D02*
X107485714Y-117552380D01*
X107676190Y-116838095D01*
X107866666Y-117552380D01*
X108104761Y-116552380D01*
X108485714Y-117552380D02*
X108485714Y-116552380D01*
X108723809Y-116552380D01*
X108866666Y-116600000D01*
X108961904Y-116695238D01*
X109009523Y-116790476D01*
X109057142Y-116980952D01*
X109057142Y-117123809D01*
X109009523Y-117314285D01*
X108961904Y-117409523D01*
X108866666Y-117504761D01*
X108723809Y-117552380D01*
X108485714Y-117552380D01*
X92161904Y-117552380D02*
X91828571Y-117076190D01*
X91590476Y-117552380D02*
X91590476Y-116552380D01*
X91971428Y-116552380D01*
X92066666Y-116600000D01*
X92114285Y-116647619D01*
X92161904Y-116742857D01*
X92161904Y-116885714D01*
X92114285Y-116980952D01*
X92066666Y-117028571D01*
X91971428Y-117076190D01*
X91590476Y-117076190D01*
X92590476Y-116552380D02*
X92590476Y-117361904D01*
X92638095Y-117457142D01*
X92685714Y-117504761D01*
X92780952Y-117552380D01*
X92971428Y-117552380D01*
X93066666Y-117504761D01*
X93114285Y-117457142D01*
X93161904Y-117361904D01*
X93161904Y-116552380D01*
X93638095Y-117552380D02*
X93638095Y-116552380D01*
X94209523Y-117552380D01*
X94209523Y-116552380D01*
X97642857Y-117028571D02*
X97785714Y-117076190D01*
X97833333Y-117123809D01*
X97880952Y-117219047D01*
X97880952Y-117361904D01*
X97833333Y-117457142D01*
X97785714Y-117504761D01*
X97690476Y-117552380D01*
X97309523Y-117552380D01*
X97309523Y-116552380D01*
X97642857Y-116552380D01*
X97738095Y-116600000D01*
X97785714Y-116647619D01*
X97833333Y-116742857D01*
X97833333Y-116838095D01*
X97785714Y-116933333D01*
X97738095Y-116980952D01*
X97642857Y-117028571D01*
X97309523Y-117028571D01*
X98500000Y-116552380D02*
X98690476Y-116552380D01*
X98785714Y-116600000D01*
X98880952Y-116695238D01*
X98928571Y-116885714D01*
X98928571Y-117219047D01*
X98880952Y-117409523D01*
X98785714Y-117504761D01*
X98690476Y-117552380D01*
X98500000Y-117552380D01*
X98404761Y-117504761D01*
X98309523Y-117409523D01*
X98261904Y-117219047D01*
X98261904Y-116885714D01*
X98309523Y-116695238D01*
X98404761Y-116600000D01*
X98500000Y-116552380D01*
X99547619Y-116552380D02*
X99738095Y-116552380D01*
X99833333Y-116600000D01*
X99928571Y-116695238D01*
X99976190Y-116885714D01*
X99976190Y-117219047D01*
X99928571Y-117409523D01*
X99833333Y-117504761D01*
X99738095Y-117552380D01*
X99547619Y-117552380D01*
X99452380Y-117504761D01*
X99357142Y-117409523D01*
X99309523Y-117219047D01*
X99309523Y-116885714D01*
X99357142Y-116695238D01*
X99452380Y-116600000D01*
X99547619Y-116552380D01*
X100261904Y-116552380D02*
X100833333Y-116552380D01*
X100547619Y-117552380D02*
X100547619Y-116552380D01*
X124304761Y-156252380D02*
X124304761Y-157061904D01*
X124352380Y-157157142D01*
X124400000Y-157204761D01*
X124495238Y-157252380D01*
X124685714Y-157252380D01*
X124780952Y-157204761D01*
X124828571Y-157157142D01*
X124876190Y-157061904D01*
X124876190Y-156252380D01*
X125304761Y-156966666D02*
X125780952Y-156966666D01*
X125209523Y-157252380D02*
X125542857Y-156252380D01*
X125876190Y-157252380D01*
X126780952Y-157252380D02*
X126447619Y-156776190D01*
X126209523Y-157252380D02*
X126209523Y-156252380D01*
X126590476Y-156252380D01*
X126685714Y-156300000D01*
X126733333Y-156347619D01*
X126780952Y-156442857D01*
X126780952Y-156585714D01*
X126733333Y-156680952D01*
X126685714Y-156728571D01*
X126590476Y-156776190D01*
X126209523Y-156776190D01*
X127066666Y-156252380D02*
X127638095Y-156252380D01*
X127352380Y-157252380D02*
X127352380Y-156252380D01*
X111376190Y-157204761D02*
X111519047Y-157252380D01*
X111757142Y-157252380D01*
X111852380Y-157204761D01*
X111900000Y-157157142D01*
X111947619Y-157061904D01*
X111947619Y-156966666D01*
X111900000Y-156871428D01*
X111852380Y-156823809D01*
X111757142Y-156776190D01*
X111566666Y-156728571D01*
X111471428Y-156680952D01*
X111423809Y-156633333D01*
X111376190Y-156538095D01*
X111376190Y-156442857D01*
X111423809Y-156347619D01*
X111471428Y-156300000D01*
X111566666Y-156252380D01*
X111804761Y-156252380D01*
X111947619Y-156300000D01*
X112376190Y-157252380D02*
X112376190Y-156252380D01*
X112757142Y-156252380D01*
X112852380Y-156300000D01*
X112900000Y-156347619D01*
X112947619Y-156442857D01*
X112947619Y-156585714D01*
X112900000Y-156680952D01*
X112852380Y-156728571D01*
X112757142Y-156776190D01*
X112376190Y-156776190D01*
X113376190Y-157252380D02*
X113376190Y-156252380D01*
X93923809Y-157252380D02*
X93923809Y-156252380D01*
X94352380Y-156347619D02*
X94400000Y-156300000D01*
X94495238Y-156252380D01*
X94733333Y-156252380D01*
X94828571Y-156300000D01*
X94876190Y-156347619D01*
X94923809Y-156442857D01*
X94923809Y-156538095D01*
X94876190Y-156680952D01*
X94304761Y-157252380D01*
X94923809Y-157252380D01*
X95923809Y-157157142D02*
X95876190Y-157204761D01*
X95733333Y-157252380D01*
X95638095Y-157252380D01*
X95495238Y-157204761D01*
X95400000Y-157109523D01*
X95352380Y-157014285D01*
X95304761Y-156823809D01*
X95304761Y-156680952D01*
X95352380Y-156490476D01*
X95400000Y-156395238D01*
X95495238Y-156300000D01*
X95638095Y-156252380D01*
X95733333Y-156252380D01*
X95876190Y-156300000D01*
X95923809Y-156347619D01*
D12*
%TO.C,J9*%
X89370000Y-129270000D02*
X92030000Y-129270000D01*
X89370000Y-129270000D02*
X89370000Y-136950000D01*
X89370000Y-136950000D02*
X92030000Y-136950000D01*
X92030000Y-129270000D02*
X92030000Y-136950000D01*
X92030000Y-126670000D02*
X92030000Y-128000000D01*
X90700000Y-126670000D02*
X92030000Y-126670000D01*
%TO.C,R7*%
X100487258Y-130977500D02*
X100012742Y-130977500D01*
X100487258Y-132022500D02*
X100012742Y-132022500D01*
%TO.C,J12*%
X84420000Y-135830000D02*
X87080000Y-135830000D01*
X84420000Y-135710000D02*
X84420000Y-135830000D01*
X87080000Y-135710000D02*
X87080000Y-135830000D01*
X87080000Y-133170000D02*
X87080000Y-134500000D01*
X85750000Y-133170000D02*
X87080000Y-133170000D01*
%TO.C,J11*%
X84420000Y-140330000D02*
X87080000Y-140330000D01*
X84420000Y-140210000D02*
X84420000Y-140330000D01*
X87080000Y-140210000D02*
X87080000Y-140330000D01*
X87080000Y-137670000D02*
X87080000Y-139000000D01*
X85750000Y-137670000D02*
X87080000Y-137670000D01*
%TO.C,J10*%
X84420000Y-144830000D02*
X87080000Y-144830000D01*
X84420000Y-144710000D02*
X84420000Y-144830000D01*
X87080000Y-144710000D02*
X87080000Y-144830000D01*
X87080000Y-142170000D02*
X87080000Y-143500000D01*
X85750000Y-142170000D02*
X87080000Y-142170000D01*
%TO.C,J8*%
X89420000Y-143770000D02*
X92080000Y-143770000D01*
X89420000Y-143770000D02*
X89420000Y-148910000D01*
X89420000Y-148910000D02*
X92080000Y-148910000D01*
X92080000Y-143770000D02*
X92080000Y-148910000D01*
X92080000Y-141170000D02*
X92080000Y-142500000D01*
X90750000Y-141170000D02*
X92080000Y-141170000D01*
%TO.C,J7*%
X84420000Y-131330000D02*
X87080000Y-131330000D01*
X84420000Y-131210000D02*
X84420000Y-131330000D01*
X87080000Y-131210000D02*
X87080000Y-131330000D01*
X87080000Y-128670000D02*
X87080000Y-130000000D01*
X85750000Y-128670000D02*
X87080000Y-128670000D01*
%TO.C,J6*%
X106110000Y-155830000D02*
X106110000Y-153170000D01*
X106110000Y-155830000D02*
X118870000Y-155830000D01*
X118870000Y-155830000D02*
X118870000Y-153170000D01*
X106110000Y-153170000D02*
X118870000Y-153170000D01*
X103510000Y-153170000D02*
X104840000Y-153170000D01*
X103510000Y-154500000D02*
X103510000Y-153170000D01*
%TO.C,J5*%
X98730000Y-153170000D02*
X98730000Y-155830000D01*
X98730000Y-153170000D02*
X91050000Y-153170000D01*
X91050000Y-153170000D02*
X91050000Y-155830000D01*
X98730000Y-155830000D02*
X91050000Y-155830000D01*
X101330000Y-155830000D02*
X100000000Y-155830000D01*
X101330000Y-154500000D02*
X101330000Y-155830000D01*
%TO.C,J4*%
X128480000Y-153170000D02*
X128480000Y-155830000D01*
X128480000Y-153170000D02*
X120800000Y-153170000D01*
X120800000Y-153170000D02*
X120800000Y-155830000D01*
X128480000Y-155830000D02*
X120800000Y-155830000D01*
X131080000Y-155830000D02*
X129750000Y-155830000D01*
X131080000Y-154500000D02*
X131080000Y-155830000D01*
%TO.C,C1*%
X132260000Y-139634420D02*
X132260000Y-139915580D01*
X131240000Y-139634420D02*
X131240000Y-139915580D01*
%TO.C,C2*%
X124736252Y-136840000D02*
X123313748Y-136840000D01*
X124736252Y-138660000D02*
X123313748Y-138660000D01*
%TO.C,C3*%
X130038748Y-147340000D02*
X131461252Y-147340000D01*
X130038748Y-149160000D02*
X131461252Y-149160000D01*
%TO.C,C4*%
X125461252Y-147340000D02*
X124038748Y-147340000D01*
X125461252Y-149160000D02*
X124038748Y-149160000D01*
%TO.C,C5*%
X104790000Y-130559420D02*
X104790000Y-130840580D01*
X105810000Y-130559420D02*
X105810000Y-130840580D01*
%TO.C,C6*%
X108412164Y-131140000D02*
X108627836Y-131140000D01*
X108412164Y-131860000D02*
X108627836Y-131860000D01*
%TO.C,C7*%
X108907836Y-146040000D02*
X108692164Y-146040000D01*
X108907836Y-146760000D02*
X108692164Y-146760000D01*
%TO.C,C8*%
X115607836Y-146860000D02*
X115392164Y-146860000D01*
X115607836Y-146140000D02*
X115392164Y-146140000D01*
%TO.C,C9*%
X119390000Y-135392164D02*
X119390000Y-135607836D01*
X120110000Y-135392164D02*
X120110000Y-135607836D01*
%TO.C,C10*%
X104860000Y-134857836D02*
X104860000Y-134642164D01*
X104140000Y-134857836D02*
X104140000Y-134642164D01*
%TO.C,C11*%
X102890000Y-141357836D02*
X102890000Y-141142164D01*
X103610000Y-141357836D02*
X103610000Y-141142164D01*
%TO.C,C12*%
X104860000Y-141357836D02*
X104860000Y-141142164D01*
X104140000Y-141357836D02*
X104140000Y-141142164D01*
%TO.C,C13*%
X100912164Y-134610000D02*
X101127836Y-134610000D01*
X100912164Y-133890000D02*
X101127836Y-133890000D01*
%TO.C,C14*%
X101127836Y-140610000D02*
X100912164Y-140610000D01*
X101127836Y-139890000D02*
X100912164Y-139890000D01*
%TO.C,D1*%
X123000000Y-126750000D02*
X125000000Y-126750000D01*
X125000000Y-126750000D02*
X125000000Y-122850000D01*
X123000000Y-126750000D02*
X123000000Y-122850000D01*
%TO.C,D2*%
X124250000Y-140750000D02*
X124250000Y-144650000D01*
X122250000Y-140750000D02*
X122250000Y-144650000D01*
X124250000Y-140750000D02*
X122250000Y-140750000D01*
%TO.C,D3*%
X133265000Y-127235000D02*
X135550000Y-127235000D01*
X133265000Y-125765000D02*
X133265000Y-127235000D01*
X135550000Y-125765000D02*
X133265000Y-125765000D01*
%TO.C,D4*%
X135550000Y-131015000D02*
X133265000Y-131015000D01*
X133265000Y-131015000D02*
X133265000Y-132485000D01*
X133265000Y-132485000D02*
X135550000Y-132485000D01*
%TO.C,F1*%
X124910000Y-130452064D02*
X124910000Y-129247936D01*
X123090000Y-130452064D02*
X123090000Y-129247936D01*
%TO.C,FB1*%
X124899622Y-132940000D02*
X124100378Y-132940000D01*
X124899622Y-134060000D02*
X124100378Y-134060000D01*
%TO.C,J1*%
X133550000Y-116700000D02*
X133150000Y-116700000D01*
X133550000Y-117340000D02*
X133550000Y-116700000D01*
X129145000Y-120559000D02*
X129274000Y-120431000D01*
X126930000Y-122775000D02*
X127024000Y-122681000D01*
X128975000Y-120319000D02*
X129069000Y-120226000D01*
X126725000Y-122569000D02*
X126854000Y-122441000D01*
X126190000Y-124660000D02*
X126190000Y-116940000D01*
X133310000Y-124660000D02*
X133310000Y-116940000D01*
X133310000Y-116940000D02*
X126190000Y-116940000D01*
X133310000Y-124660000D02*
X126190000Y-124660000D01*
X133310000Y-118500000D02*
X126190000Y-118500000D01*
X133310000Y-117400000D02*
X126190000Y-117400000D01*
X129680000Y-121500000D02*
G75*
G03*
X129680000Y-121500000I-1680000J0D01*
G01*
X130609736Y-120075279D02*
G75*
G02*
X131500000Y-119820000I890264J-1424721D01*
G01*
X130074495Y-122390193D02*
G75*
G02*
X130075000Y-120609000I1425505J890193D01*
G01*
X132389894Y-122925358D02*
G75*
G02*
X130634000Y-122940000I-889894J1425358D01*
G01*
X132925358Y-120610106D02*
G75*
G02*
X132940000Y-122366000I-1425358J-889894D01*
G01*
X131471326Y-119819901D02*
G75*
G02*
X132366000Y-120060000I28674J-1680099D01*
G01*
%TO.C,J2*%
X124060000Y-116400000D02*
X124060000Y-116660000D01*
X124060000Y-118940000D02*
X124060000Y-120710000D01*
X124060000Y-120710000D02*
X123680000Y-120710000D01*
X116440000Y-120710000D02*
X116440000Y-118940000D01*
X116440000Y-116660000D02*
X116440000Y-116400000D01*
X116440000Y-120710000D02*
X116820000Y-120710000D01*
%TO.C,J3*%
X114080000Y-121750000D02*
X114080000Y-123080000D01*
X114080000Y-123080000D02*
X112750000Y-123080000D01*
X114080000Y-120480000D02*
X111480000Y-120480000D01*
X111480000Y-120480000D02*
X111480000Y-123080000D01*
X111480000Y-123080000D02*
X101260000Y-123080000D01*
X101260000Y-117880000D02*
X101260000Y-123080000D01*
X114080000Y-117880000D02*
X101260000Y-117880000D01*
X114080000Y-117880000D02*
X114080000Y-120480000D01*
%TO.C,L1*%
X125050000Y-146050000D02*
X126200000Y-146050000D01*
X130450000Y-146050000D02*
X129300000Y-146050000D01*
X125050000Y-140450000D02*
X126200000Y-140450000D01*
X130450000Y-140450000D02*
X129300000Y-140450000D01*
X125050000Y-140450000D02*
X125050000Y-146050000D01*
X130450000Y-140450000D02*
X130450000Y-146050000D01*
%TO.C,Q1*%
X128760000Y-129080000D02*
X127300000Y-129080000D01*
X128760000Y-125920000D02*
X126600000Y-125920000D01*
X128760000Y-125920000D02*
X128760000Y-126850000D01*
X128760000Y-129080000D02*
X128760000Y-128150000D01*
%TO.C,R1*%
X126977500Y-133762742D02*
X126977500Y-134237258D01*
X128022500Y-133762742D02*
X128022500Y-134237258D01*
%TO.C,R2*%
X128977500Y-134237258D02*
X128977500Y-133762742D01*
X130022500Y-134237258D02*
X130022500Y-133762742D01*
%TO.C,R3*%
X131227500Y-135512742D02*
X131227500Y-135987258D01*
X132272500Y-135512742D02*
X132272500Y-135987258D01*
%TO.C,R4*%
X134272500Y-135987258D02*
X134272500Y-135512742D01*
X133227500Y-135987258D02*
X133227500Y-135512742D01*
%TO.C,R5*%
X136272500Y-135512742D02*
X136272500Y-135987258D01*
X135227500Y-135512742D02*
X135227500Y-135987258D01*
%TO.C,R6*%
X134512742Y-127727500D02*
X134987258Y-127727500D01*
X134512742Y-128772500D02*
X134987258Y-128772500D01*
%TO.C,R8*%
X96012742Y-130977500D02*
X96487258Y-130977500D01*
X96012742Y-132022500D02*
X96487258Y-132022500D01*
%TO.C,R9*%
X94370000Y-123346359D02*
X94370000Y-123653641D01*
X95130000Y-123346359D02*
X95130000Y-123653641D01*
%TO.C,R10*%
X104153641Y-138380000D02*
X103846359Y-138380000D01*
X104153641Y-137620000D02*
X103846359Y-137620000D01*
%TO.C,R11*%
X134512742Y-130522500D02*
X134987258Y-130522500D01*
X134512742Y-129477500D02*
X134987258Y-129477500D01*
%TO.C,SW1*%
X92050000Y-119110000D02*
X92050000Y-119900000D01*
X98950000Y-119900000D02*
X98950000Y-119110000D01*
X97100000Y-120950000D02*
X95400000Y-120950000D01*
X98350000Y-118100000D02*
X92650000Y-118100000D01*
X95600000Y-116810000D02*
X95600000Y-118100000D01*
X96700000Y-116600000D02*
X95800000Y-116600000D01*
X96900000Y-118100000D02*
X96900000Y-116810000D01*
X95600000Y-116810000D02*
X95800000Y-116600000D01*
X96900000Y-116810000D02*
X96700000Y-116600000D01*
X94100000Y-120950000D02*
X93900000Y-120950000D01*
%TO.C,U1*%
X129650000Y-136140000D02*
X127850000Y-136140000D01*
X127850000Y-139360000D02*
X130300000Y-139360000D01*
%TO.C,U2*%
X121860000Y-126650000D02*
X121860000Y-124200000D01*
X118640000Y-124850000D02*
X118640000Y-126650000D01*
%TO.C,U3*%
X106890000Y-134840000D02*
X105550000Y-134840000D01*
X106890000Y-133890000D02*
X106890000Y-134840000D01*
X107840000Y-133890000D02*
X106890000Y-133890000D01*
X117110000Y-133890000D02*
X117110000Y-134840000D01*
X116160000Y-133890000D02*
X117110000Y-133890000D01*
X106890000Y-144110000D02*
X106890000Y-143160000D01*
X107840000Y-144110000D02*
X106890000Y-144110000D01*
X117110000Y-144110000D02*
X117110000Y-143160000D01*
X116160000Y-144110000D02*
X117110000Y-144110000D01*
%TO.C,Y1*%
X99350000Y-135250000D02*
X99350000Y-139250000D01*
X102650000Y-135250000D02*
X99350000Y-135250000D01*
%TD*%
M02*
