%TF.GenerationSoftware,KiCad,Pcbnew,(5.1.10)-1*%
%TF.CreationDate,2021-07-10T11:27:39-07:00*%
%TF.ProjectId,willios_v2,77696c6c-696f-4735-9f76-322e6b696361,rev?*%
%TF.SameCoordinates,Original*%
%TF.FileFunction,Copper,L2,Inr*%
%TF.FilePolarity,Positive*%
%FSLAX46Y46*%
G04 Gerber Fmt 4.6, Leading zero omitted, Abs format (unit mm)*
G04 Created by KiCad (PCBNEW (5.1.10)-1) date 2021-07-10 11:27:39*
%MOMM*%
%LPD*%
G01*
G04 APERTURE LIST*
%TA.AperFunction,ComponentPad*%
%ADD10O,1.700000X1.700000*%
%TD*%
%TA.AperFunction,ComponentPad*%
%ADD11R,1.700000X1.700000*%
%TD*%
%TA.AperFunction,ComponentPad*%
%ADD12C,6.400000*%
%TD*%
%TA.AperFunction,ComponentPad*%
%ADD13C,0.800000*%
%TD*%
%TA.AperFunction,ComponentPad*%
%ADD14R,2.400000X2.400000*%
%TD*%
%TA.AperFunction,ComponentPad*%
%ADD15C,2.400000*%
%TD*%
%TA.AperFunction,ViaPad*%
%ADD16C,0.800000*%
%TD*%
%TA.AperFunction,Conductor*%
%ADD17C,0.500000*%
%TD*%
%TA.AperFunction,Conductor*%
%ADD18C,0.154000*%
%TD*%
%TA.AperFunction,Conductor*%
%ADD19C,0.100000*%
%TD*%
%TA.AperFunction,Conductor*%
%ADD20C,0.254000*%
%TD*%
G04 APERTURE END LIST*
D10*
%TO.N,GND*%
%TO.C,J9*%
X90700000Y-135620000D03*
X90700000Y-133080000D03*
%TO.N,+3V3*%
X90700000Y-130540000D03*
D11*
X90700000Y-128000000D03*
%TD*%
D12*
%TO.N,GND*%
%TO.C,H1*%
X86000000Y-120250000D03*
D13*
X88400000Y-120250000D03*
X87697056Y-121947056D03*
X86000000Y-122650000D03*
X84302944Y-121947056D03*
X83600000Y-120250000D03*
X84302944Y-118552944D03*
X86000000Y-117850000D03*
X87697056Y-118552944D03*
%TD*%
D11*
%TO.N,TIM4_CH1*%
%TO.C,J12*%
X85750000Y-134500000D03*
%TD*%
%TO.N,TIM3_CH1*%
%TO.C,J11*%
X85750000Y-139000000D03*
%TD*%
%TO.N,PB12_GPIO*%
%TO.C,J10*%
X85750000Y-143500000D03*
%TD*%
D10*
%TO.N,PC6_GPIO*%
%TO.C,J8*%
X90750000Y-147580000D03*
%TO.N,PC7_GPIO*%
X90750000Y-145040000D03*
D11*
%TO.N,PC8_GPIO*%
X90750000Y-142500000D03*
%TD*%
%TO.N,ADC1_IN1*%
%TO.C,J7*%
X85750000Y-130000000D03*
%TD*%
D10*
%TO.N,GND*%
%TO.C,J6*%
X117540000Y-154500000D03*
%TO.N,SPI1_CS*%
X115000000Y-154500000D03*
%TO.N,SPI1_MOSI*%
X112460000Y-154500000D03*
%TO.N,SPI1_MISO*%
X109920000Y-154500000D03*
%TO.N,SPI1_SCK*%
X107380000Y-154500000D03*
D11*
%TO.N,+3V3*%
X104840000Y-154500000D03*
%TD*%
D10*
%TO.N,GND*%
%TO.C,J5*%
X92380000Y-154500000D03*
%TO.N,I2C1_SDA*%
X94920000Y-154500000D03*
%TO.N,I2C1_SCL*%
X97460000Y-154500000D03*
D11*
%TO.N,+3V3*%
X100000000Y-154500000D03*
%TD*%
D10*
%TO.N,GND*%
%TO.C,J4*%
X122130000Y-154500000D03*
%TO.N,USART3_TX*%
X124670000Y-154500000D03*
%TO.N,USART3_RX*%
X127210000Y-154500000D03*
D11*
%TO.N,+3V3*%
X129750000Y-154500000D03*
%TD*%
D13*
%TO.N,GND*%
%TO.C,H2*%
X139947056Y-118552944D03*
X138250000Y-117850000D03*
X136552944Y-118552944D03*
X135850000Y-120250000D03*
X136552944Y-121947056D03*
X138250000Y-122650000D03*
X139947056Y-121947056D03*
X140650000Y-120250000D03*
D12*
X138250000Y-120250000D03*
%TD*%
%TO.N,GND*%
%TO.C,H3*%
X86000000Y-153750000D03*
D13*
X88400000Y-153750000D03*
X87697056Y-155447056D03*
X86000000Y-156150000D03*
X84302944Y-155447056D03*
X83600000Y-153750000D03*
X84302944Y-152052944D03*
X86000000Y-151350000D03*
X87697056Y-152052944D03*
%TD*%
%TO.N,GND*%
%TO.C,H4*%
X139947056Y-152052944D03*
X138250000Y-151350000D03*
X136552944Y-152052944D03*
X135850000Y-153750000D03*
X136552944Y-155447056D03*
X138250000Y-156150000D03*
X139947056Y-155447056D03*
X140650000Y-153750000D03*
D12*
X138250000Y-153750000D03*
%TD*%
D14*
%TO.N,+9V*%
%TO.C,J1*%
X131500000Y-121500000D03*
D15*
%TO.N,GND*%
X128000000Y-121500000D03*
%TD*%
D11*
%TO.N,+3V3*%
%TO.C,J3*%
X112750000Y-121750000D03*
D10*
%TO.N,SWDIO*%
X112750000Y-119210000D03*
%TO.N,GND*%
X110210000Y-121750000D03*
%TO.N,SWCLK*%
X110210000Y-119210000D03*
%TO.N,GND*%
X107670000Y-121750000D03*
%TO.N,SWO*%
X107670000Y-119210000D03*
%TO.N,Net-(J3-Pad7)*%
X105130000Y-121750000D03*
%TO.N,Net-(J3-Pad8)*%
X105130000Y-119210000D03*
%TO.N,GND*%
X102590000Y-121750000D03*
%TO.N,NRST*%
X102590000Y-119210000D03*
%TD*%
D16*
%TO.N,+3V3*%
X132400000Y-134200000D03*
X131100000Y-134200000D03*
X136600000Y-126500000D03*
X97800000Y-122600000D03*
X104300000Y-129900000D03*
X106300000Y-129900000D03*
X103500000Y-143900000D03*
X102700000Y-143000000D03*
X102000000Y-131500000D03*
X94500000Y-131500000D03*
X107300000Y-131600000D03*
X104500000Y-136000000D03*
X119200000Y-134400000D03*
X116800000Y-146500000D03*
X126000000Y-144400000D03*
X126000000Y-145600000D03*
X129500000Y-144400000D03*
X129500000Y-145600000D03*
X129275000Y-149700000D03*
X125100000Y-148250000D03*
X130400000Y-148250000D03*
X126225000Y-149700000D03*
X109280000Y-147300000D03*
%TO.N,LED_STATUS*%
X119750000Y-141750000D03*
X137750000Y-141750000D03*
%TO.N,NRST*%
X106500000Y-133300000D03*
X100100000Y-123100000D03*
%TO.N,ADC1_IN1*%
X105500000Y-144200000D03*
X104000000Y-146600000D03*
X98500000Y-146600000D03*
X96200000Y-146600000D03*
X96200000Y-139100000D03*
X94000000Y-139100000D03*
%TO.N,PC8_GPIO*%
X94000000Y-142500000D03*
X98500000Y-142500000D03*
%TO.N,PC7_GPIO*%
X94000000Y-149600000D03*
X98400000Y-149600000D03*
X106500000Y-149600000D03*
X121750000Y-146150000D03*
%TO.N,PC6_GPIO*%
X94000000Y-150800000D03*
X98400000Y-150800000D03*
X106500000Y-150800000D03*
X120750000Y-148250000D03*
%TO.N,PB12_GPIO*%
X94000000Y-151900000D03*
X98400000Y-151900000D03*
X106500000Y-151900000D03*
X119800000Y-150400000D03*
%TO.N,BOOT0*%
X107000000Y-124250000D03*
X109900000Y-127800000D03*
%TO.N,GND*%
X105300000Y-133950000D03*
X130900000Y-137750000D03*
X105100000Y-132400000D03*
X104300000Y-131500000D03*
X109000000Y-130700000D03*
X93200000Y-122500000D03*
X136500000Y-128200000D03*
X136500000Y-130000000D03*
X107500000Y-146400000D03*
X120600000Y-135500000D03*
X118600000Y-121800000D03*
X117600000Y-121800000D03*
X117600000Y-122700000D03*
X118600000Y-122700000D03*
X123200000Y-145600000D03*
X123200000Y-143700000D03*
X122500000Y-139200000D03*
X121400000Y-138000000D03*
X126000000Y-126500000D03*
X127000000Y-125600000D03*
X135700000Y-137500000D03*
X136800000Y-136600000D03*
X129600000Y-132200000D03*
X128700000Y-132500000D03*
X132200000Y-146800000D03*
X132200000Y-149700000D03*
X123300000Y-146800000D03*
X123300000Y-149700000D03*
X128800000Y-137750000D03*
X132000000Y-137750000D03*
X115100000Y-147300000D03*
X120300000Y-123600000D03*
X103500000Y-140000000D03*
X104500000Y-140000000D03*
X102300000Y-134100000D03*
X99700000Y-140400000D03*
%TD*%
D17*
%TO.N,GND*%
X99700000Y-140400000D02*
X98300000Y-140400000D01*
%TD*%
D18*
%TO.N,GND*%
X102823000Y-137000000D02*
X102824480Y-137015022D01*
X102828861Y-137029467D01*
X102835977Y-137042779D01*
X102845553Y-137054447D01*
X102857221Y-137064023D01*
X102870533Y-137071139D01*
X102884978Y-137075520D01*
X102900000Y-137077000D01*
X107123000Y-137077000D01*
X107123000Y-137923000D01*
X105100000Y-137923000D01*
X105084978Y-137924480D01*
X105070533Y-137928861D01*
X105057221Y-137935977D01*
X105045553Y-137945553D01*
X105035977Y-137957221D01*
X105028861Y-137970533D01*
X105024480Y-137984978D01*
X105023000Y-138000000D01*
X105023000Y-138623000D01*
X102900000Y-138623000D01*
X102884978Y-138624480D01*
X102870533Y-138628861D01*
X102857221Y-138635977D01*
X102845553Y-138645553D01*
X102835977Y-138657221D01*
X102828861Y-138670533D01*
X102824480Y-138684978D01*
X102823000Y-138700000D01*
X102823000Y-139423000D01*
X102200000Y-139423000D01*
X102184978Y-139424480D01*
X102170533Y-139428861D01*
X102157221Y-139435977D01*
X102145553Y-139445553D01*
X102135977Y-139457221D01*
X102128861Y-139470533D01*
X102124480Y-139484978D01*
X102123000Y-139500000D01*
X102123000Y-140923000D01*
X99177000Y-140923000D01*
X99177000Y-135077000D01*
X99800000Y-135077000D01*
X99815022Y-135075520D01*
X99829467Y-135071139D01*
X99842779Y-135064023D01*
X99854447Y-135054447D01*
X99864023Y-135042779D01*
X99871139Y-135029467D01*
X99875520Y-135015022D01*
X99877000Y-135000000D01*
X99877000Y-133577000D01*
X102823000Y-133577000D01*
X102823000Y-137000000D01*
%TA.AperFunction,Conductor*%
D19*
G36*
X102823000Y-137000000D02*
G01*
X102824480Y-137015022D01*
X102828861Y-137029467D01*
X102835977Y-137042779D01*
X102845553Y-137054447D01*
X102857221Y-137064023D01*
X102870533Y-137071139D01*
X102884978Y-137075520D01*
X102900000Y-137077000D01*
X107123000Y-137077000D01*
X107123000Y-137923000D01*
X105100000Y-137923000D01*
X105084978Y-137924480D01*
X105070533Y-137928861D01*
X105057221Y-137935977D01*
X105045553Y-137945553D01*
X105035977Y-137957221D01*
X105028861Y-137970533D01*
X105024480Y-137984978D01*
X105023000Y-138000000D01*
X105023000Y-138623000D01*
X102900000Y-138623000D01*
X102884978Y-138624480D01*
X102870533Y-138628861D01*
X102857221Y-138635977D01*
X102845553Y-138645553D01*
X102835977Y-138657221D01*
X102828861Y-138670533D01*
X102824480Y-138684978D01*
X102823000Y-138700000D01*
X102823000Y-139423000D01*
X102200000Y-139423000D01*
X102184978Y-139424480D01*
X102170533Y-139428861D01*
X102157221Y-139435977D01*
X102145553Y-139445553D01*
X102135977Y-139457221D01*
X102128861Y-139470533D01*
X102124480Y-139484978D01*
X102123000Y-139500000D01*
X102123000Y-140923000D01*
X99177000Y-140923000D01*
X99177000Y-135077000D01*
X99800000Y-135077000D01*
X99815022Y-135075520D01*
X99829467Y-135071139D01*
X99842779Y-135064023D01*
X99854447Y-135054447D01*
X99864023Y-135042779D01*
X99871139Y-135029467D01*
X99875520Y-135015022D01*
X99877000Y-135000000D01*
X99877000Y-133577000D01*
X102823000Y-133577000D01*
X102823000Y-137000000D01*
G37*
%TD.AperFunction*%
%TD*%
D20*
%TO.N,GND*%
X137522062Y-116465822D02*
X136797792Y-116680548D01*
X136129330Y-117032445D01*
X136088912Y-117059452D01*
X135728724Y-117549119D01*
X138250000Y-120070395D01*
X138264143Y-120056253D01*
X138443748Y-120235858D01*
X138429605Y-120250000D01*
X140950881Y-122771276D01*
X141440548Y-122411088D01*
X141800849Y-121747118D01*
X142024694Y-121025615D01*
X142090000Y-120402851D01*
X142090001Y-153627996D01*
X142034178Y-153022062D01*
X141819452Y-152297792D01*
X141467555Y-151629330D01*
X141440548Y-151588912D01*
X140950881Y-151228724D01*
X138429605Y-153750000D01*
X138443748Y-153764143D01*
X138264143Y-153943748D01*
X138250000Y-153929605D01*
X135728724Y-156450881D01*
X136088912Y-156940548D01*
X136752882Y-157300849D01*
X137474385Y-157524694D01*
X138097149Y-157590000D01*
X86122015Y-157590000D01*
X86727938Y-157534178D01*
X87452208Y-157319452D01*
X88120670Y-156967555D01*
X88161088Y-156940548D01*
X88521276Y-156450881D01*
X86000000Y-153929605D01*
X85985858Y-153943748D01*
X85806253Y-153764143D01*
X85820395Y-153750000D01*
X86179605Y-153750000D01*
X88700881Y-156271276D01*
X89190548Y-155911088D01*
X89550849Y-155247118D01*
X89671916Y-154856891D01*
X90938519Y-154856891D01*
X91035843Y-155131252D01*
X91184822Y-155381355D01*
X91379731Y-155597588D01*
X91613080Y-155771641D01*
X91875901Y-155896825D01*
X92023110Y-155941476D01*
X92253000Y-155820155D01*
X92253000Y-154627000D01*
X91059186Y-154627000D01*
X90938519Y-154856891D01*
X89671916Y-154856891D01*
X89774694Y-154525615D01*
X89814805Y-154143109D01*
X90938519Y-154143109D01*
X91059186Y-154373000D01*
X92253000Y-154373000D01*
X92253000Y-153179845D01*
X92507000Y-153179845D01*
X92507000Y-154373000D01*
X92527000Y-154373000D01*
X92527000Y-154627000D01*
X92507000Y-154627000D01*
X92507000Y-155820155D01*
X92736890Y-155941476D01*
X92884099Y-155896825D01*
X93146920Y-155771641D01*
X93380269Y-155597588D01*
X93575178Y-155381355D01*
X93644805Y-155264466D01*
X93766525Y-155446632D01*
X93973368Y-155653475D01*
X94216589Y-155815990D01*
X94486842Y-155927932D01*
X94773740Y-155985000D01*
X95066260Y-155985000D01*
X95353158Y-155927932D01*
X95623411Y-155815990D01*
X95866632Y-155653475D01*
X96073475Y-155446632D01*
X96190000Y-155272240D01*
X96306525Y-155446632D01*
X96513368Y-155653475D01*
X96756589Y-155815990D01*
X97026842Y-155927932D01*
X97313740Y-155985000D01*
X97606260Y-155985000D01*
X97893158Y-155927932D01*
X98163411Y-155815990D01*
X98406632Y-155653475D01*
X98538487Y-155521620D01*
X98560498Y-155594180D01*
X98619463Y-155704494D01*
X98698815Y-155801185D01*
X98795506Y-155880537D01*
X98905820Y-155939502D01*
X99025518Y-155975812D01*
X99150000Y-155988072D01*
X100850000Y-155988072D01*
X100974482Y-155975812D01*
X101094180Y-155939502D01*
X101204494Y-155880537D01*
X101301185Y-155801185D01*
X101380537Y-155704494D01*
X101439502Y-155594180D01*
X101475812Y-155474482D01*
X101488072Y-155350000D01*
X101488072Y-153650000D01*
X103351928Y-153650000D01*
X103351928Y-155350000D01*
X103364188Y-155474482D01*
X103400498Y-155594180D01*
X103459463Y-155704494D01*
X103538815Y-155801185D01*
X103635506Y-155880537D01*
X103745820Y-155939502D01*
X103865518Y-155975812D01*
X103990000Y-155988072D01*
X105690000Y-155988072D01*
X105814482Y-155975812D01*
X105934180Y-155939502D01*
X106044494Y-155880537D01*
X106141185Y-155801185D01*
X106220537Y-155704494D01*
X106279502Y-155594180D01*
X106301513Y-155521620D01*
X106433368Y-155653475D01*
X106676589Y-155815990D01*
X106946842Y-155927932D01*
X107233740Y-155985000D01*
X107526260Y-155985000D01*
X107813158Y-155927932D01*
X108083411Y-155815990D01*
X108326632Y-155653475D01*
X108533475Y-155446632D01*
X108650000Y-155272240D01*
X108766525Y-155446632D01*
X108973368Y-155653475D01*
X109216589Y-155815990D01*
X109486842Y-155927932D01*
X109773740Y-155985000D01*
X110066260Y-155985000D01*
X110353158Y-155927932D01*
X110623411Y-155815990D01*
X110866632Y-155653475D01*
X111073475Y-155446632D01*
X111190000Y-155272240D01*
X111306525Y-155446632D01*
X111513368Y-155653475D01*
X111756589Y-155815990D01*
X112026842Y-155927932D01*
X112313740Y-155985000D01*
X112606260Y-155985000D01*
X112893158Y-155927932D01*
X113163411Y-155815990D01*
X113406632Y-155653475D01*
X113613475Y-155446632D01*
X113730000Y-155272240D01*
X113846525Y-155446632D01*
X114053368Y-155653475D01*
X114296589Y-155815990D01*
X114566842Y-155927932D01*
X114853740Y-155985000D01*
X115146260Y-155985000D01*
X115433158Y-155927932D01*
X115703411Y-155815990D01*
X115946632Y-155653475D01*
X116153475Y-155446632D01*
X116275195Y-155264466D01*
X116344822Y-155381355D01*
X116539731Y-155597588D01*
X116773080Y-155771641D01*
X117035901Y-155896825D01*
X117183110Y-155941476D01*
X117413000Y-155820155D01*
X117413000Y-154627000D01*
X117667000Y-154627000D01*
X117667000Y-155820155D01*
X117896890Y-155941476D01*
X118044099Y-155896825D01*
X118306920Y-155771641D01*
X118540269Y-155597588D01*
X118735178Y-155381355D01*
X118884157Y-155131252D01*
X118981481Y-154856891D01*
X120688519Y-154856891D01*
X120785843Y-155131252D01*
X120934822Y-155381355D01*
X121129731Y-155597588D01*
X121363080Y-155771641D01*
X121625901Y-155896825D01*
X121773110Y-155941476D01*
X122003000Y-155820155D01*
X122003000Y-154627000D01*
X120809186Y-154627000D01*
X120688519Y-154856891D01*
X118981481Y-154856891D01*
X118860814Y-154627000D01*
X117667000Y-154627000D01*
X117413000Y-154627000D01*
X117393000Y-154627000D01*
X117393000Y-154373000D01*
X117413000Y-154373000D01*
X117413000Y-153179845D01*
X117667000Y-153179845D01*
X117667000Y-154373000D01*
X118860814Y-154373000D01*
X118981481Y-154143109D01*
X120688519Y-154143109D01*
X120809186Y-154373000D01*
X122003000Y-154373000D01*
X122003000Y-153179845D01*
X122257000Y-153179845D01*
X122257000Y-154373000D01*
X122277000Y-154373000D01*
X122277000Y-154627000D01*
X122257000Y-154627000D01*
X122257000Y-155820155D01*
X122486890Y-155941476D01*
X122634099Y-155896825D01*
X122896920Y-155771641D01*
X123130269Y-155597588D01*
X123325178Y-155381355D01*
X123394805Y-155264466D01*
X123516525Y-155446632D01*
X123723368Y-155653475D01*
X123966589Y-155815990D01*
X124236842Y-155927932D01*
X124523740Y-155985000D01*
X124816260Y-155985000D01*
X125103158Y-155927932D01*
X125373411Y-155815990D01*
X125616632Y-155653475D01*
X125823475Y-155446632D01*
X125940000Y-155272240D01*
X126056525Y-155446632D01*
X126263368Y-155653475D01*
X126506589Y-155815990D01*
X126776842Y-155927932D01*
X127063740Y-155985000D01*
X127356260Y-155985000D01*
X127643158Y-155927932D01*
X127913411Y-155815990D01*
X128156632Y-155653475D01*
X128288487Y-155521620D01*
X128310498Y-155594180D01*
X128369463Y-155704494D01*
X128448815Y-155801185D01*
X128545506Y-155880537D01*
X128655820Y-155939502D01*
X128775518Y-155975812D01*
X128900000Y-155988072D01*
X130600000Y-155988072D01*
X130724482Y-155975812D01*
X130844180Y-155939502D01*
X130954494Y-155880537D01*
X131051185Y-155801185D01*
X131130537Y-155704494D01*
X131189502Y-155594180D01*
X131225812Y-155474482D01*
X131238072Y-155350000D01*
X131238072Y-153725695D01*
X134396520Y-153725695D01*
X134465822Y-154477938D01*
X134680548Y-155202208D01*
X135032445Y-155870670D01*
X135059452Y-155911088D01*
X135549119Y-156271276D01*
X138070395Y-153750000D01*
X135549119Y-151228724D01*
X135059452Y-151588912D01*
X134699151Y-152252882D01*
X134475306Y-152974385D01*
X134396520Y-153725695D01*
X131238072Y-153725695D01*
X131238072Y-153650000D01*
X131225812Y-153525518D01*
X131189502Y-153405820D01*
X131130537Y-153295506D01*
X131051185Y-153198815D01*
X130954494Y-153119463D01*
X130844180Y-153060498D01*
X130724482Y-153024188D01*
X130600000Y-153011928D01*
X128900000Y-153011928D01*
X128775518Y-153024188D01*
X128655820Y-153060498D01*
X128545506Y-153119463D01*
X128448815Y-153198815D01*
X128369463Y-153295506D01*
X128310498Y-153405820D01*
X128288487Y-153478380D01*
X128156632Y-153346525D01*
X127913411Y-153184010D01*
X127643158Y-153072068D01*
X127356260Y-153015000D01*
X127063740Y-153015000D01*
X126776842Y-153072068D01*
X126506589Y-153184010D01*
X126263368Y-153346525D01*
X126056525Y-153553368D01*
X125940000Y-153727760D01*
X125823475Y-153553368D01*
X125616632Y-153346525D01*
X125373411Y-153184010D01*
X125103158Y-153072068D01*
X124816260Y-153015000D01*
X124523740Y-153015000D01*
X124236842Y-153072068D01*
X123966589Y-153184010D01*
X123723368Y-153346525D01*
X123516525Y-153553368D01*
X123394805Y-153735534D01*
X123325178Y-153618645D01*
X123130269Y-153402412D01*
X122896920Y-153228359D01*
X122634099Y-153103175D01*
X122486890Y-153058524D01*
X122257000Y-153179845D01*
X122003000Y-153179845D01*
X121773110Y-153058524D01*
X121625901Y-153103175D01*
X121363080Y-153228359D01*
X121129731Y-153402412D01*
X120934822Y-153618645D01*
X120785843Y-153868748D01*
X120688519Y-154143109D01*
X118981481Y-154143109D01*
X118884157Y-153868748D01*
X118735178Y-153618645D01*
X118540269Y-153402412D01*
X118306920Y-153228359D01*
X118044099Y-153103175D01*
X117896890Y-153058524D01*
X117667000Y-153179845D01*
X117413000Y-153179845D01*
X117183110Y-153058524D01*
X117035901Y-153103175D01*
X116773080Y-153228359D01*
X116539731Y-153402412D01*
X116344822Y-153618645D01*
X116275195Y-153735534D01*
X116153475Y-153553368D01*
X115946632Y-153346525D01*
X115703411Y-153184010D01*
X115433158Y-153072068D01*
X115146260Y-153015000D01*
X114853740Y-153015000D01*
X114566842Y-153072068D01*
X114296589Y-153184010D01*
X114053368Y-153346525D01*
X113846525Y-153553368D01*
X113730000Y-153727760D01*
X113613475Y-153553368D01*
X113406632Y-153346525D01*
X113163411Y-153184010D01*
X112893158Y-153072068D01*
X112606260Y-153015000D01*
X112313740Y-153015000D01*
X112026842Y-153072068D01*
X111756589Y-153184010D01*
X111513368Y-153346525D01*
X111306525Y-153553368D01*
X111190000Y-153727760D01*
X111073475Y-153553368D01*
X110866632Y-153346525D01*
X110623411Y-153184010D01*
X110353158Y-153072068D01*
X110066260Y-153015000D01*
X109773740Y-153015000D01*
X109486842Y-153072068D01*
X109216589Y-153184010D01*
X108973368Y-153346525D01*
X108766525Y-153553368D01*
X108650000Y-153727760D01*
X108533475Y-153553368D01*
X108326632Y-153346525D01*
X108083411Y-153184010D01*
X107813158Y-153072068D01*
X107526260Y-153015000D01*
X107233740Y-153015000D01*
X106946842Y-153072068D01*
X106676589Y-153184010D01*
X106433368Y-153346525D01*
X106301513Y-153478380D01*
X106279502Y-153405820D01*
X106220537Y-153295506D01*
X106141185Y-153198815D01*
X106044494Y-153119463D01*
X105934180Y-153060498D01*
X105814482Y-153024188D01*
X105690000Y-153011928D01*
X103990000Y-153011928D01*
X103865518Y-153024188D01*
X103745820Y-153060498D01*
X103635506Y-153119463D01*
X103538815Y-153198815D01*
X103459463Y-153295506D01*
X103400498Y-153405820D01*
X103364188Y-153525518D01*
X103351928Y-153650000D01*
X101488072Y-153650000D01*
X101475812Y-153525518D01*
X101439502Y-153405820D01*
X101380537Y-153295506D01*
X101301185Y-153198815D01*
X101204494Y-153119463D01*
X101094180Y-153060498D01*
X100974482Y-153024188D01*
X100850000Y-153011928D01*
X99150000Y-153011928D01*
X99025518Y-153024188D01*
X98905820Y-153060498D01*
X98795506Y-153119463D01*
X98698815Y-153198815D01*
X98619463Y-153295506D01*
X98560498Y-153405820D01*
X98538487Y-153478380D01*
X98406632Y-153346525D01*
X98163411Y-153184010D01*
X97893158Y-153072068D01*
X97606260Y-153015000D01*
X97313740Y-153015000D01*
X97026842Y-153072068D01*
X96756589Y-153184010D01*
X96513368Y-153346525D01*
X96306525Y-153553368D01*
X96190000Y-153727760D01*
X96073475Y-153553368D01*
X95866632Y-153346525D01*
X95623411Y-153184010D01*
X95353158Y-153072068D01*
X95066260Y-153015000D01*
X94773740Y-153015000D01*
X94486842Y-153072068D01*
X94216589Y-153184010D01*
X93973368Y-153346525D01*
X93766525Y-153553368D01*
X93644805Y-153735534D01*
X93575178Y-153618645D01*
X93380269Y-153402412D01*
X93146920Y-153228359D01*
X92884099Y-153103175D01*
X92736890Y-153058524D01*
X92507000Y-153179845D01*
X92253000Y-153179845D01*
X92023110Y-153058524D01*
X91875901Y-153103175D01*
X91613080Y-153228359D01*
X91379731Y-153402412D01*
X91184822Y-153618645D01*
X91035843Y-153868748D01*
X90938519Y-154143109D01*
X89814805Y-154143109D01*
X89853480Y-153774305D01*
X89784178Y-153022062D01*
X89569452Y-152297792D01*
X89217555Y-151629330D01*
X89190548Y-151588912D01*
X88700881Y-151228724D01*
X86179605Y-153750000D01*
X85820395Y-153750000D01*
X83299119Y-151228724D01*
X82809452Y-151588912D01*
X82449151Y-152252882D01*
X82225306Y-152974385D01*
X82160000Y-153597149D01*
X82160000Y-151049119D01*
X83478724Y-151049119D01*
X86000000Y-153570395D01*
X88521276Y-151049119D01*
X88161088Y-150559452D01*
X87497118Y-150199151D01*
X86775615Y-149975306D01*
X86024305Y-149896520D01*
X85272062Y-149965822D01*
X84547792Y-150180548D01*
X83879330Y-150532445D01*
X83838912Y-150559452D01*
X83478724Y-151049119D01*
X82160000Y-151049119D01*
X82160000Y-149498061D01*
X92965000Y-149498061D01*
X92965000Y-149701939D01*
X93004774Y-149901898D01*
X93082795Y-150090256D01*
X93156123Y-150200000D01*
X93082795Y-150309744D01*
X93004774Y-150498102D01*
X92965000Y-150698061D01*
X92965000Y-150901939D01*
X93004774Y-151101898D01*
X93082795Y-151290256D01*
X93122715Y-151350000D01*
X93082795Y-151409744D01*
X93004774Y-151598102D01*
X92965000Y-151798061D01*
X92965000Y-152001939D01*
X93004774Y-152201898D01*
X93082795Y-152390256D01*
X93196063Y-152559774D01*
X93340226Y-152703937D01*
X93509744Y-152817205D01*
X93698102Y-152895226D01*
X93898061Y-152935000D01*
X94101939Y-152935000D01*
X94301898Y-152895226D01*
X94490256Y-152817205D01*
X94659774Y-152703937D01*
X94803937Y-152559774D01*
X94917205Y-152390256D01*
X94995226Y-152201898D01*
X95035000Y-152001939D01*
X95035000Y-151798061D01*
X94995226Y-151598102D01*
X94917205Y-151409744D01*
X94877285Y-151350000D01*
X94917205Y-151290256D01*
X94995226Y-151101898D01*
X95035000Y-150901939D01*
X95035000Y-150698061D01*
X94995226Y-150498102D01*
X94917205Y-150309744D01*
X94843877Y-150200000D01*
X94917205Y-150090256D01*
X94995226Y-149901898D01*
X95035000Y-149701939D01*
X95035000Y-149498061D01*
X97365000Y-149498061D01*
X97365000Y-149701939D01*
X97404774Y-149901898D01*
X97482795Y-150090256D01*
X97556123Y-150200000D01*
X97482795Y-150309744D01*
X97404774Y-150498102D01*
X97365000Y-150698061D01*
X97365000Y-150901939D01*
X97404774Y-151101898D01*
X97482795Y-151290256D01*
X97522715Y-151350000D01*
X97482795Y-151409744D01*
X97404774Y-151598102D01*
X97365000Y-151798061D01*
X97365000Y-152001939D01*
X97404774Y-152201898D01*
X97482795Y-152390256D01*
X97596063Y-152559774D01*
X97740226Y-152703937D01*
X97909744Y-152817205D01*
X98098102Y-152895226D01*
X98298061Y-152935000D01*
X98501939Y-152935000D01*
X98701898Y-152895226D01*
X98890256Y-152817205D01*
X99059774Y-152703937D01*
X99203937Y-152559774D01*
X99317205Y-152390256D01*
X99395226Y-152201898D01*
X99435000Y-152001939D01*
X99435000Y-151798061D01*
X99395226Y-151598102D01*
X99317205Y-151409744D01*
X99277285Y-151350000D01*
X99317205Y-151290256D01*
X99395226Y-151101898D01*
X99435000Y-150901939D01*
X99435000Y-150698061D01*
X99395226Y-150498102D01*
X99317205Y-150309744D01*
X99243877Y-150200000D01*
X99317205Y-150090256D01*
X99395226Y-149901898D01*
X99435000Y-149701939D01*
X99435000Y-149498061D01*
X105465000Y-149498061D01*
X105465000Y-149701939D01*
X105504774Y-149901898D01*
X105582795Y-150090256D01*
X105656123Y-150200000D01*
X105582795Y-150309744D01*
X105504774Y-150498102D01*
X105465000Y-150698061D01*
X105465000Y-150901939D01*
X105504774Y-151101898D01*
X105582795Y-151290256D01*
X105622715Y-151350000D01*
X105582795Y-151409744D01*
X105504774Y-151598102D01*
X105465000Y-151798061D01*
X105465000Y-152001939D01*
X105504774Y-152201898D01*
X105582795Y-152390256D01*
X105696063Y-152559774D01*
X105840226Y-152703937D01*
X106009744Y-152817205D01*
X106198102Y-152895226D01*
X106398061Y-152935000D01*
X106601939Y-152935000D01*
X106801898Y-152895226D01*
X106990256Y-152817205D01*
X107159774Y-152703937D01*
X107303937Y-152559774D01*
X107417205Y-152390256D01*
X107495226Y-152201898D01*
X107535000Y-152001939D01*
X107535000Y-151798061D01*
X107495226Y-151598102D01*
X107417205Y-151409744D01*
X107377285Y-151350000D01*
X107417205Y-151290256D01*
X107495226Y-151101898D01*
X107535000Y-150901939D01*
X107535000Y-150698061D01*
X107495226Y-150498102D01*
X107417205Y-150309744D01*
X107409399Y-150298061D01*
X118765000Y-150298061D01*
X118765000Y-150501939D01*
X118804774Y-150701898D01*
X118882795Y-150890256D01*
X118996063Y-151059774D01*
X119140226Y-151203937D01*
X119309744Y-151317205D01*
X119498102Y-151395226D01*
X119698061Y-151435000D01*
X119901939Y-151435000D01*
X120101898Y-151395226D01*
X120290256Y-151317205D01*
X120459774Y-151203937D01*
X120603937Y-151059774D01*
X120611056Y-151049119D01*
X135728724Y-151049119D01*
X138250000Y-153570395D01*
X140771276Y-151049119D01*
X140411088Y-150559452D01*
X139747118Y-150199151D01*
X139025615Y-149975306D01*
X138274305Y-149896520D01*
X137522062Y-149965822D01*
X136797792Y-150180548D01*
X136129330Y-150532445D01*
X136088912Y-150559452D01*
X135728724Y-151049119D01*
X120611056Y-151049119D01*
X120717205Y-150890256D01*
X120795226Y-150701898D01*
X120835000Y-150501939D01*
X120835000Y-150298061D01*
X120795226Y-150098102D01*
X120717205Y-149909744D01*
X120603937Y-149740226D01*
X120459774Y-149596063D01*
X120290256Y-149482795D01*
X120101898Y-149404774D01*
X119901939Y-149365000D01*
X119698061Y-149365000D01*
X119498102Y-149404774D01*
X119309744Y-149482795D01*
X119140226Y-149596063D01*
X118996063Y-149740226D01*
X118882795Y-149909744D01*
X118804774Y-150098102D01*
X118765000Y-150298061D01*
X107409399Y-150298061D01*
X107343877Y-150200000D01*
X107417205Y-150090256D01*
X107495226Y-149901898D01*
X107535000Y-149701939D01*
X107535000Y-149498061D01*
X107495226Y-149298102D01*
X107417205Y-149109744D01*
X107303937Y-148940226D01*
X107159774Y-148796063D01*
X106990256Y-148682795D01*
X106801898Y-148604774D01*
X106601939Y-148565000D01*
X106398061Y-148565000D01*
X106198102Y-148604774D01*
X106009744Y-148682795D01*
X105840226Y-148796063D01*
X105696063Y-148940226D01*
X105582795Y-149109744D01*
X105504774Y-149298102D01*
X105465000Y-149498061D01*
X99435000Y-149498061D01*
X99395226Y-149298102D01*
X99317205Y-149109744D01*
X99203937Y-148940226D01*
X99059774Y-148796063D01*
X98890256Y-148682795D01*
X98701898Y-148604774D01*
X98501939Y-148565000D01*
X98298061Y-148565000D01*
X98098102Y-148604774D01*
X97909744Y-148682795D01*
X97740226Y-148796063D01*
X97596063Y-148940226D01*
X97482795Y-149109744D01*
X97404774Y-149298102D01*
X97365000Y-149498061D01*
X95035000Y-149498061D01*
X94995226Y-149298102D01*
X94917205Y-149109744D01*
X94803937Y-148940226D01*
X94659774Y-148796063D01*
X94490256Y-148682795D01*
X94301898Y-148604774D01*
X94101939Y-148565000D01*
X93898061Y-148565000D01*
X93698102Y-148604774D01*
X93509744Y-148682795D01*
X93340226Y-148796063D01*
X93196063Y-148940226D01*
X93082795Y-149109744D01*
X93004774Y-149298102D01*
X92965000Y-149498061D01*
X82160000Y-149498061D01*
X82160000Y-142650000D01*
X84261928Y-142650000D01*
X84261928Y-144350000D01*
X84274188Y-144474482D01*
X84310498Y-144594180D01*
X84369463Y-144704494D01*
X84448815Y-144801185D01*
X84545506Y-144880537D01*
X84655820Y-144939502D01*
X84775518Y-144975812D01*
X84900000Y-144988072D01*
X86600000Y-144988072D01*
X86724482Y-144975812D01*
X86844180Y-144939502D01*
X86954494Y-144880537D01*
X87051185Y-144801185D01*
X87130537Y-144704494D01*
X87189502Y-144594180D01*
X87225812Y-144474482D01*
X87238072Y-144350000D01*
X87238072Y-142650000D01*
X87225812Y-142525518D01*
X87189502Y-142405820D01*
X87130537Y-142295506D01*
X87051185Y-142198815D01*
X86954494Y-142119463D01*
X86844180Y-142060498D01*
X86724482Y-142024188D01*
X86600000Y-142011928D01*
X84900000Y-142011928D01*
X84775518Y-142024188D01*
X84655820Y-142060498D01*
X84545506Y-142119463D01*
X84448815Y-142198815D01*
X84369463Y-142295506D01*
X84310498Y-142405820D01*
X84274188Y-142525518D01*
X84261928Y-142650000D01*
X82160000Y-142650000D01*
X82160000Y-141650000D01*
X89261928Y-141650000D01*
X89261928Y-143350000D01*
X89274188Y-143474482D01*
X89310498Y-143594180D01*
X89369463Y-143704494D01*
X89448815Y-143801185D01*
X89545506Y-143880537D01*
X89655820Y-143939502D01*
X89728380Y-143961513D01*
X89596525Y-144093368D01*
X89434010Y-144336589D01*
X89322068Y-144606842D01*
X89265000Y-144893740D01*
X89265000Y-145186260D01*
X89322068Y-145473158D01*
X89434010Y-145743411D01*
X89596525Y-145986632D01*
X89803368Y-146193475D01*
X89977760Y-146310000D01*
X89803368Y-146426525D01*
X89596525Y-146633368D01*
X89434010Y-146876589D01*
X89322068Y-147146842D01*
X89265000Y-147433740D01*
X89265000Y-147726260D01*
X89322068Y-148013158D01*
X89434010Y-148283411D01*
X89596525Y-148526632D01*
X89803368Y-148733475D01*
X90046589Y-148895990D01*
X90316842Y-149007932D01*
X90603740Y-149065000D01*
X90896260Y-149065000D01*
X91183158Y-149007932D01*
X91453411Y-148895990D01*
X91696632Y-148733475D01*
X91903475Y-148526632D01*
X92065990Y-148283411D01*
X92177932Y-148013158D01*
X92235000Y-147726260D01*
X92235000Y-147433740D01*
X92177932Y-147146842D01*
X92065990Y-146876589D01*
X91903475Y-146633368D01*
X91768168Y-146498061D01*
X95165000Y-146498061D01*
X95165000Y-146701939D01*
X95204774Y-146901898D01*
X95282795Y-147090256D01*
X95396063Y-147259774D01*
X95540226Y-147403937D01*
X95709744Y-147517205D01*
X95898102Y-147595226D01*
X96098061Y-147635000D01*
X96301939Y-147635000D01*
X96501898Y-147595226D01*
X96690256Y-147517205D01*
X96859774Y-147403937D01*
X97003937Y-147259774D01*
X97117205Y-147090256D01*
X97195226Y-146901898D01*
X97235000Y-146701939D01*
X97235000Y-146498061D01*
X97465000Y-146498061D01*
X97465000Y-146701939D01*
X97504774Y-146901898D01*
X97582795Y-147090256D01*
X97696063Y-147259774D01*
X97840226Y-147403937D01*
X98009744Y-147517205D01*
X98198102Y-147595226D01*
X98398061Y-147635000D01*
X98601939Y-147635000D01*
X98801898Y-147595226D01*
X98990256Y-147517205D01*
X99159774Y-147403937D01*
X99303937Y-147259774D01*
X99417205Y-147090256D01*
X99495226Y-146901898D01*
X99535000Y-146701939D01*
X99535000Y-146498061D01*
X102965000Y-146498061D01*
X102965000Y-146701939D01*
X103004774Y-146901898D01*
X103082795Y-147090256D01*
X103196063Y-147259774D01*
X103340226Y-147403937D01*
X103509744Y-147517205D01*
X103698102Y-147595226D01*
X103898061Y-147635000D01*
X104101939Y-147635000D01*
X104301898Y-147595226D01*
X104490256Y-147517205D01*
X104659774Y-147403937D01*
X104803937Y-147259774D01*
X104845172Y-147198061D01*
X108245000Y-147198061D01*
X108245000Y-147401939D01*
X108284774Y-147601898D01*
X108362795Y-147790256D01*
X108476063Y-147959774D01*
X108620226Y-148103937D01*
X108789744Y-148217205D01*
X108978102Y-148295226D01*
X109178061Y-148335000D01*
X109381939Y-148335000D01*
X109581898Y-148295226D01*
X109770256Y-148217205D01*
X109873737Y-148148061D01*
X119715000Y-148148061D01*
X119715000Y-148351939D01*
X119754774Y-148551898D01*
X119832795Y-148740256D01*
X119946063Y-148909774D01*
X120090226Y-149053937D01*
X120259744Y-149167205D01*
X120448102Y-149245226D01*
X120648061Y-149285000D01*
X120851939Y-149285000D01*
X121051898Y-149245226D01*
X121240256Y-149167205D01*
X121409774Y-149053937D01*
X121553937Y-148909774D01*
X121667205Y-148740256D01*
X121745226Y-148551898D01*
X121785000Y-148351939D01*
X121785000Y-148148061D01*
X124065000Y-148148061D01*
X124065000Y-148351939D01*
X124104774Y-148551898D01*
X124182795Y-148740256D01*
X124296063Y-148909774D01*
X124440226Y-149053937D01*
X124609744Y-149167205D01*
X124798102Y-149245226D01*
X124998061Y-149285000D01*
X125201939Y-149285000D01*
X125283329Y-149268811D01*
X125229774Y-149398102D01*
X125190000Y-149598061D01*
X125190000Y-149801939D01*
X125229774Y-150001898D01*
X125307795Y-150190256D01*
X125421063Y-150359774D01*
X125565226Y-150503937D01*
X125734744Y-150617205D01*
X125923102Y-150695226D01*
X126123061Y-150735000D01*
X126326939Y-150735000D01*
X126526898Y-150695226D01*
X126715256Y-150617205D01*
X126884774Y-150503937D01*
X127028937Y-150359774D01*
X127142205Y-150190256D01*
X127220226Y-150001898D01*
X127260000Y-149801939D01*
X127260000Y-149598061D01*
X128240000Y-149598061D01*
X128240000Y-149801939D01*
X128279774Y-150001898D01*
X128357795Y-150190256D01*
X128471063Y-150359774D01*
X128615226Y-150503937D01*
X128784744Y-150617205D01*
X128973102Y-150695226D01*
X129173061Y-150735000D01*
X129376939Y-150735000D01*
X129576898Y-150695226D01*
X129765256Y-150617205D01*
X129934774Y-150503937D01*
X130078937Y-150359774D01*
X130192205Y-150190256D01*
X130270226Y-150001898D01*
X130310000Y-149801939D01*
X130310000Y-149598061D01*
X130270226Y-149398102D01*
X130216671Y-149268811D01*
X130298061Y-149285000D01*
X130501939Y-149285000D01*
X130701898Y-149245226D01*
X130890256Y-149167205D01*
X131059774Y-149053937D01*
X131203937Y-148909774D01*
X131317205Y-148740256D01*
X131395226Y-148551898D01*
X131435000Y-148351939D01*
X131435000Y-148148061D01*
X131395226Y-147948102D01*
X131317205Y-147759744D01*
X131203937Y-147590226D01*
X131059774Y-147446063D01*
X130890256Y-147332795D01*
X130701898Y-147254774D01*
X130501939Y-147215000D01*
X130298061Y-147215000D01*
X130098102Y-147254774D01*
X129909744Y-147332795D01*
X129740226Y-147446063D01*
X129596063Y-147590226D01*
X129482795Y-147759744D01*
X129404774Y-147948102D01*
X129365000Y-148148061D01*
X129365000Y-148351939D01*
X129404774Y-148551898D01*
X129458329Y-148681189D01*
X129376939Y-148665000D01*
X129173061Y-148665000D01*
X128973102Y-148704774D01*
X128784744Y-148782795D01*
X128615226Y-148896063D01*
X128471063Y-149040226D01*
X128357795Y-149209744D01*
X128279774Y-149398102D01*
X128240000Y-149598061D01*
X127260000Y-149598061D01*
X127220226Y-149398102D01*
X127142205Y-149209744D01*
X127028937Y-149040226D01*
X126884774Y-148896063D01*
X126715256Y-148782795D01*
X126526898Y-148704774D01*
X126326939Y-148665000D01*
X126123061Y-148665000D01*
X126041671Y-148681189D01*
X126095226Y-148551898D01*
X126135000Y-148351939D01*
X126135000Y-148148061D01*
X126095226Y-147948102D01*
X126017205Y-147759744D01*
X125903937Y-147590226D01*
X125759774Y-147446063D01*
X125590256Y-147332795D01*
X125401898Y-147254774D01*
X125201939Y-147215000D01*
X124998061Y-147215000D01*
X124798102Y-147254774D01*
X124609744Y-147332795D01*
X124440226Y-147446063D01*
X124296063Y-147590226D01*
X124182795Y-147759744D01*
X124104774Y-147948102D01*
X124065000Y-148148061D01*
X121785000Y-148148061D01*
X121745226Y-147948102D01*
X121667205Y-147759744D01*
X121553937Y-147590226D01*
X121409774Y-147446063D01*
X121240256Y-147332795D01*
X121051898Y-147254774D01*
X120851939Y-147215000D01*
X120648061Y-147215000D01*
X120448102Y-147254774D01*
X120259744Y-147332795D01*
X120090226Y-147446063D01*
X119946063Y-147590226D01*
X119832795Y-147759744D01*
X119754774Y-147948102D01*
X119715000Y-148148061D01*
X109873737Y-148148061D01*
X109939774Y-148103937D01*
X110083937Y-147959774D01*
X110197205Y-147790256D01*
X110275226Y-147601898D01*
X110315000Y-147401939D01*
X110315000Y-147198061D01*
X110275226Y-146998102D01*
X110197205Y-146809744D01*
X110083937Y-146640226D01*
X109939774Y-146496063D01*
X109793104Y-146398061D01*
X115765000Y-146398061D01*
X115765000Y-146601939D01*
X115804774Y-146801898D01*
X115882795Y-146990256D01*
X115996063Y-147159774D01*
X116140226Y-147303937D01*
X116309744Y-147417205D01*
X116498102Y-147495226D01*
X116698061Y-147535000D01*
X116901939Y-147535000D01*
X117101898Y-147495226D01*
X117290256Y-147417205D01*
X117459774Y-147303937D01*
X117603937Y-147159774D01*
X117717205Y-146990256D01*
X117795226Y-146801898D01*
X117835000Y-146601939D01*
X117835000Y-146398061D01*
X117795226Y-146198102D01*
X117733077Y-146048061D01*
X120715000Y-146048061D01*
X120715000Y-146251939D01*
X120754774Y-146451898D01*
X120832795Y-146640256D01*
X120946063Y-146809774D01*
X121090226Y-146953937D01*
X121259744Y-147067205D01*
X121448102Y-147145226D01*
X121648061Y-147185000D01*
X121851939Y-147185000D01*
X122051898Y-147145226D01*
X122240256Y-147067205D01*
X122300591Y-147026890D01*
X139400048Y-147026890D01*
X139400048Y-147273110D01*
X139448083Y-147514598D01*
X139542307Y-147742074D01*
X139679099Y-147946798D01*
X139853202Y-148120901D01*
X140057926Y-148257693D01*
X140285402Y-148351917D01*
X140526890Y-148399952D01*
X140773110Y-148399952D01*
X141014598Y-148351917D01*
X141242074Y-148257693D01*
X141446798Y-148120901D01*
X141620901Y-147946798D01*
X141757693Y-147742074D01*
X141851917Y-147514598D01*
X141899952Y-147273110D01*
X141899952Y-147026890D01*
X141851917Y-146785402D01*
X141757693Y-146557926D01*
X141620901Y-146353202D01*
X141446798Y-146179099D01*
X141242074Y-146042307D01*
X141014598Y-145948083D01*
X140773110Y-145900048D01*
X140526890Y-145900048D01*
X140285402Y-145948083D01*
X140057926Y-146042307D01*
X139853202Y-146179099D01*
X139679099Y-146353202D01*
X139542307Y-146557926D01*
X139448083Y-146785402D01*
X139400048Y-147026890D01*
X122300591Y-147026890D01*
X122409774Y-146953937D01*
X122553937Y-146809774D01*
X122667205Y-146640256D01*
X122745226Y-146451898D01*
X122785000Y-146251939D01*
X122785000Y-146048061D01*
X122745226Y-145848102D01*
X122667205Y-145659744D01*
X122553937Y-145490226D01*
X122409774Y-145346063D01*
X122240256Y-145232795D01*
X122051898Y-145154774D01*
X121851939Y-145115000D01*
X121648061Y-145115000D01*
X121448102Y-145154774D01*
X121259744Y-145232795D01*
X121090226Y-145346063D01*
X120946063Y-145490226D01*
X120832795Y-145659744D01*
X120754774Y-145848102D01*
X120715000Y-146048061D01*
X117733077Y-146048061D01*
X117717205Y-146009744D01*
X117603937Y-145840226D01*
X117459774Y-145696063D01*
X117290256Y-145582795D01*
X117101898Y-145504774D01*
X116901939Y-145465000D01*
X116698061Y-145465000D01*
X116498102Y-145504774D01*
X116309744Y-145582795D01*
X116140226Y-145696063D01*
X115996063Y-145840226D01*
X115882795Y-146009744D01*
X115804774Y-146198102D01*
X115765000Y-146398061D01*
X109793104Y-146398061D01*
X109770256Y-146382795D01*
X109581898Y-146304774D01*
X109381939Y-146265000D01*
X109178061Y-146265000D01*
X108978102Y-146304774D01*
X108789744Y-146382795D01*
X108620226Y-146496063D01*
X108476063Y-146640226D01*
X108362795Y-146809744D01*
X108284774Y-146998102D01*
X108245000Y-147198061D01*
X104845172Y-147198061D01*
X104917205Y-147090256D01*
X104995226Y-146901898D01*
X105035000Y-146701939D01*
X105035000Y-146498061D01*
X104995226Y-146298102D01*
X104917205Y-146109744D01*
X104803937Y-145940226D01*
X104659774Y-145796063D01*
X104490256Y-145682795D01*
X104301898Y-145604774D01*
X104101939Y-145565000D01*
X103898061Y-145565000D01*
X103698102Y-145604774D01*
X103509744Y-145682795D01*
X103340226Y-145796063D01*
X103196063Y-145940226D01*
X103082795Y-146109744D01*
X103004774Y-146298102D01*
X102965000Y-146498061D01*
X99535000Y-146498061D01*
X99495226Y-146298102D01*
X99417205Y-146109744D01*
X99303937Y-145940226D01*
X99159774Y-145796063D01*
X98990256Y-145682795D01*
X98801898Y-145604774D01*
X98601939Y-145565000D01*
X98398061Y-145565000D01*
X98198102Y-145604774D01*
X98009744Y-145682795D01*
X97840226Y-145796063D01*
X97696063Y-145940226D01*
X97582795Y-146109744D01*
X97504774Y-146298102D01*
X97465000Y-146498061D01*
X97235000Y-146498061D01*
X97195226Y-146298102D01*
X97117205Y-146109744D01*
X97003937Y-145940226D01*
X96859774Y-145796063D01*
X96690256Y-145682795D01*
X96501898Y-145604774D01*
X96301939Y-145565000D01*
X96098061Y-145565000D01*
X95898102Y-145604774D01*
X95709744Y-145682795D01*
X95540226Y-145796063D01*
X95396063Y-145940226D01*
X95282795Y-146109744D01*
X95204774Y-146298102D01*
X95165000Y-146498061D01*
X91768168Y-146498061D01*
X91696632Y-146426525D01*
X91522240Y-146310000D01*
X91696632Y-146193475D01*
X91903475Y-145986632D01*
X92065990Y-145743411D01*
X92177932Y-145473158D01*
X92235000Y-145186260D01*
X92235000Y-144893740D01*
X92177932Y-144606842D01*
X92065990Y-144336589D01*
X91903475Y-144093368D01*
X91771620Y-143961513D01*
X91844180Y-143939502D01*
X91954494Y-143880537D01*
X92051185Y-143801185D01*
X92130537Y-143704494D01*
X92189502Y-143594180D01*
X92225812Y-143474482D01*
X92238072Y-143350000D01*
X92238072Y-142398061D01*
X92965000Y-142398061D01*
X92965000Y-142601939D01*
X93004774Y-142801898D01*
X93082795Y-142990256D01*
X93196063Y-143159774D01*
X93340226Y-143303937D01*
X93509744Y-143417205D01*
X93698102Y-143495226D01*
X93898061Y-143535000D01*
X94101939Y-143535000D01*
X94301898Y-143495226D01*
X94490256Y-143417205D01*
X94659774Y-143303937D01*
X94803937Y-143159774D01*
X94917205Y-142990256D01*
X94995226Y-142801898D01*
X95035000Y-142601939D01*
X95035000Y-142398061D01*
X97465000Y-142398061D01*
X97465000Y-142601939D01*
X97504774Y-142801898D01*
X97582795Y-142990256D01*
X97696063Y-143159774D01*
X97840226Y-143303937D01*
X98009744Y-143417205D01*
X98198102Y-143495226D01*
X98398061Y-143535000D01*
X98601939Y-143535000D01*
X98801898Y-143495226D01*
X98990256Y-143417205D01*
X99159774Y-143303937D01*
X99303937Y-143159774D01*
X99417205Y-142990256D01*
X99455393Y-142898061D01*
X101665000Y-142898061D01*
X101665000Y-143101939D01*
X101704774Y-143301898D01*
X101782795Y-143490256D01*
X101896063Y-143659774D01*
X102040226Y-143803937D01*
X102209744Y-143917205D01*
X102398102Y-143995226D01*
X102466366Y-144008804D01*
X102504774Y-144201898D01*
X102582795Y-144390256D01*
X102696063Y-144559774D01*
X102840226Y-144703937D01*
X103009744Y-144817205D01*
X103198102Y-144895226D01*
X103398061Y-144935000D01*
X103601939Y-144935000D01*
X103801898Y-144895226D01*
X103990256Y-144817205D01*
X104159774Y-144703937D01*
X104303937Y-144559774D01*
X104417205Y-144390256D01*
X104465000Y-144274869D01*
X104465000Y-144301939D01*
X104504774Y-144501898D01*
X104582795Y-144690256D01*
X104696063Y-144859774D01*
X104840226Y-145003937D01*
X105009744Y-145117205D01*
X105198102Y-145195226D01*
X105398061Y-145235000D01*
X105601939Y-145235000D01*
X105801898Y-145195226D01*
X105990256Y-145117205D01*
X106159774Y-145003937D01*
X106303937Y-144859774D01*
X106417205Y-144690256D01*
X106495226Y-144501898D01*
X106535000Y-144301939D01*
X106535000Y-144298061D01*
X124965000Y-144298061D01*
X124965000Y-144501939D01*
X125004774Y-144701898D01*
X125082795Y-144890256D01*
X125156123Y-145000000D01*
X125082795Y-145109744D01*
X125004774Y-145298102D01*
X124965000Y-145498061D01*
X124965000Y-145701939D01*
X125004774Y-145901898D01*
X125082795Y-146090256D01*
X125196063Y-146259774D01*
X125340226Y-146403937D01*
X125509744Y-146517205D01*
X125698102Y-146595226D01*
X125898061Y-146635000D01*
X126101939Y-146635000D01*
X126301898Y-146595226D01*
X126490256Y-146517205D01*
X126659774Y-146403937D01*
X126803937Y-146259774D01*
X126917205Y-146090256D01*
X126995226Y-145901898D01*
X127035000Y-145701939D01*
X127035000Y-145498061D01*
X126995226Y-145298102D01*
X126917205Y-145109744D01*
X126843877Y-145000000D01*
X126917205Y-144890256D01*
X126995226Y-144701898D01*
X127035000Y-144501939D01*
X127035000Y-144298061D01*
X128465000Y-144298061D01*
X128465000Y-144501939D01*
X128504774Y-144701898D01*
X128582795Y-144890256D01*
X128656123Y-145000000D01*
X128582795Y-145109744D01*
X128504774Y-145298102D01*
X128465000Y-145498061D01*
X128465000Y-145701939D01*
X128504774Y-145901898D01*
X128582795Y-146090256D01*
X128696063Y-146259774D01*
X128840226Y-146403937D01*
X129009744Y-146517205D01*
X129198102Y-146595226D01*
X129398061Y-146635000D01*
X129601939Y-146635000D01*
X129801898Y-146595226D01*
X129990256Y-146517205D01*
X130159774Y-146403937D01*
X130303937Y-146259774D01*
X130417205Y-146090256D01*
X130495226Y-145901898D01*
X130535000Y-145701939D01*
X130535000Y-145498061D01*
X130495226Y-145298102D01*
X130417205Y-145109744D01*
X130343877Y-145000000D01*
X130417205Y-144890256D01*
X130495226Y-144701898D01*
X130535000Y-144501939D01*
X130535000Y-144298061D01*
X130495226Y-144098102D01*
X130417205Y-143909744D01*
X130303937Y-143740226D01*
X130159774Y-143596063D01*
X129990256Y-143482795D01*
X129801898Y-143404774D01*
X129601939Y-143365000D01*
X129398061Y-143365000D01*
X129198102Y-143404774D01*
X129009744Y-143482795D01*
X128840226Y-143596063D01*
X128696063Y-143740226D01*
X128582795Y-143909744D01*
X128504774Y-144098102D01*
X128465000Y-144298061D01*
X127035000Y-144298061D01*
X126995226Y-144098102D01*
X126917205Y-143909744D01*
X126803937Y-143740226D01*
X126659774Y-143596063D01*
X126490256Y-143482795D01*
X126301898Y-143404774D01*
X126101939Y-143365000D01*
X125898061Y-143365000D01*
X125698102Y-143404774D01*
X125509744Y-143482795D01*
X125340226Y-143596063D01*
X125196063Y-143740226D01*
X125082795Y-143909744D01*
X125004774Y-144098102D01*
X124965000Y-144298061D01*
X106535000Y-144298061D01*
X106535000Y-144098061D01*
X106495226Y-143898102D01*
X106417205Y-143709744D01*
X106303937Y-143540226D01*
X106159774Y-143396063D01*
X105990256Y-143282795D01*
X105801898Y-143204774D01*
X105601939Y-143165000D01*
X105398061Y-143165000D01*
X105198102Y-143204774D01*
X105009744Y-143282795D01*
X104840226Y-143396063D01*
X104696063Y-143540226D01*
X104582795Y-143709744D01*
X104535000Y-143825131D01*
X104535000Y-143798061D01*
X104495226Y-143598102D01*
X104417205Y-143409744D01*
X104303937Y-143240226D01*
X104159774Y-143096063D01*
X103990256Y-142982795D01*
X103801898Y-142904774D01*
X103733634Y-142891196D01*
X103695226Y-142698102D01*
X103617205Y-142509744D01*
X103503937Y-142340226D01*
X103359774Y-142196063D01*
X103190256Y-142082795D01*
X103001898Y-142004774D01*
X102801939Y-141965000D01*
X102598061Y-141965000D01*
X102398102Y-142004774D01*
X102209744Y-142082795D01*
X102040226Y-142196063D01*
X101896063Y-142340226D01*
X101782795Y-142509744D01*
X101704774Y-142698102D01*
X101665000Y-142898061D01*
X99455393Y-142898061D01*
X99495226Y-142801898D01*
X99535000Y-142601939D01*
X99535000Y-142398061D01*
X99495226Y-142198102D01*
X99417205Y-142009744D01*
X99303937Y-141840226D01*
X99159774Y-141696063D01*
X99087934Y-141648061D01*
X118715000Y-141648061D01*
X118715000Y-141851939D01*
X118754774Y-142051898D01*
X118832795Y-142240256D01*
X118946063Y-142409774D01*
X119090226Y-142553937D01*
X119259744Y-142667205D01*
X119448102Y-142745226D01*
X119648061Y-142785000D01*
X119851939Y-142785000D01*
X120051898Y-142745226D01*
X120240256Y-142667205D01*
X120409774Y-142553937D01*
X120553937Y-142409774D01*
X120667205Y-142240256D01*
X120745226Y-142051898D01*
X120785000Y-141851939D01*
X120785000Y-141648061D01*
X136715000Y-141648061D01*
X136715000Y-141851939D01*
X136754774Y-142051898D01*
X136832795Y-142240256D01*
X136946063Y-142409774D01*
X137090226Y-142553937D01*
X137259744Y-142667205D01*
X137448102Y-142745226D01*
X137648061Y-142785000D01*
X137851939Y-142785000D01*
X138051898Y-142745226D01*
X138240256Y-142667205D01*
X138409774Y-142553937D01*
X138553937Y-142409774D01*
X138667205Y-142240256D01*
X138745226Y-142051898D01*
X138785000Y-141851939D01*
X138785000Y-141648061D01*
X138745226Y-141448102D01*
X138667205Y-141259744D01*
X138553937Y-141090226D01*
X138409774Y-140946063D01*
X138240256Y-140832795D01*
X138051898Y-140754774D01*
X137851939Y-140715000D01*
X137648061Y-140715000D01*
X137448102Y-140754774D01*
X137259744Y-140832795D01*
X137090226Y-140946063D01*
X136946063Y-141090226D01*
X136832795Y-141259744D01*
X136754774Y-141448102D01*
X136715000Y-141648061D01*
X120785000Y-141648061D01*
X120745226Y-141448102D01*
X120667205Y-141259744D01*
X120553937Y-141090226D01*
X120409774Y-140946063D01*
X120240256Y-140832795D01*
X120051898Y-140754774D01*
X119851939Y-140715000D01*
X119648061Y-140715000D01*
X119448102Y-140754774D01*
X119259744Y-140832795D01*
X119090226Y-140946063D01*
X118946063Y-141090226D01*
X118832795Y-141259744D01*
X118754774Y-141448102D01*
X118715000Y-141648061D01*
X99087934Y-141648061D01*
X98990256Y-141582795D01*
X98801898Y-141504774D01*
X98601939Y-141465000D01*
X98398061Y-141465000D01*
X98198102Y-141504774D01*
X98009744Y-141582795D01*
X97840226Y-141696063D01*
X97696063Y-141840226D01*
X97582795Y-142009744D01*
X97504774Y-142198102D01*
X97465000Y-142398061D01*
X95035000Y-142398061D01*
X94995226Y-142198102D01*
X94917205Y-142009744D01*
X94803937Y-141840226D01*
X94659774Y-141696063D01*
X94490256Y-141582795D01*
X94301898Y-141504774D01*
X94101939Y-141465000D01*
X93898061Y-141465000D01*
X93698102Y-141504774D01*
X93509744Y-141582795D01*
X93340226Y-141696063D01*
X93196063Y-141840226D01*
X93082795Y-142009744D01*
X93004774Y-142198102D01*
X92965000Y-142398061D01*
X92238072Y-142398061D01*
X92238072Y-141650000D01*
X92225812Y-141525518D01*
X92189502Y-141405820D01*
X92130537Y-141295506D01*
X92051185Y-141198815D01*
X91954494Y-141119463D01*
X91844180Y-141060498D01*
X91724482Y-141024188D01*
X91600000Y-141011928D01*
X89900000Y-141011928D01*
X89775518Y-141024188D01*
X89655820Y-141060498D01*
X89545506Y-141119463D01*
X89448815Y-141198815D01*
X89369463Y-141295506D01*
X89310498Y-141405820D01*
X89274188Y-141525518D01*
X89261928Y-141650000D01*
X82160000Y-141650000D01*
X82160000Y-138150000D01*
X84261928Y-138150000D01*
X84261928Y-139850000D01*
X84274188Y-139974482D01*
X84310498Y-140094180D01*
X84369463Y-140204494D01*
X84448815Y-140301185D01*
X84545506Y-140380537D01*
X84655820Y-140439502D01*
X84775518Y-140475812D01*
X84900000Y-140488072D01*
X86600000Y-140488072D01*
X86724482Y-140475812D01*
X86844180Y-140439502D01*
X86954494Y-140380537D01*
X87051185Y-140301185D01*
X87130537Y-140204494D01*
X87189502Y-140094180D01*
X87225812Y-139974482D01*
X87238072Y-139850000D01*
X87238072Y-138998061D01*
X92965000Y-138998061D01*
X92965000Y-139201939D01*
X93004774Y-139401898D01*
X93082795Y-139590256D01*
X93196063Y-139759774D01*
X93340226Y-139903937D01*
X93509744Y-140017205D01*
X93698102Y-140095226D01*
X93898061Y-140135000D01*
X94101939Y-140135000D01*
X94301898Y-140095226D01*
X94490256Y-140017205D01*
X94659774Y-139903937D01*
X94803937Y-139759774D01*
X94917205Y-139590256D01*
X94995226Y-139401898D01*
X95035000Y-139201939D01*
X95035000Y-138998061D01*
X95165000Y-138998061D01*
X95165000Y-139201939D01*
X95204774Y-139401898D01*
X95282795Y-139590256D01*
X95396063Y-139759774D01*
X95540226Y-139903937D01*
X95709744Y-140017205D01*
X95898102Y-140095226D01*
X96098061Y-140135000D01*
X96301939Y-140135000D01*
X96501898Y-140095226D01*
X96690256Y-140017205D01*
X96859774Y-139903937D01*
X97003937Y-139759774D01*
X97117205Y-139590256D01*
X97195226Y-139401898D01*
X97235000Y-139201939D01*
X97235000Y-138998061D01*
X97195226Y-138798102D01*
X97117205Y-138609744D01*
X97003937Y-138440226D01*
X96859774Y-138296063D01*
X96690256Y-138182795D01*
X96501898Y-138104774D01*
X96301939Y-138065000D01*
X96098061Y-138065000D01*
X95898102Y-138104774D01*
X95709744Y-138182795D01*
X95540226Y-138296063D01*
X95396063Y-138440226D01*
X95282795Y-138609744D01*
X95204774Y-138798102D01*
X95165000Y-138998061D01*
X95035000Y-138998061D01*
X94995226Y-138798102D01*
X94917205Y-138609744D01*
X94803937Y-138440226D01*
X94659774Y-138296063D01*
X94490256Y-138182795D01*
X94301898Y-138104774D01*
X94101939Y-138065000D01*
X93898061Y-138065000D01*
X93698102Y-138104774D01*
X93509744Y-138182795D01*
X93340226Y-138296063D01*
X93196063Y-138440226D01*
X93082795Y-138609744D01*
X93004774Y-138798102D01*
X92965000Y-138998061D01*
X87238072Y-138998061D01*
X87238072Y-138150000D01*
X87225812Y-138025518D01*
X87189502Y-137905820D01*
X87130537Y-137795506D01*
X87051185Y-137698815D01*
X86954494Y-137619463D01*
X86844180Y-137560498D01*
X86724482Y-137524188D01*
X86600000Y-137511928D01*
X84900000Y-137511928D01*
X84775518Y-137524188D01*
X84655820Y-137560498D01*
X84545506Y-137619463D01*
X84448815Y-137698815D01*
X84369463Y-137795506D01*
X84310498Y-137905820D01*
X84274188Y-138025518D01*
X84261928Y-138150000D01*
X82160000Y-138150000D01*
X82160000Y-133650000D01*
X84261928Y-133650000D01*
X84261928Y-135350000D01*
X84274188Y-135474482D01*
X84310498Y-135594180D01*
X84369463Y-135704494D01*
X84448815Y-135801185D01*
X84545506Y-135880537D01*
X84655820Y-135939502D01*
X84775518Y-135975812D01*
X84900000Y-135988072D01*
X86600000Y-135988072D01*
X86713536Y-135976890D01*
X89258524Y-135976890D01*
X89303175Y-136124099D01*
X89428359Y-136386920D01*
X89602412Y-136620269D01*
X89818645Y-136815178D01*
X90068748Y-136964157D01*
X90343109Y-137061481D01*
X90573000Y-136940814D01*
X90573000Y-135747000D01*
X90827000Y-135747000D01*
X90827000Y-136940814D01*
X91056891Y-137061481D01*
X91331252Y-136964157D01*
X91581355Y-136815178D01*
X91797588Y-136620269D01*
X91971641Y-136386920D01*
X92096825Y-136124099D01*
X92141476Y-135976890D01*
X92020155Y-135747000D01*
X90827000Y-135747000D01*
X90573000Y-135747000D01*
X89379845Y-135747000D01*
X89258524Y-135976890D01*
X86713536Y-135976890D01*
X86724482Y-135975812D01*
X86844180Y-135939502D01*
X86954494Y-135880537D01*
X87051185Y-135801185D01*
X87130537Y-135704494D01*
X87189502Y-135594180D01*
X87225812Y-135474482D01*
X87238072Y-135350000D01*
X87238072Y-133650000D01*
X87225812Y-133525518D01*
X87198927Y-133436890D01*
X89258524Y-133436890D01*
X89303175Y-133584099D01*
X89428359Y-133846920D01*
X89602412Y-134080269D01*
X89818645Y-134275178D01*
X89944255Y-134350000D01*
X89818645Y-134424822D01*
X89602412Y-134619731D01*
X89428359Y-134853080D01*
X89303175Y-135115901D01*
X89258524Y-135263110D01*
X89379845Y-135493000D01*
X90573000Y-135493000D01*
X90573000Y-133207000D01*
X90827000Y-133207000D01*
X90827000Y-135493000D01*
X92020155Y-135493000D01*
X92141476Y-135263110D01*
X92096825Y-135115901D01*
X91971641Y-134853080D01*
X91932050Y-134800000D01*
X98773000Y-134800000D01*
X98773000Y-141200000D01*
X98775440Y-141224776D01*
X98782667Y-141248601D01*
X98794403Y-141270557D01*
X98810197Y-141289803D01*
X98829443Y-141305597D01*
X98851399Y-141317333D01*
X98875224Y-141324560D01*
X98900000Y-141327000D01*
X102400000Y-141327000D01*
X102424776Y-141324560D01*
X102448601Y-141317333D01*
X102470557Y-141305597D01*
X102489803Y-141289803D01*
X102505597Y-141270557D01*
X102517333Y-141248601D01*
X102524560Y-141224776D01*
X102527000Y-141200000D01*
X102527000Y-139827000D01*
X103100000Y-139827000D01*
X103124776Y-139824560D01*
X103148601Y-139817333D01*
X103170557Y-139805597D01*
X103189803Y-139789803D01*
X103205597Y-139770557D01*
X103217333Y-139748601D01*
X103224560Y-139724776D01*
X103227000Y-139700000D01*
X103227000Y-139027000D01*
X105300000Y-139027000D01*
X105324776Y-139024560D01*
X105348601Y-139017333D01*
X105370557Y-139005597D01*
X105389803Y-138989803D01*
X105405597Y-138970557D01*
X105417333Y-138948601D01*
X105424560Y-138924776D01*
X105427000Y-138900000D01*
X105427000Y-138327000D01*
X107400000Y-138327000D01*
X107424776Y-138324560D01*
X107448601Y-138317333D01*
X107470557Y-138305597D01*
X107489803Y-138289803D01*
X107505597Y-138270557D01*
X107517333Y-138248601D01*
X107524560Y-138224776D01*
X107527000Y-138200000D01*
X107527000Y-136800000D01*
X107524560Y-136775224D01*
X107517333Y-136751399D01*
X107505597Y-136729443D01*
X107489803Y-136710197D01*
X107470557Y-136694403D01*
X107448601Y-136682667D01*
X107424776Y-136675440D01*
X107400000Y-136673000D01*
X105290711Y-136673000D01*
X105303937Y-136659774D01*
X105417205Y-136490256D01*
X105495226Y-136301898D01*
X105535000Y-136101939D01*
X105535000Y-135898061D01*
X105495226Y-135698102D01*
X105417205Y-135509744D01*
X105303937Y-135340226D01*
X105159774Y-135196063D01*
X104990256Y-135082795D01*
X104801898Y-135004774D01*
X104601939Y-134965000D01*
X104398061Y-134965000D01*
X104198102Y-135004774D01*
X104009744Y-135082795D01*
X103840226Y-135196063D01*
X103696063Y-135340226D01*
X103582795Y-135509744D01*
X103504774Y-135698102D01*
X103465000Y-135898061D01*
X103465000Y-136101939D01*
X103504774Y-136301898D01*
X103582795Y-136490256D01*
X103696063Y-136659774D01*
X103709289Y-136673000D01*
X103227000Y-136673000D01*
X103227000Y-133300000D01*
X103224560Y-133275224D01*
X103217333Y-133251399D01*
X103205597Y-133229443D01*
X103189803Y-133210197D01*
X103170557Y-133194403D01*
X103148601Y-133182667D01*
X103124776Y-133175440D01*
X103100000Y-133173000D01*
X99600000Y-133173000D01*
X99575224Y-133175440D01*
X99551399Y-133182667D01*
X99529443Y-133194403D01*
X99510197Y-133210197D01*
X99494403Y-133229443D01*
X99482667Y-133251399D01*
X99475440Y-133275224D01*
X99473000Y-133300000D01*
X99473000Y-134673000D01*
X98900000Y-134673000D01*
X98875224Y-134675440D01*
X98851399Y-134682667D01*
X98829443Y-134694403D01*
X98810197Y-134710197D01*
X98794403Y-134729443D01*
X98782667Y-134751399D01*
X98775440Y-134775224D01*
X98773000Y-134800000D01*
X91932050Y-134800000D01*
X91797588Y-134619731D01*
X91581355Y-134424822D01*
X91455745Y-134350000D01*
X91581355Y-134275178D01*
X91797588Y-134080269D01*
X91971641Y-133846920D01*
X92096825Y-133584099D01*
X92141476Y-133436890D01*
X92020155Y-133207000D01*
X90827000Y-133207000D01*
X90573000Y-133207000D01*
X89379845Y-133207000D01*
X89258524Y-133436890D01*
X87198927Y-133436890D01*
X87189502Y-133405820D01*
X87130537Y-133295506D01*
X87051185Y-133198815D01*
X86954494Y-133119463D01*
X86844180Y-133060498D01*
X86724482Y-133024188D01*
X86600000Y-133011928D01*
X84900000Y-133011928D01*
X84775518Y-133024188D01*
X84655820Y-133060498D01*
X84545506Y-133119463D01*
X84448815Y-133198815D01*
X84369463Y-133295506D01*
X84310498Y-133405820D01*
X84274188Y-133525518D01*
X84261928Y-133650000D01*
X82160000Y-133650000D01*
X82160000Y-129150000D01*
X84261928Y-129150000D01*
X84261928Y-130850000D01*
X84274188Y-130974482D01*
X84310498Y-131094180D01*
X84369463Y-131204494D01*
X84448815Y-131301185D01*
X84545506Y-131380537D01*
X84655820Y-131439502D01*
X84775518Y-131475812D01*
X84900000Y-131488072D01*
X86600000Y-131488072D01*
X86724482Y-131475812D01*
X86844180Y-131439502D01*
X86954494Y-131380537D01*
X87051185Y-131301185D01*
X87130537Y-131204494D01*
X87189502Y-131094180D01*
X87225812Y-130974482D01*
X87238072Y-130850000D01*
X87238072Y-129150000D01*
X87225812Y-129025518D01*
X87189502Y-128905820D01*
X87130537Y-128795506D01*
X87051185Y-128698815D01*
X86954494Y-128619463D01*
X86844180Y-128560498D01*
X86724482Y-128524188D01*
X86600000Y-128511928D01*
X84900000Y-128511928D01*
X84775518Y-128524188D01*
X84655820Y-128560498D01*
X84545506Y-128619463D01*
X84448815Y-128698815D01*
X84369463Y-128795506D01*
X84310498Y-128905820D01*
X84274188Y-129025518D01*
X84261928Y-129150000D01*
X82160000Y-129150000D01*
X82160000Y-127150000D01*
X89211928Y-127150000D01*
X89211928Y-128850000D01*
X89224188Y-128974482D01*
X89260498Y-129094180D01*
X89319463Y-129204494D01*
X89398815Y-129301185D01*
X89495506Y-129380537D01*
X89605820Y-129439502D01*
X89678380Y-129461513D01*
X89546525Y-129593368D01*
X89384010Y-129836589D01*
X89272068Y-130106842D01*
X89215000Y-130393740D01*
X89215000Y-130686260D01*
X89272068Y-130973158D01*
X89384010Y-131243411D01*
X89546525Y-131486632D01*
X89753368Y-131693475D01*
X89935534Y-131815195D01*
X89818645Y-131884822D01*
X89602412Y-132079731D01*
X89428359Y-132313080D01*
X89303175Y-132575901D01*
X89258524Y-132723110D01*
X89379845Y-132953000D01*
X90573000Y-132953000D01*
X90573000Y-132933000D01*
X90827000Y-132933000D01*
X90827000Y-132953000D01*
X92020155Y-132953000D01*
X92141476Y-132723110D01*
X92096825Y-132575901D01*
X91971641Y-132313080D01*
X91797588Y-132079731D01*
X91581355Y-131884822D01*
X91464466Y-131815195D01*
X91646632Y-131693475D01*
X91853475Y-131486632D01*
X91912656Y-131398061D01*
X93465000Y-131398061D01*
X93465000Y-131601939D01*
X93504774Y-131801898D01*
X93582795Y-131990256D01*
X93696063Y-132159774D01*
X93840226Y-132303937D01*
X94009744Y-132417205D01*
X94198102Y-132495226D01*
X94398061Y-132535000D01*
X94601939Y-132535000D01*
X94801898Y-132495226D01*
X94990256Y-132417205D01*
X95159774Y-132303937D01*
X95303937Y-132159774D01*
X95417205Y-131990256D01*
X95495226Y-131801898D01*
X95535000Y-131601939D01*
X95535000Y-131398061D01*
X100965000Y-131398061D01*
X100965000Y-131601939D01*
X101004774Y-131801898D01*
X101082795Y-131990256D01*
X101196063Y-132159774D01*
X101340226Y-132303937D01*
X101509744Y-132417205D01*
X101698102Y-132495226D01*
X101898061Y-132535000D01*
X102101939Y-132535000D01*
X102301898Y-132495226D01*
X102490256Y-132417205D01*
X102659774Y-132303937D01*
X102803937Y-132159774D01*
X102917205Y-131990256D01*
X102995226Y-131801898D01*
X103035000Y-131601939D01*
X103035000Y-131398061D01*
X102995226Y-131198102D01*
X102917205Y-131009744D01*
X102803937Y-130840226D01*
X102659774Y-130696063D01*
X102490256Y-130582795D01*
X102301898Y-130504774D01*
X102101939Y-130465000D01*
X101898061Y-130465000D01*
X101698102Y-130504774D01*
X101509744Y-130582795D01*
X101340226Y-130696063D01*
X101196063Y-130840226D01*
X101082795Y-131009744D01*
X101004774Y-131198102D01*
X100965000Y-131398061D01*
X95535000Y-131398061D01*
X95495226Y-131198102D01*
X95417205Y-131009744D01*
X95303937Y-130840226D01*
X95159774Y-130696063D01*
X94990256Y-130582795D01*
X94801898Y-130504774D01*
X94601939Y-130465000D01*
X94398061Y-130465000D01*
X94198102Y-130504774D01*
X94009744Y-130582795D01*
X93840226Y-130696063D01*
X93696063Y-130840226D01*
X93582795Y-131009744D01*
X93504774Y-131198102D01*
X93465000Y-131398061D01*
X91912656Y-131398061D01*
X92015990Y-131243411D01*
X92127932Y-130973158D01*
X92185000Y-130686260D01*
X92185000Y-130393740D01*
X92127932Y-130106842D01*
X92015990Y-129836589D01*
X91990247Y-129798061D01*
X103265000Y-129798061D01*
X103265000Y-130001939D01*
X103304774Y-130201898D01*
X103382795Y-130390256D01*
X103496063Y-130559774D01*
X103640226Y-130703937D01*
X103809744Y-130817205D01*
X103998102Y-130895226D01*
X104198061Y-130935000D01*
X104401939Y-130935000D01*
X104601898Y-130895226D01*
X104790256Y-130817205D01*
X104959774Y-130703937D01*
X105103937Y-130559774D01*
X105217205Y-130390256D01*
X105295226Y-130201898D01*
X105300000Y-130177897D01*
X105304774Y-130201898D01*
X105382795Y-130390256D01*
X105496063Y-130559774D01*
X105640226Y-130703937D01*
X105809744Y-130817205D01*
X105998102Y-130895226D01*
X106198061Y-130935000D01*
X106401939Y-130935000D01*
X106525958Y-130910331D01*
X106496063Y-130940226D01*
X106382795Y-131109744D01*
X106304774Y-131298102D01*
X106265000Y-131498061D01*
X106265000Y-131701939D01*
X106304774Y-131901898D01*
X106382795Y-132090256D01*
X106496063Y-132259774D01*
X106501289Y-132265000D01*
X106398061Y-132265000D01*
X106198102Y-132304774D01*
X106009744Y-132382795D01*
X105840226Y-132496063D01*
X105696063Y-132640226D01*
X105582795Y-132809744D01*
X105504774Y-132998102D01*
X105465000Y-133198061D01*
X105465000Y-133401939D01*
X105504774Y-133601898D01*
X105582795Y-133790256D01*
X105696063Y-133959774D01*
X105840226Y-134103937D01*
X106009744Y-134217205D01*
X106198102Y-134295226D01*
X106398061Y-134335000D01*
X106601939Y-134335000D01*
X106787645Y-134298061D01*
X118165000Y-134298061D01*
X118165000Y-134501939D01*
X118204774Y-134701898D01*
X118282795Y-134890256D01*
X118396063Y-135059774D01*
X118540226Y-135203937D01*
X118709744Y-135317205D01*
X118898102Y-135395226D01*
X119098061Y-135435000D01*
X119301939Y-135435000D01*
X119501898Y-135395226D01*
X119690256Y-135317205D01*
X119859774Y-135203937D01*
X120003937Y-135059774D01*
X120117205Y-134890256D01*
X120195226Y-134701898D01*
X120235000Y-134501939D01*
X120235000Y-134298061D01*
X120195226Y-134098102D01*
X120195210Y-134098061D01*
X130065000Y-134098061D01*
X130065000Y-134301939D01*
X130104774Y-134501898D01*
X130182795Y-134690256D01*
X130296063Y-134859774D01*
X130440226Y-135003937D01*
X130609744Y-135117205D01*
X130798102Y-135195226D01*
X130998061Y-135235000D01*
X131201939Y-135235000D01*
X131401898Y-135195226D01*
X131590256Y-135117205D01*
X131750000Y-135010468D01*
X131909744Y-135117205D01*
X132098102Y-135195226D01*
X132298061Y-135235000D01*
X132501939Y-135235000D01*
X132701898Y-135195226D01*
X132890256Y-135117205D01*
X133059774Y-135003937D01*
X133203937Y-134859774D01*
X133317205Y-134690256D01*
X133395226Y-134501898D01*
X133435000Y-134301939D01*
X133435000Y-134098061D01*
X133395226Y-133898102D01*
X133317205Y-133709744D01*
X133203937Y-133540226D01*
X133059774Y-133396063D01*
X132890256Y-133282795D01*
X132701898Y-133204774D01*
X132501939Y-133165000D01*
X132298061Y-133165000D01*
X132098102Y-133204774D01*
X131909744Y-133282795D01*
X131750000Y-133389532D01*
X131590256Y-133282795D01*
X131401898Y-133204774D01*
X131201939Y-133165000D01*
X130998061Y-133165000D01*
X130798102Y-133204774D01*
X130609744Y-133282795D01*
X130440226Y-133396063D01*
X130296063Y-133540226D01*
X130182795Y-133709744D01*
X130104774Y-133898102D01*
X130065000Y-134098061D01*
X120195210Y-134098061D01*
X120117205Y-133909744D01*
X120003937Y-133740226D01*
X119859774Y-133596063D01*
X119690256Y-133482795D01*
X119501898Y-133404774D01*
X119301939Y-133365000D01*
X119098061Y-133365000D01*
X118898102Y-133404774D01*
X118709744Y-133482795D01*
X118540226Y-133596063D01*
X118396063Y-133740226D01*
X118282795Y-133909744D01*
X118204774Y-134098102D01*
X118165000Y-134298061D01*
X106787645Y-134298061D01*
X106801898Y-134295226D01*
X106990256Y-134217205D01*
X107159774Y-134103937D01*
X107303937Y-133959774D01*
X107417205Y-133790256D01*
X107495226Y-133601898D01*
X107535000Y-133401939D01*
X107535000Y-133198061D01*
X107495226Y-132998102D01*
X107417205Y-132809744D01*
X107303937Y-132640226D01*
X107298711Y-132635000D01*
X107401939Y-132635000D01*
X107601898Y-132595226D01*
X107790256Y-132517205D01*
X107959774Y-132403937D01*
X108103937Y-132259774D01*
X108217205Y-132090256D01*
X108295226Y-131901898D01*
X108335000Y-131701939D01*
X108335000Y-131498061D01*
X108295226Y-131298102D01*
X108217205Y-131109744D01*
X108103937Y-130940226D01*
X107959774Y-130796063D01*
X107790256Y-130682795D01*
X107601898Y-130604774D01*
X107401939Y-130565000D01*
X107198061Y-130565000D01*
X107074042Y-130589669D01*
X107103937Y-130559774D01*
X107217205Y-130390256D01*
X107295226Y-130201898D01*
X107335000Y-130001939D01*
X107335000Y-129798061D01*
X107295226Y-129598102D01*
X107217205Y-129409744D01*
X107103937Y-129240226D01*
X106959774Y-129096063D01*
X106790256Y-128982795D01*
X106601898Y-128904774D01*
X106401939Y-128865000D01*
X106198061Y-128865000D01*
X105998102Y-128904774D01*
X105809744Y-128982795D01*
X105640226Y-129096063D01*
X105496063Y-129240226D01*
X105382795Y-129409744D01*
X105304774Y-129598102D01*
X105300000Y-129622103D01*
X105295226Y-129598102D01*
X105217205Y-129409744D01*
X105103937Y-129240226D01*
X104959774Y-129096063D01*
X104790256Y-128982795D01*
X104601898Y-128904774D01*
X104401939Y-128865000D01*
X104198061Y-128865000D01*
X103998102Y-128904774D01*
X103809744Y-128982795D01*
X103640226Y-129096063D01*
X103496063Y-129240226D01*
X103382795Y-129409744D01*
X103304774Y-129598102D01*
X103265000Y-129798061D01*
X91990247Y-129798061D01*
X91853475Y-129593368D01*
X91721620Y-129461513D01*
X91794180Y-129439502D01*
X91904494Y-129380537D01*
X92001185Y-129301185D01*
X92080537Y-129204494D01*
X92139502Y-129094180D01*
X92175812Y-128974482D01*
X92188072Y-128850000D01*
X92188072Y-127698061D01*
X108865000Y-127698061D01*
X108865000Y-127901939D01*
X108904774Y-128101898D01*
X108982795Y-128290256D01*
X109096063Y-128459774D01*
X109240226Y-128603937D01*
X109409744Y-128717205D01*
X109598102Y-128795226D01*
X109798061Y-128835000D01*
X110001939Y-128835000D01*
X110201898Y-128795226D01*
X110390256Y-128717205D01*
X110559774Y-128603937D01*
X110703937Y-128459774D01*
X110817205Y-128290256D01*
X110895226Y-128101898D01*
X110935000Y-127901939D01*
X110935000Y-127698061D01*
X110895226Y-127498102D01*
X110817205Y-127309744D01*
X110703937Y-127140226D01*
X110559774Y-126996063D01*
X110390256Y-126882795D01*
X110201898Y-126804774D01*
X110001939Y-126765000D01*
X109798061Y-126765000D01*
X109598102Y-126804774D01*
X109409744Y-126882795D01*
X109240226Y-126996063D01*
X109096063Y-127140226D01*
X108982795Y-127309744D01*
X108904774Y-127498102D01*
X108865000Y-127698061D01*
X92188072Y-127698061D01*
X92188072Y-127150000D01*
X92175812Y-127025518D01*
X92139502Y-126905820D01*
X92080537Y-126795506D01*
X92001185Y-126698815D01*
X91904494Y-126619463D01*
X91794180Y-126560498D01*
X91674482Y-126524188D01*
X91550000Y-126511928D01*
X89850000Y-126511928D01*
X89725518Y-126524188D01*
X89605820Y-126560498D01*
X89495506Y-126619463D01*
X89398815Y-126698815D01*
X89319463Y-126795506D01*
X89260498Y-126905820D01*
X89224188Y-127025518D01*
X89211928Y-127150000D01*
X82160000Y-127150000D01*
X82160000Y-126398061D01*
X135565000Y-126398061D01*
X135565000Y-126601939D01*
X135604774Y-126801898D01*
X135682795Y-126990256D01*
X135796063Y-127159774D01*
X135940226Y-127303937D01*
X136109744Y-127417205D01*
X136298102Y-127495226D01*
X136498061Y-127535000D01*
X136701939Y-127535000D01*
X136901898Y-127495226D01*
X137090256Y-127417205D01*
X137259774Y-127303937D01*
X137403937Y-127159774D01*
X137517205Y-126990256D01*
X137595226Y-126801898D01*
X137635000Y-126601939D01*
X137635000Y-126398061D01*
X137595226Y-126198102D01*
X137517205Y-126009744D01*
X137403937Y-125840226D01*
X137259774Y-125696063D01*
X137090256Y-125582795D01*
X136901898Y-125504774D01*
X136701939Y-125465000D01*
X136498061Y-125465000D01*
X136298102Y-125504774D01*
X136109744Y-125582795D01*
X135940226Y-125696063D01*
X135796063Y-125840226D01*
X135682795Y-126009744D01*
X135604774Y-126198102D01*
X135565000Y-126398061D01*
X82160000Y-126398061D01*
X82160000Y-124676890D01*
X82350048Y-124676890D01*
X82350048Y-124923110D01*
X82398083Y-125164598D01*
X82492307Y-125392074D01*
X82629099Y-125596798D01*
X82803202Y-125770901D01*
X83007926Y-125907693D01*
X83235402Y-126001917D01*
X83476890Y-126049952D01*
X83723110Y-126049952D01*
X83964598Y-126001917D01*
X84192074Y-125907693D01*
X84396798Y-125770901D01*
X84570901Y-125596798D01*
X84707693Y-125392074D01*
X84801917Y-125164598D01*
X84849952Y-124923110D01*
X84849952Y-124676890D01*
X84801917Y-124435402D01*
X84707693Y-124207926D01*
X84667693Y-124148061D01*
X105965000Y-124148061D01*
X105965000Y-124351939D01*
X106004774Y-124551898D01*
X106082795Y-124740256D01*
X106196063Y-124909774D01*
X106340226Y-125053937D01*
X106509744Y-125167205D01*
X106698102Y-125245226D01*
X106898061Y-125285000D01*
X107101939Y-125285000D01*
X107301898Y-125245226D01*
X107490256Y-125167205D01*
X107659774Y-125053937D01*
X107803937Y-124909774D01*
X107917205Y-124740256D01*
X107943452Y-124676890D01*
X139400048Y-124676890D01*
X139400048Y-124923110D01*
X139448083Y-125164598D01*
X139542307Y-125392074D01*
X139679099Y-125596798D01*
X139853202Y-125770901D01*
X140057926Y-125907693D01*
X140285402Y-126001917D01*
X140526890Y-126049952D01*
X140773110Y-126049952D01*
X141014598Y-126001917D01*
X141242074Y-125907693D01*
X141446798Y-125770901D01*
X141620901Y-125596798D01*
X141757693Y-125392074D01*
X141851917Y-125164598D01*
X141899952Y-124923110D01*
X141899952Y-124676890D01*
X141851917Y-124435402D01*
X141757693Y-124207926D01*
X141620901Y-124003202D01*
X141446798Y-123829099D01*
X141242074Y-123692307D01*
X141014598Y-123598083D01*
X140773110Y-123550048D01*
X140526890Y-123550048D01*
X140285402Y-123598083D01*
X140057926Y-123692307D01*
X139853202Y-123829099D01*
X139679099Y-124003202D01*
X139542307Y-124207926D01*
X139448083Y-124435402D01*
X139400048Y-124676890D01*
X107943452Y-124676890D01*
X107995226Y-124551898D01*
X108035000Y-124351939D01*
X108035000Y-124148061D01*
X107995226Y-123948102D01*
X107917205Y-123759744D01*
X107803937Y-123590226D01*
X107659774Y-123446063D01*
X107490256Y-123332795D01*
X107301898Y-123254774D01*
X107101939Y-123215000D01*
X106898061Y-123215000D01*
X106698102Y-123254774D01*
X106509744Y-123332795D01*
X106340226Y-123446063D01*
X106196063Y-123590226D01*
X106082795Y-123759744D01*
X106004774Y-123948102D01*
X105965000Y-124148061D01*
X84667693Y-124148061D01*
X84570901Y-124003202D01*
X84396798Y-123829099D01*
X84192074Y-123692307D01*
X83964598Y-123598083D01*
X83723110Y-123550048D01*
X83476890Y-123550048D01*
X83235402Y-123598083D01*
X83007926Y-123692307D01*
X82803202Y-123829099D01*
X82629099Y-124003202D01*
X82492307Y-124207926D01*
X82398083Y-124435402D01*
X82350048Y-124676890D01*
X82160000Y-124676890D01*
X82160000Y-122950881D01*
X83478724Y-122950881D01*
X83838912Y-123440548D01*
X84502882Y-123800849D01*
X85224385Y-124024694D01*
X85975695Y-124103480D01*
X86727938Y-124034178D01*
X87452208Y-123819452D01*
X88120670Y-123467555D01*
X88161088Y-123440548D01*
X88521276Y-122950881D01*
X86000000Y-120429605D01*
X83478724Y-122950881D01*
X82160000Y-122950881D01*
X82160000Y-120372015D01*
X82215822Y-120977938D01*
X82430548Y-121702208D01*
X82782445Y-122370670D01*
X82809452Y-122411088D01*
X83299119Y-122771276D01*
X85820395Y-120250000D01*
X86179605Y-120250000D01*
X88700881Y-122771276D01*
X89072310Y-122498061D01*
X96765000Y-122498061D01*
X96765000Y-122701939D01*
X96804774Y-122901898D01*
X96882795Y-123090256D01*
X96996063Y-123259774D01*
X97140226Y-123403937D01*
X97309744Y-123517205D01*
X97498102Y-123595226D01*
X97698061Y-123635000D01*
X97901939Y-123635000D01*
X98101898Y-123595226D01*
X98290256Y-123517205D01*
X98459774Y-123403937D01*
X98603937Y-123259774D01*
X98717205Y-123090256D01*
X98755393Y-122998061D01*
X99065000Y-122998061D01*
X99065000Y-123201939D01*
X99104774Y-123401898D01*
X99182795Y-123590256D01*
X99296063Y-123759774D01*
X99440226Y-123903937D01*
X99609744Y-124017205D01*
X99798102Y-124095226D01*
X99998061Y-124135000D01*
X100201939Y-124135000D01*
X100401898Y-124095226D01*
X100590256Y-124017205D01*
X100759774Y-123903937D01*
X100903937Y-123759774D01*
X101017205Y-123590256D01*
X101095226Y-123401898D01*
X101135000Y-123201939D01*
X101135000Y-122998061D01*
X101095226Y-122798102D01*
X101017205Y-122609744D01*
X100903937Y-122440226D01*
X100759774Y-122296063D01*
X100590256Y-122182795D01*
X100407009Y-122106891D01*
X101148519Y-122106891D01*
X101245843Y-122381252D01*
X101394822Y-122631355D01*
X101589731Y-122847588D01*
X101823080Y-123021641D01*
X102085901Y-123146825D01*
X102233110Y-123191476D01*
X102463000Y-123070155D01*
X102463000Y-121877000D01*
X101269186Y-121877000D01*
X101148519Y-122106891D01*
X100407009Y-122106891D01*
X100401898Y-122104774D01*
X100201939Y-122065000D01*
X99998061Y-122065000D01*
X99798102Y-122104774D01*
X99609744Y-122182795D01*
X99440226Y-122296063D01*
X99296063Y-122440226D01*
X99182795Y-122609744D01*
X99104774Y-122798102D01*
X99065000Y-122998061D01*
X98755393Y-122998061D01*
X98795226Y-122901898D01*
X98835000Y-122701939D01*
X98835000Y-122498061D01*
X98795226Y-122298102D01*
X98717205Y-122109744D01*
X98603937Y-121940226D01*
X98459774Y-121796063D01*
X98290256Y-121682795D01*
X98101898Y-121604774D01*
X97901939Y-121565000D01*
X97698061Y-121565000D01*
X97498102Y-121604774D01*
X97309744Y-121682795D01*
X97140226Y-121796063D01*
X96996063Y-121940226D01*
X96882795Y-122109744D01*
X96804774Y-122298102D01*
X96765000Y-122498061D01*
X89072310Y-122498061D01*
X89190548Y-122411088D01*
X89550849Y-121747118D01*
X89774694Y-121025615D01*
X89853480Y-120274305D01*
X89784178Y-119522062D01*
X89745956Y-119393137D01*
X92915000Y-119393137D01*
X92915000Y-119606863D01*
X92956696Y-119816483D01*
X93038485Y-120013940D01*
X93157225Y-120191647D01*
X93308353Y-120342775D01*
X93486060Y-120461515D01*
X93683517Y-120543304D01*
X93893137Y-120585000D01*
X94106863Y-120585000D01*
X94316483Y-120543304D01*
X94513940Y-120461515D01*
X94691647Y-120342775D01*
X94842775Y-120191647D01*
X94961515Y-120013940D01*
X95043304Y-119816483D01*
X95085000Y-119606863D01*
X95085000Y-119393137D01*
X95915000Y-119393137D01*
X95915000Y-119606863D01*
X95956696Y-119816483D01*
X96038485Y-120013940D01*
X96157225Y-120191647D01*
X96308353Y-120342775D01*
X96486060Y-120461515D01*
X96683517Y-120543304D01*
X96893137Y-120585000D01*
X97106863Y-120585000D01*
X97316483Y-120543304D01*
X97513940Y-120461515D01*
X97691647Y-120342775D01*
X97842775Y-120191647D01*
X97961515Y-120013940D01*
X98043304Y-119816483D01*
X98085000Y-119606863D01*
X98085000Y-119393137D01*
X98043304Y-119183517D01*
X97993691Y-119063740D01*
X101105000Y-119063740D01*
X101105000Y-119356260D01*
X101162068Y-119643158D01*
X101274010Y-119913411D01*
X101436525Y-120156632D01*
X101643368Y-120363475D01*
X101819406Y-120481100D01*
X101589731Y-120652412D01*
X101394822Y-120868645D01*
X101245843Y-121118748D01*
X101148519Y-121393109D01*
X101269186Y-121623000D01*
X102463000Y-121623000D01*
X102463000Y-121603000D01*
X102717000Y-121603000D01*
X102717000Y-121623000D01*
X102737000Y-121623000D01*
X102737000Y-121877000D01*
X102717000Y-121877000D01*
X102717000Y-123070155D01*
X102946890Y-123191476D01*
X103094099Y-123146825D01*
X103356920Y-123021641D01*
X103590269Y-122847588D01*
X103785178Y-122631355D01*
X103854805Y-122514466D01*
X103976525Y-122696632D01*
X104183368Y-122903475D01*
X104426589Y-123065990D01*
X104696842Y-123177932D01*
X104983740Y-123235000D01*
X105276260Y-123235000D01*
X105563158Y-123177932D01*
X105833411Y-123065990D01*
X106076632Y-122903475D01*
X106283475Y-122696632D01*
X106405195Y-122514466D01*
X106474822Y-122631355D01*
X106669731Y-122847588D01*
X106903080Y-123021641D01*
X107165901Y-123146825D01*
X107313110Y-123191476D01*
X107543000Y-123070155D01*
X107543000Y-121877000D01*
X107797000Y-121877000D01*
X107797000Y-123070155D01*
X108026890Y-123191476D01*
X108174099Y-123146825D01*
X108436920Y-123021641D01*
X108670269Y-122847588D01*
X108865178Y-122631355D01*
X108940000Y-122505745D01*
X109014822Y-122631355D01*
X109209731Y-122847588D01*
X109443080Y-123021641D01*
X109705901Y-123146825D01*
X109853110Y-123191476D01*
X110083000Y-123070155D01*
X110083000Y-121877000D01*
X107797000Y-121877000D01*
X107543000Y-121877000D01*
X107523000Y-121877000D01*
X107523000Y-121623000D01*
X107543000Y-121623000D01*
X107543000Y-121603000D01*
X107797000Y-121603000D01*
X107797000Y-121623000D01*
X110083000Y-121623000D01*
X110083000Y-121603000D01*
X110337000Y-121603000D01*
X110337000Y-121623000D01*
X110357000Y-121623000D01*
X110357000Y-121877000D01*
X110337000Y-121877000D01*
X110337000Y-123070155D01*
X110566890Y-123191476D01*
X110714099Y-123146825D01*
X110976920Y-123021641D01*
X111210269Y-122847588D01*
X111286034Y-122763534D01*
X111310498Y-122844180D01*
X111369463Y-122954494D01*
X111448815Y-123051185D01*
X111545506Y-123130537D01*
X111655820Y-123189502D01*
X111775518Y-123225812D01*
X111900000Y-123238072D01*
X113600000Y-123238072D01*
X113724482Y-123225812D01*
X113844180Y-123189502D01*
X113954494Y-123130537D01*
X114051185Y-123051185D01*
X114130537Y-122954494D01*
X114189502Y-122844180D01*
X114209583Y-122777980D01*
X126901626Y-122777980D01*
X127021514Y-123062836D01*
X127345210Y-123223699D01*
X127694069Y-123318322D01*
X128054684Y-123343067D01*
X128413198Y-123296985D01*
X128755833Y-123181846D01*
X128978486Y-123062836D01*
X129098374Y-122777980D01*
X128000000Y-121679605D01*
X126901626Y-122777980D01*
X114209583Y-122777980D01*
X114225812Y-122724482D01*
X114238072Y-122600000D01*
X114238072Y-121554684D01*
X126156933Y-121554684D01*
X126203015Y-121913198D01*
X126318154Y-122255833D01*
X126437164Y-122478486D01*
X126722020Y-122598374D01*
X127820395Y-121500000D01*
X128179605Y-121500000D01*
X129277980Y-122598374D01*
X129562836Y-122478486D01*
X129661928Y-122279088D01*
X129661928Y-122700000D01*
X129674188Y-122824482D01*
X129710498Y-122944180D01*
X129769463Y-123054494D01*
X129848815Y-123151185D01*
X129945506Y-123230537D01*
X130055820Y-123289502D01*
X130175518Y-123325812D01*
X130300000Y-123338072D01*
X132700000Y-123338072D01*
X132824482Y-123325812D01*
X132944180Y-123289502D01*
X133054494Y-123230537D01*
X133151185Y-123151185D01*
X133230537Y-123054494D01*
X133285920Y-122950881D01*
X135728724Y-122950881D01*
X136088912Y-123440548D01*
X136752882Y-123800849D01*
X137474385Y-124024694D01*
X138225695Y-124103480D01*
X138977938Y-124034178D01*
X139702208Y-123819452D01*
X140370670Y-123467555D01*
X140411088Y-123440548D01*
X140771276Y-122950881D01*
X138250000Y-120429605D01*
X135728724Y-122950881D01*
X133285920Y-122950881D01*
X133289502Y-122944180D01*
X133325812Y-122824482D01*
X133338072Y-122700000D01*
X133338072Y-120300000D01*
X133330754Y-120225695D01*
X134396520Y-120225695D01*
X134465822Y-120977938D01*
X134680548Y-121702208D01*
X135032445Y-122370670D01*
X135059452Y-122411088D01*
X135549119Y-122771276D01*
X138070395Y-120250000D01*
X135549119Y-117728724D01*
X135059452Y-118088912D01*
X134699151Y-118752882D01*
X134475306Y-119474385D01*
X134396520Y-120225695D01*
X133330754Y-120225695D01*
X133325812Y-120175518D01*
X133289502Y-120055820D01*
X133230537Y-119945506D01*
X133151185Y-119848815D01*
X133054494Y-119769463D01*
X132944180Y-119710498D01*
X132824482Y-119674188D01*
X132700000Y-119661928D01*
X130300000Y-119661928D01*
X130175518Y-119674188D01*
X130055820Y-119710498D01*
X129945506Y-119769463D01*
X129848815Y-119848815D01*
X129769463Y-119945506D01*
X129710498Y-120055820D01*
X129674188Y-120175518D01*
X129661928Y-120300000D01*
X129661928Y-120706903D01*
X129562836Y-120521514D01*
X129277980Y-120401626D01*
X128179605Y-121500000D01*
X127820395Y-121500000D01*
X126722020Y-120401626D01*
X126437164Y-120521514D01*
X126276301Y-120845210D01*
X126181678Y-121194069D01*
X126156933Y-121554684D01*
X114238072Y-121554684D01*
X114238072Y-120900000D01*
X114225812Y-120775518D01*
X114189502Y-120655820D01*
X114130537Y-120545506D01*
X114051185Y-120448815D01*
X113954494Y-120369463D01*
X113844180Y-120310498D01*
X113771620Y-120288487D01*
X113838087Y-120222020D01*
X126901626Y-120222020D01*
X128000000Y-121320395D01*
X129098374Y-120222020D01*
X128978486Y-119937164D01*
X128654790Y-119776301D01*
X128305931Y-119681678D01*
X127945316Y-119656933D01*
X127586802Y-119703015D01*
X127244167Y-119818154D01*
X127021514Y-119937164D01*
X126901626Y-120222020D01*
X113838087Y-120222020D01*
X113903475Y-120156632D01*
X114065990Y-119913411D01*
X114177932Y-119643158D01*
X114235000Y-119356260D01*
X114235000Y-119063740D01*
X114177932Y-118776842D01*
X114065990Y-118506589D01*
X113903475Y-118263368D01*
X113696632Y-118056525D01*
X113453411Y-117894010D01*
X113183158Y-117782068D01*
X112896260Y-117725000D01*
X112603740Y-117725000D01*
X112316842Y-117782068D01*
X112046589Y-117894010D01*
X111803368Y-118056525D01*
X111596525Y-118263368D01*
X111480000Y-118437760D01*
X111363475Y-118263368D01*
X111156632Y-118056525D01*
X110913411Y-117894010D01*
X110643158Y-117782068D01*
X110356260Y-117725000D01*
X110063740Y-117725000D01*
X109776842Y-117782068D01*
X109506589Y-117894010D01*
X109263368Y-118056525D01*
X109056525Y-118263368D01*
X108940000Y-118437760D01*
X108823475Y-118263368D01*
X108616632Y-118056525D01*
X108373411Y-117894010D01*
X108103158Y-117782068D01*
X107816260Y-117725000D01*
X107523740Y-117725000D01*
X107236842Y-117782068D01*
X106966589Y-117894010D01*
X106723368Y-118056525D01*
X106516525Y-118263368D01*
X106400000Y-118437760D01*
X106283475Y-118263368D01*
X106076632Y-118056525D01*
X105833411Y-117894010D01*
X105563158Y-117782068D01*
X105276260Y-117725000D01*
X104983740Y-117725000D01*
X104696842Y-117782068D01*
X104426589Y-117894010D01*
X104183368Y-118056525D01*
X103976525Y-118263368D01*
X103860000Y-118437760D01*
X103743475Y-118263368D01*
X103536632Y-118056525D01*
X103293411Y-117894010D01*
X103023158Y-117782068D01*
X102736260Y-117725000D01*
X102443740Y-117725000D01*
X102156842Y-117782068D01*
X101886589Y-117894010D01*
X101643368Y-118056525D01*
X101436525Y-118263368D01*
X101274010Y-118506589D01*
X101162068Y-118776842D01*
X101105000Y-119063740D01*
X97993691Y-119063740D01*
X97961515Y-118986060D01*
X97842775Y-118808353D01*
X97691647Y-118657225D01*
X97513940Y-118538485D01*
X97316483Y-118456696D01*
X97106863Y-118415000D01*
X96893137Y-118415000D01*
X96683517Y-118456696D01*
X96486060Y-118538485D01*
X96308353Y-118657225D01*
X96157225Y-118808353D01*
X96038485Y-118986060D01*
X95956696Y-119183517D01*
X95915000Y-119393137D01*
X95085000Y-119393137D01*
X95043304Y-119183517D01*
X94961515Y-118986060D01*
X94842775Y-118808353D01*
X94691647Y-118657225D01*
X94513940Y-118538485D01*
X94316483Y-118456696D01*
X94106863Y-118415000D01*
X93893137Y-118415000D01*
X93683517Y-118456696D01*
X93486060Y-118538485D01*
X93308353Y-118657225D01*
X93157225Y-118808353D01*
X93038485Y-118986060D01*
X92956696Y-119183517D01*
X92915000Y-119393137D01*
X89745956Y-119393137D01*
X89569452Y-118797792D01*
X89217555Y-118129330D01*
X89190548Y-118088912D01*
X88700881Y-117728724D01*
X86179605Y-120250000D01*
X85820395Y-120250000D01*
X85806253Y-120235858D01*
X85985858Y-120056253D01*
X86000000Y-120070395D01*
X88521276Y-117549119D01*
X88161088Y-117059452D01*
X87497118Y-116699151D01*
X86775615Y-116475306D01*
X86152851Y-116410000D01*
X138127985Y-116410000D01*
X137522062Y-116465822D01*
%TA.AperFunction,Conductor*%
D19*
G36*
X137522062Y-116465822D02*
G01*
X136797792Y-116680548D01*
X136129330Y-117032445D01*
X136088912Y-117059452D01*
X135728724Y-117549119D01*
X138250000Y-120070395D01*
X138264143Y-120056253D01*
X138443748Y-120235858D01*
X138429605Y-120250000D01*
X140950881Y-122771276D01*
X141440548Y-122411088D01*
X141800849Y-121747118D01*
X142024694Y-121025615D01*
X142090000Y-120402851D01*
X142090001Y-153627996D01*
X142034178Y-153022062D01*
X141819452Y-152297792D01*
X141467555Y-151629330D01*
X141440548Y-151588912D01*
X140950881Y-151228724D01*
X138429605Y-153750000D01*
X138443748Y-153764143D01*
X138264143Y-153943748D01*
X138250000Y-153929605D01*
X135728724Y-156450881D01*
X136088912Y-156940548D01*
X136752882Y-157300849D01*
X137474385Y-157524694D01*
X138097149Y-157590000D01*
X86122015Y-157590000D01*
X86727938Y-157534178D01*
X87452208Y-157319452D01*
X88120670Y-156967555D01*
X88161088Y-156940548D01*
X88521276Y-156450881D01*
X86000000Y-153929605D01*
X85985858Y-153943748D01*
X85806253Y-153764143D01*
X85820395Y-153750000D01*
X86179605Y-153750000D01*
X88700881Y-156271276D01*
X89190548Y-155911088D01*
X89550849Y-155247118D01*
X89671916Y-154856891D01*
X90938519Y-154856891D01*
X91035843Y-155131252D01*
X91184822Y-155381355D01*
X91379731Y-155597588D01*
X91613080Y-155771641D01*
X91875901Y-155896825D01*
X92023110Y-155941476D01*
X92253000Y-155820155D01*
X92253000Y-154627000D01*
X91059186Y-154627000D01*
X90938519Y-154856891D01*
X89671916Y-154856891D01*
X89774694Y-154525615D01*
X89814805Y-154143109D01*
X90938519Y-154143109D01*
X91059186Y-154373000D01*
X92253000Y-154373000D01*
X92253000Y-153179845D01*
X92507000Y-153179845D01*
X92507000Y-154373000D01*
X92527000Y-154373000D01*
X92527000Y-154627000D01*
X92507000Y-154627000D01*
X92507000Y-155820155D01*
X92736890Y-155941476D01*
X92884099Y-155896825D01*
X93146920Y-155771641D01*
X93380269Y-155597588D01*
X93575178Y-155381355D01*
X93644805Y-155264466D01*
X93766525Y-155446632D01*
X93973368Y-155653475D01*
X94216589Y-155815990D01*
X94486842Y-155927932D01*
X94773740Y-155985000D01*
X95066260Y-155985000D01*
X95353158Y-155927932D01*
X95623411Y-155815990D01*
X95866632Y-155653475D01*
X96073475Y-155446632D01*
X96190000Y-155272240D01*
X96306525Y-155446632D01*
X96513368Y-155653475D01*
X96756589Y-155815990D01*
X97026842Y-155927932D01*
X97313740Y-155985000D01*
X97606260Y-155985000D01*
X97893158Y-155927932D01*
X98163411Y-155815990D01*
X98406632Y-155653475D01*
X98538487Y-155521620D01*
X98560498Y-155594180D01*
X98619463Y-155704494D01*
X98698815Y-155801185D01*
X98795506Y-155880537D01*
X98905820Y-155939502D01*
X99025518Y-155975812D01*
X99150000Y-155988072D01*
X100850000Y-155988072D01*
X100974482Y-155975812D01*
X101094180Y-155939502D01*
X101204494Y-155880537D01*
X101301185Y-155801185D01*
X101380537Y-155704494D01*
X101439502Y-155594180D01*
X101475812Y-155474482D01*
X101488072Y-155350000D01*
X101488072Y-153650000D01*
X103351928Y-153650000D01*
X103351928Y-155350000D01*
X103364188Y-155474482D01*
X103400498Y-155594180D01*
X103459463Y-155704494D01*
X103538815Y-155801185D01*
X103635506Y-155880537D01*
X103745820Y-155939502D01*
X103865518Y-155975812D01*
X103990000Y-155988072D01*
X105690000Y-155988072D01*
X105814482Y-155975812D01*
X105934180Y-155939502D01*
X106044494Y-155880537D01*
X106141185Y-155801185D01*
X106220537Y-155704494D01*
X106279502Y-155594180D01*
X106301513Y-155521620D01*
X106433368Y-155653475D01*
X106676589Y-155815990D01*
X106946842Y-155927932D01*
X107233740Y-155985000D01*
X107526260Y-155985000D01*
X107813158Y-155927932D01*
X108083411Y-155815990D01*
X108326632Y-155653475D01*
X108533475Y-155446632D01*
X108650000Y-155272240D01*
X108766525Y-155446632D01*
X108973368Y-155653475D01*
X109216589Y-155815990D01*
X109486842Y-155927932D01*
X109773740Y-155985000D01*
X110066260Y-155985000D01*
X110353158Y-155927932D01*
X110623411Y-155815990D01*
X110866632Y-155653475D01*
X111073475Y-155446632D01*
X111190000Y-155272240D01*
X111306525Y-155446632D01*
X111513368Y-155653475D01*
X111756589Y-155815990D01*
X112026842Y-155927932D01*
X112313740Y-155985000D01*
X112606260Y-155985000D01*
X112893158Y-155927932D01*
X113163411Y-155815990D01*
X113406632Y-155653475D01*
X113613475Y-155446632D01*
X113730000Y-155272240D01*
X113846525Y-155446632D01*
X114053368Y-155653475D01*
X114296589Y-155815990D01*
X114566842Y-155927932D01*
X114853740Y-155985000D01*
X115146260Y-155985000D01*
X115433158Y-155927932D01*
X115703411Y-155815990D01*
X115946632Y-155653475D01*
X116153475Y-155446632D01*
X116275195Y-155264466D01*
X116344822Y-155381355D01*
X116539731Y-155597588D01*
X116773080Y-155771641D01*
X117035901Y-155896825D01*
X117183110Y-155941476D01*
X117413000Y-155820155D01*
X117413000Y-154627000D01*
X117667000Y-154627000D01*
X117667000Y-155820155D01*
X117896890Y-155941476D01*
X118044099Y-155896825D01*
X118306920Y-155771641D01*
X118540269Y-155597588D01*
X118735178Y-155381355D01*
X118884157Y-155131252D01*
X118981481Y-154856891D01*
X120688519Y-154856891D01*
X120785843Y-155131252D01*
X120934822Y-155381355D01*
X121129731Y-155597588D01*
X121363080Y-155771641D01*
X121625901Y-155896825D01*
X121773110Y-155941476D01*
X122003000Y-155820155D01*
X122003000Y-154627000D01*
X120809186Y-154627000D01*
X120688519Y-154856891D01*
X118981481Y-154856891D01*
X118860814Y-154627000D01*
X117667000Y-154627000D01*
X117413000Y-154627000D01*
X117393000Y-154627000D01*
X117393000Y-154373000D01*
X117413000Y-154373000D01*
X117413000Y-153179845D01*
X117667000Y-153179845D01*
X117667000Y-154373000D01*
X118860814Y-154373000D01*
X118981481Y-154143109D01*
X120688519Y-154143109D01*
X120809186Y-154373000D01*
X122003000Y-154373000D01*
X122003000Y-153179845D01*
X122257000Y-153179845D01*
X122257000Y-154373000D01*
X122277000Y-154373000D01*
X122277000Y-154627000D01*
X122257000Y-154627000D01*
X122257000Y-155820155D01*
X122486890Y-155941476D01*
X122634099Y-155896825D01*
X122896920Y-155771641D01*
X123130269Y-155597588D01*
X123325178Y-155381355D01*
X123394805Y-155264466D01*
X123516525Y-155446632D01*
X123723368Y-155653475D01*
X123966589Y-155815990D01*
X124236842Y-155927932D01*
X124523740Y-155985000D01*
X124816260Y-155985000D01*
X125103158Y-155927932D01*
X125373411Y-155815990D01*
X125616632Y-155653475D01*
X125823475Y-155446632D01*
X125940000Y-155272240D01*
X126056525Y-155446632D01*
X126263368Y-155653475D01*
X126506589Y-155815990D01*
X126776842Y-155927932D01*
X127063740Y-155985000D01*
X127356260Y-155985000D01*
X127643158Y-155927932D01*
X127913411Y-155815990D01*
X128156632Y-155653475D01*
X128288487Y-155521620D01*
X128310498Y-155594180D01*
X128369463Y-155704494D01*
X128448815Y-155801185D01*
X128545506Y-155880537D01*
X128655820Y-155939502D01*
X128775518Y-155975812D01*
X128900000Y-155988072D01*
X130600000Y-155988072D01*
X130724482Y-155975812D01*
X130844180Y-155939502D01*
X130954494Y-155880537D01*
X131051185Y-155801185D01*
X131130537Y-155704494D01*
X131189502Y-155594180D01*
X131225812Y-155474482D01*
X131238072Y-155350000D01*
X131238072Y-153725695D01*
X134396520Y-153725695D01*
X134465822Y-154477938D01*
X134680548Y-155202208D01*
X135032445Y-155870670D01*
X135059452Y-155911088D01*
X135549119Y-156271276D01*
X138070395Y-153750000D01*
X135549119Y-151228724D01*
X135059452Y-151588912D01*
X134699151Y-152252882D01*
X134475306Y-152974385D01*
X134396520Y-153725695D01*
X131238072Y-153725695D01*
X131238072Y-153650000D01*
X131225812Y-153525518D01*
X131189502Y-153405820D01*
X131130537Y-153295506D01*
X131051185Y-153198815D01*
X130954494Y-153119463D01*
X130844180Y-153060498D01*
X130724482Y-153024188D01*
X130600000Y-153011928D01*
X128900000Y-153011928D01*
X128775518Y-153024188D01*
X128655820Y-153060498D01*
X128545506Y-153119463D01*
X128448815Y-153198815D01*
X128369463Y-153295506D01*
X128310498Y-153405820D01*
X128288487Y-153478380D01*
X128156632Y-153346525D01*
X127913411Y-153184010D01*
X127643158Y-153072068D01*
X127356260Y-153015000D01*
X127063740Y-153015000D01*
X126776842Y-153072068D01*
X126506589Y-153184010D01*
X126263368Y-153346525D01*
X126056525Y-153553368D01*
X125940000Y-153727760D01*
X125823475Y-153553368D01*
X125616632Y-153346525D01*
X125373411Y-153184010D01*
X125103158Y-153072068D01*
X124816260Y-153015000D01*
X124523740Y-153015000D01*
X124236842Y-153072068D01*
X123966589Y-153184010D01*
X123723368Y-153346525D01*
X123516525Y-153553368D01*
X123394805Y-153735534D01*
X123325178Y-153618645D01*
X123130269Y-153402412D01*
X122896920Y-153228359D01*
X122634099Y-153103175D01*
X122486890Y-153058524D01*
X122257000Y-153179845D01*
X122003000Y-153179845D01*
X121773110Y-153058524D01*
X121625901Y-153103175D01*
X121363080Y-153228359D01*
X121129731Y-153402412D01*
X120934822Y-153618645D01*
X120785843Y-153868748D01*
X120688519Y-154143109D01*
X118981481Y-154143109D01*
X118884157Y-153868748D01*
X118735178Y-153618645D01*
X118540269Y-153402412D01*
X118306920Y-153228359D01*
X118044099Y-153103175D01*
X117896890Y-153058524D01*
X117667000Y-153179845D01*
X117413000Y-153179845D01*
X117183110Y-153058524D01*
X117035901Y-153103175D01*
X116773080Y-153228359D01*
X116539731Y-153402412D01*
X116344822Y-153618645D01*
X116275195Y-153735534D01*
X116153475Y-153553368D01*
X115946632Y-153346525D01*
X115703411Y-153184010D01*
X115433158Y-153072068D01*
X115146260Y-153015000D01*
X114853740Y-153015000D01*
X114566842Y-153072068D01*
X114296589Y-153184010D01*
X114053368Y-153346525D01*
X113846525Y-153553368D01*
X113730000Y-153727760D01*
X113613475Y-153553368D01*
X113406632Y-153346525D01*
X113163411Y-153184010D01*
X112893158Y-153072068D01*
X112606260Y-153015000D01*
X112313740Y-153015000D01*
X112026842Y-153072068D01*
X111756589Y-153184010D01*
X111513368Y-153346525D01*
X111306525Y-153553368D01*
X111190000Y-153727760D01*
X111073475Y-153553368D01*
X110866632Y-153346525D01*
X110623411Y-153184010D01*
X110353158Y-153072068D01*
X110066260Y-153015000D01*
X109773740Y-153015000D01*
X109486842Y-153072068D01*
X109216589Y-153184010D01*
X108973368Y-153346525D01*
X108766525Y-153553368D01*
X108650000Y-153727760D01*
X108533475Y-153553368D01*
X108326632Y-153346525D01*
X108083411Y-153184010D01*
X107813158Y-153072068D01*
X107526260Y-153015000D01*
X107233740Y-153015000D01*
X106946842Y-153072068D01*
X106676589Y-153184010D01*
X106433368Y-153346525D01*
X106301513Y-153478380D01*
X106279502Y-153405820D01*
X106220537Y-153295506D01*
X106141185Y-153198815D01*
X106044494Y-153119463D01*
X105934180Y-153060498D01*
X105814482Y-153024188D01*
X105690000Y-153011928D01*
X103990000Y-153011928D01*
X103865518Y-153024188D01*
X103745820Y-153060498D01*
X103635506Y-153119463D01*
X103538815Y-153198815D01*
X103459463Y-153295506D01*
X103400498Y-153405820D01*
X103364188Y-153525518D01*
X103351928Y-153650000D01*
X101488072Y-153650000D01*
X101475812Y-153525518D01*
X101439502Y-153405820D01*
X101380537Y-153295506D01*
X101301185Y-153198815D01*
X101204494Y-153119463D01*
X101094180Y-153060498D01*
X100974482Y-153024188D01*
X100850000Y-153011928D01*
X99150000Y-153011928D01*
X99025518Y-153024188D01*
X98905820Y-153060498D01*
X98795506Y-153119463D01*
X98698815Y-153198815D01*
X98619463Y-153295506D01*
X98560498Y-153405820D01*
X98538487Y-153478380D01*
X98406632Y-153346525D01*
X98163411Y-153184010D01*
X97893158Y-153072068D01*
X97606260Y-153015000D01*
X97313740Y-153015000D01*
X97026842Y-153072068D01*
X96756589Y-153184010D01*
X96513368Y-153346525D01*
X96306525Y-153553368D01*
X96190000Y-153727760D01*
X96073475Y-153553368D01*
X95866632Y-153346525D01*
X95623411Y-153184010D01*
X95353158Y-153072068D01*
X95066260Y-153015000D01*
X94773740Y-153015000D01*
X94486842Y-153072068D01*
X94216589Y-153184010D01*
X93973368Y-153346525D01*
X93766525Y-153553368D01*
X93644805Y-153735534D01*
X93575178Y-153618645D01*
X93380269Y-153402412D01*
X93146920Y-153228359D01*
X92884099Y-153103175D01*
X92736890Y-153058524D01*
X92507000Y-153179845D01*
X92253000Y-153179845D01*
X92023110Y-153058524D01*
X91875901Y-153103175D01*
X91613080Y-153228359D01*
X91379731Y-153402412D01*
X91184822Y-153618645D01*
X91035843Y-153868748D01*
X90938519Y-154143109D01*
X89814805Y-154143109D01*
X89853480Y-153774305D01*
X89784178Y-153022062D01*
X89569452Y-152297792D01*
X89217555Y-151629330D01*
X89190548Y-151588912D01*
X88700881Y-151228724D01*
X86179605Y-153750000D01*
X85820395Y-153750000D01*
X83299119Y-151228724D01*
X82809452Y-151588912D01*
X82449151Y-152252882D01*
X82225306Y-152974385D01*
X82160000Y-153597149D01*
X82160000Y-151049119D01*
X83478724Y-151049119D01*
X86000000Y-153570395D01*
X88521276Y-151049119D01*
X88161088Y-150559452D01*
X87497118Y-150199151D01*
X86775615Y-149975306D01*
X86024305Y-149896520D01*
X85272062Y-149965822D01*
X84547792Y-150180548D01*
X83879330Y-150532445D01*
X83838912Y-150559452D01*
X83478724Y-151049119D01*
X82160000Y-151049119D01*
X82160000Y-149498061D01*
X92965000Y-149498061D01*
X92965000Y-149701939D01*
X93004774Y-149901898D01*
X93082795Y-150090256D01*
X93156123Y-150200000D01*
X93082795Y-150309744D01*
X93004774Y-150498102D01*
X92965000Y-150698061D01*
X92965000Y-150901939D01*
X93004774Y-151101898D01*
X93082795Y-151290256D01*
X93122715Y-151350000D01*
X93082795Y-151409744D01*
X93004774Y-151598102D01*
X92965000Y-151798061D01*
X92965000Y-152001939D01*
X93004774Y-152201898D01*
X93082795Y-152390256D01*
X93196063Y-152559774D01*
X93340226Y-152703937D01*
X93509744Y-152817205D01*
X93698102Y-152895226D01*
X93898061Y-152935000D01*
X94101939Y-152935000D01*
X94301898Y-152895226D01*
X94490256Y-152817205D01*
X94659774Y-152703937D01*
X94803937Y-152559774D01*
X94917205Y-152390256D01*
X94995226Y-152201898D01*
X95035000Y-152001939D01*
X95035000Y-151798061D01*
X94995226Y-151598102D01*
X94917205Y-151409744D01*
X94877285Y-151350000D01*
X94917205Y-151290256D01*
X94995226Y-151101898D01*
X95035000Y-150901939D01*
X95035000Y-150698061D01*
X94995226Y-150498102D01*
X94917205Y-150309744D01*
X94843877Y-150200000D01*
X94917205Y-150090256D01*
X94995226Y-149901898D01*
X95035000Y-149701939D01*
X95035000Y-149498061D01*
X97365000Y-149498061D01*
X97365000Y-149701939D01*
X97404774Y-149901898D01*
X97482795Y-150090256D01*
X97556123Y-150200000D01*
X97482795Y-150309744D01*
X97404774Y-150498102D01*
X97365000Y-150698061D01*
X97365000Y-150901939D01*
X97404774Y-151101898D01*
X97482795Y-151290256D01*
X97522715Y-151350000D01*
X97482795Y-151409744D01*
X97404774Y-151598102D01*
X97365000Y-151798061D01*
X97365000Y-152001939D01*
X97404774Y-152201898D01*
X97482795Y-152390256D01*
X97596063Y-152559774D01*
X97740226Y-152703937D01*
X97909744Y-152817205D01*
X98098102Y-152895226D01*
X98298061Y-152935000D01*
X98501939Y-152935000D01*
X98701898Y-152895226D01*
X98890256Y-152817205D01*
X99059774Y-152703937D01*
X99203937Y-152559774D01*
X99317205Y-152390256D01*
X99395226Y-152201898D01*
X99435000Y-152001939D01*
X99435000Y-151798061D01*
X99395226Y-151598102D01*
X99317205Y-151409744D01*
X99277285Y-151350000D01*
X99317205Y-151290256D01*
X99395226Y-151101898D01*
X99435000Y-150901939D01*
X99435000Y-150698061D01*
X99395226Y-150498102D01*
X99317205Y-150309744D01*
X99243877Y-150200000D01*
X99317205Y-150090256D01*
X99395226Y-149901898D01*
X99435000Y-149701939D01*
X99435000Y-149498061D01*
X105465000Y-149498061D01*
X105465000Y-149701939D01*
X105504774Y-149901898D01*
X105582795Y-150090256D01*
X105656123Y-150200000D01*
X105582795Y-150309744D01*
X105504774Y-150498102D01*
X105465000Y-150698061D01*
X105465000Y-150901939D01*
X105504774Y-151101898D01*
X105582795Y-151290256D01*
X105622715Y-151350000D01*
X105582795Y-151409744D01*
X105504774Y-151598102D01*
X105465000Y-151798061D01*
X105465000Y-152001939D01*
X105504774Y-152201898D01*
X105582795Y-152390256D01*
X105696063Y-152559774D01*
X105840226Y-152703937D01*
X106009744Y-152817205D01*
X106198102Y-152895226D01*
X106398061Y-152935000D01*
X106601939Y-152935000D01*
X106801898Y-152895226D01*
X106990256Y-152817205D01*
X107159774Y-152703937D01*
X107303937Y-152559774D01*
X107417205Y-152390256D01*
X107495226Y-152201898D01*
X107535000Y-152001939D01*
X107535000Y-151798061D01*
X107495226Y-151598102D01*
X107417205Y-151409744D01*
X107377285Y-151350000D01*
X107417205Y-151290256D01*
X107495226Y-151101898D01*
X107535000Y-150901939D01*
X107535000Y-150698061D01*
X107495226Y-150498102D01*
X107417205Y-150309744D01*
X107409399Y-150298061D01*
X118765000Y-150298061D01*
X118765000Y-150501939D01*
X118804774Y-150701898D01*
X118882795Y-150890256D01*
X118996063Y-151059774D01*
X119140226Y-151203937D01*
X119309744Y-151317205D01*
X119498102Y-151395226D01*
X119698061Y-151435000D01*
X119901939Y-151435000D01*
X120101898Y-151395226D01*
X120290256Y-151317205D01*
X120459774Y-151203937D01*
X120603937Y-151059774D01*
X120611056Y-151049119D01*
X135728724Y-151049119D01*
X138250000Y-153570395D01*
X140771276Y-151049119D01*
X140411088Y-150559452D01*
X139747118Y-150199151D01*
X139025615Y-149975306D01*
X138274305Y-149896520D01*
X137522062Y-149965822D01*
X136797792Y-150180548D01*
X136129330Y-150532445D01*
X136088912Y-150559452D01*
X135728724Y-151049119D01*
X120611056Y-151049119D01*
X120717205Y-150890256D01*
X120795226Y-150701898D01*
X120835000Y-150501939D01*
X120835000Y-150298061D01*
X120795226Y-150098102D01*
X120717205Y-149909744D01*
X120603937Y-149740226D01*
X120459774Y-149596063D01*
X120290256Y-149482795D01*
X120101898Y-149404774D01*
X119901939Y-149365000D01*
X119698061Y-149365000D01*
X119498102Y-149404774D01*
X119309744Y-149482795D01*
X119140226Y-149596063D01*
X118996063Y-149740226D01*
X118882795Y-149909744D01*
X118804774Y-150098102D01*
X118765000Y-150298061D01*
X107409399Y-150298061D01*
X107343877Y-150200000D01*
X107417205Y-150090256D01*
X107495226Y-149901898D01*
X107535000Y-149701939D01*
X107535000Y-149498061D01*
X107495226Y-149298102D01*
X107417205Y-149109744D01*
X107303937Y-148940226D01*
X107159774Y-148796063D01*
X106990256Y-148682795D01*
X106801898Y-148604774D01*
X106601939Y-148565000D01*
X106398061Y-148565000D01*
X106198102Y-148604774D01*
X106009744Y-148682795D01*
X105840226Y-148796063D01*
X105696063Y-148940226D01*
X105582795Y-149109744D01*
X105504774Y-149298102D01*
X105465000Y-149498061D01*
X99435000Y-149498061D01*
X99395226Y-149298102D01*
X99317205Y-149109744D01*
X99203937Y-148940226D01*
X99059774Y-148796063D01*
X98890256Y-148682795D01*
X98701898Y-148604774D01*
X98501939Y-148565000D01*
X98298061Y-148565000D01*
X98098102Y-148604774D01*
X97909744Y-148682795D01*
X97740226Y-148796063D01*
X97596063Y-148940226D01*
X97482795Y-149109744D01*
X97404774Y-149298102D01*
X97365000Y-149498061D01*
X95035000Y-149498061D01*
X94995226Y-149298102D01*
X94917205Y-149109744D01*
X94803937Y-148940226D01*
X94659774Y-148796063D01*
X94490256Y-148682795D01*
X94301898Y-148604774D01*
X94101939Y-148565000D01*
X93898061Y-148565000D01*
X93698102Y-148604774D01*
X93509744Y-148682795D01*
X93340226Y-148796063D01*
X93196063Y-148940226D01*
X93082795Y-149109744D01*
X93004774Y-149298102D01*
X92965000Y-149498061D01*
X82160000Y-149498061D01*
X82160000Y-142650000D01*
X84261928Y-142650000D01*
X84261928Y-144350000D01*
X84274188Y-144474482D01*
X84310498Y-144594180D01*
X84369463Y-144704494D01*
X84448815Y-144801185D01*
X84545506Y-144880537D01*
X84655820Y-144939502D01*
X84775518Y-144975812D01*
X84900000Y-144988072D01*
X86600000Y-144988072D01*
X86724482Y-144975812D01*
X86844180Y-144939502D01*
X86954494Y-144880537D01*
X87051185Y-144801185D01*
X87130537Y-144704494D01*
X87189502Y-144594180D01*
X87225812Y-144474482D01*
X87238072Y-144350000D01*
X87238072Y-142650000D01*
X87225812Y-142525518D01*
X87189502Y-142405820D01*
X87130537Y-142295506D01*
X87051185Y-142198815D01*
X86954494Y-142119463D01*
X86844180Y-142060498D01*
X86724482Y-142024188D01*
X86600000Y-142011928D01*
X84900000Y-142011928D01*
X84775518Y-142024188D01*
X84655820Y-142060498D01*
X84545506Y-142119463D01*
X84448815Y-142198815D01*
X84369463Y-142295506D01*
X84310498Y-142405820D01*
X84274188Y-142525518D01*
X84261928Y-142650000D01*
X82160000Y-142650000D01*
X82160000Y-141650000D01*
X89261928Y-141650000D01*
X89261928Y-143350000D01*
X89274188Y-143474482D01*
X89310498Y-143594180D01*
X89369463Y-143704494D01*
X89448815Y-143801185D01*
X89545506Y-143880537D01*
X89655820Y-143939502D01*
X89728380Y-143961513D01*
X89596525Y-144093368D01*
X89434010Y-144336589D01*
X89322068Y-144606842D01*
X89265000Y-144893740D01*
X89265000Y-145186260D01*
X89322068Y-145473158D01*
X89434010Y-145743411D01*
X89596525Y-145986632D01*
X89803368Y-146193475D01*
X89977760Y-146310000D01*
X89803368Y-146426525D01*
X89596525Y-146633368D01*
X89434010Y-146876589D01*
X89322068Y-147146842D01*
X89265000Y-147433740D01*
X89265000Y-147726260D01*
X89322068Y-148013158D01*
X89434010Y-148283411D01*
X89596525Y-148526632D01*
X89803368Y-148733475D01*
X90046589Y-148895990D01*
X90316842Y-149007932D01*
X90603740Y-149065000D01*
X90896260Y-149065000D01*
X91183158Y-149007932D01*
X91453411Y-148895990D01*
X91696632Y-148733475D01*
X91903475Y-148526632D01*
X92065990Y-148283411D01*
X92177932Y-148013158D01*
X92235000Y-147726260D01*
X92235000Y-147433740D01*
X92177932Y-147146842D01*
X92065990Y-146876589D01*
X91903475Y-146633368D01*
X91768168Y-146498061D01*
X95165000Y-146498061D01*
X95165000Y-146701939D01*
X95204774Y-146901898D01*
X95282795Y-147090256D01*
X95396063Y-147259774D01*
X95540226Y-147403937D01*
X95709744Y-147517205D01*
X95898102Y-147595226D01*
X96098061Y-147635000D01*
X96301939Y-147635000D01*
X96501898Y-147595226D01*
X96690256Y-147517205D01*
X96859774Y-147403937D01*
X97003937Y-147259774D01*
X97117205Y-147090256D01*
X97195226Y-146901898D01*
X97235000Y-146701939D01*
X97235000Y-146498061D01*
X97465000Y-146498061D01*
X97465000Y-146701939D01*
X97504774Y-146901898D01*
X97582795Y-147090256D01*
X97696063Y-147259774D01*
X97840226Y-147403937D01*
X98009744Y-147517205D01*
X98198102Y-147595226D01*
X98398061Y-147635000D01*
X98601939Y-147635000D01*
X98801898Y-147595226D01*
X98990256Y-147517205D01*
X99159774Y-147403937D01*
X99303937Y-147259774D01*
X99417205Y-147090256D01*
X99495226Y-146901898D01*
X99535000Y-146701939D01*
X99535000Y-146498061D01*
X102965000Y-146498061D01*
X102965000Y-146701939D01*
X103004774Y-146901898D01*
X103082795Y-147090256D01*
X103196063Y-147259774D01*
X103340226Y-147403937D01*
X103509744Y-147517205D01*
X103698102Y-147595226D01*
X103898061Y-147635000D01*
X104101939Y-147635000D01*
X104301898Y-147595226D01*
X104490256Y-147517205D01*
X104659774Y-147403937D01*
X104803937Y-147259774D01*
X104845172Y-147198061D01*
X108245000Y-147198061D01*
X108245000Y-147401939D01*
X108284774Y-147601898D01*
X108362795Y-147790256D01*
X108476063Y-147959774D01*
X108620226Y-148103937D01*
X108789744Y-148217205D01*
X108978102Y-148295226D01*
X109178061Y-148335000D01*
X109381939Y-148335000D01*
X109581898Y-148295226D01*
X109770256Y-148217205D01*
X109873737Y-148148061D01*
X119715000Y-148148061D01*
X119715000Y-148351939D01*
X119754774Y-148551898D01*
X119832795Y-148740256D01*
X119946063Y-148909774D01*
X120090226Y-149053937D01*
X120259744Y-149167205D01*
X120448102Y-149245226D01*
X120648061Y-149285000D01*
X120851939Y-149285000D01*
X121051898Y-149245226D01*
X121240256Y-149167205D01*
X121409774Y-149053937D01*
X121553937Y-148909774D01*
X121667205Y-148740256D01*
X121745226Y-148551898D01*
X121785000Y-148351939D01*
X121785000Y-148148061D01*
X124065000Y-148148061D01*
X124065000Y-148351939D01*
X124104774Y-148551898D01*
X124182795Y-148740256D01*
X124296063Y-148909774D01*
X124440226Y-149053937D01*
X124609744Y-149167205D01*
X124798102Y-149245226D01*
X124998061Y-149285000D01*
X125201939Y-149285000D01*
X125283329Y-149268811D01*
X125229774Y-149398102D01*
X125190000Y-149598061D01*
X125190000Y-149801939D01*
X125229774Y-150001898D01*
X125307795Y-150190256D01*
X125421063Y-150359774D01*
X125565226Y-150503937D01*
X125734744Y-150617205D01*
X125923102Y-150695226D01*
X126123061Y-150735000D01*
X126326939Y-150735000D01*
X126526898Y-150695226D01*
X126715256Y-150617205D01*
X126884774Y-150503937D01*
X127028937Y-150359774D01*
X127142205Y-150190256D01*
X127220226Y-150001898D01*
X127260000Y-149801939D01*
X127260000Y-149598061D01*
X128240000Y-149598061D01*
X128240000Y-149801939D01*
X128279774Y-150001898D01*
X128357795Y-150190256D01*
X128471063Y-150359774D01*
X128615226Y-150503937D01*
X128784744Y-150617205D01*
X128973102Y-150695226D01*
X129173061Y-150735000D01*
X129376939Y-150735000D01*
X129576898Y-150695226D01*
X129765256Y-150617205D01*
X129934774Y-150503937D01*
X130078937Y-150359774D01*
X130192205Y-150190256D01*
X130270226Y-150001898D01*
X130310000Y-149801939D01*
X130310000Y-149598061D01*
X130270226Y-149398102D01*
X130216671Y-149268811D01*
X130298061Y-149285000D01*
X130501939Y-149285000D01*
X130701898Y-149245226D01*
X130890256Y-149167205D01*
X131059774Y-149053937D01*
X131203937Y-148909774D01*
X131317205Y-148740256D01*
X131395226Y-148551898D01*
X131435000Y-148351939D01*
X131435000Y-148148061D01*
X131395226Y-147948102D01*
X131317205Y-147759744D01*
X131203937Y-147590226D01*
X131059774Y-147446063D01*
X130890256Y-147332795D01*
X130701898Y-147254774D01*
X130501939Y-147215000D01*
X130298061Y-147215000D01*
X130098102Y-147254774D01*
X129909744Y-147332795D01*
X129740226Y-147446063D01*
X129596063Y-147590226D01*
X129482795Y-147759744D01*
X129404774Y-147948102D01*
X129365000Y-148148061D01*
X129365000Y-148351939D01*
X129404774Y-148551898D01*
X129458329Y-148681189D01*
X129376939Y-148665000D01*
X129173061Y-148665000D01*
X128973102Y-148704774D01*
X128784744Y-148782795D01*
X128615226Y-148896063D01*
X128471063Y-149040226D01*
X128357795Y-149209744D01*
X128279774Y-149398102D01*
X128240000Y-149598061D01*
X127260000Y-149598061D01*
X127220226Y-149398102D01*
X127142205Y-149209744D01*
X127028937Y-149040226D01*
X126884774Y-148896063D01*
X126715256Y-148782795D01*
X126526898Y-148704774D01*
X126326939Y-148665000D01*
X126123061Y-148665000D01*
X126041671Y-148681189D01*
X126095226Y-148551898D01*
X126135000Y-148351939D01*
X126135000Y-148148061D01*
X126095226Y-147948102D01*
X126017205Y-147759744D01*
X125903937Y-147590226D01*
X125759774Y-147446063D01*
X125590256Y-147332795D01*
X125401898Y-147254774D01*
X125201939Y-147215000D01*
X124998061Y-147215000D01*
X124798102Y-147254774D01*
X124609744Y-147332795D01*
X124440226Y-147446063D01*
X124296063Y-147590226D01*
X124182795Y-147759744D01*
X124104774Y-147948102D01*
X124065000Y-148148061D01*
X121785000Y-148148061D01*
X121745226Y-147948102D01*
X121667205Y-147759744D01*
X121553937Y-147590226D01*
X121409774Y-147446063D01*
X121240256Y-147332795D01*
X121051898Y-147254774D01*
X120851939Y-147215000D01*
X120648061Y-147215000D01*
X120448102Y-147254774D01*
X120259744Y-147332795D01*
X120090226Y-147446063D01*
X119946063Y-147590226D01*
X119832795Y-147759744D01*
X119754774Y-147948102D01*
X119715000Y-148148061D01*
X109873737Y-148148061D01*
X109939774Y-148103937D01*
X110083937Y-147959774D01*
X110197205Y-147790256D01*
X110275226Y-147601898D01*
X110315000Y-147401939D01*
X110315000Y-147198061D01*
X110275226Y-146998102D01*
X110197205Y-146809744D01*
X110083937Y-146640226D01*
X109939774Y-146496063D01*
X109793104Y-146398061D01*
X115765000Y-146398061D01*
X115765000Y-146601939D01*
X115804774Y-146801898D01*
X115882795Y-146990256D01*
X115996063Y-147159774D01*
X116140226Y-147303937D01*
X116309744Y-147417205D01*
X116498102Y-147495226D01*
X116698061Y-147535000D01*
X116901939Y-147535000D01*
X117101898Y-147495226D01*
X117290256Y-147417205D01*
X117459774Y-147303937D01*
X117603937Y-147159774D01*
X117717205Y-146990256D01*
X117795226Y-146801898D01*
X117835000Y-146601939D01*
X117835000Y-146398061D01*
X117795226Y-146198102D01*
X117733077Y-146048061D01*
X120715000Y-146048061D01*
X120715000Y-146251939D01*
X120754774Y-146451898D01*
X120832795Y-146640256D01*
X120946063Y-146809774D01*
X121090226Y-146953937D01*
X121259744Y-147067205D01*
X121448102Y-147145226D01*
X121648061Y-147185000D01*
X121851939Y-147185000D01*
X122051898Y-147145226D01*
X122240256Y-147067205D01*
X122300591Y-147026890D01*
X139400048Y-147026890D01*
X139400048Y-147273110D01*
X139448083Y-147514598D01*
X139542307Y-147742074D01*
X139679099Y-147946798D01*
X139853202Y-148120901D01*
X140057926Y-148257693D01*
X140285402Y-148351917D01*
X140526890Y-148399952D01*
X140773110Y-148399952D01*
X141014598Y-148351917D01*
X141242074Y-148257693D01*
X141446798Y-148120901D01*
X141620901Y-147946798D01*
X141757693Y-147742074D01*
X141851917Y-147514598D01*
X141899952Y-147273110D01*
X141899952Y-147026890D01*
X141851917Y-146785402D01*
X141757693Y-146557926D01*
X141620901Y-146353202D01*
X141446798Y-146179099D01*
X141242074Y-146042307D01*
X141014598Y-145948083D01*
X140773110Y-145900048D01*
X140526890Y-145900048D01*
X140285402Y-145948083D01*
X140057926Y-146042307D01*
X139853202Y-146179099D01*
X139679099Y-146353202D01*
X139542307Y-146557926D01*
X139448083Y-146785402D01*
X139400048Y-147026890D01*
X122300591Y-147026890D01*
X122409774Y-146953937D01*
X122553937Y-146809774D01*
X122667205Y-146640256D01*
X122745226Y-146451898D01*
X122785000Y-146251939D01*
X122785000Y-146048061D01*
X122745226Y-145848102D01*
X122667205Y-145659744D01*
X122553937Y-145490226D01*
X122409774Y-145346063D01*
X122240256Y-145232795D01*
X122051898Y-145154774D01*
X121851939Y-145115000D01*
X121648061Y-145115000D01*
X121448102Y-145154774D01*
X121259744Y-145232795D01*
X121090226Y-145346063D01*
X120946063Y-145490226D01*
X120832795Y-145659744D01*
X120754774Y-145848102D01*
X120715000Y-146048061D01*
X117733077Y-146048061D01*
X117717205Y-146009744D01*
X117603937Y-145840226D01*
X117459774Y-145696063D01*
X117290256Y-145582795D01*
X117101898Y-145504774D01*
X116901939Y-145465000D01*
X116698061Y-145465000D01*
X116498102Y-145504774D01*
X116309744Y-145582795D01*
X116140226Y-145696063D01*
X115996063Y-145840226D01*
X115882795Y-146009744D01*
X115804774Y-146198102D01*
X115765000Y-146398061D01*
X109793104Y-146398061D01*
X109770256Y-146382795D01*
X109581898Y-146304774D01*
X109381939Y-146265000D01*
X109178061Y-146265000D01*
X108978102Y-146304774D01*
X108789744Y-146382795D01*
X108620226Y-146496063D01*
X108476063Y-146640226D01*
X108362795Y-146809744D01*
X108284774Y-146998102D01*
X108245000Y-147198061D01*
X104845172Y-147198061D01*
X104917205Y-147090256D01*
X104995226Y-146901898D01*
X105035000Y-146701939D01*
X105035000Y-146498061D01*
X104995226Y-146298102D01*
X104917205Y-146109744D01*
X104803937Y-145940226D01*
X104659774Y-145796063D01*
X104490256Y-145682795D01*
X104301898Y-145604774D01*
X104101939Y-145565000D01*
X103898061Y-145565000D01*
X103698102Y-145604774D01*
X103509744Y-145682795D01*
X103340226Y-145796063D01*
X103196063Y-145940226D01*
X103082795Y-146109744D01*
X103004774Y-146298102D01*
X102965000Y-146498061D01*
X99535000Y-146498061D01*
X99495226Y-146298102D01*
X99417205Y-146109744D01*
X99303937Y-145940226D01*
X99159774Y-145796063D01*
X98990256Y-145682795D01*
X98801898Y-145604774D01*
X98601939Y-145565000D01*
X98398061Y-145565000D01*
X98198102Y-145604774D01*
X98009744Y-145682795D01*
X97840226Y-145796063D01*
X97696063Y-145940226D01*
X97582795Y-146109744D01*
X97504774Y-146298102D01*
X97465000Y-146498061D01*
X97235000Y-146498061D01*
X97195226Y-146298102D01*
X97117205Y-146109744D01*
X97003937Y-145940226D01*
X96859774Y-145796063D01*
X96690256Y-145682795D01*
X96501898Y-145604774D01*
X96301939Y-145565000D01*
X96098061Y-145565000D01*
X95898102Y-145604774D01*
X95709744Y-145682795D01*
X95540226Y-145796063D01*
X95396063Y-145940226D01*
X95282795Y-146109744D01*
X95204774Y-146298102D01*
X95165000Y-146498061D01*
X91768168Y-146498061D01*
X91696632Y-146426525D01*
X91522240Y-146310000D01*
X91696632Y-146193475D01*
X91903475Y-145986632D01*
X92065990Y-145743411D01*
X92177932Y-145473158D01*
X92235000Y-145186260D01*
X92235000Y-144893740D01*
X92177932Y-144606842D01*
X92065990Y-144336589D01*
X91903475Y-144093368D01*
X91771620Y-143961513D01*
X91844180Y-143939502D01*
X91954494Y-143880537D01*
X92051185Y-143801185D01*
X92130537Y-143704494D01*
X92189502Y-143594180D01*
X92225812Y-143474482D01*
X92238072Y-143350000D01*
X92238072Y-142398061D01*
X92965000Y-142398061D01*
X92965000Y-142601939D01*
X93004774Y-142801898D01*
X93082795Y-142990256D01*
X93196063Y-143159774D01*
X93340226Y-143303937D01*
X93509744Y-143417205D01*
X93698102Y-143495226D01*
X93898061Y-143535000D01*
X94101939Y-143535000D01*
X94301898Y-143495226D01*
X94490256Y-143417205D01*
X94659774Y-143303937D01*
X94803937Y-143159774D01*
X94917205Y-142990256D01*
X94995226Y-142801898D01*
X95035000Y-142601939D01*
X95035000Y-142398061D01*
X97465000Y-142398061D01*
X97465000Y-142601939D01*
X97504774Y-142801898D01*
X97582795Y-142990256D01*
X97696063Y-143159774D01*
X97840226Y-143303937D01*
X98009744Y-143417205D01*
X98198102Y-143495226D01*
X98398061Y-143535000D01*
X98601939Y-143535000D01*
X98801898Y-143495226D01*
X98990256Y-143417205D01*
X99159774Y-143303937D01*
X99303937Y-143159774D01*
X99417205Y-142990256D01*
X99455393Y-142898061D01*
X101665000Y-142898061D01*
X101665000Y-143101939D01*
X101704774Y-143301898D01*
X101782795Y-143490256D01*
X101896063Y-143659774D01*
X102040226Y-143803937D01*
X102209744Y-143917205D01*
X102398102Y-143995226D01*
X102466366Y-144008804D01*
X102504774Y-144201898D01*
X102582795Y-144390256D01*
X102696063Y-144559774D01*
X102840226Y-144703937D01*
X103009744Y-144817205D01*
X103198102Y-144895226D01*
X103398061Y-144935000D01*
X103601939Y-144935000D01*
X103801898Y-144895226D01*
X103990256Y-144817205D01*
X104159774Y-144703937D01*
X104303937Y-144559774D01*
X104417205Y-144390256D01*
X104465000Y-144274869D01*
X104465000Y-144301939D01*
X104504774Y-144501898D01*
X104582795Y-144690256D01*
X104696063Y-144859774D01*
X104840226Y-145003937D01*
X105009744Y-145117205D01*
X105198102Y-145195226D01*
X105398061Y-145235000D01*
X105601939Y-145235000D01*
X105801898Y-145195226D01*
X105990256Y-145117205D01*
X106159774Y-145003937D01*
X106303937Y-144859774D01*
X106417205Y-144690256D01*
X106495226Y-144501898D01*
X106535000Y-144301939D01*
X106535000Y-144298061D01*
X124965000Y-144298061D01*
X124965000Y-144501939D01*
X125004774Y-144701898D01*
X125082795Y-144890256D01*
X125156123Y-145000000D01*
X125082795Y-145109744D01*
X125004774Y-145298102D01*
X124965000Y-145498061D01*
X124965000Y-145701939D01*
X125004774Y-145901898D01*
X125082795Y-146090256D01*
X125196063Y-146259774D01*
X125340226Y-146403937D01*
X125509744Y-146517205D01*
X125698102Y-146595226D01*
X125898061Y-146635000D01*
X126101939Y-146635000D01*
X126301898Y-146595226D01*
X126490256Y-146517205D01*
X126659774Y-146403937D01*
X126803937Y-146259774D01*
X126917205Y-146090256D01*
X126995226Y-145901898D01*
X127035000Y-145701939D01*
X127035000Y-145498061D01*
X126995226Y-145298102D01*
X126917205Y-145109744D01*
X126843877Y-145000000D01*
X126917205Y-144890256D01*
X126995226Y-144701898D01*
X127035000Y-144501939D01*
X127035000Y-144298061D01*
X128465000Y-144298061D01*
X128465000Y-144501939D01*
X128504774Y-144701898D01*
X128582795Y-144890256D01*
X128656123Y-145000000D01*
X128582795Y-145109744D01*
X128504774Y-145298102D01*
X128465000Y-145498061D01*
X128465000Y-145701939D01*
X128504774Y-145901898D01*
X128582795Y-146090256D01*
X128696063Y-146259774D01*
X128840226Y-146403937D01*
X129009744Y-146517205D01*
X129198102Y-146595226D01*
X129398061Y-146635000D01*
X129601939Y-146635000D01*
X129801898Y-146595226D01*
X129990256Y-146517205D01*
X130159774Y-146403937D01*
X130303937Y-146259774D01*
X130417205Y-146090256D01*
X130495226Y-145901898D01*
X130535000Y-145701939D01*
X130535000Y-145498061D01*
X130495226Y-145298102D01*
X130417205Y-145109744D01*
X130343877Y-145000000D01*
X130417205Y-144890256D01*
X130495226Y-144701898D01*
X130535000Y-144501939D01*
X130535000Y-144298061D01*
X130495226Y-144098102D01*
X130417205Y-143909744D01*
X130303937Y-143740226D01*
X130159774Y-143596063D01*
X129990256Y-143482795D01*
X129801898Y-143404774D01*
X129601939Y-143365000D01*
X129398061Y-143365000D01*
X129198102Y-143404774D01*
X129009744Y-143482795D01*
X128840226Y-143596063D01*
X128696063Y-143740226D01*
X128582795Y-143909744D01*
X128504774Y-144098102D01*
X128465000Y-144298061D01*
X127035000Y-144298061D01*
X126995226Y-144098102D01*
X126917205Y-143909744D01*
X126803937Y-143740226D01*
X126659774Y-143596063D01*
X126490256Y-143482795D01*
X126301898Y-143404774D01*
X126101939Y-143365000D01*
X125898061Y-143365000D01*
X125698102Y-143404774D01*
X125509744Y-143482795D01*
X125340226Y-143596063D01*
X125196063Y-143740226D01*
X125082795Y-143909744D01*
X125004774Y-144098102D01*
X124965000Y-144298061D01*
X106535000Y-144298061D01*
X106535000Y-144098061D01*
X106495226Y-143898102D01*
X106417205Y-143709744D01*
X106303937Y-143540226D01*
X106159774Y-143396063D01*
X105990256Y-143282795D01*
X105801898Y-143204774D01*
X105601939Y-143165000D01*
X105398061Y-143165000D01*
X105198102Y-143204774D01*
X105009744Y-143282795D01*
X104840226Y-143396063D01*
X104696063Y-143540226D01*
X104582795Y-143709744D01*
X104535000Y-143825131D01*
X104535000Y-143798061D01*
X104495226Y-143598102D01*
X104417205Y-143409744D01*
X104303937Y-143240226D01*
X104159774Y-143096063D01*
X103990256Y-142982795D01*
X103801898Y-142904774D01*
X103733634Y-142891196D01*
X103695226Y-142698102D01*
X103617205Y-142509744D01*
X103503937Y-142340226D01*
X103359774Y-142196063D01*
X103190256Y-142082795D01*
X103001898Y-142004774D01*
X102801939Y-141965000D01*
X102598061Y-141965000D01*
X102398102Y-142004774D01*
X102209744Y-142082795D01*
X102040226Y-142196063D01*
X101896063Y-142340226D01*
X101782795Y-142509744D01*
X101704774Y-142698102D01*
X101665000Y-142898061D01*
X99455393Y-142898061D01*
X99495226Y-142801898D01*
X99535000Y-142601939D01*
X99535000Y-142398061D01*
X99495226Y-142198102D01*
X99417205Y-142009744D01*
X99303937Y-141840226D01*
X99159774Y-141696063D01*
X99087934Y-141648061D01*
X118715000Y-141648061D01*
X118715000Y-141851939D01*
X118754774Y-142051898D01*
X118832795Y-142240256D01*
X118946063Y-142409774D01*
X119090226Y-142553937D01*
X119259744Y-142667205D01*
X119448102Y-142745226D01*
X119648061Y-142785000D01*
X119851939Y-142785000D01*
X120051898Y-142745226D01*
X120240256Y-142667205D01*
X120409774Y-142553937D01*
X120553937Y-142409774D01*
X120667205Y-142240256D01*
X120745226Y-142051898D01*
X120785000Y-141851939D01*
X120785000Y-141648061D01*
X136715000Y-141648061D01*
X136715000Y-141851939D01*
X136754774Y-142051898D01*
X136832795Y-142240256D01*
X136946063Y-142409774D01*
X137090226Y-142553937D01*
X137259744Y-142667205D01*
X137448102Y-142745226D01*
X137648061Y-142785000D01*
X137851939Y-142785000D01*
X138051898Y-142745226D01*
X138240256Y-142667205D01*
X138409774Y-142553937D01*
X138553937Y-142409774D01*
X138667205Y-142240256D01*
X138745226Y-142051898D01*
X138785000Y-141851939D01*
X138785000Y-141648061D01*
X138745226Y-141448102D01*
X138667205Y-141259744D01*
X138553937Y-141090226D01*
X138409774Y-140946063D01*
X138240256Y-140832795D01*
X138051898Y-140754774D01*
X137851939Y-140715000D01*
X137648061Y-140715000D01*
X137448102Y-140754774D01*
X137259744Y-140832795D01*
X137090226Y-140946063D01*
X136946063Y-141090226D01*
X136832795Y-141259744D01*
X136754774Y-141448102D01*
X136715000Y-141648061D01*
X120785000Y-141648061D01*
X120745226Y-141448102D01*
X120667205Y-141259744D01*
X120553937Y-141090226D01*
X120409774Y-140946063D01*
X120240256Y-140832795D01*
X120051898Y-140754774D01*
X119851939Y-140715000D01*
X119648061Y-140715000D01*
X119448102Y-140754774D01*
X119259744Y-140832795D01*
X119090226Y-140946063D01*
X118946063Y-141090226D01*
X118832795Y-141259744D01*
X118754774Y-141448102D01*
X118715000Y-141648061D01*
X99087934Y-141648061D01*
X98990256Y-141582795D01*
X98801898Y-141504774D01*
X98601939Y-141465000D01*
X98398061Y-141465000D01*
X98198102Y-141504774D01*
X98009744Y-141582795D01*
X97840226Y-141696063D01*
X97696063Y-141840226D01*
X97582795Y-142009744D01*
X97504774Y-142198102D01*
X97465000Y-142398061D01*
X95035000Y-142398061D01*
X94995226Y-142198102D01*
X94917205Y-142009744D01*
X94803937Y-141840226D01*
X94659774Y-141696063D01*
X94490256Y-141582795D01*
X94301898Y-141504774D01*
X94101939Y-141465000D01*
X93898061Y-141465000D01*
X93698102Y-141504774D01*
X93509744Y-141582795D01*
X93340226Y-141696063D01*
X93196063Y-141840226D01*
X93082795Y-142009744D01*
X93004774Y-142198102D01*
X92965000Y-142398061D01*
X92238072Y-142398061D01*
X92238072Y-141650000D01*
X92225812Y-141525518D01*
X92189502Y-141405820D01*
X92130537Y-141295506D01*
X92051185Y-141198815D01*
X91954494Y-141119463D01*
X91844180Y-141060498D01*
X91724482Y-141024188D01*
X91600000Y-141011928D01*
X89900000Y-141011928D01*
X89775518Y-141024188D01*
X89655820Y-141060498D01*
X89545506Y-141119463D01*
X89448815Y-141198815D01*
X89369463Y-141295506D01*
X89310498Y-141405820D01*
X89274188Y-141525518D01*
X89261928Y-141650000D01*
X82160000Y-141650000D01*
X82160000Y-138150000D01*
X84261928Y-138150000D01*
X84261928Y-139850000D01*
X84274188Y-139974482D01*
X84310498Y-140094180D01*
X84369463Y-140204494D01*
X84448815Y-140301185D01*
X84545506Y-140380537D01*
X84655820Y-140439502D01*
X84775518Y-140475812D01*
X84900000Y-140488072D01*
X86600000Y-140488072D01*
X86724482Y-140475812D01*
X86844180Y-140439502D01*
X86954494Y-140380537D01*
X87051185Y-140301185D01*
X87130537Y-140204494D01*
X87189502Y-140094180D01*
X87225812Y-139974482D01*
X87238072Y-139850000D01*
X87238072Y-138998061D01*
X92965000Y-138998061D01*
X92965000Y-139201939D01*
X93004774Y-139401898D01*
X93082795Y-139590256D01*
X93196063Y-139759774D01*
X93340226Y-139903937D01*
X93509744Y-140017205D01*
X93698102Y-140095226D01*
X93898061Y-140135000D01*
X94101939Y-140135000D01*
X94301898Y-140095226D01*
X94490256Y-140017205D01*
X94659774Y-139903937D01*
X94803937Y-139759774D01*
X94917205Y-139590256D01*
X94995226Y-139401898D01*
X95035000Y-139201939D01*
X95035000Y-138998061D01*
X95165000Y-138998061D01*
X95165000Y-139201939D01*
X95204774Y-139401898D01*
X95282795Y-139590256D01*
X95396063Y-139759774D01*
X95540226Y-139903937D01*
X95709744Y-140017205D01*
X95898102Y-140095226D01*
X96098061Y-140135000D01*
X96301939Y-140135000D01*
X96501898Y-140095226D01*
X96690256Y-140017205D01*
X96859774Y-139903937D01*
X97003937Y-139759774D01*
X97117205Y-139590256D01*
X97195226Y-139401898D01*
X97235000Y-139201939D01*
X97235000Y-138998061D01*
X97195226Y-138798102D01*
X97117205Y-138609744D01*
X97003937Y-138440226D01*
X96859774Y-138296063D01*
X96690256Y-138182795D01*
X96501898Y-138104774D01*
X96301939Y-138065000D01*
X96098061Y-138065000D01*
X95898102Y-138104774D01*
X95709744Y-138182795D01*
X95540226Y-138296063D01*
X95396063Y-138440226D01*
X95282795Y-138609744D01*
X95204774Y-138798102D01*
X95165000Y-138998061D01*
X95035000Y-138998061D01*
X94995226Y-138798102D01*
X94917205Y-138609744D01*
X94803937Y-138440226D01*
X94659774Y-138296063D01*
X94490256Y-138182795D01*
X94301898Y-138104774D01*
X94101939Y-138065000D01*
X93898061Y-138065000D01*
X93698102Y-138104774D01*
X93509744Y-138182795D01*
X93340226Y-138296063D01*
X93196063Y-138440226D01*
X93082795Y-138609744D01*
X93004774Y-138798102D01*
X92965000Y-138998061D01*
X87238072Y-138998061D01*
X87238072Y-138150000D01*
X87225812Y-138025518D01*
X87189502Y-137905820D01*
X87130537Y-137795506D01*
X87051185Y-137698815D01*
X86954494Y-137619463D01*
X86844180Y-137560498D01*
X86724482Y-137524188D01*
X86600000Y-137511928D01*
X84900000Y-137511928D01*
X84775518Y-137524188D01*
X84655820Y-137560498D01*
X84545506Y-137619463D01*
X84448815Y-137698815D01*
X84369463Y-137795506D01*
X84310498Y-137905820D01*
X84274188Y-138025518D01*
X84261928Y-138150000D01*
X82160000Y-138150000D01*
X82160000Y-133650000D01*
X84261928Y-133650000D01*
X84261928Y-135350000D01*
X84274188Y-135474482D01*
X84310498Y-135594180D01*
X84369463Y-135704494D01*
X84448815Y-135801185D01*
X84545506Y-135880537D01*
X84655820Y-135939502D01*
X84775518Y-135975812D01*
X84900000Y-135988072D01*
X86600000Y-135988072D01*
X86713536Y-135976890D01*
X89258524Y-135976890D01*
X89303175Y-136124099D01*
X89428359Y-136386920D01*
X89602412Y-136620269D01*
X89818645Y-136815178D01*
X90068748Y-136964157D01*
X90343109Y-137061481D01*
X90573000Y-136940814D01*
X90573000Y-135747000D01*
X90827000Y-135747000D01*
X90827000Y-136940814D01*
X91056891Y-137061481D01*
X91331252Y-136964157D01*
X91581355Y-136815178D01*
X91797588Y-136620269D01*
X91971641Y-136386920D01*
X92096825Y-136124099D01*
X92141476Y-135976890D01*
X92020155Y-135747000D01*
X90827000Y-135747000D01*
X90573000Y-135747000D01*
X89379845Y-135747000D01*
X89258524Y-135976890D01*
X86713536Y-135976890D01*
X86724482Y-135975812D01*
X86844180Y-135939502D01*
X86954494Y-135880537D01*
X87051185Y-135801185D01*
X87130537Y-135704494D01*
X87189502Y-135594180D01*
X87225812Y-135474482D01*
X87238072Y-135350000D01*
X87238072Y-133650000D01*
X87225812Y-133525518D01*
X87198927Y-133436890D01*
X89258524Y-133436890D01*
X89303175Y-133584099D01*
X89428359Y-133846920D01*
X89602412Y-134080269D01*
X89818645Y-134275178D01*
X89944255Y-134350000D01*
X89818645Y-134424822D01*
X89602412Y-134619731D01*
X89428359Y-134853080D01*
X89303175Y-135115901D01*
X89258524Y-135263110D01*
X89379845Y-135493000D01*
X90573000Y-135493000D01*
X90573000Y-133207000D01*
X90827000Y-133207000D01*
X90827000Y-135493000D01*
X92020155Y-135493000D01*
X92141476Y-135263110D01*
X92096825Y-135115901D01*
X91971641Y-134853080D01*
X91932050Y-134800000D01*
X98773000Y-134800000D01*
X98773000Y-141200000D01*
X98775440Y-141224776D01*
X98782667Y-141248601D01*
X98794403Y-141270557D01*
X98810197Y-141289803D01*
X98829443Y-141305597D01*
X98851399Y-141317333D01*
X98875224Y-141324560D01*
X98900000Y-141327000D01*
X102400000Y-141327000D01*
X102424776Y-141324560D01*
X102448601Y-141317333D01*
X102470557Y-141305597D01*
X102489803Y-141289803D01*
X102505597Y-141270557D01*
X102517333Y-141248601D01*
X102524560Y-141224776D01*
X102527000Y-141200000D01*
X102527000Y-139827000D01*
X103100000Y-139827000D01*
X103124776Y-139824560D01*
X103148601Y-139817333D01*
X103170557Y-139805597D01*
X103189803Y-139789803D01*
X103205597Y-139770557D01*
X103217333Y-139748601D01*
X103224560Y-139724776D01*
X103227000Y-139700000D01*
X103227000Y-139027000D01*
X105300000Y-139027000D01*
X105324776Y-139024560D01*
X105348601Y-139017333D01*
X105370557Y-139005597D01*
X105389803Y-138989803D01*
X105405597Y-138970557D01*
X105417333Y-138948601D01*
X105424560Y-138924776D01*
X105427000Y-138900000D01*
X105427000Y-138327000D01*
X107400000Y-138327000D01*
X107424776Y-138324560D01*
X107448601Y-138317333D01*
X107470557Y-138305597D01*
X107489803Y-138289803D01*
X107505597Y-138270557D01*
X107517333Y-138248601D01*
X107524560Y-138224776D01*
X107527000Y-138200000D01*
X107527000Y-136800000D01*
X107524560Y-136775224D01*
X107517333Y-136751399D01*
X107505597Y-136729443D01*
X107489803Y-136710197D01*
X107470557Y-136694403D01*
X107448601Y-136682667D01*
X107424776Y-136675440D01*
X107400000Y-136673000D01*
X105290711Y-136673000D01*
X105303937Y-136659774D01*
X105417205Y-136490256D01*
X105495226Y-136301898D01*
X105535000Y-136101939D01*
X105535000Y-135898061D01*
X105495226Y-135698102D01*
X105417205Y-135509744D01*
X105303937Y-135340226D01*
X105159774Y-135196063D01*
X104990256Y-135082795D01*
X104801898Y-135004774D01*
X104601939Y-134965000D01*
X104398061Y-134965000D01*
X104198102Y-135004774D01*
X104009744Y-135082795D01*
X103840226Y-135196063D01*
X103696063Y-135340226D01*
X103582795Y-135509744D01*
X103504774Y-135698102D01*
X103465000Y-135898061D01*
X103465000Y-136101939D01*
X103504774Y-136301898D01*
X103582795Y-136490256D01*
X103696063Y-136659774D01*
X103709289Y-136673000D01*
X103227000Y-136673000D01*
X103227000Y-133300000D01*
X103224560Y-133275224D01*
X103217333Y-133251399D01*
X103205597Y-133229443D01*
X103189803Y-133210197D01*
X103170557Y-133194403D01*
X103148601Y-133182667D01*
X103124776Y-133175440D01*
X103100000Y-133173000D01*
X99600000Y-133173000D01*
X99575224Y-133175440D01*
X99551399Y-133182667D01*
X99529443Y-133194403D01*
X99510197Y-133210197D01*
X99494403Y-133229443D01*
X99482667Y-133251399D01*
X99475440Y-133275224D01*
X99473000Y-133300000D01*
X99473000Y-134673000D01*
X98900000Y-134673000D01*
X98875224Y-134675440D01*
X98851399Y-134682667D01*
X98829443Y-134694403D01*
X98810197Y-134710197D01*
X98794403Y-134729443D01*
X98782667Y-134751399D01*
X98775440Y-134775224D01*
X98773000Y-134800000D01*
X91932050Y-134800000D01*
X91797588Y-134619731D01*
X91581355Y-134424822D01*
X91455745Y-134350000D01*
X91581355Y-134275178D01*
X91797588Y-134080269D01*
X91971641Y-133846920D01*
X92096825Y-133584099D01*
X92141476Y-133436890D01*
X92020155Y-133207000D01*
X90827000Y-133207000D01*
X90573000Y-133207000D01*
X89379845Y-133207000D01*
X89258524Y-133436890D01*
X87198927Y-133436890D01*
X87189502Y-133405820D01*
X87130537Y-133295506D01*
X87051185Y-133198815D01*
X86954494Y-133119463D01*
X86844180Y-133060498D01*
X86724482Y-133024188D01*
X86600000Y-133011928D01*
X84900000Y-133011928D01*
X84775518Y-133024188D01*
X84655820Y-133060498D01*
X84545506Y-133119463D01*
X84448815Y-133198815D01*
X84369463Y-133295506D01*
X84310498Y-133405820D01*
X84274188Y-133525518D01*
X84261928Y-133650000D01*
X82160000Y-133650000D01*
X82160000Y-129150000D01*
X84261928Y-129150000D01*
X84261928Y-130850000D01*
X84274188Y-130974482D01*
X84310498Y-131094180D01*
X84369463Y-131204494D01*
X84448815Y-131301185D01*
X84545506Y-131380537D01*
X84655820Y-131439502D01*
X84775518Y-131475812D01*
X84900000Y-131488072D01*
X86600000Y-131488072D01*
X86724482Y-131475812D01*
X86844180Y-131439502D01*
X86954494Y-131380537D01*
X87051185Y-131301185D01*
X87130537Y-131204494D01*
X87189502Y-131094180D01*
X87225812Y-130974482D01*
X87238072Y-130850000D01*
X87238072Y-129150000D01*
X87225812Y-129025518D01*
X87189502Y-128905820D01*
X87130537Y-128795506D01*
X87051185Y-128698815D01*
X86954494Y-128619463D01*
X86844180Y-128560498D01*
X86724482Y-128524188D01*
X86600000Y-128511928D01*
X84900000Y-128511928D01*
X84775518Y-128524188D01*
X84655820Y-128560498D01*
X84545506Y-128619463D01*
X84448815Y-128698815D01*
X84369463Y-128795506D01*
X84310498Y-128905820D01*
X84274188Y-129025518D01*
X84261928Y-129150000D01*
X82160000Y-129150000D01*
X82160000Y-127150000D01*
X89211928Y-127150000D01*
X89211928Y-128850000D01*
X89224188Y-128974482D01*
X89260498Y-129094180D01*
X89319463Y-129204494D01*
X89398815Y-129301185D01*
X89495506Y-129380537D01*
X89605820Y-129439502D01*
X89678380Y-129461513D01*
X89546525Y-129593368D01*
X89384010Y-129836589D01*
X89272068Y-130106842D01*
X89215000Y-130393740D01*
X89215000Y-130686260D01*
X89272068Y-130973158D01*
X89384010Y-131243411D01*
X89546525Y-131486632D01*
X89753368Y-131693475D01*
X89935534Y-131815195D01*
X89818645Y-131884822D01*
X89602412Y-132079731D01*
X89428359Y-132313080D01*
X89303175Y-132575901D01*
X89258524Y-132723110D01*
X89379845Y-132953000D01*
X90573000Y-132953000D01*
X90573000Y-132933000D01*
X90827000Y-132933000D01*
X90827000Y-132953000D01*
X92020155Y-132953000D01*
X92141476Y-132723110D01*
X92096825Y-132575901D01*
X91971641Y-132313080D01*
X91797588Y-132079731D01*
X91581355Y-131884822D01*
X91464466Y-131815195D01*
X91646632Y-131693475D01*
X91853475Y-131486632D01*
X91912656Y-131398061D01*
X93465000Y-131398061D01*
X93465000Y-131601939D01*
X93504774Y-131801898D01*
X93582795Y-131990256D01*
X93696063Y-132159774D01*
X93840226Y-132303937D01*
X94009744Y-132417205D01*
X94198102Y-132495226D01*
X94398061Y-132535000D01*
X94601939Y-132535000D01*
X94801898Y-132495226D01*
X94990256Y-132417205D01*
X95159774Y-132303937D01*
X95303937Y-132159774D01*
X95417205Y-131990256D01*
X95495226Y-131801898D01*
X95535000Y-131601939D01*
X95535000Y-131398061D01*
X100965000Y-131398061D01*
X100965000Y-131601939D01*
X101004774Y-131801898D01*
X101082795Y-131990256D01*
X101196063Y-132159774D01*
X101340226Y-132303937D01*
X101509744Y-132417205D01*
X101698102Y-132495226D01*
X101898061Y-132535000D01*
X102101939Y-132535000D01*
X102301898Y-132495226D01*
X102490256Y-132417205D01*
X102659774Y-132303937D01*
X102803937Y-132159774D01*
X102917205Y-131990256D01*
X102995226Y-131801898D01*
X103035000Y-131601939D01*
X103035000Y-131398061D01*
X102995226Y-131198102D01*
X102917205Y-131009744D01*
X102803937Y-130840226D01*
X102659774Y-130696063D01*
X102490256Y-130582795D01*
X102301898Y-130504774D01*
X102101939Y-130465000D01*
X101898061Y-130465000D01*
X101698102Y-130504774D01*
X101509744Y-130582795D01*
X101340226Y-130696063D01*
X101196063Y-130840226D01*
X101082795Y-131009744D01*
X101004774Y-131198102D01*
X100965000Y-131398061D01*
X95535000Y-131398061D01*
X95495226Y-131198102D01*
X95417205Y-131009744D01*
X95303937Y-130840226D01*
X95159774Y-130696063D01*
X94990256Y-130582795D01*
X94801898Y-130504774D01*
X94601939Y-130465000D01*
X94398061Y-130465000D01*
X94198102Y-130504774D01*
X94009744Y-130582795D01*
X93840226Y-130696063D01*
X93696063Y-130840226D01*
X93582795Y-131009744D01*
X93504774Y-131198102D01*
X93465000Y-131398061D01*
X91912656Y-131398061D01*
X92015990Y-131243411D01*
X92127932Y-130973158D01*
X92185000Y-130686260D01*
X92185000Y-130393740D01*
X92127932Y-130106842D01*
X92015990Y-129836589D01*
X91990247Y-129798061D01*
X103265000Y-129798061D01*
X103265000Y-130001939D01*
X103304774Y-130201898D01*
X103382795Y-130390256D01*
X103496063Y-130559774D01*
X103640226Y-130703937D01*
X103809744Y-130817205D01*
X103998102Y-130895226D01*
X104198061Y-130935000D01*
X104401939Y-130935000D01*
X104601898Y-130895226D01*
X104790256Y-130817205D01*
X104959774Y-130703937D01*
X105103937Y-130559774D01*
X105217205Y-130390256D01*
X105295226Y-130201898D01*
X105300000Y-130177897D01*
X105304774Y-130201898D01*
X105382795Y-130390256D01*
X105496063Y-130559774D01*
X105640226Y-130703937D01*
X105809744Y-130817205D01*
X105998102Y-130895226D01*
X106198061Y-130935000D01*
X106401939Y-130935000D01*
X106525958Y-130910331D01*
X106496063Y-130940226D01*
X106382795Y-131109744D01*
X106304774Y-131298102D01*
X106265000Y-131498061D01*
X106265000Y-131701939D01*
X106304774Y-131901898D01*
X106382795Y-132090256D01*
X106496063Y-132259774D01*
X106501289Y-132265000D01*
X106398061Y-132265000D01*
X106198102Y-132304774D01*
X106009744Y-132382795D01*
X105840226Y-132496063D01*
X105696063Y-132640226D01*
X105582795Y-132809744D01*
X105504774Y-132998102D01*
X105465000Y-133198061D01*
X105465000Y-133401939D01*
X105504774Y-133601898D01*
X105582795Y-133790256D01*
X105696063Y-133959774D01*
X105840226Y-134103937D01*
X106009744Y-134217205D01*
X106198102Y-134295226D01*
X106398061Y-134335000D01*
X106601939Y-134335000D01*
X106787645Y-134298061D01*
X118165000Y-134298061D01*
X118165000Y-134501939D01*
X118204774Y-134701898D01*
X118282795Y-134890256D01*
X118396063Y-135059774D01*
X118540226Y-135203937D01*
X118709744Y-135317205D01*
X118898102Y-135395226D01*
X119098061Y-135435000D01*
X119301939Y-135435000D01*
X119501898Y-135395226D01*
X119690256Y-135317205D01*
X119859774Y-135203937D01*
X120003937Y-135059774D01*
X120117205Y-134890256D01*
X120195226Y-134701898D01*
X120235000Y-134501939D01*
X120235000Y-134298061D01*
X120195226Y-134098102D01*
X120195210Y-134098061D01*
X130065000Y-134098061D01*
X130065000Y-134301939D01*
X130104774Y-134501898D01*
X130182795Y-134690256D01*
X130296063Y-134859774D01*
X130440226Y-135003937D01*
X130609744Y-135117205D01*
X130798102Y-135195226D01*
X130998061Y-135235000D01*
X131201939Y-135235000D01*
X131401898Y-135195226D01*
X131590256Y-135117205D01*
X131750000Y-135010468D01*
X131909744Y-135117205D01*
X132098102Y-135195226D01*
X132298061Y-135235000D01*
X132501939Y-135235000D01*
X132701898Y-135195226D01*
X132890256Y-135117205D01*
X133059774Y-135003937D01*
X133203937Y-134859774D01*
X133317205Y-134690256D01*
X133395226Y-134501898D01*
X133435000Y-134301939D01*
X133435000Y-134098061D01*
X133395226Y-133898102D01*
X133317205Y-133709744D01*
X133203937Y-133540226D01*
X133059774Y-133396063D01*
X132890256Y-133282795D01*
X132701898Y-133204774D01*
X132501939Y-133165000D01*
X132298061Y-133165000D01*
X132098102Y-133204774D01*
X131909744Y-133282795D01*
X131750000Y-133389532D01*
X131590256Y-133282795D01*
X131401898Y-133204774D01*
X131201939Y-133165000D01*
X130998061Y-133165000D01*
X130798102Y-133204774D01*
X130609744Y-133282795D01*
X130440226Y-133396063D01*
X130296063Y-133540226D01*
X130182795Y-133709744D01*
X130104774Y-133898102D01*
X130065000Y-134098061D01*
X120195210Y-134098061D01*
X120117205Y-133909744D01*
X120003937Y-133740226D01*
X119859774Y-133596063D01*
X119690256Y-133482795D01*
X119501898Y-133404774D01*
X119301939Y-133365000D01*
X119098061Y-133365000D01*
X118898102Y-133404774D01*
X118709744Y-133482795D01*
X118540226Y-133596063D01*
X118396063Y-133740226D01*
X118282795Y-133909744D01*
X118204774Y-134098102D01*
X118165000Y-134298061D01*
X106787645Y-134298061D01*
X106801898Y-134295226D01*
X106990256Y-134217205D01*
X107159774Y-134103937D01*
X107303937Y-133959774D01*
X107417205Y-133790256D01*
X107495226Y-133601898D01*
X107535000Y-133401939D01*
X107535000Y-133198061D01*
X107495226Y-132998102D01*
X107417205Y-132809744D01*
X107303937Y-132640226D01*
X107298711Y-132635000D01*
X107401939Y-132635000D01*
X107601898Y-132595226D01*
X107790256Y-132517205D01*
X107959774Y-132403937D01*
X108103937Y-132259774D01*
X108217205Y-132090256D01*
X108295226Y-131901898D01*
X108335000Y-131701939D01*
X108335000Y-131498061D01*
X108295226Y-131298102D01*
X108217205Y-131109744D01*
X108103937Y-130940226D01*
X107959774Y-130796063D01*
X107790256Y-130682795D01*
X107601898Y-130604774D01*
X107401939Y-130565000D01*
X107198061Y-130565000D01*
X107074042Y-130589669D01*
X107103937Y-130559774D01*
X107217205Y-130390256D01*
X107295226Y-130201898D01*
X107335000Y-130001939D01*
X107335000Y-129798061D01*
X107295226Y-129598102D01*
X107217205Y-129409744D01*
X107103937Y-129240226D01*
X106959774Y-129096063D01*
X106790256Y-128982795D01*
X106601898Y-128904774D01*
X106401939Y-128865000D01*
X106198061Y-128865000D01*
X105998102Y-128904774D01*
X105809744Y-128982795D01*
X105640226Y-129096063D01*
X105496063Y-129240226D01*
X105382795Y-129409744D01*
X105304774Y-129598102D01*
X105300000Y-129622103D01*
X105295226Y-129598102D01*
X105217205Y-129409744D01*
X105103937Y-129240226D01*
X104959774Y-129096063D01*
X104790256Y-128982795D01*
X104601898Y-128904774D01*
X104401939Y-128865000D01*
X104198061Y-128865000D01*
X103998102Y-128904774D01*
X103809744Y-128982795D01*
X103640226Y-129096063D01*
X103496063Y-129240226D01*
X103382795Y-129409744D01*
X103304774Y-129598102D01*
X103265000Y-129798061D01*
X91990247Y-129798061D01*
X91853475Y-129593368D01*
X91721620Y-129461513D01*
X91794180Y-129439502D01*
X91904494Y-129380537D01*
X92001185Y-129301185D01*
X92080537Y-129204494D01*
X92139502Y-129094180D01*
X92175812Y-128974482D01*
X92188072Y-128850000D01*
X92188072Y-127698061D01*
X108865000Y-127698061D01*
X108865000Y-127901939D01*
X108904774Y-128101898D01*
X108982795Y-128290256D01*
X109096063Y-128459774D01*
X109240226Y-128603937D01*
X109409744Y-128717205D01*
X109598102Y-128795226D01*
X109798061Y-128835000D01*
X110001939Y-128835000D01*
X110201898Y-128795226D01*
X110390256Y-128717205D01*
X110559774Y-128603937D01*
X110703937Y-128459774D01*
X110817205Y-128290256D01*
X110895226Y-128101898D01*
X110935000Y-127901939D01*
X110935000Y-127698061D01*
X110895226Y-127498102D01*
X110817205Y-127309744D01*
X110703937Y-127140226D01*
X110559774Y-126996063D01*
X110390256Y-126882795D01*
X110201898Y-126804774D01*
X110001939Y-126765000D01*
X109798061Y-126765000D01*
X109598102Y-126804774D01*
X109409744Y-126882795D01*
X109240226Y-126996063D01*
X109096063Y-127140226D01*
X108982795Y-127309744D01*
X108904774Y-127498102D01*
X108865000Y-127698061D01*
X92188072Y-127698061D01*
X92188072Y-127150000D01*
X92175812Y-127025518D01*
X92139502Y-126905820D01*
X92080537Y-126795506D01*
X92001185Y-126698815D01*
X91904494Y-126619463D01*
X91794180Y-126560498D01*
X91674482Y-126524188D01*
X91550000Y-126511928D01*
X89850000Y-126511928D01*
X89725518Y-126524188D01*
X89605820Y-126560498D01*
X89495506Y-126619463D01*
X89398815Y-126698815D01*
X89319463Y-126795506D01*
X89260498Y-126905820D01*
X89224188Y-127025518D01*
X89211928Y-127150000D01*
X82160000Y-127150000D01*
X82160000Y-126398061D01*
X135565000Y-126398061D01*
X135565000Y-126601939D01*
X135604774Y-126801898D01*
X135682795Y-126990256D01*
X135796063Y-127159774D01*
X135940226Y-127303937D01*
X136109744Y-127417205D01*
X136298102Y-127495226D01*
X136498061Y-127535000D01*
X136701939Y-127535000D01*
X136901898Y-127495226D01*
X137090256Y-127417205D01*
X137259774Y-127303937D01*
X137403937Y-127159774D01*
X137517205Y-126990256D01*
X137595226Y-126801898D01*
X137635000Y-126601939D01*
X137635000Y-126398061D01*
X137595226Y-126198102D01*
X137517205Y-126009744D01*
X137403937Y-125840226D01*
X137259774Y-125696063D01*
X137090256Y-125582795D01*
X136901898Y-125504774D01*
X136701939Y-125465000D01*
X136498061Y-125465000D01*
X136298102Y-125504774D01*
X136109744Y-125582795D01*
X135940226Y-125696063D01*
X135796063Y-125840226D01*
X135682795Y-126009744D01*
X135604774Y-126198102D01*
X135565000Y-126398061D01*
X82160000Y-126398061D01*
X82160000Y-124676890D01*
X82350048Y-124676890D01*
X82350048Y-124923110D01*
X82398083Y-125164598D01*
X82492307Y-125392074D01*
X82629099Y-125596798D01*
X82803202Y-125770901D01*
X83007926Y-125907693D01*
X83235402Y-126001917D01*
X83476890Y-126049952D01*
X83723110Y-126049952D01*
X83964598Y-126001917D01*
X84192074Y-125907693D01*
X84396798Y-125770901D01*
X84570901Y-125596798D01*
X84707693Y-125392074D01*
X84801917Y-125164598D01*
X84849952Y-124923110D01*
X84849952Y-124676890D01*
X84801917Y-124435402D01*
X84707693Y-124207926D01*
X84667693Y-124148061D01*
X105965000Y-124148061D01*
X105965000Y-124351939D01*
X106004774Y-124551898D01*
X106082795Y-124740256D01*
X106196063Y-124909774D01*
X106340226Y-125053937D01*
X106509744Y-125167205D01*
X106698102Y-125245226D01*
X106898061Y-125285000D01*
X107101939Y-125285000D01*
X107301898Y-125245226D01*
X107490256Y-125167205D01*
X107659774Y-125053937D01*
X107803937Y-124909774D01*
X107917205Y-124740256D01*
X107943452Y-124676890D01*
X139400048Y-124676890D01*
X139400048Y-124923110D01*
X139448083Y-125164598D01*
X139542307Y-125392074D01*
X139679099Y-125596798D01*
X139853202Y-125770901D01*
X140057926Y-125907693D01*
X140285402Y-126001917D01*
X140526890Y-126049952D01*
X140773110Y-126049952D01*
X141014598Y-126001917D01*
X141242074Y-125907693D01*
X141446798Y-125770901D01*
X141620901Y-125596798D01*
X141757693Y-125392074D01*
X141851917Y-125164598D01*
X141899952Y-124923110D01*
X141899952Y-124676890D01*
X141851917Y-124435402D01*
X141757693Y-124207926D01*
X141620901Y-124003202D01*
X141446798Y-123829099D01*
X141242074Y-123692307D01*
X141014598Y-123598083D01*
X140773110Y-123550048D01*
X140526890Y-123550048D01*
X140285402Y-123598083D01*
X140057926Y-123692307D01*
X139853202Y-123829099D01*
X139679099Y-124003202D01*
X139542307Y-124207926D01*
X139448083Y-124435402D01*
X139400048Y-124676890D01*
X107943452Y-124676890D01*
X107995226Y-124551898D01*
X108035000Y-124351939D01*
X108035000Y-124148061D01*
X107995226Y-123948102D01*
X107917205Y-123759744D01*
X107803937Y-123590226D01*
X107659774Y-123446063D01*
X107490256Y-123332795D01*
X107301898Y-123254774D01*
X107101939Y-123215000D01*
X106898061Y-123215000D01*
X106698102Y-123254774D01*
X106509744Y-123332795D01*
X106340226Y-123446063D01*
X106196063Y-123590226D01*
X106082795Y-123759744D01*
X106004774Y-123948102D01*
X105965000Y-124148061D01*
X84667693Y-124148061D01*
X84570901Y-124003202D01*
X84396798Y-123829099D01*
X84192074Y-123692307D01*
X83964598Y-123598083D01*
X83723110Y-123550048D01*
X83476890Y-123550048D01*
X83235402Y-123598083D01*
X83007926Y-123692307D01*
X82803202Y-123829099D01*
X82629099Y-124003202D01*
X82492307Y-124207926D01*
X82398083Y-124435402D01*
X82350048Y-124676890D01*
X82160000Y-124676890D01*
X82160000Y-122950881D01*
X83478724Y-122950881D01*
X83838912Y-123440548D01*
X84502882Y-123800849D01*
X85224385Y-124024694D01*
X85975695Y-124103480D01*
X86727938Y-124034178D01*
X87452208Y-123819452D01*
X88120670Y-123467555D01*
X88161088Y-123440548D01*
X88521276Y-122950881D01*
X86000000Y-120429605D01*
X83478724Y-122950881D01*
X82160000Y-122950881D01*
X82160000Y-120372015D01*
X82215822Y-120977938D01*
X82430548Y-121702208D01*
X82782445Y-122370670D01*
X82809452Y-122411088D01*
X83299119Y-122771276D01*
X85820395Y-120250000D01*
X86179605Y-120250000D01*
X88700881Y-122771276D01*
X89072310Y-122498061D01*
X96765000Y-122498061D01*
X96765000Y-122701939D01*
X96804774Y-122901898D01*
X96882795Y-123090256D01*
X96996063Y-123259774D01*
X97140226Y-123403937D01*
X97309744Y-123517205D01*
X97498102Y-123595226D01*
X97698061Y-123635000D01*
X97901939Y-123635000D01*
X98101898Y-123595226D01*
X98290256Y-123517205D01*
X98459774Y-123403937D01*
X98603937Y-123259774D01*
X98717205Y-123090256D01*
X98755393Y-122998061D01*
X99065000Y-122998061D01*
X99065000Y-123201939D01*
X99104774Y-123401898D01*
X99182795Y-123590256D01*
X99296063Y-123759774D01*
X99440226Y-123903937D01*
X99609744Y-124017205D01*
X99798102Y-124095226D01*
X99998061Y-124135000D01*
X100201939Y-124135000D01*
X100401898Y-124095226D01*
X100590256Y-124017205D01*
X100759774Y-123903937D01*
X100903937Y-123759774D01*
X101017205Y-123590256D01*
X101095226Y-123401898D01*
X101135000Y-123201939D01*
X101135000Y-122998061D01*
X101095226Y-122798102D01*
X101017205Y-122609744D01*
X100903937Y-122440226D01*
X100759774Y-122296063D01*
X100590256Y-122182795D01*
X100407009Y-122106891D01*
X101148519Y-122106891D01*
X101245843Y-122381252D01*
X101394822Y-122631355D01*
X101589731Y-122847588D01*
X101823080Y-123021641D01*
X102085901Y-123146825D01*
X102233110Y-123191476D01*
X102463000Y-123070155D01*
X102463000Y-121877000D01*
X101269186Y-121877000D01*
X101148519Y-122106891D01*
X100407009Y-122106891D01*
X100401898Y-122104774D01*
X100201939Y-122065000D01*
X99998061Y-122065000D01*
X99798102Y-122104774D01*
X99609744Y-122182795D01*
X99440226Y-122296063D01*
X99296063Y-122440226D01*
X99182795Y-122609744D01*
X99104774Y-122798102D01*
X99065000Y-122998061D01*
X98755393Y-122998061D01*
X98795226Y-122901898D01*
X98835000Y-122701939D01*
X98835000Y-122498061D01*
X98795226Y-122298102D01*
X98717205Y-122109744D01*
X98603937Y-121940226D01*
X98459774Y-121796063D01*
X98290256Y-121682795D01*
X98101898Y-121604774D01*
X97901939Y-121565000D01*
X97698061Y-121565000D01*
X97498102Y-121604774D01*
X97309744Y-121682795D01*
X97140226Y-121796063D01*
X96996063Y-121940226D01*
X96882795Y-122109744D01*
X96804774Y-122298102D01*
X96765000Y-122498061D01*
X89072310Y-122498061D01*
X89190548Y-122411088D01*
X89550849Y-121747118D01*
X89774694Y-121025615D01*
X89853480Y-120274305D01*
X89784178Y-119522062D01*
X89745956Y-119393137D01*
X92915000Y-119393137D01*
X92915000Y-119606863D01*
X92956696Y-119816483D01*
X93038485Y-120013940D01*
X93157225Y-120191647D01*
X93308353Y-120342775D01*
X93486060Y-120461515D01*
X93683517Y-120543304D01*
X93893137Y-120585000D01*
X94106863Y-120585000D01*
X94316483Y-120543304D01*
X94513940Y-120461515D01*
X94691647Y-120342775D01*
X94842775Y-120191647D01*
X94961515Y-120013940D01*
X95043304Y-119816483D01*
X95085000Y-119606863D01*
X95085000Y-119393137D01*
X95915000Y-119393137D01*
X95915000Y-119606863D01*
X95956696Y-119816483D01*
X96038485Y-120013940D01*
X96157225Y-120191647D01*
X96308353Y-120342775D01*
X96486060Y-120461515D01*
X96683517Y-120543304D01*
X96893137Y-120585000D01*
X97106863Y-120585000D01*
X97316483Y-120543304D01*
X97513940Y-120461515D01*
X97691647Y-120342775D01*
X97842775Y-120191647D01*
X97961515Y-120013940D01*
X98043304Y-119816483D01*
X98085000Y-119606863D01*
X98085000Y-119393137D01*
X98043304Y-119183517D01*
X97993691Y-119063740D01*
X101105000Y-119063740D01*
X101105000Y-119356260D01*
X101162068Y-119643158D01*
X101274010Y-119913411D01*
X101436525Y-120156632D01*
X101643368Y-120363475D01*
X101819406Y-120481100D01*
X101589731Y-120652412D01*
X101394822Y-120868645D01*
X101245843Y-121118748D01*
X101148519Y-121393109D01*
X101269186Y-121623000D01*
X102463000Y-121623000D01*
X102463000Y-121603000D01*
X102717000Y-121603000D01*
X102717000Y-121623000D01*
X102737000Y-121623000D01*
X102737000Y-121877000D01*
X102717000Y-121877000D01*
X102717000Y-123070155D01*
X102946890Y-123191476D01*
X103094099Y-123146825D01*
X103356920Y-123021641D01*
X103590269Y-122847588D01*
X103785178Y-122631355D01*
X103854805Y-122514466D01*
X103976525Y-122696632D01*
X104183368Y-122903475D01*
X104426589Y-123065990D01*
X104696842Y-123177932D01*
X104983740Y-123235000D01*
X105276260Y-123235000D01*
X105563158Y-123177932D01*
X105833411Y-123065990D01*
X106076632Y-122903475D01*
X106283475Y-122696632D01*
X106405195Y-122514466D01*
X106474822Y-122631355D01*
X106669731Y-122847588D01*
X106903080Y-123021641D01*
X107165901Y-123146825D01*
X107313110Y-123191476D01*
X107543000Y-123070155D01*
X107543000Y-121877000D01*
X107797000Y-121877000D01*
X107797000Y-123070155D01*
X108026890Y-123191476D01*
X108174099Y-123146825D01*
X108436920Y-123021641D01*
X108670269Y-122847588D01*
X108865178Y-122631355D01*
X108940000Y-122505745D01*
X109014822Y-122631355D01*
X109209731Y-122847588D01*
X109443080Y-123021641D01*
X109705901Y-123146825D01*
X109853110Y-123191476D01*
X110083000Y-123070155D01*
X110083000Y-121877000D01*
X107797000Y-121877000D01*
X107543000Y-121877000D01*
X107523000Y-121877000D01*
X107523000Y-121623000D01*
X107543000Y-121623000D01*
X107543000Y-121603000D01*
X107797000Y-121603000D01*
X107797000Y-121623000D01*
X110083000Y-121623000D01*
X110083000Y-121603000D01*
X110337000Y-121603000D01*
X110337000Y-121623000D01*
X110357000Y-121623000D01*
X110357000Y-121877000D01*
X110337000Y-121877000D01*
X110337000Y-123070155D01*
X110566890Y-123191476D01*
X110714099Y-123146825D01*
X110976920Y-123021641D01*
X111210269Y-122847588D01*
X111286034Y-122763534D01*
X111310498Y-122844180D01*
X111369463Y-122954494D01*
X111448815Y-123051185D01*
X111545506Y-123130537D01*
X111655820Y-123189502D01*
X111775518Y-123225812D01*
X111900000Y-123238072D01*
X113600000Y-123238072D01*
X113724482Y-123225812D01*
X113844180Y-123189502D01*
X113954494Y-123130537D01*
X114051185Y-123051185D01*
X114130537Y-122954494D01*
X114189502Y-122844180D01*
X114209583Y-122777980D01*
X126901626Y-122777980D01*
X127021514Y-123062836D01*
X127345210Y-123223699D01*
X127694069Y-123318322D01*
X128054684Y-123343067D01*
X128413198Y-123296985D01*
X128755833Y-123181846D01*
X128978486Y-123062836D01*
X129098374Y-122777980D01*
X128000000Y-121679605D01*
X126901626Y-122777980D01*
X114209583Y-122777980D01*
X114225812Y-122724482D01*
X114238072Y-122600000D01*
X114238072Y-121554684D01*
X126156933Y-121554684D01*
X126203015Y-121913198D01*
X126318154Y-122255833D01*
X126437164Y-122478486D01*
X126722020Y-122598374D01*
X127820395Y-121500000D01*
X128179605Y-121500000D01*
X129277980Y-122598374D01*
X129562836Y-122478486D01*
X129661928Y-122279088D01*
X129661928Y-122700000D01*
X129674188Y-122824482D01*
X129710498Y-122944180D01*
X129769463Y-123054494D01*
X129848815Y-123151185D01*
X129945506Y-123230537D01*
X130055820Y-123289502D01*
X130175518Y-123325812D01*
X130300000Y-123338072D01*
X132700000Y-123338072D01*
X132824482Y-123325812D01*
X132944180Y-123289502D01*
X133054494Y-123230537D01*
X133151185Y-123151185D01*
X133230537Y-123054494D01*
X133285920Y-122950881D01*
X135728724Y-122950881D01*
X136088912Y-123440548D01*
X136752882Y-123800849D01*
X137474385Y-124024694D01*
X138225695Y-124103480D01*
X138977938Y-124034178D01*
X139702208Y-123819452D01*
X140370670Y-123467555D01*
X140411088Y-123440548D01*
X140771276Y-122950881D01*
X138250000Y-120429605D01*
X135728724Y-122950881D01*
X133285920Y-122950881D01*
X133289502Y-122944180D01*
X133325812Y-122824482D01*
X133338072Y-122700000D01*
X133338072Y-120300000D01*
X133330754Y-120225695D01*
X134396520Y-120225695D01*
X134465822Y-120977938D01*
X134680548Y-121702208D01*
X135032445Y-122370670D01*
X135059452Y-122411088D01*
X135549119Y-122771276D01*
X138070395Y-120250000D01*
X135549119Y-117728724D01*
X135059452Y-118088912D01*
X134699151Y-118752882D01*
X134475306Y-119474385D01*
X134396520Y-120225695D01*
X133330754Y-120225695D01*
X133325812Y-120175518D01*
X133289502Y-120055820D01*
X133230537Y-119945506D01*
X133151185Y-119848815D01*
X133054494Y-119769463D01*
X132944180Y-119710498D01*
X132824482Y-119674188D01*
X132700000Y-119661928D01*
X130300000Y-119661928D01*
X130175518Y-119674188D01*
X130055820Y-119710498D01*
X129945506Y-119769463D01*
X129848815Y-119848815D01*
X129769463Y-119945506D01*
X129710498Y-120055820D01*
X129674188Y-120175518D01*
X129661928Y-120300000D01*
X129661928Y-120706903D01*
X129562836Y-120521514D01*
X129277980Y-120401626D01*
X128179605Y-121500000D01*
X127820395Y-121500000D01*
X126722020Y-120401626D01*
X126437164Y-120521514D01*
X126276301Y-120845210D01*
X126181678Y-121194069D01*
X126156933Y-121554684D01*
X114238072Y-121554684D01*
X114238072Y-120900000D01*
X114225812Y-120775518D01*
X114189502Y-120655820D01*
X114130537Y-120545506D01*
X114051185Y-120448815D01*
X113954494Y-120369463D01*
X113844180Y-120310498D01*
X113771620Y-120288487D01*
X113838087Y-120222020D01*
X126901626Y-120222020D01*
X128000000Y-121320395D01*
X129098374Y-120222020D01*
X128978486Y-119937164D01*
X128654790Y-119776301D01*
X128305931Y-119681678D01*
X127945316Y-119656933D01*
X127586802Y-119703015D01*
X127244167Y-119818154D01*
X127021514Y-119937164D01*
X126901626Y-120222020D01*
X113838087Y-120222020D01*
X113903475Y-120156632D01*
X114065990Y-119913411D01*
X114177932Y-119643158D01*
X114235000Y-119356260D01*
X114235000Y-119063740D01*
X114177932Y-118776842D01*
X114065990Y-118506589D01*
X113903475Y-118263368D01*
X113696632Y-118056525D01*
X113453411Y-117894010D01*
X113183158Y-117782068D01*
X112896260Y-117725000D01*
X112603740Y-117725000D01*
X112316842Y-117782068D01*
X112046589Y-117894010D01*
X111803368Y-118056525D01*
X111596525Y-118263368D01*
X111480000Y-118437760D01*
X111363475Y-118263368D01*
X111156632Y-118056525D01*
X110913411Y-117894010D01*
X110643158Y-117782068D01*
X110356260Y-117725000D01*
X110063740Y-117725000D01*
X109776842Y-117782068D01*
X109506589Y-117894010D01*
X109263368Y-118056525D01*
X109056525Y-118263368D01*
X108940000Y-118437760D01*
X108823475Y-118263368D01*
X108616632Y-118056525D01*
X108373411Y-117894010D01*
X108103158Y-117782068D01*
X107816260Y-117725000D01*
X107523740Y-117725000D01*
X107236842Y-117782068D01*
X106966589Y-117894010D01*
X106723368Y-118056525D01*
X106516525Y-118263368D01*
X106400000Y-118437760D01*
X106283475Y-118263368D01*
X106076632Y-118056525D01*
X105833411Y-117894010D01*
X105563158Y-117782068D01*
X105276260Y-117725000D01*
X104983740Y-117725000D01*
X104696842Y-117782068D01*
X104426589Y-117894010D01*
X104183368Y-118056525D01*
X103976525Y-118263368D01*
X103860000Y-118437760D01*
X103743475Y-118263368D01*
X103536632Y-118056525D01*
X103293411Y-117894010D01*
X103023158Y-117782068D01*
X102736260Y-117725000D01*
X102443740Y-117725000D01*
X102156842Y-117782068D01*
X101886589Y-117894010D01*
X101643368Y-118056525D01*
X101436525Y-118263368D01*
X101274010Y-118506589D01*
X101162068Y-118776842D01*
X101105000Y-119063740D01*
X97993691Y-119063740D01*
X97961515Y-118986060D01*
X97842775Y-118808353D01*
X97691647Y-118657225D01*
X97513940Y-118538485D01*
X97316483Y-118456696D01*
X97106863Y-118415000D01*
X96893137Y-118415000D01*
X96683517Y-118456696D01*
X96486060Y-118538485D01*
X96308353Y-118657225D01*
X96157225Y-118808353D01*
X96038485Y-118986060D01*
X95956696Y-119183517D01*
X95915000Y-119393137D01*
X95085000Y-119393137D01*
X95043304Y-119183517D01*
X94961515Y-118986060D01*
X94842775Y-118808353D01*
X94691647Y-118657225D01*
X94513940Y-118538485D01*
X94316483Y-118456696D01*
X94106863Y-118415000D01*
X93893137Y-118415000D01*
X93683517Y-118456696D01*
X93486060Y-118538485D01*
X93308353Y-118657225D01*
X93157225Y-118808353D01*
X93038485Y-118986060D01*
X92956696Y-119183517D01*
X92915000Y-119393137D01*
X89745956Y-119393137D01*
X89569452Y-118797792D01*
X89217555Y-118129330D01*
X89190548Y-118088912D01*
X88700881Y-117728724D01*
X86179605Y-120250000D01*
X85820395Y-120250000D01*
X85806253Y-120235858D01*
X85985858Y-120056253D01*
X86000000Y-120070395D01*
X88521276Y-117549119D01*
X88161088Y-117059452D01*
X87497118Y-116699151D01*
X86775615Y-116475306D01*
X86152851Y-116410000D01*
X138127985Y-116410000D01*
X137522062Y-116465822D01*
G37*
%TD.AperFunction*%
%TD*%
M02*
