%TF.GenerationSoftware,KiCad,Pcbnew,(5.1.10)-1*%
%TF.CreationDate,2021-07-10T11:27:40-07:00*%
%TF.ProjectId,willios_v2,77696c6c-696f-4735-9f76-322e6b696361,rev?*%
%TF.SameCoordinates,Original*%
%TF.FileFunction,Paste,Top*%
%TF.FilePolarity,Positive*%
%FSLAX46Y46*%
G04 Gerber Fmt 4.6, Leading zero omitted, Abs format (unit mm)*
G04 Created by KiCad (PCBNEW (5.1.10)-1) date 2021-07-10 11:27:40*
%MOMM*%
%LPD*%
G01*
G04 APERTURE LIST*
%ADD10R,1.200000X0.900000*%
%ADD11R,0.450000X1.380000*%
%ADD12R,1.425000X1.550000*%
%ADD13R,1.650000X1.300000*%
%ADD14R,1.800000X1.900000*%
%ADD15R,1.000000X1.900000*%
%ADD16R,2.500000X1.900000*%
%ADD17R,0.900000X0.800000*%
%ADD18R,0.700000X1.500000*%
%ADD19R,1.000000X0.800000*%
%ADD20R,1.060000X0.650000*%
%ADD21R,0.650000X1.060000*%
%ADD22R,1.200000X1.400000*%
G04 APERTURE END LIST*
%TO.C,R7*%
G36*
G01*
X101475000Y-131225000D02*
X101475000Y-131775000D01*
G75*
G02*
X101275000Y-131975000I-200000J0D01*
G01*
X100875000Y-131975000D01*
G75*
G02*
X100675000Y-131775000I0J200000D01*
G01*
X100675000Y-131225000D01*
G75*
G02*
X100875000Y-131025000I200000J0D01*
G01*
X101275000Y-131025000D01*
G75*
G02*
X101475000Y-131225000I0J-200000D01*
G01*
G37*
G36*
G01*
X99825000Y-131225000D02*
X99825000Y-131775000D01*
G75*
G02*
X99625000Y-131975000I-200000J0D01*
G01*
X99225000Y-131975000D01*
G75*
G02*
X99025000Y-131775000I0J200000D01*
G01*
X99025000Y-131225000D01*
G75*
G02*
X99225000Y-131025000I200000J0D01*
G01*
X99625000Y-131025000D01*
G75*
G02*
X99825000Y-131225000I0J-200000D01*
G01*
G37*
%TD*%
%TO.C,C1*%
G36*
G01*
X131500000Y-140100000D02*
X132000000Y-140100000D01*
G75*
G02*
X132225000Y-140325000I0J-225000D01*
G01*
X132225000Y-140775000D01*
G75*
G02*
X132000000Y-141000000I-225000J0D01*
G01*
X131500000Y-141000000D01*
G75*
G02*
X131275000Y-140775000I0J225000D01*
G01*
X131275000Y-140325000D01*
G75*
G02*
X131500000Y-140100000I225000J0D01*
G01*
G37*
G36*
G01*
X131500000Y-138550000D02*
X132000000Y-138550000D01*
G75*
G02*
X132225000Y-138775000I0J-225000D01*
G01*
X132225000Y-139225000D01*
G75*
G02*
X132000000Y-139450000I-225000J0D01*
G01*
X131500000Y-139450000D01*
G75*
G02*
X131275000Y-139225000I0J225000D01*
G01*
X131275000Y-138775000D01*
G75*
G02*
X131500000Y-138550000I225000J0D01*
G01*
G37*
%TD*%
%TO.C,C2*%
G36*
G01*
X126075000Y-137099999D02*
X126075000Y-138400001D01*
G75*
G02*
X125825001Y-138650000I-249999J0D01*
G01*
X125174999Y-138650000D01*
G75*
G02*
X124925000Y-138400001I0J249999D01*
G01*
X124925000Y-137099999D01*
G75*
G02*
X125174999Y-136850000I249999J0D01*
G01*
X125825001Y-136850000D01*
G75*
G02*
X126075000Y-137099999I0J-249999D01*
G01*
G37*
G36*
G01*
X123125000Y-137099999D02*
X123125000Y-138400001D01*
G75*
G02*
X122875001Y-138650000I-249999J0D01*
G01*
X122224999Y-138650000D01*
G75*
G02*
X121975000Y-138400001I0J249999D01*
G01*
X121975000Y-137099999D01*
G75*
G02*
X122224999Y-136850000I249999J0D01*
G01*
X122875001Y-136850000D01*
G75*
G02*
X123125000Y-137099999I0J-249999D01*
G01*
G37*
%TD*%
%TO.C,C3*%
G36*
G01*
X131650000Y-148900001D02*
X131650000Y-147599999D01*
G75*
G02*
X131899999Y-147350000I249999J0D01*
G01*
X132550001Y-147350000D01*
G75*
G02*
X132800000Y-147599999I0J-249999D01*
G01*
X132800000Y-148900001D01*
G75*
G02*
X132550001Y-149150000I-249999J0D01*
G01*
X131899999Y-149150000D01*
G75*
G02*
X131650000Y-148900001I0J249999D01*
G01*
G37*
G36*
G01*
X128700000Y-148900001D02*
X128700000Y-147599999D01*
G75*
G02*
X128949999Y-147350000I249999J0D01*
G01*
X129600001Y-147350000D01*
G75*
G02*
X129850000Y-147599999I0J-249999D01*
G01*
X129850000Y-148900001D01*
G75*
G02*
X129600001Y-149150000I-249999J0D01*
G01*
X128949999Y-149150000D01*
G75*
G02*
X128700000Y-148900001I0J249999D01*
G01*
G37*
%TD*%
%TO.C,C4*%
G36*
G01*
X126800000Y-147599999D02*
X126800000Y-148900001D01*
G75*
G02*
X126550001Y-149150000I-249999J0D01*
G01*
X125899999Y-149150000D01*
G75*
G02*
X125650000Y-148900001I0J249999D01*
G01*
X125650000Y-147599999D01*
G75*
G02*
X125899999Y-147350000I249999J0D01*
G01*
X126550001Y-147350000D01*
G75*
G02*
X126800000Y-147599999I0J-249999D01*
G01*
G37*
G36*
G01*
X123850000Y-147599999D02*
X123850000Y-148900001D01*
G75*
G02*
X123600001Y-149150000I-249999J0D01*
G01*
X122949999Y-149150000D01*
G75*
G02*
X122700000Y-148900001I0J249999D01*
G01*
X122700000Y-147599999D01*
G75*
G02*
X122949999Y-147350000I249999J0D01*
G01*
X123600001Y-147350000D01*
G75*
G02*
X123850000Y-147599999I0J-249999D01*
G01*
G37*
%TD*%
%TO.C,C5*%
G36*
G01*
X105050000Y-129475000D02*
X105550000Y-129475000D01*
G75*
G02*
X105775000Y-129700000I0J-225000D01*
G01*
X105775000Y-130150000D01*
G75*
G02*
X105550000Y-130375000I-225000J0D01*
G01*
X105050000Y-130375000D01*
G75*
G02*
X104825000Y-130150000I0J225000D01*
G01*
X104825000Y-129700000D01*
G75*
G02*
X105050000Y-129475000I225000J0D01*
G01*
G37*
G36*
G01*
X105050000Y-131025000D02*
X105550000Y-131025000D01*
G75*
G02*
X105775000Y-131250000I0J-225000D01*
G01*
X105775000Y-131700000D01*
G75*
G02*
X105550000Y-131925000I-225000J0D01*
G01*
X105050000Y-131925000D01*
G75*
G02*
X104825000Y-131700000I0J225000D01*
G01*
X104825000Y-131250000D01*
G75*
G02*
X105050000Y-131025000I225000J0D01*
G01*
G37*
%TD*%
%TO.C,C6*%
G36*
G01*
X108720000Y-131670000D02*
X108720000Y-131330000D01*
G75*
G02*
X108860000Y-131190000I140000J0D01*
G01*
X109140000Y-131190000D01*
G75*
G02*
X109280000Y-131330000I0J-140000D01*
G01*
X109280000Y-131670000D01*
G75*
G02*
X109140000Y-131810000I-140000J0D01*
G01*
X108860000Y-131810000D01*
G75*
G02*
X108720000Y-131670000I0J140000D01*
G01*
G37*
G36*
G01*
X107760000Y-131670000D02*
X107760000Y-131330000D01*
G75*
G02*
X107900000Y-131190000I140000J0D01*
G01*
X108180000Y-131190000D01*
G75*
G02*
X108320000Y-131330000I0J-140000D01*
G01*
X108320000Y-131670000D01*
G75*
G02*
X108180000Y-131810000I-140000J0D01*
G01*
X107900000Y-131810000D01*
G75*
G02*
X107760000Y-131670000I0J140000D01*
G01*
G37*
%TD*%
%TO.C,C7*%
G36*
G01*
X109560000Y-146230000D02*
X109560000Y-146570000D01*
G75*
G02*
X109420000Y-146710000I-140000J0D01*
G01*
X109140000Y-146710000D01*
G75*
G02*
X109000000Y-146570000I0J140000D01*
G01*
X109000000Y-146230000D01*
G75*
G02*
X109140000Y-146090000I140000J0D01*
G01*
X109420000Y-146090000D01*
G75*
G02*
X109560000Y-146230000I0J-140000D01*
G01*
G37*
G36*
G01*
X108600000Y-146230000D02*
X108600000Y-146570000D01*
G75*
G02*
X108460000Y-146710000I-140000J0D01*
G01*
X108180000Y-146710000D01*
G75*
G02*
X108040000Y-146570000I0J140000D01*
G01*
X108040000Y-146230000D01*
G75*
G02*
X108180000Y-146090000I140000J0D01*
G01*
X108460000Y-146090000D01*
G75*
G02*
X108600000Y-146230000I0J-140000D01*
G01*
G37*
%TD*%
%TO.C,C8*%
G36*
G01*
X115300000Y-146330000D02*
X115300000Y-146670000D01*
G75*
G02*
X115160000Y-146810000I-140000J0D01*
G01*
X114880000Y-146810000D01*
G75*
G02*
X114740000Y-146670000I0J140000D01*
G01*
X114740000Y-146330000D01*
G75*
G02*
X114880000Y-146190000I140000J0D01*
G01*
X115160000Y-146190000D01*
G75*
G02*
X115300000Y-146330000I0J-140000D01*
G01*
G37*
G36*
G01*
X116260000Y-146330000D02*
X116260000Y-146670000D01*
G75*
G02*
X116120000Y-146810000I-140000J0D01*
G01*
X115840000Y-146810000D01*
G75*
G02*
X115700000Y-146670000I0J140000D01*
G01*
X115700000Y-146330000D01*
G75*
G02*
X115840000Y-146190000I140000J0D01*
G01*
X116120000Y-146190000D01*
G75*
G02*
X116260000Y-146330000I0J-140000D01*
G01*
G37*
%TD*%
%TO.C,C9*%
G36*
G01*
X119580000Y-134740000D02*
X119920000Y-134740000D01*
G75*
G02*
X120060000Y-134880000I0J-140000D01*
G01*
X120060000Y-135160000D01*
G75*
G02*
X119920000Y-135300000I-140000J0D01*
G01*
X119580000Y-135300000D01*
G75*
G02*
X119440000Y-135160000I0J140000D01*
G01*
X119440000Y-134880000D01*
G75*
G02*
X119580000Y-134740000I140000J0D01*
G01*
G37*
G36*
G01*
X119580000Y-135700000D02*
X119920000Y-135700000D01*
G75*
G02*
X120060000Y-135840000I0J-140000D01*
G01*
X120060000Y-136120000D01*
G75*
G02*
X119920000Y-136260000I-140000J0D01*
G01*
X119580000Y-136260000D01*
G75*
G02*
X119440000Y-136120000I0J140000D01*
G01*
X119440000Y-135840000D01*
G75*
G02*
X119580000Y-135700000I140000J0D01*
G01*
G37*
%TD*%
%TO.C,C10*%
G36*
G01*
X104670000Y-135510000D02*
X104330000Y-135510000D01*
G75*
G02*
X104190000Y-135370000I0J140000D01*
G01*
X104190000Y-135090000D01*
G75*
G02*
X104330000Y-134950000I140000J0D01*
G01*
X104670000Y-134950000D01*
G75*
G02*
X104810000Y-135090000I0J-140000D01*
G01*
X104810000Y-135370000D01*
G75*
G02*
X104670000Y-135510000I-140000J0D01*
G01*
G37*
G36*
G01*
X104670000Y-134550000D02*
X104330000Y-134550000D01*
G75*
G02*
X104190000Y-134410000I0J140000D01*
G01*
X104190000Y-134130000D01*
G75*
G02*
X104330000Y-133990000I140000J0D01*
G01*
X104670000Y-133990000D01*
G75*
G02*
X104810000Y-134130000I0J-140000D01*
G01*
X104810000Y-134410000D01*
G75*
G02*
X104670000Y-134550000I-140000J0D01*
G01*
G37*
%TD*%
%TO.C,C11*%
G36*
G01*
X103420000Y-141050000D02*
X103080000Y-141050000D01*
G75*
G02*
X102940000Y-140910000I0J140000D01*
G01*
X102940000Y-140630000D01*
G75*
G02*
X103080000Y-140490000I140000J0D01*
G01*
X103420000Y-140490000D01*
G75*
G02*
X103560000Y-140630000I0J-140000D01*
G01*
X103560000Y-140910000D01*
G75*
G02*
X103420000Y-141050000I-140000J0D01*
G01*
G37*
G36*
G01*
X103420000Y-142010000D02*
X103080000Y-142010000D01*
G75*
G02*
X102940000Y-141870000I0J140000D01*
G01*
X102940000Y-141590000D01*
G75*
G02*
X103080000Y-141450000I140000J0D01*
G01*
X103420000Y-141450000D01*
G75*
G02*
X103560000Y-141590000I0J-140000D01*
G01*
X103560000Y-141870000D01*
G75*
G02*
X103420000Y-142010000I-140000J0D01*
G01*
G37*
%TD*%
%TO.C,C12*%
G36*
G01*
X104670000Y-142010000D02*
X104330000Y-142010000D01*
G75*
G02*
X104190000Y-141870000I0J140000D01*
G01*
X104190000Y-141590000D01*
G75*
G02*
X104330000Y-141450000I140000J0D01*
G01*
X104670000Y-141450000D01*
G75*
G02*
X104810000Y-141590000I0J-140000D01*
G01*
X104810000Y-141870000D01*
G75*
G02*
X104670000Y-142010000I-140000J0D01*
G01*
G37*
G36*
G01*
X104670000Y-141050000D02*
X104330000Y-141050000D01*
G75*
G02*
X104190000Y-140910000I0J140000D01*
G01*
X104190000Y-140630000D01*
G75*
G02*
X104330000Y-140490000I140000J0D01*
G01*
X104670000Y-140490000D01*
G75*
G02*
X104810000Y-140630000I0J-140000D01*
G01*
X104810000Y-140910000D01*
G75*
G02*
X104670000Y-141050000I-140000J0D01*
G01*
G37*
%TD*%
%TO.C,C13*%
G36*
G01*
X100260000Y-134420000D02*
X100260000Y-134080000D01*
G75*
G02*
X100400000Y-133940000I140000J0D01*
G01*
X100680000Y-133940000D01*
G75*
G02*
X100820000Y-134080000I0J-140000D01*
G01*
X100820000Y-134420000D01*
G75*
G02*
X100680000Y-134560000I-140000J0D01*
G01*
X100400000Y-134560000D01*
G75*
G02*
X100260000Y-134420000I0J140000D01*
G01*
G37*
G36*
G01*
X101220000Y-134420000D02*
X101220000Y-134080000D01*
G75*
G02*
X101360000Y-133940000I140000J0D01*
G01*
X101640000Y-133940000D01*
G75*
G02*
X101780000Y-134080000I0J-140000D01*
G01*
X101780000Y-134420000D01*
G75*
G02*
X101640000Y-134560000I-140000J0D01*
G01*
X101360000Y-134560000D01*
G75*
G02*
X101220000Y-134420000I0J140000D01*
G01*
G37*
%TD*%
%TO.C,C14*%
G36*
G01*
X100820000Y-140080000D02*
X100820000Y-140420000D01*
G75*
G02*
X100680000Y-140560000I-140000J0D01*
G01*
X100400000Y-140560000D01*
G75*
G02*
X100260000Y-140420000I0J140000D01*
G01*
X100260000Y-140080000D01*
G75*
G02*
X100400000Y-139940000I140000J0D01*
G01*
X100680000Y-139940000D01*
G75*
G02*
X100820000Y-140080000I0J-140000D01*
G01*
G37*
G36*
G01*
X101780000Y-140080000D02*
X101780000Y-140420000D01*
G75*
G02*
X101640000Y-140560000I-140000J0D01*
G01*
X101360000Y-140560000D01*
G75*
G02*
X101220000Y-140420000I0J140000D01*
G01*
X101220000Y-140080000D01*
G75*
G02*
X101360000Y-139940000I140000J0D01*
G01*
X101640000Y-139940000D01*
G75*
G02*
X101780000Y-140080000I0J-140000D01*
G01*
G37*
%TD*%
D10*
%TO.C,D1*%
X124000000Y-122850000D03*
X124000000Y-126150000D03*
%TD*%
%TO.C,D2*%
X123250000Y-141350000D03*
X123250000Y-144650000D03*
%TD*%
%TO.C,D3*%
G36*
G01*
X133525000Y-126756250D02*
X133525000Y-126243750D01*
G75*
G02*
X133743750Y-126025000I218750J0D01*
G01*
X134181250Y-126025000D01*
G75*
G02*
X134400000Y-126243750I0J-218750D01*
G01*
X134400000Y-126756250D01*
G75*
G02*
X134181250Y-126975000I-218750J0D01*
G01*
X133743750Y-126975000D01*
G75*
G02*
X133525000Y-126756250I0J218750D01*
G01*
G37*
G36*
G01*
X135100000Y-126756250D02*
X135100000Y-126243750D01*
G75*
G02*
X135318750Y-126025000I218750J0D01*
G01*
X135756250Y-126025000D01*
G75*
G02*
X135975000Y-126243750I0J-218750D01*
G01*
X135975000Y-126756250D01*
G75*
G02*
X135756250Y-126975000I-218750J0D01*
G01*
X135318750Y-126975000D01*
G75*
G02*
X135100000Y-126756250I0J218750D01*
G01*
G37*
%TD*%
%TO.C,D4*%
G36*
G01*
X135100000Y-132006250D02*
X135100000Y-131493750D01*
G75*
G02*
X135318750Y-131275000I218750J0D01*
G01*
X135756250Y-131275000D01*
G75*
G02*
X135975000Y-131493750I0J-218750D01*
G01*
X135975000Y-132006250D01*
G75*
G02*
X135756250Y-132225000I-218750J0D01*
G01*
X135318750Y-132225000D01*
G75*
G02*
X135100000Y-132006250I0J218750D01*
G01*
G37*
G36*
G01*
X133525000Y-132006250D02*
X133525000Y-131493750D01*
G75*
G02*
X133743750Y-131275000I218750J0D01*
G01*
X134181250Y-131275000D01*
G75*
G02*
X134400000Y-131493750I0J-218750D01*
G01*
X134400000Y-132006250D01*
G75*
G02*
X134181250Y-132225000I-218750J0D01*
G01*
X133743750Y-132225000D01*
G75*
G02*
X133525000Y-132006250I0J218750D01*
G01*
G37*
%TD*%
%TO.C,F1*%
G36*
G01*
X124625000Y-131875000D02*
X123375000Y-131875000D01*
G75*
G02*
X123125000Y-131625000I0J250000D01*
G01*
X123125000Y-130875000D01*
G75*
G02*
X123375000Y-130625000I250000J0D01*
G01*
X124625000Y-130625000D01*
G75*
G02*
X124875000Y-130875000I0J-250000D01*
G01*
X124875000Y-131625000D01*
G75*
G02*
X124625000Y-131875000I-250000J0D01*
G01*
G37*
G36*
G01*
X124625000Y-129075000D02*
X123375000Y-129075000D01*
G75*
G02*
X123125000Y-128825000I0J250000D01*
G01*
X123125000Y-128075000D01*
G75*
G02*
X123375000Y-127825000I250000J0D01*
G01*
X124625000Y-127825000D01*
G75*
G02*
X124875000Y-128075000I0J-250000D01*
G01*
X124875000Y-128825000D01*
G75*
G02*
X124625000Y-129075000I-250000J0D01*
G01*
G37*
%TD*%
%TO.C,FB1*%
G36*
G01*
X126000000Y-133118750D02*
X126000000Y-133881250D01*
G75*
G02*
X125781250Y-134100000I-218750J0D01*
G01*
X125343750Y-134100000D01*
G75*
G02*
X125125000Y-133881250I0J218750D01*
G01*
X125125000Y-133118750D01*
G75*
G02*
X125343750Y-132900000I218750J0D01*
G01*
X125781250Y-132900000D01*
G75*
G02*
X126000000Y-133118750I0J-218750D01*
G01*
G37*
G36*
G01*
X123875000Y-133118750D02*
X123875000Y-133881250D01*
G75*
G02*
X123656250Y-134100000I-218750J0D01*
G01*
X123218750Y-134100000D01*
G75*
G02*
X123000000Y-133881250I0J218750D01*
G01*
X123000000Y-133118750D01*
G75*
G02*
X123218750Y-132900000I218750J0D01*
G01*
X123656250Y-132900000D01*
G75*
G02*
X123875000Y-133118750I0J-218750D01*
G01*
G37*
%TD*%
D11*
%TO.C,J2*%
X121550000Y-120460000D03*
X120900000Y-120460000D03*
X120250000Y-120460000D03*
X119600000Y-120460000D03*
X118950000Y-120460000D03*
D12*
X122737500Y-120375000D03*
X117762500Y-120375000D03*
D13*
X123625000Y-117800000D03*
X116875000Y-117800000D03*
D14*
X121400000Y-117800000D03*
D15*
X118700000Y-117800000D03*
%TD*%
D16*
%TO.C,L1*%
X127750000Y-141200000D03*
X127750000Y-145300000D03*
%TD*%
%TO.C,L2*%
G36*
G01*
X103235000Y-143172500D02*
X103235000Y-142827500D01*
G75*
G02*
X103382500Y-142680000I147500J0D01*
G01*
X103677500Y-142680000D01*
G75*
G02*
X103825000Y-142827500I0J-147500D01*
G01*
X103825000Y-143172500D01*
G75*
G02*
X103677500Y-143320000I-147500J0D01*
G01*
X103382500Y-143320000D01*
G75*
G02*
X103235000Y-143172500I0J147500D01*
G01*
G37*
G36*
G01*
X104205000Y-143172500D02*
X104205000Y-142827500D01*
G75*
G02*
X104352500Y-142680000I147500J0D01*
G01*
X104647500Y-142680000D01*
G75*
G02*
X104795000Y-142827500I0J-147500D01*
G01*
X104795000Y-143172500D01*
G75*
G02*
X104647500Y-143320000I-147500J0D01*
G01*
X104352500Y-143320000D01*
G75*
G02*
X104205000Y-143172500I0J147500D01*
G01*
G37*
%TD*%
D17*
%TO.C,Q1*%
X127000000Y-126550000D03*
X127000000Y-128450000D03*
X129000000Y-127500000D03*
%TD*%
%TO.C,R1*%
G36*
G01*
X127225000Y-132775000D02*
X127775000Y-132775000D01*
G75*
G02*
X127975000Y-132975000I0J-200000D01*
G01*
X127975000Y-133375000D01*
G75*
G02*
X127775000Y-133575000I-200000J0D01*
G01*
X127225000Y-133575000D01*
G75*
G02*
X127025000Y-133375000I0J200000D01*
G01*
X127025000Y-132975000D01*
G75*
G02*
X127225000Y-132775000I200000J0D01*
G01*
G37*
G36*
G01*
X127225000Y-134425000D02*
X127775000Y-134425000D01*
G75*
G02*
X127975000Y-134625000I0J-200000D01*
G01*
X127975000Y-135025000D01*
G75*
G02*
X127775000Y-135225000I-200000J0D01*
G01*
X127225000Y-135225000D01*
G75*
G02*
X127025000Y-135025000I0J200000D01*
G01*
X127025000Y-134625000D01*
G75*
G02*
X127225000Y-134425000I200000J0D01*
G01*
G37*
%TD*%
%TO.C,R2*%
G36*
G01*
X129775000Y-133575000D02*
X129225000Y-133575000D01*
G75*
G02*
X129025000Y-133375000I0J200000D01*
G01*
X129025000Y-132975000D01*
G75*
G02*
X129225000Y-132775000I200000J0D01*
G01*
X129775000Y-132775000D01*
G75*
G02*
X129975000Y-132975000I0J-200000D01*
G01*
X129975000Y-133375000D01*
G75*
G02*
X129775000Y-133575000I-200000J0D01*
G01*
G37*
G36*
G01*
X129775000Y-135225000D02*
X129225000Y-135225000D01*
G75*
G02*
X129025000Y-135025000I0J200000D01*
G01*
X129025000Y-134625000D01*
G75*
G02*
X129225000Y-134425000I200000J0D01*
G01*
X129775000Y-134425000D01*
G75*
G02*
X129975000Y-134625000I0J-200000D01*
G01*
X129975000Y-135025000D01*
G75*
G02*
X129775000Y-135225000I-200000J0D01*
G01*
G37*
%TD*%
%TO.C,R3*%
G36*
G01*
X131475000Y-134525000D02*
X132025000Y-134525000D01*
G75*
G02*
X132225000Y-134725000I0J-200000D01*
G01*
X132225000Y-135125000D01*
G75*
G02*
X132025000Y-135325000I-200000J0D01*
G01*
X131475000Y-135325000D01*
G75*
G02*
X131275000Y-135125000I0J200000D01*
G01*
X131275000Y-134725000D01*
G75*
G02*
X131475000Y-134525000I200000J0D01*
G01*
G37*
G36*
G01*
X131475000Y-136175000D02*
X132025000Y-136175000D01*
G75*
G02*
X132225000Y-136375000I0J-200000D01*
G01*
X132225000Y-136775000D01*
G75*
G02*
X132025000Y-136975000I-200000J0D01*
G01*
X131475000Y-136975000D01*
G75*
G02*
X131275000Y-136775000I0J200000D01*
G01*
X131275000Y-136375000D01*
G75*
G02*
X131475000Y-136175000I200000J0D01*
G01*
G37*
%TD*%
%TO.C,R4*%
G36*
G01*
X134025000Y-136975000D02*
X133475000Y-136975000D01*
G75*
G02*
X133275000Y-136775000I0J200000D01*
G01*
X133275000Y-136375000D01*
G75*
G02*
X133475000Y-136175000I200000J0D01*
G01*
X134025000Y-136175000D01*
G75*
G02*
X134225000Y-136375000I0J-200000D01*
G01*
X134225000Y-136775000D01*
G75*
G02*
X134025000Y-136975000I-200000J0D01*
G01*
G37*
G36*
G01*
X134025000Y-135325000D02*
X133475000Y-135325000D01*
G75*
G02*
X133275000Y-135125000I0J200000D01*
G01*
X133275000Y-134725000D01*
G75*
G02*
X133475000Y-134525000I200000J0D01*
G01*
X134025000Y-134525000D01*
G75*
G02*
X134225000Y-134725000I0J-200000D01*
G01*
X134225000Y-135125000D01*
G75*
G02*
X134025000Y-135325000I-200000J0D01*
G01*
G37*
%TD*%
%TO.C,R5*%
G36*
G01*
X135475000Y-136175000D02*
X136025000Y-136175000D01*
G75*
G02*
X136225000Y-136375000I0J-200000D01*
G01*
X136225000Y-136775000D01*
G75*
G02*
X136025000Y-136975000I-200000J0D01*
G01*
X135475000Y-136975000D01*
G75*
G02*
X135275000Y-136775000I0J200000D01*
G01*
X135275000Y-136375000D01*
G75*
G02*
X135475000Y-136175000I200000J0D01*
G01*
G37*
G36*
G01*
X135475000Y-134525000D02*
X136025000Y-134525000D01*
G75*
G02*
X136225000Y-134725000I0J-200000D01*
G01*
X136225000Y-135125000D01*
G75*
G02*
X136025000Y-135325000I-200000J0D01*
G01*
X135475000Y-135325000D01*
G75*
G02*
X135275000Y-135125000I0J200000D01*
G01*
X135275000Y-134725000D01*
G75*
G02*
X135475000Y-134525000I200000J0D01*
G01*
G37*
%TD*%
%TO.C,R6*%
G36*
G01*
X135175000Y-128525000D02*
X135175000Y-127975000D01*
G75*
G02*
X135375000Y-127775000I200000J0D01*
G01*
X135775000Y-127775000D01*
G75*
G02*
X135975000Y-127975000I0J-200000D01*
G01*
X135975000Y-128525000D01*
G75*
G02*
X135775000Y-128725000I-200000J0D01*
G01*
X135375000Y-128725000D01*
G75*
G02*
X135175000Y-128525000I0J200000D01*
G01*
G37*
G36*
G01*
X133525000Y-128525000D02*
X133525000Y-127975000D01*
G75*
G02*
X133725000Y-127775000I200000J0D01*
G01*
X134125000Y-127775000D01*
G75*
G02*
X134325000Y-127975000I0J-200000D01*
G01*
X134325000Y-128525000D01*
G75*
G02*
X134125000Y-128725000I-200000J0D01*
G01*
X133725000Y-128725000D01*
G75*
G02*
X133525000Y-128525000I0J200000D01*
G01*
G37*
%TD*%
%TO.C,R8*%
G36*
G01*
X96675000Y-131775000D02*
X96675000Y-131225000D01*
G75*
G02*
X96875000Y-131025000I200000J0D01*
G01*
X97275000Y-131025000D01*
G75*
G02*
X97475000Y-131225000I0J-200000D01*
G01*
X97475000Y-131775000D01*
G75*
G02*
X97275000Y-131975000I-200000J0D01*
G01*
X96875000Y-131975000D01*
G75*
G02*
X96675000Y-131775000I0J200000D01*
G01*
G37*
G36*
G01*
X95025000Y-131775000D02*
X95025000Y-131225000D01*
G75*
G02*
X95225000Y-131025000I200000J0D01*
G01*
X95625000Y-131025000D01*
G75*
G02*
X95825000Y-131225000I0J-200000D01*
G01*
X95825000Y-131775000D01*
G75*
G02*
X95625000Y-131975000I-200000J0D01*
G01*
X95225000Y-131975000D01*
G75*
G02*
X95025000Y-131775000I0J200000D01*
G01*
G37*
%TD*%
%TO.C,R9*%
G36*
G01*
X94565000Y-122720000D02*
X94935000Y-122720000D01*
G75*
G02*
X95070000Y-122855000I0J-135000D01*
G01*
X95070000Y-123125000D01*
G75*
G02*
X94935000Y-123260000I-135000J0D01*
G01*
X94565000Y-123260000D01*
G75*
G02*
X94430000Y-123125000I0J135000D01*
G01*
X94430000Y-122855000D01*
G75*
G02*
X94565000Y-122720000I135000J0D01*
G01*
G37*
G36*
G01*
X94565000Y-123740000D02*
X94935000Y-123740000D01*
G75*
G02*
X95070000Y-123875000I0J-135000D01*
G01*
X95070000Y-124145000D01*
G75*
G02*
X94935000Y-124280000I-135000J0D01*
G01*
X94565000Y-124280000D01*
G75*
G02*
X94430000Y-124145000I0J135000D01*
G01*
X94430000Y-123875000D01*
G75*
G02*
X94565000Y-123740000I135000J0D01*
G01*
G37*
%TD*%
%TO.C,R10*%
G36*
G01*
X103760000Y-137815000D02*
X103760000Y-138185000D01*
G75*
G02*
X103625000Y-138320000I-135000J0D01*
G01*
X103355000Y-138320000D01*
G75*
G02*
X103220000Y-138185000I0J135000D01*
G01*
X103220000Y-137815000D01*
G75*
G02*
X103355000Y-137680000I135000J0D01*
G01*
X103625000Y-137680000D01*
G75*
G02*
X103760000Y-137815000I0J-135000D01*
G01*
G37*
G36*
G01*
X104780000Y-137815000D02*
X104780000Y-138185000D01*
G75*
G02*
X104645000Y-138320000I-135000J0D01*
G01*
X104375000Y-138320000D01*
G75*
G02*
X104240000Y-138185000I0J135000D01*
G01*
X104240000Y-137815000D01*
G75*
G02*
X104375000Y-137680000I135000J0D01*
G01*
X104645000Y-137680000D01*
G75*
G02*
X104780000Y-137815000I0J-135000D01*
G01*
G37*
%TD*%
%TO.C,R11*%
G36*
G01*
X133525000Y-130275000D02*
X133525000Y-129725000D01*
G75*
G02*
X133725000Y-129525000I200000J0D01*
G01*
X134125000Y-129525000D01*
G75*
G02*
X134325000Y-129725000I0J-200000D01*
G01*
X134325000Y-130275000D01*
G75*
G02*
X134125000Y-130475000I-200000J0D01*
G01*
X133725000Y-130475000D01*
G75*
G02*
X133525000Y-130275000I0J200000D01*
G01*
G37*
G36*
G01*
X135175000Y-130275000D02*
X135175000Y-129725000D01*
G75*
G02*
X135375000Y-129525000I200000J0D01*
G01*
X135775000Y-129525000D01*
G75*
G02*
X135975000Y-129725000I0J-200000D01*
G01*
X135975000Y-130275000D01*
G75*
G02*
X135775000Y-130475000I-200000J0D01*
G01*
X135375000Y-130475000D01*
G75*
G02*
X135175000Y-130275000I0J200000D01*
G01*
G37*
%TD*%
D18*
%TO.C,SW1*%
X97750000Y-121260000D03*
X94750000Y-121260000D03*
X93250000Y-121260000D03*
D19*
X99150000Y-118400000D03*
X91850000Y-118400000D03*
X91850000Y-120610000D03*
X99150000Y-120610000D03*
%TD*%
D20*
%TO.C,U1*%
X127650000Y-137750000D03*
X127650000Y-138700000D03*
X127650000Y-136800000D03*
X129850000Y-136800000D03*
X129850000Y-137750000D03*
X129850000Y-138700000D03*
%TD*%
D21*
%TO.C,U2*%
X121200000Y-124650000D03*
X120250000Y-124650000D03*
X119300000Y-124650000D03*
X119300000Y-126850000D03*
X121200000Y-126850000D03*
X120250000Y-126850000D03*
%TD*%
%TO.C,U3*%
G36*
G01*
X105550000Y-135325000D02*
X105550000Y-135175000D01*
G75*
G02*
X105625000Y-135100000I75000J0D01*
G01*
X107025000Y-135100000D01*
G75*
G02*
X107100000Y-135175000I0J-75000D01*
G01*
X107100000Y-135325000D01*
G75*
G02*
X107025000Y-135400000I-75000J0D01*
G01*
X105625000Y-135400000D01*
G75*
G02*
X105550000Y-135325000I0J75000D01*
G01*
G37*
G36*
G01*
X105550000Y-135825000D02*
X105550000Y-135675000D01*
G75*
G02*
X105625000Y-135600000I75000J0D01*
G01*
X107025000Y-135600000D01*
G75*
G02*
X107100000Y-135675000I0J-75000D01*
G01*
X107100000Y-135825000D01*
G75*
G02*
X107025000Y-135900000I-75000J0D01*
G01*
X105625000Y-135900000D01*
G75*
G02*
X105550000Y-135825000I0J75000D01*
G01*
G37*
G36*
G01*
X105550000Y-136325000D02*
X105550000Y-136175000D01*
G75*
G02*
X105625000Y-136100000I75000J0D01*
G01*
X107025000Y-136100000D01*
G75*
G02*
X107100000Y-136175000I0J-75000D01*
G01*
X107100000Y-136325000D01*
G75*
G02*
X107025000Y-136400000I-75000J0D01*
G01*
X105625000Y-136400000D01*
G75*
G02*
X105550000Y-136325000I0J75000D01*
G01*
G37*
G36*
G01*
X105550000Y-136825000D02*
X105550000Y-136675000D01*
G75*
G02*
X105625000Y-136600000I75000J0D01*
G01*
X107025000Y-136600000D01*
G75*
G02*
X107100000Y-136675000I0J-75000D01*
G01*
X107100000Y-136825000D01*
G75*
G02*
X107025000Y-136900000I-75000J0D01*
G01*
X105625000Y-136900000D01*
G75*
G02*
X105550000Y-136825000I0J75000D01*
G01*
G37*
G36*
G01*
X105550000Y-137325000D02*
X105550000Y-137175000D01*
G75*
G02*
X105625000Y-137100000I75000J0D01*
G01*
X107025000Y-137100000D01*
G75*
G02*
X107100000Y-137175000I0J-75000D01*
G01*
X107100000Y-137325000D01*
G75*
G02*
X107025000Y-137400000I-75000J0D01*
G01*
X105625000Y-137400000D01*
G75*
G02*
X105550000Y-137325000I0J75000D01*
G01*
G37*
G36*
G01*
X105550000Y-137825000D02*
X105550000Y-137675000D01*
G75*
G02*
X105625000Y-137600000I75000J0D01*
G01*
X107025000Y-137600000D01*
G75*
G02*
X107100000Y-137675000I0J-75000D01*
G01*
X107100000Y-137825000D01*
G75*
G02*
X107025000Y-137900000I-75000J0D01*
G01*
X105625000Y-137900000D01*
G75*
G02*
X105550000Y-137825000I0J75000D01*
G01*
G37*
G36*
G01*
X105550000Y-138325000D02*
X105550000Y-138175000D01*
G75*
G02*
X105625000Y-138100000I75000J0D01*
G01*
X107025000Y-138100000D01*
G75*
G02*
X107100000Y-138175000I0J-75000D01*
G01*
X107100000Y-138325000D01*
G75*
G02*
X107025000Y-138400000I-75000J0D01*
G01*
X105625000Y-138400000D01*
G75*
G02*
X105550000Y-138325000I0J75000D01*
G01*
G37*
G36*
G01*
X105550000Y-138825000D02*
X105550000Y-138675000D01*
G75*
G02*
X105625000Y-138600000I75000J0D01*
G01*
X107025000Y-138600000D01*
G75*
G02*
X107100000Y-138675000I0J-75000D01*
G01*
X107100000Y-138825000D01*
G75*
G02*
X107025000Y-138900000I-75000J0D01*
G01*
X105625000Y-138900000D01*
G75*
G02*
X105550000Y-138825000I0J75000D01*
G01*
G37*
G36*
G01*
X105550000Y-139325000D02*
X105550000Y-139175000D01*
G75*
G02*
X105625000Y-139100000I75000J0D01*
G01*
X107025000Y-139100000D01*
G75*
G02*
X107100000Y-139175000I0J-75000D01*
G01*
X107100000Y-139325000D01*
G75*
G02*
X107025000Y-139400000I-75000J0D01*
G01*
X105625000Y-139400000D01*
G75*
G02*
X105550000Y-139325000I0J75000D01*
G01*
G37*
G36*
G01*
X105550000Y-139825000D02*
X105550000Y-139675000D01*
G75*
G02*
X105625000Y-139600000I75000J0D01*
G01*
X107025000Y-139600000D01*
G75*
G02*
X107100000Y-139675000I0J-75000D01*
G01*
X107100000Y-139825000D01*
G75*
G02*
X107025000Y-139900000I-75000J0D01*
G01*
X105625000Y-139900000D01*
G75*
G02*
X105550000Y-139825000I0J75000D01*
G01*
G37*
G36*
G01*
X105550000Y-140325000D02*
X105550000Y-140175000D01*
G75*
G02*
X105625000Y-140100000I75000J0D01*
G01*
X107025000Y-140100000D01*
G75*
G02*
X107100000Y-140175000I0J-75000D01*
G01*
X107100000Y-140325000D01*
G75*
G02*
X107025000Y-140400000I-75000J0D01*
G01*
X105625000Y-140400000D01*
G75*
G02*
X105550000Y-140325000I0J75000D01*
G01*
G37*
G36*
G01*
X105550000Y-140825000D02*
X105550000Y-140675000D01*
G75*
G02*
X105625000Y-140600000I75000J0D01*
G01*
X107025000Y-140600000D01*
G75*
G02*
X107100000Y-140675000I0J-75000D01*
G01*
X107100000Y-140825000D01*
G75*
G02*
X107025000Y-140900000I-75000J0D01*
G01*
X105625000Y-140900000D01*
G75*
G02*
X105550000Y-140825000I0J75000D01*
G01*
G37*
G36*
G01*
X105550000Y-141325000D02*
X105550000Y-141175000D01*
G75*
G02*
X105625000Y-141100000I75000J0D01*
G01*
X107025000Y-141100000D01*
G75*
G02*
X107100000Y-141175000I0J-75000D01*
G01*
X107100000Y-141325000D01*
G75*
G02*
X107025000Y-141400000I-75000J0D01*
G01*
X105625000Y-141400000D01*
G75*
G02*
X105550000Y-141325000I0J75000D01*
G01*
G37*
G36*
G01*
X105550000Y-141825000D02*
X105550000Y-141675000D01*
G75*
G02*
X105625000Y-141600000I75000J0D01*
G01*
X107025000Y-141600000D01*
G75*
G02*
X107100000Y-141675000I0J-75000D01*
G01*
X107100000Y-141825000D01*
G75*
G02*
X107025000Y-141900000I-75000J0D01*
G01*
X105625000Y-141900000D01*
G75*
G02*
X105550000Y-141825000I0J75000D01*
G01*
G37*
G36*
G01*
X105550000Y-142325000D02*
X105550000Y-142175000D01*
G75*
G02*
X105625000Y-142100000I75000J0D01*
G01*
X107025000Y-142100000D01*
G75*
G02*
X107100000Y-142175000I0J-75000D01*
G01*
X107100000Y-142325000D01*
G75*
G02*
X107025000Y-142400000I-75000J0D01*
G01*
X105625000Y-142400000D01*
G75*
G02*
X105550000Y-142325000I0J75000D01*
G01*
G37*
G36*
G01*
X105550000Y-142825000D02*
X105550000Y-142675000D01*
G75*
G02*
X105625000Y-142600000I75000J0D01*
G01*
X107025000Y-142600000D01*
G75*
G02*
X107100000Y-142675000I0J-75000D01*
G01*
X107100000Y-142825000D01*
G75*
G02*
X107025000Y-142900000I-75000J0D01*
G01*
X105625000Y-142900000D01*
G75*
G02*
X105550000Y-142825000I0J75000D01*
G01*
G37*
G36*
G01*
X108100000Y-145375000D02*
X108100000Y-143975000D01*
G75*
G02*
X108175000Y-143900000I75000J0D01*
G01*
X108325000Y-143900000D01*
G75*
G02*
X108400000Y-143975000I0J-75000D01*
G01*
X108400000Y-145375000D01*
G75*
G02*
X108325000Y-145450000I-75000J0D01*
G01*
X108175000Y-145450000D01*
G75*
G02*
X108100000Y-145375000I0J75000D01*
G01*
G37*
G36*
G01*
X108600000Y-145375000D02*
X108600000Y-143975000D01*
G75*
G02*
X108675000Y-143900000I75000J0D01*
G01*
X108825000Y-143900000D01*
G75*
G02*
X108900000Y-143975000I0J-75000D01*
G01*
X108900000Y-145375000D01*
G75*
G02*
X108825000Y-145450000I-75000J0D01*
G01*
X108675000Y-145450000D01*
G75*
G02*
X108600000Y-145375000I0J75000D01*
G01*
G37*
G36*
G01*
X109100000Y-145375000D02*
X109100000Y-143975000D01*
G75*
G02*
X109175000Y-143900000I75000J0D01*
G01*
X109325000Y-143900000D01*
G75*
G02*
X109400000Y-143975000I0J-75000D01*
G01*
X109400000Y-145375000D01*
G75*
G02*
X109325000Y-145450000I-75000J0D01*
G01*
X109175000Y-145450000D01*
G75*
G02*
X109100000Y-145375000I0J75000D01*
G01*
G37*
G36*
G01*
X109600000Y-145375000D02*
X109600000Y-143975000D01*
G75*
G02*
X109675000Y-143900000I75000J0D01*
G01*
X109825000Y-143900000D01*
G75*
G02*
X109900000Y-143975000I0J-75000D01*
G01*
X109900000Y-145375000D01*
G75*
G02*
X109825000Y-145450000I-75000J0D01*
G01*
X109675000Y-145450000D01*
G75*
G02*
X109600000Y-145375000I0J75000D01*
G01*
G37*
G36*
G01*
X110100000Y-145375000D02*
X110100000Y-143975000D01*
G75*
G02*
X110175000Y-143900000I75000J0D01*
G01*
X110325000Y-143900000D01*
G75*
G02*
X110400000Y-143975000I0J-75000D01*
G01*
X110400000Y-145375000D01*
G75*
G02*
X110325000Y-145450000I-75000J0D01*
G01*
X110175000Y-145450000D01*
G75*
G02*
X110100000Y-145375000I0J75000D01*
G01*
G37*
G36*
G01*
X110600000Y-145375000D02*
X110600000Y-143975000D01*
G75*
G02*
X110675000Y-143900000I75000J0D01*
G01*
X110825000Y-143900000D01*
G75*
G02*
X110900000Y-143975000I0J-75000D01*
G01*
X110900000Y-145375000D01*
G75*
G02*
X110825000Y-145450000I-75000J0D01*
G01*
X110675000Y-145450000D01*
G75*
G02*
X110600000Y-145375000I0J75000D01*
G01*
G37*
G36*
G01*
X111100000Y-145375000D02*
X111100000Y-143975000D01*
G75*
G02*
X111175000Y-143900000I75000J0D01*
G01*
X111325000Y-143900000D01*
G75*
G02*
X111400000Y-143975000I0J-75000D01*
G01*
X111400000Y-145375000D01*
G75*
G02*
X111325000Y-145450000I-75000J0D01*
G01*
X111175000Y-145450000D01*
G75*
G02*
X111100000Y-145375000I0J75000D01*
G01*
G37*
G36*
G01*
X111600000Y-145375000D02*
X111600000Y-143975000D01*
G75*
G02*
X111675000Y-143900000I75000J0D01*
G01*
X111825000Y-143900000D01*
G75*
G02*
X111900000Y-143975000I0J-75000D01*
G01*
X111900000Y-145375000D01*
G75*
G02*
X111825000Y-145450000I-75000J0D01*
G01*
X111675000Y-145450000D01*
G75*
G02*
X111600000Y-145375000I0J75000D01*
G01*
G37*
G36*
G01*
X112100000Y-145375000D02*
X112100000Y-143975000D01*
G75*
G02*
X112175000Y-143900000I75000J0D01*
G01*
X112325000Y-143900000D01*
G75*
G02*
X112400000Y-143975000I0J-75000D01*
G01*
X112400000Y-145375000D01*
G75*
G02*
X112325000Y-145450000I-75000J0D01*
G01*
X112175000Y-145450000D01*
G75*
G02*
X112100000Y-145375000I0J75000D01*
G01*
G37*
G36*
G01*
X112600000Y-145375000D02*
X112600000Y-143975000D01*
G75*
G02*
X112675000Y-143900000I75000J0D01*
G01*
X112825000Y-143900000D01*
G75*
G02*
X112900000Y-143975000I0J-75000D01*
G01*
X112900000Y-145375000D01*
G75*
G02*
X112825000Y-145450000I-75000J0D01*
G01*
X112675000Y-145450000D01*
G75*
G02*
X112600000Y-145375000I0J75000D01*
G01*
G37*
G36*
G01*
X113100000Y-145375000D02*
X113100000Y-143975000D01*
G75*
G02*
X113175000Y-143900000I75000J0D01*
G01*
X113325000Y-143900000D01*
G75*
G02*
X113400000Y-143975000I0J-75000D01*
G01*
X113400000Y-145375000D01*
G75*
G02*
X113325000Y-145450000I-75000J0D01*
G01*
X113175000Y-145450000D01*
G75*
G02*
X113100000Y-145375000I0J75000D01*
G01*
G37*
G36*
G01*
X113600000Y-145375000D02*
X113600000Y-143975000D01*
G75*
G02*
X113675000Y-143900000I75000J0D01*
G01*
X113825000Y-143900000D01*
G75*
G02*
X113900000Y-143975000I0J-75000D01*
G01*
X113900000Y-145375000D01*
G75*
G02*
X113825000Y-145450000I-75000J0D01*
G01*
X113675000Y-145450000D01*
G75*
G02*
X113600000Y-145375000I0J75000D01*
G01*
G37*
G36*
G01*
X114100000Y-145375000D02*
X114100000Y-143975000D01*
G75*
G02*
X114175000Y-143900000I75000J0D01*
G01*
X114325000Y-143900000D01*
G75*
G02*
X114400000Y-143975000I0J-75000D01*
G01*
X114400000Y-145375000D01*
G75*
G02*
X114325000Y-145450000I-75000J0D01*
G01*
X114175000Y-145450000D01*
G75*
G02*
X114100000Y-145375000I0J75000D01*
G01*
G37*
G36*
G01*
X114600000Y-145375000D02*
X114600000Y-143975000D01*
G75*
G02*
X114675000Y-143900000I75000J0D01*
G01*
X114825000Y-143900000D01*
G75*
G02*
X114900000Y-143975000I0J-75000D01*
G01*
X114900000Y-145375000D01*
G75*
G02*
X114825000Y-145450000I-75000J0D01*
G01*
X114675000Y-145450000D01*
G75*
G02*
X114600000Y-145375000I0J75000D01*
G01*
G37*
G36*
G01*
X115100000Y-145375000D02*
X115100000Y-143975000D01*
G75*
G02*
X115175000Y-143900000I75000J0D01*
G01*
X115325000Y-143900000D01*
G75*
G02*
X115400000Y-143975000I0J-75000D01*
G01*
X115400000Y-145375000D01*
G75*
G02*
X115325000Y-145450000I-75000J0D01*
G01*
X115175000Y-145450000D01*
G75*
G02*
X115100000Y-145375000I0J75000D01*
G01*
G37*
G36*
G01*
X115600000Y-145375000D02*
X115600000Y-143975000D01*
G75*
G02*
X115675000Y-143900000I75000J0D01*
G01*
X115825000Y-143900000D01*
G75*
G02*
X115900000Y-143975000I0J-75000D01*
G01*
X115900000Y-145375000D01*
G75*
G02*
X115825000Y-145450000I-75000J0D01*
G01*
X115675000Y-145450000D01*
G75*
G02*
X115600000Y-145375000I0J75000D01*
G01*
G37*
G36*
G01*
X116900000Y-142825000D02*
X116900000Y-142675000D01*
G75*
G02*
X116975000Y-142600000I75000J0D01*
G01*
X118375000Y-142600000D01*
G75*
G02*
X118450000Y-142675000I0J-75000D01*
G01*
X118450000Y-142825000D01*
G75*
G02*
X118375000Y-142900000I-75000J0D01*
G01*
X116975000Y-142900000D01*
G75*
G02*
X116900000Y-142825000I0J75000D01*
G01*
G37*
G36*
G01*
X116900000Y-142325000D02*
X116900000Y-142175000D01*
G75*
G02*
X116975000Y-142100000I75000J0D01*
G01*
X118375000Y-142100000D01*
G75*
G02*
X118450000Y-142175000I0J-75000D01*
G01*
X118450000Y-142325000D01*
G75*
G02*
X118375000Y-142400000I-75000J0D01*
G01*
X116975000Y-142400000D01*
G75*
G02*
X116900000Y-142325000I0J75000D01*
G01*
G37*
G36*
G01*
X116900000Y-141825000D02*
X116900000Y-141675000D01*
G75*
G02*
X116975000Y-141600000I75000J0D01*
G01*
X118375000Y-141600000D01*
G75*
G02*
X118450000Y-141675000I0J-75000D01*
G01*
X118450000Y-141825000D01*
G75*
G02*
X118375000Y-141900000I-75000J0D01*
G01*
X116975000Y-141900000D01*
G75*
G02*
X116900000Y-141825000I0J75000D01*
G01*
G37*
G36*
G01*
X116900000Y-141325000D02*
X116900000Y-141175000D01*
G75*
G02*
X116975000Y-141100000I75000J0D01*
G01*
X118375000Y-141100000D01*
G75*
G02*
X118450000Y-141175000I0J-75000D01*
G01*
X118450000Y-141325000D01*
G75*
G02*
X118375000Y-141400000I-75000J0D01*
G01*
X116975000Y-141400000D01*
G75*
G02*
X116900000Y-141325000I0J75000D01*
G01*
G37*
G36*
G01*
X116900000Y-140825000D02*
X116900000Y-140675000D01*
G75*
G02*
X116975000Y-140600000I75000J0D01*
G01*
X118375000Y-140600000D01*
G75*
G02*
X118450000Y-140675000I0J-75000D01*
G01*
X118450000Y-140825000D01*
G75*
G02*
X118375000Y-140900000I-75000J0D01*
G01*
X116975000Y-140900000D01*
G75*
G02*
X116900000Y-140825000I0J75000D01*
G01*
G37*
G36*
G01*
X116900000Y-140325000D02*
X116900000Y-140175000D01*
G75*
G02*
X116975000Y-140100000I75000J0D01*
G01*
X118375000Y-140100000D01*
G75*
G02*
X118450000Y-140175000I0J-75000D01*
G01*
X118450000Y-140325000D01*
G75*
G02*
X118375000Y-140400000I-75000J0D01*
G01*
X116975000Y-140400000D01*
G75*
G02*
X116900000Y-140325000I0J75000D01*
G01*
G37*
G36*
G01*
X116900000Y-139825000D02*
X116900000Y-139675000D01*
G75*
G02*
X116975000Y-139600000I75000J0D01*
G01*
X118375000Y-139600000D01*
G75*
G02*
X118450000Y-139675000I0J-75000D01*
G01*
X118450000Y-139825000D01*
G75*
G02*
X118375000Y-139900000I-75000J0D01*
G01*
X116975000Y-139900000D01*
G75*
G02*
X116900000Y-139825000I0J75000D01*
G01*
G37*
G36*
G01*
X116900000Y-139325000D02*
X116900000Y-139175000D01*
G75*
G02*
X116975000Y-139100000I75000J0D01*
G01*
X118375000Y-139100000D01*
G75*
G02*
X118450000Y-139175000I0J-75000D01*
G01*
X118450000Y-139325000D01*
G75*
G02*
X118375000Y-139400000I-75000J0D01*
G01*
X116975000Y-139400000D01*
G75*
G02*
X116900000Y-139325000I0J75000D01*
G01*
G37*
G36*
G01*
X116900000Y-138825000D02*
X116900000Y-138675000D01*
G75*
G02*
X116975000Y-138600000I75000J0D01*
G01*
X118375000Y-138600000D01*
G75*
G02*
X118450000Y-138675000I0J-75000D01*
G01*
X118450000Y-138825000D01*
G75*
G02*
X118375000Y-138900000I-75000J0D01*
G01*
X116975000Y-138900000D01*
G75*
G02*
X116900000Y-138825000I0J75000D01*
G01*
G37*
G36*
G01*
X116900000Y-138325000D02*
X116900000Y-138175000D01*
G75*
G02*
X116975000Y-138100000I75000J0D01*
G01*
X118375000Y-138100000D01*
G75*
G02*
X118450000Y-138175000I0J-75000D01*
G01*
X118450000Y-138325000D01*
G75*
G02*
X118375000Y-138400000I-75000J0D01*
G01*
X116975000Y-138400000D01*
G75*
G02*
X116900000Y-138325000I0J75000D01*
G01*
G37*
G36*
G01*
X116900000Y-137825000D02*
X116900000Y-137675000D01*
G75*
G02*
X116975000Y-137600000I75000J0D01*
G01*
X118375000Y-137600000D01*
G75*
G02*
X118450000Y-137675000I0J-75000D01*
G01*
X118450000Y-137825000D01*
G75*
G02*
X118375000Y-137900000I-75000J0D01*
G01*
X116975000Y-137900000D01*
G75*
G02*
X116900000Y-137825000I0J75000D01*
G01*
G37*
G36*
G01*
X116900000Y-137325000D02*
X116900000Y-137175000D01*
G75*
G02*
X116975000Y-137100000I75000J0D01*
G01*
X118375000Y-137100000D01*
G75*
G02*
X118450000Y-137175000I0J-75000D01*
G01*
X118450000Y-137325000D01*
G75*
G02*
X118375000Y-137400000I-75000J0D01*
G01*
X116975000Y-137400000D01*
G75*
G02*
X116900000Y-137325000I0J75000D01*
G01*
G37*
G36*
G01*
X116900000Y-136825000D02*
X116900000Y-136675000D01*
G75*
G02*
X116975000Y-136600000I75000J0D01*
G01*
X118375000Y-136600000D01*
G75*
G02*
X118450000Y-136675000I0J-75000D01*
G01*
X118450000Y-136825000D01*
G75*
G02*
X118375000Y-136900000I-75000J0D01*
G01*
X116975000Y-136900000D01*
G75*
G02*
X116900000Y-136825000I0J75000D01*
G01*
G37*
G36*
G01*
X116900000Y-136325000D02*
X116900000Y-136175000D01*
G75*
G02*
X116975000Y-136100000I75000J0D01*
G01*
X118375000Y-136100000D01*
G75*
G02*
X118450000Y-136175000I0J-75000D01*
G01*
X118450000Y-136325000D01*
G75*
G02*
X118375000Y-136400000I-75000J0D01*
G01*
X116975000Y-136400000D01*
G75*
G02*
X116900000Y-136325000I0J75000D01*
G01*
G37*
G36*
G01*
X116900000Y-135825000D02*
X116900000Y-135675000D01*
G75*
G02*
X116975000Y-135600000I75000J0D01*
G01*
X118375000Y-135600000D01*
G75*
G02*
X118450000Y-135675000I0J-75000D01*
G01*
X118450000Y-135825000D01*
G75*
G02*
X118375000Y-135900000I-75000J0D01*
G01*
X116975000Y-135900000D01*
G75*
G02*
X116900000Y-135825000I0J75000D01*
G01*
G37*
G36*
G01*
X116900000Y-135325000D02*
X116900000Y-135175000D01*
G75*
G02*
X116975000Y-135100000I75000J0D01*
G01*
X118375000Y-135100000D01*
G75*
G02*
X118450000Y-135175000I0J-75000D01*
G01*
X118450000Y-135325000D01*
G75*
G02*
X118375000Y-135400000I-75000J0D01*
G01*
X116975000Y-135400000D01*
G75*
G02*
X116900000Y-135325000I0J75000D01*
G01*
G37*
G36*
G01*
X115600000Y-134025000D02*
X115600000Y-132625000D01*
G75*
G02*
X115675000Y-132550000I75000J0D01*
G01*
X115825000Y-132550000D01*
G75*
G02*
X115900000Y-132625000I0J-75000D01*
G01*
X115900000Y-134025000D01*
G75*
G02*
X115825000Y-134100000I-75000J0D01*
G01*
X115675000Y-134100000D01*
G75*
G02*
X115600000Y-134025000I0J75000D01*
G01*
G37*
G36*
G01*
X115100000Y-134025000D02*
X115100000Y-132625000D01*
G75*
G02*
X115175000Y-132550000I75000J0D01*
G01*
X115325000Y-132550000D01*
G75*
G02*
X115400000Y-132625000I0J-75000D01*
G01*
X115400000Y-134025000D01*
G75*
G02*
X115325000Y-134100000I-75000J0D01*
G01*
X115175000Y-134100000D01*
G75*
G02*
X115100000Y-134025000I0J75000D01*
G01*
G37*
G36*
G01*
X114600000Y-134025000D02*
X114600000Y-132625000D01*
G75*
G02*
X114675000Y-132550000I75000J0D01*
G01*
X114825000Y-132550000D01*
G75*
G02*
X114900000Y-132625000I0J-75000D01*
G01*
X114900000Y-134025000D01*
G75*
G02*
X114825000Y-134100000I-75000J0D01*
G01*
X114675000Y-134100000D01*
G75*
G02*
X114600000Y-134025000I0J75000D01*
G01*
G37*
G36*
G01*
X114100000Y-134025000D02*
X114100000Y-132625000D01*
G75*
G02*
X114175000Y-132550000I75000J0D01*
G01*
X114325000Y-132550000D01*
G75*
G02*
X114400000Y-132625000I0J-75000D01*
G01*
X114400000Y-134025000D01*
G75*
G02*
X114325000Y-134100000I-75000J0D01*
G01*
X114175000Y-134100000D01*
G75*
G02*
X114100000Y-134025000I0J75000D01*
G01*
G37*
G36*
G01*
X113600000Y-134025000D02*
X113600000Y-132625000D01*
G75*
G02*
X113675000Y-132550000I75000J0D01*
G01*
X113825000Y-132550000D01*
G75*
G02*
X113900000Y-132625000I0J-75000D01*
G01*
X113900000Y-134025000D01*
G75*
G02*
X113825000Y-134100000I-75000J0D01*
G01*
X113675000Y-134100000D01*
G75*
G02*
X113600000Y-134025000I0J75000D01*
G01*
G37*
G36*
G01*
X113100000Y-134025000D02*
X113100000Y-132625000D01*
G75*
G02*
X113175000Y-132550000I75000J0D01*
G01*
X113325000Y-132550000D01*
G75*
G02*
X113400000Y-132625000I0J-75000D01*
G01*
X113400000Y-134025000D01*
G75*
G02*
X113325000Y-134100000I-75000J0D01*
G01*
X113175000Y-134100000D01*
G75*
G02*
X113100000Y-134025000I0J75000D01*
G01*
G37*
G36*
G01*
X112600000Y-134025000D02*
X112600000Y-132625000D01*
G75*
G02*
X112675000Y-132550000I75000J0D01*
G01*
X112825000Y-132550000D01*
G75*
G02*
X112900000Y-132625000I0J-75000D01*
G01*
X112900000Y-134025000D01*
G75*
G02*
X112825000Y-134100000I-75000J0D01*
G01*
X112675000Y-134100000D01*
G75*
G02*
X112600000Y-134025000I0J75000D01*
G01*
G37*
G36*
G01*
X112100000Y-134025000D02*
X112100000Y-132625000D01*
G75*
G02*
X112175000Y-132550000I75000J0D01*
G01*
X112325000Y-132550000D01*
G75*
G02*
X112400000Y-132625000I0J-75000D01*
G01*
X112400000Y-134025000D01*
G75*
G02*
X112325000Y-134100000I-75000J0D01*
G01*
X112175000Y-134100000D01*
G75*
G02*
X112100000Y-134025000I0J75000D01*
G01*
G37*
G36*
G01*
X111600000Y-134025000D02*
X111600000Y-132625000D01*
G75*
G02*
X111675000Y-132550000I75000J0D01*
G01*
X111825000Y-132550000D01*
G75*
G02*
X111900000Y-132625000I0J-75000D01*
G01*
X111900000Y-134025000D01*
G75*
G02*
X111825000Y-134100000I-75000J0D01*
G01*
X111675000Y-134100000D01*
G75*
G02*
X111600000Y-134025000I0J75000D01*
G01*
G37*
G36*
G01*
X111100000Y-134025000D02*
X111100000Y-132625000D01*
G75*
G02*
X111175000Y-132550000I75000J0D01*
G01*
X111325000Y-132550000D01*
G75*
G02*
X111400000Y-132625000I0J-75000D01*
G01*
X111400000Y-134025000D01*
G75*
G02*
X111325000Y-134100000I-75000J0D01*
G01*
X111175000Y-134100000D01*
G75*
G02*
X111100000Y-134025000I0J75000D01*
G01*
G37*
G36*
G01*
X110600000Y-134025000D02*
X110600000Y-132625000D01*
G75*
G02*
X110675000Y-132550000I75000J0D01*
G01*
X110825000Y-132550000D01*
G75*
G02*
X110900000Y-132625000I0J-75000D01*
G01*
X110900000Y-134025000D01*
G75*
G02*
X110825000Y-134100000I-75000J0D01*
G01*
X110675000Y-134100000D01*
G75*
G02*
X110600000Y-134025000I0J75000D01*
G01*
G37*
G36*
G01*
X110100000Y-134025000D02*
X110100000Y-132625000D01*
G75*
G02*
X110175000Y-132550000I75000J0D01*
G01*
X110325000Y-132550000D01*
G75*
G02*
X110400000Y-132625000I0J-75000D01*
G01*
X110400000Y-134025000D01*
G75*
G02*
X110325000Y-134100000I-75000J0D01*
G01*
X110175000Y-134100000D01*
G75*
G02*
X110100000Y-134025000I0J75000D01*
G01*
G37*
G36*
G01*
X109600000Y-134025000D02*
X109600000Y-132625000D01*
G75*
G02*
X109675000Y-132550000I75000J0D01*
G01*
X109825000Y-132550000D01*
G75*
G02*
X109900000Y-132625000I0J-75000D01*
G01*
X109900000Y-134025000D01*
G75*
G02*
X109825000Y-134100000I-75000J0D01*
G01*
X109675000Y-134100000D01*
G75*
G02*
X109600000Y-134025000I0J75000D01*
G01*
G37*
G36*
G01*
X109100000Y-134025000D02*
X109100000Y-132625000D01*
G75*
G02*
X109175000Y-132550000I75000J0D01*
G01*
X109325000Y-132550000D01*
G75*
G02*
X109400000Y-132625000I0J-75000D01*
G01*
X109400000Y-134025000D01*
G75*
G02*
X109325000Y-134100000I-75000J0D01*
G01*
X109175000Y-134100000D01*
G75*
G02*
X109100000Y-134025000I0J75000D01*
G01*
G37*
G36*
G01*
X108600000Y-134025000D02*
X108600000Y-132625000D01*
G75*
G02*
X108675000Y-132550000I75000J0D01*
G01*
X108825000Y-132550000D01*
G75*
G02*
X108900000Y-132625000I0J-75000D01*
G01*
X108900000Y-134025000D01*
G75*
G02*
X108825000Y-134100000I-75000J0D01*
G01*
X108675000Y-134100000D01*
G75*
G02*
X108600000Y-134025000I0J75000D01*
G01*
G37*
G36*
G01*
X108100000Y-134025000D02*
X108100000Y-132625000D01*
G75*
G02*
X108175000Y-132550000I75000J0D01*
G01*
X108325000Y-132550000D01*
G75*
G02*
X108400000Y-132625000I0J-75000D01*
G01*
X108400000Y-134025000D01*
G75*
G02*
X108325000Y-134100000I-75000J0D01*
G01*
X108175000Y-134100000D01*
G75*
G02*
X108100000Y-134025000I0J75000D01*
G01*
G37*
%TD*%
D22*
%TO.C,Y1*%
X100150000Y-136150000D03*
X100150000Y-138350000D03*
X101850000Y-138350000D03*
X101850000Y-136150000D03*
%TD*%
M02*
