%TF.GenerationSoftware,KiCad,Pcbnew,(5.1.10)-1*%
%TF.CreationDate,2021-07-10T11:27:40-07:00*%
%TF.ProjectId,willios_v2,77696c6c-696f-4735-9f76-322e6b696361,rev?*%
%TF.SameCoordinates,Original*%
%TF.FileFunction,Legend,Bot*%
%TF.FilePolarity,Positive*%
%FSLAX46Y46*%
G04 Gerber Fmt 4.6, Leading zero omitted, Abs format (unit mm)*
G04 Created by KiCad (PCBNEW (5.1.10)-1) date 2021-07-10 11:27:40*
%MOMM*%
%LPD*%
G01*
G04 APERTURE LIST*
%ADD10C,0.150000*%
G04 APERTURE END LIST*
D10*
X98426190Y-156535714D02*
X98235714Y-157202380D01*
X98045238Y-156726190D01*
X97854761Y-157202380D01*
X97664285Y-156535714D01*
X97283333Y-157202380D02*
X97283333Y-156535714D01*
X97283333Y-156202380D02*
X97330952Y-156250000D01*
X97283333Y-156297619D01*
X97235714Y-156250000D01*
X97283333Y-156202380D01*
X97283333Y-156297619D01*
X96664285Y-157202380D02*
X96759523Y-157154761D01*
X96807142Y-157059523D01*
X96807142Y-156202380D01*
X96140476Y-157202380D02*
X96235714Y-157154761D01*
X96283333Y-157059523D01*
X96283333Y-156202380D01*
X95759523Y-157202380D02*
X95759523Y-156535714D01*
X95759523Y-156202380D02*
X95807142Y-156250000D01*
X95759523Y-156297619D01*
X95711904Y-156250000D01*
X95759523Y-156202380D01*
X95759523Y-156297619D01*
X95140476Y-157202380D02*
X95235714Y-157154761D01*
X95283333Y-157107142D01*
X95330952Y-157011904D01*
X95330952Y-156726190D01*
X95283333Y-156630952D01*
X95235714Y-156583333D01*
X95140476Y-156535714D01*
X94997619Y-156535714D01*
X94902380Y-156583333D01*
X94854761Y-156630952D01*
X94807142Y-156726190D01*
X94807142Y-157011904D01*
X94854761Y-157107142D01*
X94902380Y-157154761D01*
X94997619Y-157202380D01*
X95140476Y-157202380D01*
X94426190Y-157154761D02*
X94330952Y-157202380D01*
X94140476Y-157202380D01*
X94045238Y-157154761D01*
X93997619Y-157059523D01*
X93997619Y-157011904D01*
X94045238Y-156916666D01*
X94140476Y-156869047D01*
X94283333Y-156869047D01*
X94378571Y-156821428D01*
X94426190Y-156726190D01*
X94426190Y-156678571D01*
X94378571Y-156583333D01*
X94283333Y-156535714D01*
X94140476Y-156535714D01*
X94045238Y-156583333D01*
X92902380Y-156535714D02*
X92664285Y-157202380D01*
X92426190Y-156535714D01*
X92092857Y-156297619D02*
X92045238Y-156250000D01*
X91950000Y-156202380D01*
X91711904Y-156202380D01*
X91616666Y-156250000D01*
X91569047Y-156297619D01*
X91521428Y-156392857D01*
X91521428Y-156488095D01*
X91569047Y-156630952D01*
X92140476Y-157202380D01*
X91521428Y-157202380D01*
M02*
